<?xml version="1.0" encoding="UTF-8"?>
<svg xmlns="http://www.w3.org/2000/svg" xmlns:xlink="http://www.w3.org/1999/xlink" viewBox="0 0 1920 1080">
  <defs>
    <style>
      .cls-1 {
        opacity: .4;
      }

      .cls-1, .cls-2, .cls-3, .cls-4, .cls-5, .cls-6, .cls-7 {
        stroke-width: 0px;
      }

      .cls-1, .cls-7 {
        fill: #000;
      }

      .cls-2 {
        fill: #1b1464;
      }

      .cls-3 {
        fill: url(#radial-gradient);
      }

      .cls-4 {
        opacity: .07;
      }

      .cls-4, .cls-5 {
        fill: #fff;
      }

      .cls-5 {
        opacity: .05;
      }

      .cls-6 {
        fill: url(#radial-gradient-2);
      }

      .cls-7 {
        opacity: .25;
      }
    </style>
    <radialGradient id="radial-gradient" cx="960" cy="540" fx="960" fy="540" r="1556.08" gradientTransform="translate(0 214.35) scale(1 .6)" gradientUnits="userSpaceOnUse">
      <stop offset="0" stop-color="#1b1464" stop-opacity="0"/>
      <stop offset="1" stop-color="#000"/>
    </radialGradient>
    <radialGradient id="radial-gradient-2" gradientTransform="translate(0 647.18) scale(1 .3)" xlink:href="#radial-gradient"/>
  </defs>
  <g id="base">
    <rect class="cls-2" width="1920" height="1080"/>
    <rect class="cls-3" width="1920" height="1080"/>
    <rect class="cls-6" y="540" width="1920" height="540"/>
  </g>
  <g id="montains">
    <polygon class="cls-7" points="192.51 540 457.88 380 905 540 192.51 540"/>
    <polygon class="cls-7" points="1920 540 1727.61 424 1403.44 540 1920 540"/>
    <polygon class="cls-1" points="523.13 540 208 350 21.27 540 523.13 540"/>
  </g>
  <g id="clouds">
    <path class="cls-5" d="M554.37,240.36c0,1.24-.09,2.45-.26,3.64h-119.48c1.58-10.69,10.8-18.9,21.93-18.9,2.71,0,5.31.49,7.72,1.38,3.21-11.9,14.07-20.66,26.99-20.66,10.03,0,18.82,5.29,23.75,13.22,4-2.61,8.77-4.13,13.9-4.13,14.06,0,25.45,11.39,25.45,25.45Z"/>
    <path class="cls-4" d="M210.35,244.86c0,1.75-.12,3.46-.37,5.14H41.24c2.23-15.1,15.25-26.69,30.98-26.69,3.83,0,7.5.69,10.9,1.95,4.53-16.8,19.87-29.18,38.11-29.18,14.17,0,26.59,7.47,33.55,18.67,5.65-3.68,12.38-5.83,19.63-5.83,19.85,0,35.95,16.09,35.95,35.95Z"/>
    <path class="cls-4" d="M446.15,259.35c0,2.94-.21,5.83-.62,8.65H161.11c3.76-25.45,25.71-44.98,52.21-44.98,6.46,0,12.65,1.17,18.37,3.29,7.64-28.32,33.49-49.18,64.24-49.18,23.88,0,44.81,12.58,56.55,31.47,9.52-6.21,20.87-9.83,33.08-9.83,33.46,0,60.58,27.12,60.58,60.58Z"/>
    <path class="cls-5" d="M1869.37,266.8c0,1.72-.12,3.41-.36,5.07h-166.51c2.2-14.9,15.05-26.34,30.57-26.34,3.78,0,7.4.68,10.75,1.93,4.47-16.58,19.61-28.79,37.61-28.79,13.98,0,26.23,7.37,33.11,18.42,5.57-3.64,12.22-5.76,19.37-5.76,19.59,0,35.47,15.88,35.47,35.47Z"/>
    <path class="cls-4" d="M1746.7,273.07c0,2.43-.17,4.82-.51,7.16h-235.19c3.11-21.04,21.26-37.2,43.17-37.2,5.34,0,10.46.97,15.19,2.72,6.32-23.42,27.7-40.67,53.12-40.67,19.74,0,37.05,10.4,46.76,26.02,7.87-5.14,17.26-8.13,27.36-8.13,27.67,0,50.1,22.43,50.1,50.1Z"/>
  </g>
</svg>