<?xml version="1.0" encoding="UTF-8"?>
<svg xmlns="http://www.w3.org/2000/svg" xmlns:xlink="http://www.w3.org/1999/xlink" viewBox="0 0 1179 2556">
  <defs>
    <style>
      .cls-1 {
        opacity: .4;
      }

      .cls-1, .cls-2, .cls-3, .cls-4, .cls-5, .cls-6, .cls-7 {
        stroke-width: 0px;
      }

      .cls-1, .cls-7 {
        fill: #000;
      }

      .cls-2 {
        fill: #1b1464;
      }

      .cls-3 {
        fill: url(#radial-gradient);
      }

      .cls-4 {
        opacity: .07;
      }

      .cls-4, .cls-5 {
        fill: #fff;
      }

      .cls-5 {
        opacity: .05;
      }

      .cls-6 {
        fill: url(#radial-gradient-2);
      }

      .cls-7 {
        opacity: .25;
      }
    </style>
    <radialGradient id="radial-gradient" cx="1238.51" cy="-157.18" fx="1238.51" fy="-157.18" r="1751.84" gradientTransform="translate(497.37 -186.52) rotate(90) scale(1.18 .58)" gradientUnits="userSpaceOnUse">
      <stop offset="0" stop-color="#1b1464" stop-opacity="0"/>
      <stop offset="1" stop-color="#000"/>
    </radialGradient>
    <radialGradient id="radial-gradient-2" cx="916.62" fx="916.62" r="1751.84" gradientTransform="translate(497.37 1180.35) rotate(90) scale(.69 .58)" xlink:href="#radial-gradient"/>
  </defs>
  <g id="base">
    <rect class="cls-2" width="1178.5" height="2556"/>
    <rect class="cls-3" x="0" y="0" width="1178.5" height="2556"/>
    <rect class="cls-6" x="0" y="1067.3" width="1178.5" height="1488.7"/>
  </g>
  <g id="montains">
    <polygon class="cls-7" points="186.16 1067 385.41 946.86 721.15 1067 186.16 1067"/>
    <polygon class="cls-7" points="1149.74 1067 1005.26 979.89 761.82 1067 1149.74 1067"/>
    <polygon class="cls-1" points="502.85 1067 201 885 22.12 1067 502.85 1067"/>
  </g>
  <g id="clouds">
    <path class="cls-5" d="M502.5,785.83c0,2.07-.14,4.11-.43,6.1h-200.5c2.65-17.94,18.12-31.71,36.8-31.71,4.55,0,8.92.82,12.95,2.32,5.38-19.97,23.61-34.67,45.28-34.67,16.83,0,31.59,8.87,39.86,22.18,6.71-4.38,14.71-6.93,23.32-6.93,23.59,0,42.71,19.12,42.71,42.71Z"/>
    <path class="cls-4" d="M354.79,793.38c0,2.93-.2,5.81-.61,8.62H70.99c3.75-25.33,25.59-44.79,51.98-44.79,6.43,0,12.59,1.16,18.29,3.27,7.6-28.2,33.35-48.97,63.96-48.97,23.77,0,44.62,12.53,56.3,31.33,9.48-6.18,20.78-9.79,32.94-9.79,33.32,0,60.32,27,60.32,60.32Z"/>
  </g>
</svg>