<?xml version="1.0" encoding="UTF-8"?>
<svg xmlns="http://www.w3.org/2000/svg" xmlns:xlink="http://www.w3.org/1999/xlink" viewBox="0 0 1000 1000">
  <defs>
    <style>
      .cls-1 {
        opacity: .4;
      }

      .cls-1, .cls-2, .cls-3, .cls-4, .cls-5, .cls-6 {
        stroke-width: 0px;
      }

      .cls-1, .cls-6 {
        fill: #000;
      }

      .cls-2 {
        fill: #1b1464;
      }

      .cls-3 {
        fill: url(#radial-gradient);
      }

      .cls-4 {
        opacity: .07;
      }

      .cls-4, .cls-5 {
        fill: #fff;
      }

      .cls-5 {
        opacity: .05;
      }

      .cls-6 {
        opacity: .25;
      }
    </style>
    <radialGradient id="radial-gradient" cx="-1365.21" cy="2304.36" fx="-1365.21" fy="2304.36" r="1556.08" gradientTransform="translate(1211.05 106.64) scale(.52 .28)" gradientUnits="userSpaceOnUse">
      <stop offset="0" stop-color="#1b1464" stop-opacity="0"/>
      <stop offset="1" stop-color="#000"/>
    </radialGradient>
  </defs>
  <g id="base">
    <rect class="cls-2" width="1000" height="1000"/>
    <rect class="cls-3" y="500" width="1000" height="500"/>
  </g>
  <g id="montains">
    <polygon class="cls-6" points="140.59 500 296.05 406.26 558 500 140.59 500"/>
    <polygon class="cls-6" points="976.66 500 863.94 432.03 674 500 976.66 500"/>
    <polygon class="cls-1" points="387.68 500 152.17 358 12.61 500 387.68 500"/>
  </g>
  <g id="clouds">
    <path class="cls-5" d="M455.07,295.71c0,.94-.07,1.86-.2,2.75h-90.52c1.2-8.1,8.18-14.32,16.62-14.32,2.06,0,4.03.37,5.85,1.05,2.43-9.01,10.66-15.65,20.45-15.65,7.6,0,14.26,4,18,10.02,3.03-1.98,6.64-3.13,10.53-3.13,10.65,0,19.28,8.63,19.28,19.28Z"/>
    <path class="cls-4" d="M194.42,299.12c0,1.32-.09,2.62-.28,3.89h-127.86c1.69-11.44,11.56-20.22,23.47-20.22,2.9,0,5.69.53,8.26,1.48,3.43-12.73,15.06-22.11,28.88-22.11,10.73,0,20.14,5.66,25.42,14.15,4.28-2.79,9.38-4.42,14.87-4.42,15.04,0,27.23,12.19,27.23,27.23Z"/>
    <path class="cls-4" d="M373.08,310.09c0,2.23-.16,4.42-.47,6.56h-215.5c2.85-19.28,19.48-34.08,39.56-34.08,4.89,0,9.58.89,13.92,2.49,5.79-21.46,25.38-37.26,48.67-37.26,18.09,0,33.95,9.53,42.85,23.84,7.21-4.71,15.81-7.45,25.07-7.45,25.35,0,45.9,20.55,45.9,45.9Z"/>
    <path class="cls-5" d="M976.4,302.74c0,1.31-.09,2.59-.27,3.84h-126.16c1.67-11.29,11.4-19.95,23.16-19.95,2.86,0,5.61.52,8.15,1.46,3.39-12.56,14.86-21.82,28.5-21.82,10.59,0,19.88,5.58,25.08,13.96,4.22-2.75,9.26-4.36,14.67-4.36,14.84,0,26.87,12.03,26.87,26.87Z"/>
  </g>
</svg>