<?xml version="1.0" encoding="UTF-8"?>
<svg id="Layer_2" data-name="Layer 2" xmlns="http://www.w3.org/2000/svg" xmlns:xlink="http://www.w3.org/1999/xlink" viewBox="0 0 200 200">
  <defs>
    <style>
      .cls-1 {
        fill: #0fa;
      }

      .cls-1, .cls-2 {
        stroke-width: 0px;
      }

      .cls-2 {
        fill: url(#linear-gradient);
      }

      .cls-3 {
        fill: none;
        stroke: #0fa;
        stroke-linecap: round;
        stroke-miterlimit: 10;
        stroke-width: .75px;
      }
    </style>
    <linearGradient id="linear-gradient" x1="100" y1="5082" x2="100" y2="5282" gradientTransform="translate(0 5282) scale(1 -1)" gradientUnits="userSpaceOnUse">
      <stop offset="0" stop-color="#38ad5a"/>
      <stop offset=".26" stop-color="#47a065"/>
      <stop offset="1" stop-color="#47be88"/>
    </linearGradient>
  </defs>
  <g id="Layer_1-2" data-name="Layer 1">
    <g id="Layer_1-2" data-name="Layer 1-2">
      <circle class="cls-2" cx="100" cy="100" r="100"/>
      <circle class="cls-3" cx="100" cy="100" r="90.23"/>
      <circle class="cls-3" cx="100" cy="100" r="93.98"/>
      <path class="cls-1" d="M149.18,142.32l-3.4,3.61-3.19,3.81-3.61,3.41-1.61,1.29-2.82,2.15-2.67.29-1.88-.56-2.95-1.97-4.22-3.17-4.69-4.81-2.99-3.21-4.49-5.02-4.25-3.99-2.52-1.57-2.09-.76-2.05.48-3.23,2.17-1.8,1.91-3.21,2.99-8.35,10.16-3.41,3.2-1.8,1.91-3.22,2.58-3.08.3-3.56-1.75-4.46-4.19-5.33-5.41-3.2-3.41-5.07-3.97-3.2-3.41-1.09-1.82-2.17-3.23-.3-3.08,2.37-3.37,3.19-3.81,2.98-3.6,8.63-7.9,2.78-3.39,1.2-1.27,1.95-3.78-.3-3.08-2.35-2.61-14.03-13.19-3.2-3.41-1.91-1.8-2.39-3.84-.71-3.07,2.17-3.16,1.59-2.11,3.61-3.41,3.42-2.79,3.41-3.2,4.57-5.71,3.82-3.22,3.43-2.38,3.08-.3,3.16,2.17,5.32,5,6.61,7.02,7.41,6.17,2.95,1.97,1.89.97,2.46-.49,2.62-1.94,3.01-2.78,2.78-3.39,7.77-9.11,5-5.32,3.02-2.36,2.45-.9,1.86.15,2.32,1.79,1.69,1.19,2.99,3.21,4.71,5.63,3.4,3.2,5.29,4.17,4.89,4.59,1.94,2.62.69,2.25-.55,2.29-1.97,2.95-6.79,7.23-3.41,3.2-5.02,4.49-2.58,3.17-1.6,1.7-1.56,2.94-.55,2.29.68,1.83,1.94,2.62,5.1,4.8,11.65,9.75,3.2,3.41,1.5,1.81,2.36,3.02.31,3.5-1.73,3.98-3.4,3.61-5.21,5.11v-.04ZM63.05,59.35l1.53,2.64.15-1.86-.65-1.01-1.03.24h0ZM54.11,70.56v-.41l-1.05-.17v.41l.65.6.4-.42h0ZM59.41,68.34l-.02-.83-.83.02-.4.42.21.2v.41l.64.19.4-.42h0ZM62.43,65.97v-.41l-.84.02-.2.21v.41l.84-.02.2-.21ZM60.86,68.49l.04,1.24.85.8,5.3-2.23-5.18-.87-1,1.06h-.01ZM58.32,73.32l.37-1.25-.21-.2-.63-.19-.8.85.04,1.24,1.22-.45h0ZM67.08,62.73l.02.83.84.39.8-.85-1.05-.59s-.61.22-.61.22ZM67.8,66.21l-1.06-1-1.04-.17.27,1.85,1.45.16.39-.84h0ZM62.93,75.65l2.08.35-1.07-1.41-1.69-1.18-.24-1.03-1.47-.98,1.1,2.23h.41l.89,2.02h0ZM60.45,75.31l-.64-.6-1.22.45.24,1.03.63.19,1-1.06h-.01ZM65.47,70.82l.25,1.44,1.65-.05-.15,1.86,1.19-1.69-2.94-1.56h0ZM69.72,68.01l-.17,1.04,3.74.71v-.41l-2.95-1.56-.61.22h-.01ZM71.36,74.36l1.17-2.1-1.3-2.02h-.41l-.21-.19-1.04-.17-.59,1.05,2.38,3.43h0ZM62.6,78.14l1.9,1.39-.45-1.22-.64-.6-.81.44h0ZM74.49,68.9l-.14,2.27,1.1,2.24,1.03-.24.76-2.09-1.3-2.02-1.45-.16h0ZM66.71,77.6h-.41l-.19.63.64.6.81-.44-.85-.8h0ZM66.07,83.4l-1.05-.59,1.56-2.94-3.27.93,1.31,2.44,1.45.16h0ZM77.14,67.79l1.96,3.45.48,2.05-1.8,1.91-5.74,1-.37,1.25.88,1.62,2.66-.7-.24-1.03,1.01-.65,1.91,1.8,2.26-.28.39-.84-.44-.81-.81.44-.64-.6,1.95-3.78-.24-1.03.97-1.89-4.19-1.93h0v.02ZM71,76.03l-.83.02-.17,1.04.64.6.36-1.66ZM70.31,80.59l1.03-.24.42.4,3.5-.31-.02-.83-5.79-.24-.57,1.46.42.4.83-.02.19-.63h-.01ZM70.23,84.51l-.44-.81.17-1.04-1.05-.59-1.24.04-2.18,2.75.42.4,3.71-.11.6-.64h.01ZM72.43,82.17l-.16,1.45-1.01.65.02.83.83-.02,1.6-1.7-.05-1.65-1.22.45h0ZM95.62,118.39l.34-2.49,1.41-1.07-1.06-1-1.42.66.21.2-.84-.39-.27-1.85.61-.22.36-1.66-.84-.39-1.01.65-.42-.4.2-.21-.85-.8.6-.64-.22-.61,2.2-2.34,1.05.59.4-.42-.02-.83-.63-.19.4-.42-.25-1.44-1.03.24-1,1.06-.64-.6-.02-.83,1.01-.65-.04-1.24-1.06-1,.78-1.26-.59,1.05,2.12,2,.4-.42-.24-1.03-.85-.8-.07-2.06,1.19-1.69,1.24-.04,1.21-.86,1.04.17.05,1.65-.2.21h-.41v.42s.22.2.22.2l1.03-.24.65,1.01-1.92,4.6.61-.22-.2.21-.19.63,1.03-.24.2-.21v-.41l-.22-.2h-.41l2.01-1.7.83-.02,2.31,1.38.28,2.26,1.45.16.19-.63.83-.02.42.4,1.83-.68-.24-1.03-7.55-3.89-.49-2.46,1.55-3.35-.45-1.22-1.45-.16-1.21.86-1.99-4.27-2.02,1.3-1.91-1.8h-.41l.19-.61,1.42-.66.77-1.68-.21-.2v-.41l-.44-.4,1.64-.46-1.05-.59-1.01.65-1.29-1.61-2.14-2.41.11-3.1-1.06-1,.78-1.26-1.25-.37-1.01.65h-.41l-.85-.78-.46-1.64-.78,1.26.7,2.66-3.67,1.35.64.6,4.13.28.85.8-8.26-.16-.37,1.25-2.21,1.92,1.15,3.89,2.67-.29,1.26.78-3.67,1.35.24,1.03-1.17,2.1-3.45,1.96-1.04-.17-1.7-1.6.17-1.04,1.03-.24.6-.64-.02-.83-2.87.5-.07-2.06-.21-.2-1.44.25-.6.64-.83.02-.39.84,6.81,6.81.6-.64,1.64-.46-.37,1.25,1.36,4.09,1.21-.86-.91-2.86.39-.84-.27-1.85,2.18-2.75,1.86.15.78-1.26.42.4,2.01-1.71.56-1.88-.45-1.22-1.04-.17-.21-.2,1.35-3.14,1.83-.68.88,1.62-.59,1.05-.83.02-.4.42,6.62.62.2-.21.44.81-.81.44-.59,1.05.21.2-.8.85.02.83-.4.42-3.3.1-1.81,1.5,1.06,1,.46,1.64,1.05.59,1.03-.24.8-.85v-.41l1.03.17.8-.85-.48-2.05,1.01-.65.19-.63,1.31,2.44-.14,2.27-1.4,1.49-4.12.13-.78,1.26,1.29,1.61,1.04.17-1.64.46-1.91-1.8-1.22.45-.78,1.26-1.22.45-.44-.81,1.35-3.14-3.7.53-.22-.61-.83.02-.19.63.84.39.66,1.42-.17,1.04.44.81.62.19-.1,3.51,3.39-4.02,3.11.52-.4.42v.41l-1.44-.16-2,2.12.89,2.03-.19.63-1.21.86-.37,1.25,1.66.36,1.4-1.49h.41l.86,1.2-.16,1.45-1.62.88,1.05.59,1.42-.66.66,1.42-.98,1.47-.21-.2-.61.22-1.25-.37-1.22.45-1.06-1-1.01.65.44.81,1.05.59-.71,3.74-1.45-.16-.57,1.46,3.05-1.54.15-1.86.61-.22-.24-1.03-.84-.39.8-.85,1.25.37,1.01-.65-1.18,1.69.29,2.67.64.6.6-.64.16-1.45.4-.42,1.05.59.6-.64-.24-1.03.61-.22.63.19.27,1.85-.61.22-.97,1.89-2.65,1.11-.78,1.26,2.25-.69,1.5,1.81,2.46-.49.39-.84,1.03-.24.02.83.83-.02.8-.85h0l-.04.05ZM81.3,75.3l-.19.63.64.6h.41l-.45-1.24h-.41ZM75.21,85.18l.22.61.63.19.8-.85-.02-.83-.63-.19-.81.44-.19.63h0ZM87.41,86.25l.84.39.81-.44.19-.63-1.05-.59-1.01.65.22.61h0ZM110.5,65.52l-.59,1.05.24,1.03,2.22-1.51-.44-.81-1.44.25h.01ZM113.14,64l-.19.63.64.6h.41l.4-.44-.85-.8h-.41ZM122.29,93.01l.4-.42,1.44-.25.6-.64-3.92-.08-1.76-3.66-.67,4.97-.8.85-.97-4.51,1.16-2.51-.25-1.44-2.97-2.8-3.89,1.15.09,2.88-.78,1.26-1.35-3.67-3.14-1.35-2.38-3.43.6-.64-.22-.61.59-1.05,2.26-.28-.17,1.04.85.8,1.03-.24-.5-2.87,2.26-.28-.25-1.44-.64-.6-.02-.83-1.05-.59-.59,1.05-.81.44-2.64,1.53-.95,2.71-2.02,1.3.64.6.46,1.64-.2.21-1.05-.59-4.09,1.36.86,1.21,5.76-.59,2.11,1.59.49,2.46,1.47.98-.4.42,1.71,2.01,1.88.56,1.22-.45.17-1.04.2-.21,3.35,1.55.46,1.64-1.61,1.29-.85-.8-.02-.83-.84-.39-.65,5.8,1.7,1.6.4-.42h.41l2.61-2.36,1.66.36,2.65-1.12.64.6h.41l.37-1.26-.65-1.01.2-.21v-.41h-.02v.02ZM74.75,110.37l2.74,1.77h.41l.2-.22,2.58,3.22.63.19.61-.22-2.45-5.91.37-1.25-1.47-.98-1.4,1.49.84.39.81-.44.21.2-1.62.88-.21-.2-.4.42v-.41l-.21.21-1.04-.17-.64-.6.19-.63-.63-.19-.61.22-.74,2.91,1.04.17.8-.85h-.01ZM120.43,59.65v.41l.44.4.62.19.2-.21v-.41l-.22-.2-1.04-.17h0ZM110.84,69.85l.13,4.12.64.6,2.64-1.53-.24-1.03-2.96-2.38-.2.21h-.01ZM115.52,67.43l-2.65,1.12-.36,1.66,1-1.06,1.27,1.2,1.66.36-.93-3.27h.01ZM100.77,84.4l-1.05-.59-2.02,1.3.22.61.84.39,1.82-1.09.19-.62h0ZM124.09,57.88l.22.61,1.03-.24,1-1.06.84.39,1.03-.24-2.31-1.38-1.8,1.91h0ZM81.39,105.01l1.44-.25-.65-1.01-.84-.39.05,1.65h0ZM121.8,63.74l-.65-1.01-1.24.04v.41l1.09,1.41.8-.85h0ZM69.04,119.43l1.39-1.9-1.04-.17-.2.21h-.41l-1.01.66.24,1.03,1.04.17h0ZM124.43,62.21l.4-.42-1.06-1-1.24.04.45,1.22,1.46.57v-.41h-.01ZM118.74,64.86l-.6.64.02.83,1.6-1.7-1.03.24h.01ZM74.25,114.32l.15-1.86-2.41,2.14.44.81.83-.02,1-1.06h-.01ZM57.26,131.97l-.24-1.03h-.41l-.39.85.64.6.4-.42h0ZM118.18,66.73l-1.39,1.9,2.02-1.3-.64-.6h.01ZM80.51,109.79l2.44-1.31.77-1.68-1.26-.78-1.61,1.29-.34,2.49h0ZM114.6,77.78l-.44-.81-1.04-.17-.42-.4h-.41l-.24-1.01-1.03.24-.17,1.04,3.15,1.76.6-.64h0ZM103.31,86.39l-1.03.24-.6.64-.84-.39-.81.44-.76,2.09.84.39.8-.85,3.15,1.76-.33-3.91.61-.22-.02-.83-.63-.19-.39.84h0ZM63.55,128.68l-.24-1.03-1.64.46-.39.84.22.61.83-.02,1.21-.86h0ZM91.07,97.7l.88,1.62-.81.44-1.86-.15,1.8-1.91h-.01ZM122.67,65.36v.41l-2.02.89-.34,2.49,4.61-4.48-2.25.69h0ZM68.52,122.54l1.49,1.4.83-.02,1.7,1.6,7.63-6.84.35-2.08-4.98,5.73-1.24.04-1.06-1,.59-1.05-1.69-1.19-3.61,3.41h0ZM76.32,114.67l.22.61,1.03-.24.19-.63-.85-.8-.59,1.05h0ZM117.5,71.71h.41l.8-.86v-.41l-.64-.19-.8.85.22.61h0ZM116.74,73.8l-1.26-.78-.6.64.02.83.63.19.44.81-.75,2.5.68,1.83h.41l.2-.22.24-5.79h0ZM112,80.55l-.22-.61-.63-.19-.81.44v.41l.86.8h.41l.39-.85h0ZM60.01,134.57l1.04.17,1.4-1.49-.21-.2h-.41l-.4.44-1.44.25.02.83h0ZM94.36,97.6l-.78,1.26.78-1.26ZM127.94,62.31l-.19.63.42.4.83-.02-.02-.83-.42-.4-.2.21h-.41s0,.01,0,.01ZM130.35,60.17l1.86.15,1.01-.65v-.41l-.44-.4-2.44,1.31h.01ZM76.03,118.81l.84.39v-.41l-.66-1.01-.4.42.22.61h0ZM134.16,56.55l-.17,1.04.83-.02.17-1.04-.83.02ZM61.03,134.32v.41l-.2-.2.2-.21ZM60.1,137.44l-.22-.61-.42-.4-1.01.65.64.6.83-.02.2-.21h-.02ZM128.01,64.77l-1.24.04-.8.85,2.24,5.71.86-5.6-1.06-1h0ZM69.9,127.44l.19-.63-.21-.2-.83.02v.41l-.19.21,1.04.17h0v.02ZM97.11,99.78l-1.62.88,1.3,2.02.21.2.8-.85.25-5.37-1.61,1.29.68,1.83h-.01ZM119.43,74.33l-1.01.65,1.05.59,1.01-.65-1.05-.59ZM124.5,71.48l-2.06.07,1.47.98,1.97-2.95-1.44.25.05,1.65h0ZM124.27,84.08l-.83.02-2.11-1.59-.28-2.26-1.29-1.61.34-2.49-2.66.7.29,2.67,1.24-.04.65,1.01-1.8,1.91.28,2.26,1.05.59.6-.64-.44-.81.6-.64.83-.02,3.16,2.17,1.01-.65,2.1,1.17,1.93-4.19-4.67,2.41h0v.03ZM68.97,130.98l1.64-.46.39-.84-1.26-.78-.61.22-.59,1.05.44.81h-.01ZM130.29,65.32l.02.83h.41l.21.19.2-.21v-.41l-.85-.39h0ZM107.82,99.45l1.68.77,1.07,1.41,1.66.36,1.01-.65.46,1.64h.41l.2-.22-.02-.83-.65-1.01.2-.21-1.88-.56-.44-.81-.83.02-.21-.2-.2.21-2.09-.76-.86-1.21-.08-2.47-1.7-1.6-.59,1.05-.42-.4h-.41l-.17,1.05-.83.02-.34,2.49,1.46.57,1.01-.65-.22-.61.6-.64,1.75,3.25-1.66-.36,1.09,1.82.81-.44.17-1.04v.02h.02ZM67.84,134.32v-.41l-.64-.19-.6.64v.41l1.24-.45ZM126.43,73.7l-1.05-.59-3.22,2.58,2.1,1.17,2.02-1.3v-.41l.19-.21-.04-1.24h0ZM81.7,122.13l-1.29-1.61-2.81,2.56.84.39,1.81-1.5,1.45.16h0ZM85.61,121.8l-.49-2.46-2.69-.12,2.78,3.01.4-.42h0ZM97.48,105.34l.16-1.45h-.41l-.59,1.06.84.39h0ZM129.62,70.3l-.19.63.22.61.63.19,1.21-.86.17-1.04-1.04-.17-1.01.65h0ZM93.89,109.17l1.66.36,1.31,2.44.63.19.4-.42.65,1.01.63.19.9,2.45,2.7.54-5.56-6.43,1.42-.66.21.2,3.26-1.34-.56,1.88,2.82-2.15v-.41l1.41-.66-6.43-1.24-1.27-1.2.27,1.85-.4.42-.17,1.04-3.86,1.98h0l-.02-.04ZM73.7,130.22l.84.39,1.82-1.09-.05-1.65-1.19,1.69-.83.02-.6.64h.01ZM109.48,93l.44.81.42.4,1-1.06-.44-.81-1.04-.17-.39.84h.01ZM128.93,74.45l-1.05-.59h-.41l-.4.44-.11,3.1.21.2h.41l1.35-3.15ZM65.6,141.82l.19-.62-.21-.2-1.04-.17.02.83,1.04.17h0ZM127.46,80.27l.37-1.25-1.66-.36-3.06,1.13.45,1.22,2.09.76,1.81-1.5h0ZM100.76,104.41l1.03-.24.6-.64-.64-.6-1.01.65.02.83h0ZM82.42,125.2v-.41l-.22-.2-1.04-.17-.6.64.84.39,1.03-.24h0ZM133.17,71.22l-.39.84.85.8.4-.42.16-1.45-1.03.24h0ZM115.6,90.33l-.2.21v-.41s.2.2.2.2ZM121.04,86.24l.2-.21-.62-.19-1,1.06,1.44-.25v-.41h-.02ZM80.47,128.98l-1.01.65.85.8,1.66.36,1.61-1.29-2.87.5-.24-1.03h0ZM73.81,140.33l-.04-1.24-.65-1.01-1.25-.37-.59,1.05.64.6.83-.02,1.06,1h0ZM89.35,122.51l-.85-.8-.83.02-.6.64,2.27.14h.01ZM85.11,125.32l-1.01.65-.39.84.21.2h.41l.6-.65.17-1.04h.01ZM114.19,98.22l-.2.21-.21-.2h.41,0ZM105.79,113.54l1.39-1.9-3.37-2.37.05,1.65,1.86.15.21.2-.14,2.27h0ZM72.16,147.19l.19-.63-.44-.81-.22-.61-.4.42.05,1.65.83-.02h-.01ZM110.51,105.97l-.63-.19-.81.44-.19.63.45,1.22,4.13.28v-.41l-2.96-1.97h.01ZM110.76,114.22l1.36-2.73-1.74-2.84-1.65.05-.78,1.26,2.34,2.2.48,2.05h-.01ZM102.06,120.06l-.45-1.22-1.06-1-1.01.65,2.52,1.57h0ZM103.46,125.38l-.86-1.21,1.6-1.7.36-1.66-4.1.95.02.83.85.8.46,1.64,1.66.36h.01ZM105.73,118.71l-.85-.8-1.01.65,1.06,1,.83-.02-.02-.83h-.01ZM115.09,107.48l.79,5.55,1.44-.25,1.16-2.51-1.73-2.43-1.66-.36h0ZM121.85,119.45l.37-1.25-.44-.81-1.03.24-.84-.39,2.53-4.83-.45-1.22,1.57-2.52-5.04-2.73.48,2.05,1.06,1,1.15,3.89-7.1,4.14-2.7-.54.72,3.49,3.28-.51-.25-1.44,1.62-.88,1.94,2.62,3.08-.3h.05ZM110.43,117.12l-.24-1.03-.83.02-.37,1.25.65,1.01.78-1.26h.01ZM115.32,121.71l-.02-.83-1.66-.36-1.62.88-3.95-.91-.6.64.46,1.64.83-.02,1.61-1.29.85.8,4.11-.54h-.01ZM108.87,126.86l-.49-2.46-1.26-.78-1.24.04-.37,1.25-.21-.2-1.2,1.27-1.03.24-.39.84.64.6,4.95-.15.6-.64h0ZM113.37,125.49l-.07-2.06h-.41l-1.01.66-.17,1.04-.4.42v.41l-1.21.45.04,1.24,1.04.17.59-1.05h.41l1.2-1.29h0ZM124.47,117.51l-.25-1.44-.84-.39-.19.63.22.61,1.05.59h0ZM115.48,127.07l-.19.63.44.81.63.19,1-1.06-.22-.61-.84-.39-.81.44h-.01ZM117.81,135.67l.39-.84-.86-1.21,2.16-3.57-4.54.14-.44-.81-.83.02-.39.84,1.05.59.24,1.03.85.8-.78,1.26.65,1.01,2.5.75h0ZM123.29,119.61l.22.61.84.39,1.03-.24.6-.64-1.47-.98-1.21.86h0ZM122.5,134.08l.19-.63-.22-.61-.84-.39-1.21.86.22.61.84.39,1.03-.24h-.01ZM131.32,132.36l-1.29-1.61-1.64.46-5.01,4.9.04,1.24.64.6,4.78-5.51,1.25.37,1.22-.45h0ZM135.13,128.74l.17-1.04-1.27-1.2-1.03.24-.17,1.04.65,1.01.84.39.81-.44h0ZM133,139.95l-1.31-2.44-.08-2.47-1.77,2.74,2.35,2.61.81-.44h0ZM127.53,143.21v-.41l-.44-.4-1.01.65.22.61.62.19.6-.64h.01ZM137.61,135.47l.61-.22v-.41l-.22-.2-.63-.19-.81.44,1.05.59h0ZM129.74,148.09l-.45-1.22-1.46-.57,1.3,2.02h.41l.2-.22h0ZM144.08,131.14l-.39.84.45,1.22.61-.22.19-.63-.02-.83-.42-.4h-.41s0,.02,0,.02ZM134.8,144.84l.59-1.05-.22-.61h-.41l-.59,1.06.22.61h.41Z"/>
    </g>
  </g>
</svg>