<?xml version="1.0" encoding="UTF-8"?>
<svg id="Layer_2" data-name="Layer 2" xmlns="http://www.w3.org/2000/svg" viewBox="0 0 200 200">
  <defs>
    <style>
      .cls-1 {
        fill: #000;
      }

      .cls-1, .cls-2, .cls-3 {
        stroke-width: 0px;
      }

      .cls-4 {
        mix-blend-mode: hard-light;
      }

      .cls-2 {
        fill: red;
      }

      .cls-5 {
        isolation: isolate;
      }

      .cls-3 {
        fill: #fff;
      }
    </style>
  </defs>
  <g id="Layer_1-2" data-name="Layer 1">
    <g class="cls-5">
      <g id="Layer_2-2" data-name="Layer 2">
        <g id="Layer_4" data-name="Layer 4">
          <g>
            <circle class="cls-1" cx="100" cy="100" r="100"/>
            <g class="cls-4">
              <g>
                <path class="cls-2" d="M53.57,147.38c6.39,6.39,13.77,11.2,21.64,14.42l-15.98,15.98-36.06-36.06,15.98-15.98c3.22,7.87,8.03,15.25,14.42,21.64Z"/>
                <path class="cls-2" d="M177.31,59.7l-15.98,15.98c-3.22-7.87-8.03-15.25-14.42-21.64s-13.77-11.2-21.64-14.42l15.98-15.98,36.06,36.06Z"/>
                <path class="cls-2" d="M59.23,23.64l15.98,15.98c-7.87,3.22-15.25,8.03-21.64,14.42-6.39,6.39-11.2,13.77-14.42,21.64l-15.98-15.98L59.23,23.64Z"/>
                <path class="cls-2" d="M177.31,141.72l-36.06,36.06-15.98-15.98c7.87-3.22,15.25-8.03,21.64-14.42s11.2-13.77,14.42-21.64l15.98,15.98Z"/>
                <path class="cls-3" d="M124.47,74.64h-.04c-.19-.95-.89-1.79-1.93-2.34l-18.9-9.93c-1.93-1.01-4.83-1.01-6.76,0l-18.9,9.93c-1.07.57-1.74,1.39-1.91,2.34h-.04v50.18c.03,1.16.74,2.18,1.95,2.81l18.9,9.94c.96.5,2.17.76,3.38.76s2.41-.26,3.38-.76l18.9-9.94c1.23-.65,1.96-1.67,1.99-2.82v-49.92l-.02-.25h0ZM79.46,95.81v-16.95l16.13,8.48-16.13,8.47ZM79.46,103.18l17.38,9.13c1.93,1.01,4.83,1.01,6.76,0l17.41-9.16v21.33l-17.77,9.37-.19.09c-.97.48-1.89.92-2.81.92h-.21c-.95-.06-1.94-.55-2.96-1.09l-17.61-9.21s0-21.38,0-21.38ZM101.96,109.26v-19.53h.01s18.56,9.77,18.56,9.77l-18.55,9.75s-.02,0-.02,0ZM101.97,84.94c-.9.47-2.6.47-3.51,0l-18.55-9.76,18.55-9.75c.91-.47,2.61-.47,3.51,0l18.56,9.75s-18.56,9.76-18.56,9.76ZM98.46,89.74s.01,0,.02-.01v19.53s-.01-.01-.02-.01l-18.55-9.75s18.55-9.76,18.55-9.76ZM104.84,87.34l16.17-8.5v17l-16.17-8.5Z"/>
              </g>
            </g>
          </g>
        </g>
      </g>
    </g>
  </g>
</svg>