<?xml version="1.0" encoding="UTF-8"?>
<svg id="Layer_2" data-name="Layer 2" xmlns="http://www.w3.org/2000/svg" viewBox="0 0 400 366.57">
  <defs>
    <style>
      .cls-1 {
        fill: #fff;
      }

      .cls-2 {
        fill: #05d690;
      }

      .cls-3 {
        fill: red;
      }
    </style>
  </defs>
  <g id="Layer_6" data-name="Layer 6">
    <g>
      <path class="cls-1" d="M400,183.28v183.28H33.43v-34.31c3.92.59,7.95.88,12.02.88,14.33,0,27.82-3.67,39.59-10.12,11.77-6.45,21.74-15.65,29.14-26.8,14.77,22.25,40.03,36.91,68.73,36.91,22.76,0,43.4-9.24,58.32-24.16,14.92-14.96,24.16-35.56,24.16-58.32,0-45.57-36.91-82.48-82.48-82.48-28.7,0-53.96,14.66-68.73,36.88-14.77-22.21-40.03-36.88-68.73-36.88-3.89,0-7.73.26-11.47.81C41.27,74.41,120.27,0,216.72,0c50.62,0,96.44,20.49,129.58,53.67,33.17,33.17,53.7,79,53.7,129.62Z"/>
      <g>
        <rect class="cls-2" x="137.46" y="203.67" width="91.64" height="91.64" rx="45.82" ry="45.82" transform="translate(-66.2 432.77) rotate(-90)"/>
        <rect class="cls-3" x="0" y="203.67" width="91.64" height="91.64" rx="45.82" ry="45.82" transform="translate(-203.67 295.31) rotate(-90)"/>
      </g>
    </g>
  </g>
</svg>