<?xml version="1.0" encoding="UTF-8"?>
<svg id="Layer_2" data-name="Layer 2" xmlns="http://www.w3.org/2000/svg" viewBox="0 0 400 398.65">
  <defs>
    <style>
      .cls-1 {
        fill: #fff;
      }

      .cls-2 {
        fill: #76bae6;
      }

      .cls-3 {
        fill: #1a1a1a;
      }
    </style>
  </defs>
  <g id="Layer_6" data-name="Layer 6">
    <g>
      <g>
        <path class="cls-1" d="M45.45,45.45h0c-60.6,60.6-60.6,158.86,0,219.47h0s109.73,109.73,109.73,109.73l109.73-109.73,109.73-109.73-109.73-109.73h0c-60.6-60.6-158.86-60.6-219.47,0Z"/>
        <path class="cls-3" d="M286.05,148.87l-18.85,18.88h-.03c-2.36-2.39-5.43-3.56-8.54-3.56s-6.21,1.16-8.6,3.56c-4.72,4.72-4.72,12.41,0,17.14l-18.85,18.85c-15.16-15.13-15.16-39.7,0-54.87,7.6-7.57,17.49-11.35,27.45-11.35s19.85,3.78,27.42,11.35Z"/>
        <path class="cls-3" d="M203.74,231.19l-18.85,18.85c-2.36-2.36-5.46-3.52-8.57-3.52s-6.21,1.16-8.57,3.52c-4.75,4.75-4.75,12.38,0,17.14v.03l-18.88,18.85c-15.13-15.16-15.13-39.7,0-54.86,7.6-7.57,17.52-11.38,27.45-11.38s19.85,3.81,27.42,11.38Z"/>
      </g>
      <path class="cls-1" d="M302.23,370.78l-20.68,27.88c5.75-.03,11.54-.45,17.35-1.31,31.3-4.64,58.92-21.19,77.77-46.6,18.83-25.38,26.66-56.62,22.03-87.92-.86-5.8-2.14-11.47-3.78-16.98l-20.68,27.88-72,97.05Z"/>
      <circle class="cls-2" cx="221.58" cy="353.85" r="38.8"/>
      <circle class="cls-2" cx="350.91" cy="224.53" r="38.8"/>
      <circle class="cls-2" cx="198.12" cy="290.02" r="25.03"/>
      <circle class="cls-2" cx="287.08" cy="204.29" r="25.03"/>
    </g>
  </g>
</svg>