<?xml version="1.0" encoding="UTF-8"?>
<svg id="Layer_1" xmlns="http://www.w3.org/2000/svg" xmlns:xlink="http://www.w3.org/1999/xlink" viewBox="0 0 256 256">
  <defs>
    <style>
      .cls-1 {
        fill: #eaeaea;
      }

      .cls-2 {
        fill: url(#linear-gradient);
      }

      .cls-3 {
        stroke: #848484;
        stroke-dasharray: .37;
      }

      .cls-3, .cls-4, .cls-5, .cls-6, .cls-7 {
        stroke-miterlimit: 10;
      }

      .cls-3, .cls-5, .cls-6, .cls-7 {
        fill: none;
        stroke-width: .93px;
      }

      .cls-4 {
        fill: #fff;
        stroke-width: .75px;
      }

      .cls-4, .cls-5 {
        stroke: #000;
      }

      .cls-6 {
        stroke-dasharray: .38 .38;
      }

      .cls-6, .cls-7 {
        stroke: #4d4d4d;
      }

      .cls-8 {
        opacity: .6;
      }

      .cls-9 {
        fill: red;
      }

      .cls-10 {
        fill: aqua;
      }
    </style>
    <linearGradient id="linear-gradient" x1="128" y1="218" x2="128" y2="38" gradientUnits="userSpaceOnUse">
      <stop offset="0" stop-color="#96bd96"/>
      <stop offset="1" stop-color="#cfc"/>
    </linearGradient>
  </defs>
  <path class="cls-2" d="M202.21,63.34l36.79,84.11h-8.02l-32.73-74.87-32.73,74.87h-8.02l36.79-84.11c.7-1.6,2.21-2.59,3.95-2.59h0c1.74,0,3.26.99,3.96,2.59ZM159.98,156.1c5.02,16.81,20.76,28.56,38.27,28.56s33.25-11.74,38.27-28.56l.56-1.87h-77.66l.56,1.87ZM57.75,72.58l32.73,74.87h8.02L61.71,63.34c-.7-1.6-2.21-2.59-3.95-2.59h0c-1.74,0-3.26.99-3.96,2.59l-36.79,84.11h8.02l32.73-74.87ZM96.02,156.1l.56-1.87H18.92l.56,1.87c5.02,16.81,20.76,28.56,38.27,28.56s33.25-11.74,38.27-28.56ZM135.28,62c2.11-1.42,3.79-3.43,4.8-5.79h62.95v-10.2h-62.94c-1.99-4.7-6.66-8.01-12.08-8.01s-10.09,3.31-12.08,8.01h-62.95v10.2h62.95c1,2.37,2.68,4.38,4.8,5.79v141.43h-40.79v14.57h96.15v-14.57h-40.79V62Z"/>
  <g>
    <path d="M58.46,85.86h0c9.34,0,16.92,7.58,16.92,16.92v28.31c0,2.24-1.82,4.05-4.05,4.05h-25.99c-2.09,0-3.79-1.7-3.79-3.79v-28.58c0-9.34,7.58-16.92,16.92-16.92Z"/>
    <rect class="cls-4" x="56.95" y="124.76" width="1.87" height="15.33"/>
    <polygon points="75.23 131.79 75.23 132.1 75.22 149.28 40.52 149.28 40.54 131.84 40.54 131.76 41.56 131.76 56.95 131.77 58.82 131.78 75.23 131.79"/>
    <path class="cls-1" d="M55.84,110.83l-5-.28c-2.99-.17-4.99-3.14-4.02-5.97l3.53-10.29c.77-2.24,2.88-3.74,5.24-3.74h7.39c1.93,0,3.65,1.24,4.27,3.07l4.48,13.25c.78,2.29-.93,4.67-3.35,4.67l-4.69-.26-7.85-.44Z"/>
    <path class="cls-1" d="M52.43,110.64l-.75,11.29c-.08.9.23,1.79.86,2.43.58.59,1.38,1.08,2.22,1.42.84.34,1.71.54,2.44.54,2.24,0,4.23-1.44,4.92-3.57l3.57-11.35-13.27-.75Z"/>
    <path class="cls-5" d="M55.84,110.83l-5-.28c-2.99-.17-4.99-3.14-4.02-5.97l3.53-10.29c.77-2.24,2.88-3.74,5.24-3.74h7.39c1.93,0,3.65,1.24,4.27,3.07l4.48,13.25c.78,2.29-.93,4.67-3.35,4.67l-4.69-.26"/>
    <path class="cls-5" d="M52.43,110.64l-.75,11.29c-.08.9.23,1.79.86,2.43.58.59,1.38,1.08,2.22,1.42.84.34,1.71.54,2.44.54,2.24,0,4.23-1.44,4.92-3.57l3.57-11.35"/>
    <path d="M53.26,106.62l-1.19-.39c-1.42-.46-1.56-2.18-1.4-3.61.07-.64.29-1.25.65-1.79l2.09-3.17c.79-1.22,2.34-1.87,3.93-1.66h0c1.34.18,2.32,1.28,2.19,2.48l-.56,5.02c-.27,2.47-3.04,3.99-5.7,3.12Z"/>
    <rect x="58.4" y="107.97" width="1.87" height="4.49" rx=".93" ry=".93" transform="translate(21.18 229.42) rotate(-133.96)"/>
    <rect x="59.64" y="108.32" width="1.87" height="4.49" rx=".93" ry=".93" transform="translate(146.02 203.26) rotate(166.04)"/>
    <path d="M65.87,107.06l-1.82.22c-1.55.18-2.94-.95-3.07-2.51l-.57-7.08c-.06-.73.46-1.38,1.19-1.48l1.19-.16c1.73-.23,3.4.7,4.12,2.29l1.72,3.85c.96,2.14-.43,4.6-2.76,4.87Z"/>
    <path d="M58.63,116.94h.65c.15,0,.28.13.28.28v1.59h-1.5v-1.31c0-.31.25-.56.56-.56Z" transform="translate(104.9 241.29) rotate(-173.96)"/>
    <path d="M56.07,116.64h1.5v1.59c0,.15-.13.28-.28.28h-.65c-.31,0-.56-.25-.56-.56v-1.31h0Z" transform="translate(19.19 -7.47) rotate(9.04)"/>
    <path d="M53.73,116.21h1.24v1.32c0,.13-.1.23-.23.23h-.54c-.26,0-.47-.21-.47-.47v-1.09h0Z" transform="translate(19.06 -7.09) rotate(9.04)"/>
    <rect x="34.63" y="131.84" width="6.35" height="17.43"/>
    <rect x="74.32" y="131.84" width="6.35" height="17.43"/>
    <path class="cls-3" d="M52.6,107.97l-1.5-.49c-1.79-.58-1.96-2.75-1.77-4.55.09-.8.37-1.57.81-2.25l2.63-3.99c.99-1.54,2.94-2.36,4.95-2.09h0"/>
    <g>
      <path class="cls-7" d="M69.31,106.07c-.03.05-.06.11-.1.16"/>
      <path class="cls-6" d="M68.99,106.54c-.65.86-1.64,1.48-2.84,1.62l-1.81.22"/>
      <line class="cls-7" x1="64.15" y1="108.4" x2="63.97" y2="108.43"/>
    </g>
    <polyline class="cls-5" points="52.47 116.15 61.82 116.96 62.19 116.91 62.57 115.41"/>
    <path class="cls-8" d="M75.38,114.78s-6.34-7.05-17.66-7.06c-7.01,0-16.18,7.04-16.18,7.04v-9.49c.01-9.3,7.63-16.91,16.94-16.9h0c9.3,0,16.91,7.63,16.9,16.93v9.49Z"/>
    <path d="M75.38,111.25s-6.34-7.05-17.66-7.06c-7.01,0-16.18,7.04-16.18,7.04v-9.49c.01-9.3,7.63-16.91,16.94-16.9h0c9.3,0,16.91,7.63,16.9,16.93v9.49Z"/>
    <circle class="cls-9" cx="56.95" cy="103.77" r=".95"/>
    <circle class="cls-9" cx="67.06" cy="103.78" r=".95"/>
  </g>
  <g>
    <path d="M185.54,85.86h25.99c2.24,0,4.05,1.82,4.05,4.05v28.31c0,9.34-7.58,16.92-16.92,16.92h0c-9.34,0-16.92-7.58-16.92-16.92v-28.58c0-2.09,1.7-3.79,3.79-3.79Z" transform="translate(397.42 220.84) rotate(179.96)"/>
    <rect class="cls-4" x="198.31" y="124.76" width="1.87" height="15.33" transform="translate(398.6 264.7) rotate(179.96)"/>
    <polygon points="181.9 131.79 181.9 132.1 181.91 149.28 216.61 149.28 216.59 131.84 216.59 131.76 215.57 131.76 200.18 131.77 198.31 131.78 181.9 131.79"/>
    <path class="cls-1" d="M201.29,110.83l5-.28c2.99-.17,4.99-3.14,4.02-5.97l-3.53-10.29c-.77-2.24-2.88-3.74-5.24-3.74h-7.39c-1.93,0-3.65,1.24-4.27,3.07l-4.48,13.25c-.78,2.29.93,4.67,3.35,4.67l4.69-.26,7.85-.44Z"/>
    <path class="cls-1" d="M204.7,110.64l.75,11.29c.08.9-.23,1.79-.86,2.43-.58.59-1.38,1.08-2.22,1.42-.84.34-1.71.54-2.44.54-2.24,0-4.23-1.44-4.92-3.57l-3.57-11.35,13.27-.75Z"/>
    <path class="cls-5" d="M201.29,110.83l5-.28c2.99-.17,4.99-3.14,4.02-5.97l-3.53-10.29c-.77-2.24-2.88-3.74-5.24-3.74h-7.39c-1.93,0-3.65,1.24-4.27,3.07l-4.48,13.25c-.78,2.29.93,4.67,3.35,4.67l4.69-.26"/>
    <path class="cls-5" d="M204.7,110.64l.75,11.29c.08.9-.23,1.79-.86,2.43-.58.59-1.38,1.08-2.22,1.42-.84.34-1.71.54-2.44.54-2.24,0-4.23-1.44-4.92-3.57l-3.57-11.35"/>
    <path d="M203.87,106.62l1.19-.39c1.42-.46,1.56-2.18,1.4-3.61-.07-.64-.29-1.25-.65-1.79l-2.09-3.17c-.79-1.22-2.34-1.87-3.93-1.66h0c-1.34.18-2.32,1.28-2.19,2.48l.56,5.02c.27,2.47,3.04,3.99,5.7,3.12Z"/>
    <rect x="196.86" y="107.97" width="1.87" height="4.49" rx=".93" ry=".93" transform="translate(-18.83 176.1) rotate(-46.04)"/>
    <rect x="195.62" y="108.32" width="1.87" height="4.49" rx=".93" ry=".93" transform="translate(32.47 -44.15) rotate(13.96)"/>
    <path d="M191.26,107.06l1.82.22c1.55.18,2.94-.95,3.07-2.51l.57-7.08c.06-.73-.46-1.38-1.19-1.48l-1.19-.16c-1.73-.23-3.4.7-4.12,2.29l-1.72,3.85c-.96,2.14.43,4.6,2.76,4.87Z"/>
    <path d="M197.56,116.94h1.5v1.59c0,.15-.13.28-.28.28h-.65c-.31,0-.56-.25-.56-.56v-1.31h0Z" transform="translate(-11.31 21.53) rotate(-6.04)"/>
    <path d="M200.12,116.64h.65c.15,0,.28.13.28.28v1.59h-1.5v-1.31c0-.31.25-.56.56-.56Z" transform="translate(416.61 202.19) rotate(170.96)"/>
    <path d="M202.62,116.21h.54c.13,0,.23.1.23.23v1.32h-1.24v-1.09c0-.26.21-.47.47-.47Z" transform="translate(421.42 200.64) rotate(170.96)"/>
    <rect x="216.15" y="131.84" width="6.35" height="17.43"/>
    <rect x="176.46" y="131.84" width="6.35" height="17.43"/>
    <path class="cls-3" d="M204.53,107.97l1.5-.49c1.79-.58,1.96-2.75,1.77-4.55-.09-.8-.37-1.57-.81-2.25l-2.63-3.99c-.99-1.54-2.94-2.36-4.95-2.09h0"/>
    <g>
      <path class="cls-7" d="M187.82,106.07c.03.05.06.11.1.16"/>
      <path class="cls-6" d="M188.14,106.54c.65.86,1.64,1.48,2.84,1.62l1.81.22"/>
      <line class="cls-7" x1="192.98" y1="108.4" x2="193.16" y2="108.43"/>
    </g>
    <polyline class="cls-5" points="204.66 116.15 195.31 116.96 194.94 116.91 194.56 115.41"/>
    <path class="cls-8" d="M181.75,114.78s6.34-7.05,17.66-7.06c7.01,0,16.18,7.04,16.18,7.04v-9.49c-.01-9.3-7.63-16.91-16.94-16.9h0c-9.3,0-16.91,7.63-16.9,16.93v9.49Z"/>
    <path d="M181.75,111.25s6.34-7.05,17.66-7.06c7.01,0,16.18,7.04,16.18,7.04v-9.49c-.01-9.3-7.63-16.91-16.94-16.9h0c-9.3,0-16.91,7.63-16.9,16.93v9.49Z"/>
    <circle class="cls-9" cx="200.18" cy="103.77" r=".95"/>
    <circle class="cls-10" cx="190.07" cy="103.78" r=".95"/>
  </g>
</svg>