<?xml version="1.0" encoding="UTF-8"?>
<svg xmlns="http://www.w3.org/2000/svg" viewBox="0 0 256 256">
  <defs>
    <style>
      .cls-1 {
        fill: #96bd96;
      }

      .cls-2 {
        isolation: isolate;
      }

      .cls-3 {
        mix-blend-mode: hard-light;
      }

      .cls-4 {
        fill: #fff;
      }

      .cls-5 {
        fill: #00e59d;
      }

      .cls-6 {
        fill: red;
      }

      .cls-7 {
        fill: none;
        stroke: #000;
        stroke-miterlimit: 10;
        stroke-width: 22.83px;
      }
    </style>
  </defs>
  <g class="cls-2">
    <g id="Layer_1">
      <g>
        <rect class="cls-1" x="30.5" y="30.5" width="195" height="195" rx="97.5" ry="97.5"/>
        <g class="cls-3">
          <rect class="cls-5" x="30.5" y="30.5" width="195" height="195" rx="97.5" ry="97.5"/>
        </g>
        <path d="M70.91,134h40.89c4.74,0,8.57-3.4,8.57-7.6v-62.79c0-7.77-11.62-10.53-16-3.8l-40.89,62.79c-3.3,5.06.83,11.39,7.43,11.39Z"/>
        <path d="M185.09,134h-40.89c-4.74,0-8.57-3.4-8.57-7.6v-62.79c0-7.77,11.62-10.53,16-3.8l40.89,62.79c3.3,5.06-.83,11.39-7.43,11.39Z"/>
        <polygon class="cls-6" points="113.8 117.55 113.26 116.82 112.92 116.38 112.19 115.55 109.51 113.16 108.34 111.99 107.9 111.36 107.75 110.92 107.9 110.38 108.29 109.7 108.68 109.31 109.31 108.58 110.53 107.55 111.36 106.82 113.02 105.16 113.51 104.48 113.65 103.94 113.51 103.41 113.07 102.77 111.95 101.65 110.73 100.63 109.95 99.85 108.87 98.48 108.19 97.7 107.8 97.41 107.26 96.97 106.82 96.92 106.24 97.11 105.51 97.65 104.29 98.87 102.38 100.97 101.7 101.75 100.97 102.38 100.34 102.82 99.75 102.92 99.31 102.67 98.63 102.19 96.92 100.67 95.41 98.97 94.19 97.75 93.46 97.21 92.73 97.26 91.9 97.8 90.97 98.53 89.85 99.85 89.02 100.58 88.19 101.21 87.31 101.99 86.92 102.48 86.38 103.21 86.53 103.94 87.07 104.87 87.51 105.31 88.24 106.14 91.46 109.36 91.99 109.99 92.04 110.72 91.56 111.6 91.26 111.89 90.58 112.67 88.48 114.48 87.75 115.31 86.97 116.19 86.38 116.97 86.43 117.7 86.92 118.48 87.16 118.92 87.9 119.75 89.07 120.72 89.8 121.55 91.02 122.87 92.04 123.89 92.87 124.33 93.6 124.28 94.38 123.7 94.82 123.26 95.65 122.53 97.7 120.19 98.48 119.5 98.92 119.06 99.7 118.58 100.19 118.48 100.68 118.67 101.26 119.06 102.24 120.04 103.26 121.26 103.95 122.04 105.02 123.21 105.99 123.99 106.68 124.48 107.12 124.63 107.75 124.58 108.43 124.09 108.82 123.8 109.7 123.02 110.48 122.14 111.31 121.31 112.58 120.14 113.41 119.31 113.85 118.38 113.8 117.55"/>
        <circle class="cls-4" cx="155.53" cy="109.93" r="13.38"/>
        <circle cx="155.53" cy="109.93" r="5.58"/>
        <path class="cls-7" d="M72.24,149c14.26,47.39,95.06,47.99,111,1.8"/>
        <path class="cls-4" d="M124.21,176.68h7.94v8.43c0,.82-.67,1.49-1.49,1.49h-3.47c-1.64,0-2.98-1.33-2.98-2.98v-6.94h0Z" transform="translate(-7.76 5.73) rotate(-2.49)"/>
        <path class="cls-4" d="M137.86,175.7h3.47c.82,0,1.49.67,1.49,1.49v8.43h-7.94v-6.94c0-1.64,1.33-2.98,2.98-2.98Z" transform="translate(294.35 347.22) rotate(174.51)"/>
        <path class="cls-4" d="M151.29,172.33h2.88c.68,0,1.24.55,1.24,1.24v7h-6.59v-5.77c0-1.36,1.11-2.47,2.47-2.47Z" transform="translate(362.12 277.3) rotate(156.41)"/>
      </g>
    </g>
  </g>
</svg>