<?xml version="1.0" encoding="UTF-8"?>
<svg xmlns="http://www.w3.org/2000/svg" viewBox="0 0 256 256">
  <defs>
    <style>
      .cls-1 {
        stroke: #00e59d;
        stroke-linecap: square;
        stroke-width: 1.5px;
      }

      .cls-1, .cls-2, .cls-3, .cls-4, .cls-5, .cls-6, .cls-7, .cls-8, .cls-9, .cls-10, .cls-11, .cls-12 {
        stroke-miterlimit: 10;
      }

      .cls-1, .cls-2, .cls-6, .cls-9, .cls-12 {
        fill: none;
      }

      .cls-2, .cls-6, .cls-8, .cls-9, .cls-10, .cls-12 {
        stroke-width: 1.4px;
      }

      .cls-2, .cls-9 {
        stroke: red;
      }

      .cls-3 {
        stroke-width: .84px;
      }

      .cls-3, .cls-4, .cls-5, .cls-6, .cls-7, .cls-8, .cls-10, .cls-11 {
        stroke: #000;
      }

      .cls-3, .cls-4, .cls-5, .cls-13 {
        fill: #cfc;
      }

      .cls-4, .cls-7 {
        stroke-width: 1.12px;
      }

      .cls-5 {
        stroke-width: .98px;
      }

      .cls-14 {
        isolation: isolate;
      }

      .cls-15 {
        mix-blend-mode: hard-light;
      }

      .cls-7 {
        fill: #96bd96;
      }

      .cls-16, .cls-8 {
        fill: #fff;
      }

      .cls-17 {
        fill: #00e59d;
      }

      .cls-18, .cls-10, .cls-11 {
        fill: red;
      }

      .cls-9 {
        stroke-dasharray: .57 .57;
      }

      .cls-11 {
        stroke-width: 1.3px;
      }

      .cls-12 {
        stroke: #39b54a;
        stroke-dasharray: .56;
      }
    </style>
  </defs>
  <g class="cls-14">
    <g id="Layer_1">
      <g>
        <g>
          <g>
            <rect class="cls-4" x="169.83" y="105.33" width="2.79" height="22.91" transform="translate(209.73 320.44) rotate(-135)"/>
            <circle class="cls-4" cx="161.35" cy="126.66" r="3.07"/>
          </g>
          <rect x="138.07" y="105.15" width="9.5" height="41.91"/>
          <g>
            <g>
              <rect class="cls-5" x="188.34" y="101.9" width="2.79" height="3.91" rx=".56" ry=".56" transform="translate(129.01 -103.75) rotate(45)"/>
              <rect class="cls-3" x="185.57" y="105.75" width="1.82" height="2.54" rx=".36" ry=".36" transform="translate(130.29 -100.52) rotate(45)"/>
              <rect class="cls-3" x="183.32" y="108.07" width="1.82" height="2.54" rx=".36" ry=".36" transform="translate(131.28 -98.24) rotate(45)"/>
            </g>
            <g>
              <rect class="cls-5" x="185.65" y="98.62" width="2.79" height="3.91" rx=".56" ry=".56" transform="translate(125.91 -102.8) rotate(45)"/>
              <rect class="cls-3" x="182.88" y="102.47" width="1.82" height="2.54" rx=".36" ry=".36" transform="translate(127.19 -99.57) rotate(45)"/>
              <rect class="cls-3" x="180.47" y="104.8" width="1.82" height="2.54" rx=".36" ry=".36" transform="translate(128.13 -97.18) rotate(45)"/>
            </g>
            <rect class="cls-5" x="175.51" y="96.21" width="2.79" height="3.91" rx=".56" ry=".56" transform="translate(353.82 196.32) rotate(-180)"/>
            <rect class="cls-3" x="176" y="92.29" width="1.82" height="2.54" rx=".36" ry=".36" transform="translate(353.82 187.13) rotate(-180)"/>
            <g>
              <rect class="cls-5" x="183.25" y="95.27" width="2.79" height="3.91" rx=".56" ry=".56" transform="translate(122.83 -102.09) rotate(45)"/>
              <rect class="cls-3" x="180.65" y="99.12" width="1.82" height="2.54" rx=".36" ry=".36" transform="translate(124.17 -98.98) rotate(45)"/>
              <rect class="cls-3" x="178.23" y="101.45" width="1.82" height="2.54" rx=".36" ry=".36" transform="translate(125.1 -96.58) rotate(45)"/>
            </g>
          </g>
          <rect x="154.29" y="107.93" width="9.5" height="41.91" transform="translate(137.72 -74.71) rotate(45)"/>
        </g>
        <g>
          <g>
            <rect class="cls-4" x="186.67" y="105.33" width="2.79" height="22.91" transform="translate(238.47 332.34) rotate(-135)"/>
            <circle class="cls-4" cx="178.19" cy="126.66" r="3.07"/>
          </g>
          <rect x="154.91" y="105.15" width="9.5" height="41.91"/>
          <rect x="171.13" y="107.93" width="9.5" height="41.91" transform="translate(142.65 -86.62) rotate(45)"/>
          <g>
            <g>
              <rect class="cls-5" x="205.18" y="101.9" width="2.79" height="3.91" rx=".56" ry=".56" transform="translate(133.94 -115.65) rotate(45)"/>
              <rect class="cls-3" x="202.41" y="105.75" width="1.82" height="2.54" rx=".36" ry=".36" transform="translate(135.22 -112.42) rotate(45)"/>
              <rect class="cls-3" x="200.16" y="108.07" width="1.82" height="2.54" rx=".36" ry=".36" transform="translate(136.21 -110.15) rotate(45)"/>
            </g>
            <g>
              <rect class="cls-5" x="202.49" y="98.62" width="2.79" height="3.91" rx=".56" ry=".56" transform="translate(130.84 -114.71) rotate(45)"/>
              <rect class="cls-3" x="199.71" y="102.47" width="1.82" height="2.54" rx=".36" ry=".36" transform="translate(132.12 -111.47) rotate(45)"/>
              <rect class="cls-3" x="197.3" y="104.8" width="1.82" height="2.54" rx=".36" ry=".36" transform="translate(133.06 -109.09) rotate(45)"/>
            </g>
            <rect class="cls-5" x="192.35" y="96.21" width="2.79" height="3.91" rx=".56" ry=".56" transform="translate(387.49 196.32) rotate(-180)"/>
            <rect class="cls-3" x="192.84" y="92.29" width="1.82" height="2.54" rx=".36" ry=".36" transform="translate(387.49 187.13) rotate(-180)"/>
            <g>
              <rect class="cls-5" x="200.09" y="95.27" width="2.79" height="3.91" rx=".56" ry=".56" transform="translate(127.76 -113.99) rotate(45)"/>
              <rect class="cls-3" x="197.49" y="99.12" width="1.82" height="2.54" rx=".36" ry=".36" transform="translate(129.1 -110.89) rotate(45)"/>
              <rect class="cls-3" x="195.07" y="101.45" width="1.82" height="2.54" rx=".36" ry=".36" transform="translate(130.03 -108.49) rotate(45)"/>
            </g>
          </g>
          <line class="cls-1" x1="197.98" y1="94.59" x2="182.98" y2="49.59"/>
        </g>
        <g>
          <g>
            <rect class="cls-4" x="120.31" y="206.86" width="2.79" height="22.91"/>
            <circle class="cls-4" cx="121.71" cy="204.34" r="3.07"/>
          </g>
          <rect x="116.96" y="152.09" width="9.5" height="68.74"/>
          <g>
            <path class="cls-8" d="M116.96,226.98h17.67c3.51,0,6.36,2.85,6.36,6.36v3.7h-23.38c-.36,0-.65-.29-.65-.65v-9.41h0Z"/>
            <line class="cls-6" x1="132.61" y1="226.98" x2="122.83" y2="236.75"/>
            <line class="cls-6" x1="135.96" y1="226.98" x2="126.18" y2="236.75"/>
            <line class="cls-6" x1="129.25" y1="226.98" x2="119.47" y2="236.75"/>
          </g>
          <g>
            <rect class="cls-4" x="116.84" y="206.86" width="2.79" height="22.91" transform="translate(236.48 436.63) rotate(-180)"/>
            <circle class="cls-4" cx="118.24" cy="204.34" r="3.07"/>
          </g>
          <rect x="113.49" y="152.09" width="9.5" height="68.74" transform="translate(236.48 372.92) rotate(-180)"/>
          <g>
            <path class="cls-8" d="M99.61,226.98h23.38v3.7c0,3.51-2.85,6.36-6.36,6.36h-17.67v-9.41c0-.36.29-.65.65-.65Z" transform="translate(221.95 464.01) rotate(-180)"/>
            <line class="cls-6" x1="107.34" y1="226.98" x2="117.12" y2="236.75"/>
            <line class="cls-6" x1="103.99" y1="226.98" x2="113.77" y2="236.75"/>
            <line class="cls-6" x1="110.7" y1="226.98" x2="120.48" y2="236.75"/>
          </g>
        </g>
        <g>
          <g>
            <rect class="cls-4" x="129.76" y="99.56" width="2.79" height="22.91" transform="translate(262.31 222.03) rotate(180)"/>
            <circle class="cls-4" cx="131.16" cy="124.99" r="3.07"/>
          </g>
          <polygon points="155.46 187.86 106.85 187.86 106.85 106.27 130.88 109.62 155.46 105.15 155.46 187.86"/>
          <path class="cls-10" d="M130.88,120.8c-12.87,0-23.33-10.47-23.33-23.33h9.78c0,7.47,6.08,13.55,13.55,13.55s13.55-6.08,13.55-13.55h9.78c0,12.87-10.47,23.33-23.33,23.33Z"/>
          <polygon class="cls-16" points="142.72 78.32 138.14 78.32 138.14 109.06 167.41 103.83 142.72 78.32"/>
          <rect class="cls-11" x="123.61" y="107.94" width="14.53" height="17.88"/>
          <polygon class="cls-16" points="119.03 81.12 123.61 81.12 123.61 111.85 93.23 106.62 119.03 81.12"/>
          <polygon class="cls-6" points="142.72 78.32 138.14 78.32 138.14 109.06 167.41 103.83 142.72 78.32"/>
          <polygon class="cls-6" points="119.03 81.12 123.61 81.12 123.61 111.85 93.23 106.62 119.03 81.12"/>
          <polygon points="155.46 187.86 106.85 187.86 117.46 126.94 155.46 105.15 155.46 187.86"/>
        </g>
        <g>
          <g>
            <path class="cls-13" d="M134.23,79.44l7.47-.41c4.46-.25,7.45-4.69,6.01-8.92l-5.26-15.38c-1.15-3.35-4.29-5.6-7.83-5.6h-11.05c-2.89,0-5.45,1.84-6.38,4.57l-6.7,19.79c-1.16,3.43,1.39,6.98,5.01,6.98l7-.39"/>
            <path class="cls-13" d="M139.34,79.15l1.1,16.87c.13,1.34-.34,2.67-1.29,3.62-.87.88-2.07,1.61-3.32,2.12-1.25.51-2.56.8-3.65.8-3.35,0-6.32-2.16-7.35-5.34l-5.32-16.97"/>
            <path class="cls-6" d="M134.23,79.44l7.47-.41c4.46-.25,7.45-4.69,6.01-8.92l-5.26-15.38c-1.15-3.35-4.29-5.6-7.83-5.6h-11.05c-2.89,0-5.45,1.84-6.38,4.57l-6.7,19.79c-1.16,3.43,1.39,6.98,5.01,6.98l7-.39"/>
            <path class="cls-6" d="M139.34,79.15l1.1,16.87c.13,1.34-.34,2.67-1.29,3.62-.87.88-2.07,1.61-3.32,2.12-1.25.51-2.56.8-3.65.8-3.35,0-6.32-2.16-7.35-5.34l-5.32-16.97"/>
            <path d="M138.1,73.14l1.78-.58c2.12-.69,2.33-3.26,2.1-5.4-.1-.95-.44-1.87-.96-2.67l-3.12-4.74c-1.18-1.82-3.49-2.8-5.88-2.49h0c-2.01.26-3.47,1.91-3.27,3.7l.82,7.51c.41,3.69,4.55,5.96,8.52,4.67Z"/>
            <g>
              <rect x="127.62" y="75.15" width="2.79" height="6.71" rx="1.4" ry="1.4" transform="translate(-17.08 116.78) rotate(-46)"/>
              <rect x="125.76" y="75.68" width="2.79" height="6.71" rx="1.4" ry="1.4" transform="translate(22.9 -28.42) rotate(14)"/>
            </g>
            <path d="M119.25,73.78l2.72.33c2.31.28,4.4-1.42,4.59-3.75l.86-10.58c.09-1.09-.69-2.07-1.78-2.21l-1.78-.24c-2.58-.35-5.09,1.04-6.15,3.42l-2.58,5.75c-1.43,3.2.64,6.87,4.12,7.29Z"/>
            <path class="cls-16" d="M134.91,63.33h0c2.61,0,4.73,2.12,4.73,4.73v.64c0,1.82-1.48,3.3-3.3,3.3h-2.17c-1.43,0-2.58-1.16-2.58-2.58v-2.77c0-1.83,1.48-3.31,3.31-3.31Z" transform="translate(-9.69 24.58) rotate(-10)"/>
            <g>
              <circle cx="135.56" cy="68.51" r="2.44"/>
              <circle class="cls-16" cx="133.81" cy="69" r=".42"/>
              <circle class="cls-16" cx="135.56" cy="68.51" r="1.12"/>
            </g>
            <path d="M128.66,88.56h2.24v2.38c0,.23-.19.42-.42.42h-.98c-.46,0-.84-.38-.84-.84v-1.96h0Z" transform="translate(-8.69 14.06) rotate(-6)"/>
            <path d="M132.48,88.11h.98c.23,0,.42.19.42.42v2.38h-2.24v-1.96c0-.46.38-.84.84-.84Z" transform="translate(277.88 157.14) rotate(171)"/>
            <path d="M136.21,87.47h.81c.19,0,.35.16.35.35v1.97h-1.86v-1.62c0-.38.31-.7.7-.7Z" transform="translate(285.07 154.82) rotate(171)"/>
            <circle cx="132.99" cy="99.49" r="1.4"/>
            <path class="cls-7" d="M106.37,42.2c-3.01,1.93-6.34,13.23-6.34,13.23l4.52-2.72-4.63,8.86,5.63-2.14-12.48,10.4s3.97.44,7.08-1.4-6.11,9.8-6.11,9.8l6.16-.45-4.25,7.19s10.43-3.22,12.21-5.89c5.59-8.38,6.71-29.06,12.63-30.79,4.63-1.35,15.87-.61,15.87-.61,0,0-18.98-12.74-30.3-5.49Z"/>
            <path class="cls-7" d="M122.59,48.57c-5.85-.72-10.95-10.01-6.54-14.88,4.41-4.87,7.8-6.36,7.8-6.36-1.52,1.47-3.23,6.29-1.75,7.64l.5.46s4.94-5.38,5.81-7.98c.63-1.9-.57,5.24-.57,5.24l7.38-5.65-2.31,4.24,6.31-3.18-.94,3.84,6.76-2.45-1.64,5.11,8.37-2.25-5.19,3.41s2.88-1.77,7.46.83c4.58,2.59,7.98,10.1,9.17,13.99,1.95,6.33,11.82,19.05,11.82,19.05l-8.09-2.26,2.28,9.66-5.86-5.46,1.45,10.33-6.15-7.52-2.3,9.87-3.64-5.86-2.14,8.54-5.05-20.93-2.19-10.5c-1.53-5.12-3.13-5.32-9.38-6.05,0,0-8.08-.47-11.37-.87Z"/>
            <path class="cls-18" d="M124.55,71.15l-.21.21-.2.22-.22.2-.1.07-.17.12h-.16s-.11-.02-.11-.02l-.17-.12-.25-.2-.27-.3-.17-.2-.26-.31-.25-.25-.15-.1-.12-.05-.12.02-.2.12-.11.11-.2.17-.52.59-.21.19-.11.11-.2.15h-.19s-.21-.1-.21-.1l-.26-.26-.31-.33-.19-.21-.3-.25-.19-.21-.06-.11-.12-.2v-.19s.14-.2.14-.2l.2-.22.19-.21.53-.46.17-.2.07-.07.12-.22v-.19s-.15-.16-.15-.16l-.81-.81-.19-.21-.11-.11-.14-.23-.04-.19.14-.19.1-.12.22-.2.21-.16.21-.19.28-.33.23-.19.21-.14h.19s.19.12.19.12l.31.31.38.43.43.38.17.12.11.06.15-.02.16-.11.19-.16.17-.2.48-.53.31-.31.19-.14.15-.05h.11s.14.12.14.12l.1.07.17.2.27.35.2.2.31.26.28.28.11.16.04.14-.04.14-.12.17-.42.42-.21.19-.31.26-.16.19-.1.1-.1.17-.04.14.04.11.11.16.3.3.68.6.19.21.09.11.14.19v.21s-.1.23-.1.23l-.21.21-.32.3ZM119.55,66.03l.09.16v-.11s-.02-.06-.02-.06h-.06ZM118.99,66.68v-.02s-.06-.01-.06-.01v.02s.04.04.04.04l.02-.02ZM119.31,66.56v-.05h-.05l-.02.02h.01v.04h.04s.02-.01.02-.01ZM119.5,66.42v-.02h-.06v.04h.06ZM119.4,66.57v.07s.05.05.05.05l.32-.12-.31-.06-.06.06ZM119.24,66.85l.02-.07h-.01s-.04-.02-.04-.02l-.05.05v.07s.07-.02.07-.02ZM119.78,66.24v.05l.05.02.05-.05-.06-.04h-.04ZM119.82,66.45l-.06-.06h-.06s.01.1.01.1h.09s.02-.04.02-.04ZM119.51,67l.12.02-.06-.09-.1-.07v-.06s-.1-.06-.1-.06l.06.14h.02s.05.12.05.12ZM119.36,66.98l-.04-.04-.07.02v.06s.05.01.05.01l.06-.06ZM119.67,66.72v.09h.11v.11s.06-.1.06-.1l-.17-.1ZM119.93,66.56v.06s.21.05.21.05v-.02l-.17-.1h-.04ZM120.02,66.94l.07-.12-.07-.12h-.04s-.06-.02-.06-.02l-.04.06.14.21ZM119.49,67.15l.11.09-.02-.07-.04-.04-.05.02ZM120.21,66.62v.14s.05.14.05.14h.06s.05-.14.05-.14l-.07-.12h-.09ZM119.73,67.12h-.02s-.01.04-.01.04l.04.04.05-.02-.05-.05ZM119.68,67.47l-.06-.04.1-.17-.2.05.07.15h.09ZM120.37,66.56l.11.21.02.12-.11.11-.35.05-.02.07.05.1.16-.04v-.06s.05-.04.05-.04l.11.11h.14s.02-.06.02-.06l-.02-.05-.05.02-.04-.04.12-.22v-.06s.05-.11.05-.11l-.25-.12ZM119.99,67.04h-.05v.06s.02.04.02.04l.02-.1ZM119.94,67.31h.06s.02.01.02.01h.21s0-.06,0-.06l-.35-.02-.04.09.02.02h.05s.01-.04.01-.04ZM119.93,67.54l-.02-.05v-.06s-.05-.04-.05-.04h-.07s-.14.16-.14.16l.02.02h.22s.04-.04.04-.04ZM120.07,67.41v.09s-.07.04-.07.04v.05s.05,0,.05,0l.1-.1v-.1s-.07.02-.07.02ZM121.39,69.62l.02-.15.09-.06-.06-.06-.09.04h.01s-.05-.01-.05-.01v-.11s.02-.01.02-.01l.02-.1-.05-.02-.06.04-.02-.02h.01s-.05-.06-.05-.06l.04-.04v-.04s.12-.14.12-.14l.06.04.02-.02v-.05h-.04s.02-.04.02-.04v-.09s-.07.01-.07.01l-.06.06-.04-.04v-.05l.06-.04v-.07l-.06-.06.05-.07-.04.06.12.12.02-.02v-.06s-.06-.05-.06-.05v-.12l.07-.1h.07l.07-.05h.06s0,.11,0,.11h-.01s-.02.01-.02.01v.02h.01s.06,0,.06,0l.04.06-.12.27h.04s-.01,0-.01,0v.04s.05-.01.05-.01h.01v-.04h-.01s-.02-.01-.02-.01l.12-.1h.05l.14.09v.14s.1.01.1.01v-.04h.06l.02.02.11-.04v-.06s-.46-.25-.46-.25l-.02-.15.1-.2-.02-.07h-.09s-.07.04-.07.04l-.11-.26-.12.07-.11-.11h-.02v-.04s.1-.04.1-.04l.05-.1h-.01v-.04l-.02-.02.1-.02-.06-.04-.06.04-.07-.1-.12-.15v-.19s-.05-.06-.05-.06l.05-.07-.07-.02-.06.04h-.02l-.05-.05-.02-.1-.05.07.04.16-.22.07.04.04.25.02.05.05-.49-.02-.02.07-.14.11.06.23h.16s.07.04.07.04l-.22.07v.06s-.06.12-.06.12l-.21.11h-.06s-.1-.11-.1-.11v-.06s.07-.01.07-.01l.04-.04v-.05s-.17.02-.17.02v-.12h-.01s-.09,0-.09,0l-.04.04h-.05s-.02.05-.02.05l.39.42.04-.04.1-.02-.02.07.07.25.07-.05-.05-.17.02-.05v-.11s.12-.16.12-.16h.11s.05-.06.05-.06l.02.02.12-.1.04-.11-.02-.07h-.06s-.01-.02-.01-.02l.09-.19.11-.04.05.1-.04.06h-.05l-.02.02.39.05h.01s.02.04.02.04l-.05.02-.04.06h.01s-.05.06-.05.06v.05s-.02.02-.02.02h-.2l-.11.09.06.06.02.1.06.04h.06s.05-.06.05-.06v-.02h.06s.05-.04.05-.04l-.02-.12.06-.04v-.04s.09.15.09.15v.14s-.1.09-.1.09h-.25l-.05.07.07.1h.06s-.1.04-.1.04l-.11-.11-.07.02-.05.07-.07.02-.02-.05.09-.19-.22.02v-.04h-.06v.04s.04.02.04.02l.04.09v.06s.01.05.01.05h.04s-.01.22-.01.22l.21-.23.19.04-.02.02v.02s-.09-.01-.09-.01l-.12.12.05.12v.04s-.09.05-.09.05l-.02.07.1.02.09-.09h.02l.05.07v.09s-.11.05-.11.05l.06.04.09-.04.04.09-.06.09h-.01s-.04,0-.04,0l-.07-.02-.07.02-.06-.06-.06.04.02.05.06.04-.05.22h-.09s-.04.07-.04.07l.19-.09v-.11s.05-.01.05-.01v-.06s-.06-.02-.06-.02l.05-.05.07.02.06-.04-.07.1v.16s.05.04.05.04l.04-.04v-.09s.04-.02.04-.02l.06.04.04-.04v-.06s.02-.01.02-.01h.04s.01.12.01.12h-.04s-.06.12-.06.12l-.16.06-.05.07.14-.04.09.11.15-.02.02-.05h.06s0,.04,0,.04h.05s.05-.05.05-.05ZM120.61,67.01v.04s.02.04.02.04h.02l-.02-.07h-.02ZM120.23,67.59v.04s.05.01.05.01l.05-.05v-.05h-.04s-.05.01-.05.01v.04ZM120.95,67.68l.05.02.05-.02v-.04s-.05-.04-.05-.04l-.06.04v.04ZM122.37,66.48l-.04.06v.06s.15-.09.15-.09l-.02-.05h-.09ZM122.53,66.4v.04s.02.04.02.04h.02s.02-.02.02-.02l-.05-.05h-.02ZM123.03,68.15l.02-.02h.09s.04-.05.04-.05h-.23s-.1-.23-.1-.23l-.05.3-.05.05-.05-.27.07-.15v-.09s-.19-.17-.19-.17l-.23.06v.17l-.05.07-.07-.22-.19-.09-.14-.21.04-.04v-.04s.02-.06.02-.06h.14s-.01.05-.01.05l.05.05h.06s-.02-.19-.02-.19h.14s-.01-.1-.01-.1l-.04-.04v-.05s-.06-.04-.06-.04l-.04.06-.05.02-.16.09-.06.16-.12.07.04.04.02.1h-.01s-.06-.02-.06-.02l-.25.07.05.07.35-.02.12.1.02.15.09.06-.02.02.1.12.11.04.07-.02v-.06s.02-.01.02-.01l.2.1.02.1-.1.07-.05-.05v-.05l-.05-.02-.05.35.1.1.02-.02h.02l.16-.14.1.02.16-.06.04.04h.02l.02-.07-.04-.06h.01s0-.04,0-.04ZM120.15,69.1l.16.11h.04s.15.19.15.19h.04s.04,0,.04,0l-.14-.36.02-.07-.09-.06-.09.09.05.02.05-.02h.01s-.1.06-.1.06h-.01s-.02.01-.02.01v-.02s-.01.01-.01.01h-.06s-.04-.05-.04-.05v-.04s-.02-.01-.02-.01h-.04s-.05.19-.05.19h.06s.05-.04.05-.04ZM122.98,66.15v.02s.02.02.02.02h.04s.01,0,.01,0v-.02h-.01s-.06-.02-.06-.02ZM122.39,66.74v.25l.04.04.16-.09v-.06s-.19-.15-.19-.15h-.01ZM122.67,66.61l-.16.06-.02.1.06-.06.07.07.1.02-.05-.2ZM121.76,67.59l-.06-.04-.12.07v.04s.06.02.06.02l.11-.06v-.04ZM123.2,66.05v.04s.07-.01.07-.01l.06-.06.05.02h.06s-.14-.1-.14-.1l-.11.11ZM120.56,68.79h.09s-.04-.07-.04-.07l-.05-.02v.1ZM123.05,66.4l-.04-.06h-.07v.02s.06.09.06.09l.05-.05ZM119.79,69.63l.09-.11h-.06s-.01,0-.01,0h-.02l-.06.04v.06s.07.01.07.01ZM123.21,66.31l.02-.02-.06-.06h-.07l.02.07.09.04v-.02ZM122.87,66.46l-.04.04v.05s.1-.1.1-.1h-.06ZM120.12,69.33v-.11s-.14.12-.14.12l.02.05h.05l.06-.06ZM119.07,70.36v-.06h-.04l-.02.05.04.04.02-.02ZM122.83,66.57l-.09.11.12-.07-.04-.04ZM120.5,69.07l.15-.07.05-.1-.07-.05-.1.07-.02.15ZM122.6,67.22l-.02-.05h-.06s-.02-.04-.02-.04h-.02s-.01-.06-.01-.06h-.06s-.01.07-.01.07l.19.11.04-.04ZM121.9,67.72h-.06s-.04.05-.04.05l-.05-.02-.05.02-.05.12.05.02.05-.05.19.11v-.23s.02-.01.02-.01v-.05s-.04-.01-.04-.01l-.02.05ZM119.45,70.17v-.06s-.11.02-.11.02l-.02.05v.04h.06l.07-.05ZM121.15,68.37l.05.1-.05.02h-.11s.11-.12.11-.12ZM123.1,66.5v.02l-.12.05-.02.15.28-.26-.14.04ZM119.76,69.81l.09.09h.05s.1.1.1.1l.47-.39.02-.12-.31.33h-.07s-.06-.06-.06-.06l.04-.06-.1-.07-.22.2ZM120.24,69.36v.04s.07-.01.07-.01v-.04s-.04-.05-.04-.05l-.04.06ZM122.78,66.87h.02s.05-.05.05-.05v-.02s-.04-.01-.04-.01l-.05.05v.04ZM122.73,66.99l-.07-.05-.04.04v.05h.04s.02.06.02.06l-.05.15.04.11h.04s.02-.36.02-.36ZM122.44,67.38v-.04s-.05-.01-.05-.01l-.05.02v.02s.05.05.05.05h.02s.02-.05.02-.05ZM119.23,70.52h.06s.09-.07.09-.07h-.01s-.02-.01-.02-.01l-.02.02h-.09s0,.06,0,.06ZM121.35,68.37l-.05.07.05-.07ZM123.42,66.32v.04s.01.02.01.02h.05v-.05l-.02-.02h-.01s-.02.01-.02.01ZM123.57,66.2h.11s.06-.02.06-.02v-.02s-.02-.02-.02-.02l-.15.07ZM120.21,69.61l.05.02v-.02s-.04-.06-.04-.06l-.02.02v.04ZM123.8,65.99v.06s.04,0,.04,0v-.06s-.04,0-.04,0ZM119.29,70.51v.02h-.01s.01-.02.01-.02ZM119.23,70.69v-.04s-.04-.02-.04-.02l-.06.04.04.04h.06ZM123.42,66.47h-.07l-.05.05.12.35.06-.33-.06-.06ZM119.83,70.11v-.04s0-.01,0-.01h-.05v.02s-.01.01-.01.01h.06ZM121.51,68.51l-.1.05.07.12h.01s.05-.04.05-.04l.02-.32-.1.07.04.11ZM122.89,67.03l-.06.04.06.04.06-.04-.06-.04ZM123.2,66.87h-.12l.09.06.12-.17h-.09v.11ZM123.16,67.62h-.05l-.12-.1v-.14s-.09-.1-.09-.1l.02-.15-.16.04v.16h.09l.04.06-.11.11v.14s.07.04.07.04l.04-.04-.02-.05.04-.04h.05l.19.14.06-.04.12.07.12-.25-.28.14ZM119.77,70.32l.1-.02.02-.05-.07-.05h-.04s-.04.07-.04.07l.02.05ZM123.56,66.51v.05h.02s.01.01.01.01h.01s0-.04,0-.04l-.05-.02ZM122.15,68.51l.1.05.06.09.1.02.06-.04.02.1h.04s0-.06,0-.06l-.04-.06h.01s-.11-.05-.11-.05l-.02-.05h-.06s-.01,0-.01,0l-.12-.05-.05-.07v-.15l-.1-.1-.04.06-.02-.02h-.02v.06h-.06l-.02.15.09.04.06-.04v-.04s.02-.04.02-.04l.1.2-.1-.02.06.11.05-.02v-.06ZM119.7,70.52v-.02s-.04-.01-.04-.01l-.04.04v.02s.07-.02.07-.02ZM123.31,67l-.06-.04-.2.15.12.07.12-.07v-.02s.01-.01.01-.01v-.07ZM120.55,69.81l-.07-.1-.17.15.05.02.11-.09h.09ZM120.78,69.8l-.02-.15h-.16s.16.17.16.17l.02-.02ZM121.52,68.84v-.09s-.01,0-.01,0l-.04.06.05.02ZM123.51,66.8v.04s0,.04,0,.04h.04s.07-.04.07-.04v-.06s-.05-.01-.05-.01l-.06.04ZM121.3,69.06l.1.02.07.15h.04s.02-.01.02-.01l.04.06h.04s.05.16.05.16l.16.04-.32-.39.09-.04h.01s.2-.06.2-.06l-.04.11.17-.12v-.02s.09-.04.09-.04l-.38-.09-.07-.07v.11s-.01.02-.01.02v.06s-.25.11-.25.11ZM120.05,70.28l.05.02.11-.06v-.1s-.07.1-.07.1h-.05l-.04.04ZM122.26,68.12l.02.05.02.02.06-.06-.02-.05h-.06s-.02.04-.02.04ZM123.46,67.05l-.06-.04h-.02s-.02.02-.02.02v.19s0,.01,0,.01h.02s.09-.19.09-.19ZM119.55,70.96v-.04s0-.01,0-.01h-.06s0,.04,0,.04h.06ZM123.36,67.4l.02-.07-.1-.02-.19.06.02.07.12.05.11-.09ZM121.72,68.79h.06s.04-.05.04-.05l-.04-.04-.06.04v.05ZM120.58,70v-.02h-.01s-.06-.02-.06-.02l-.04.04.05.02h.06ZM123.72,66.87l-.02.05.05.05.02-.02v-.09s-.05.01-.05.01ZM122.63,67.98h-.01s0-.01,0-.01h.01ZM122.97,67.74h.01s-.04-.02-.04-.02l-.06.06h.09s0-.04,0-.04ZM120.46,70.22l-.06.04.05.05.1.02.1-.07-.17.02v-.06ZM120.04,70.89v-.07l-.04-.06-.07-.02-.04.06.04.04h.05l.06.06ZM121,69.85l-.05-.05h-.05l-.04.04h.14ZM120.74,70.01l-.06.04-.02.05h.01s.02.01.02.01l.04-.04v-.06ZM122.53,68.45h-.01s-.01,0-.01,0h.02ZM122,69.35l.09-.11-.2-.15v.1h.11s.01.02.01.02v.14ZM119.93,71.3v-.04s-.01-.05-.01-.05v-.04s-.04.02-.04.02v.1h.05ZM122.3,68.9h-.04s-.05.01-.05.01v.04s.01.07.01.07l.25.02v-.02l-.17-.12ZM122.3,69.4l.09-.16-.1-.17h-.1l-.05.07.14.14.02.12ZM121.77,69.73l-.02-.07-.06-.06-.06.04.15.1ZM121.84,70.05l-.05-.07.1-.1.02-.1-.25.05v.05l.05.05.02.1.1.02ZM121.99,69.65l-.05-.05-.06.04.06.06h.05v-.05ZM122.57,69l.04.33h.09s.07-.16.07-.16l-.1-.15-.1-.02ZM122.95,69.73l.02-.07-.02-.05h-.06s-.05-.01-.05-.01l.16-.28-.02-.07.1-.15-.3-.17.02.12.06.06.06.23-.43.23-.16-.04.04.21.2-.02v-.09s.09-.05.09-.05l.11.16h.19ZM122.27,69.57v-.06h-.06l-.02.07.04.06.05-.07ZM122.56,69.85v-.05s-.1-.02-.1-.02l-.1.05-.23-.06-.04.04.02.1h.05l.1-.07.05.05.25-.02ZM122.16,70.15l-.02-.15-.07-.05h-.07l-.02.07h-.01s-.07.06-.07.06h-.06s-.02.06-.02.06l.04.04h.3l.04-.04ZM122.44,70.07v-.12h-.02s-.06.04-.06.04v.06s-.04.02-.04.02v.02s-.07.02-.07.02v.07h.06s.04-.05.04-.05h.02l.07-.07ZM123.11,69.62v-.09s-.06-.02-.06-.02v.04s0,.04,0,.04l.06.04ZM122.56,70.17v.04s.01.05.01.05h.04s.06-.05.06-.05v-.04s-.06-.02-.06-.02l-.05.02ZM122.68,70.69l.02-.05-.05-.07.14-.21h-.27s-.02-.05-.02-.05h-.05l-.02.05.06.04v.06s.06.05.06.05l-.05.07.04.06.15.05ZM123.04,69.74v.04s.06.02.06.02h.06s.04-.05.04-.05l-.09-.06-.07.05ZM122.97,70.6v-.04s0-.04,0-.04l-.05-.02-.07.05v.04s.06.02.06.02h.06ZM123.5,70.52l-.07-.1-.1.02-.31.28v.07l.04.04.3-.32.07.02.07-.02ZM123.73,70.31v-.06s-.06-.07-.06-.07h-.06s-.01.07-.01.07l.04.06.05.02.05-.02ZM123.58,70.97l-.07-.15v-.15l-.11.16.14.16.05-.02ZM123.25,71.16v-.02s-.02-.02-.02-.02l-.06.04v.04s.05.01.05.01l.04-.04ZM123.87,70.72h.04s0-.04,0-.04h-.01s-.04-.02-.04-.02l-.05.02.06.04ZM123.37,71.46l-.02-.07-.09-.04.07.12h.04ZM124.26,70.47l-.02.05.02.07h.04s.01-.05.01-.05v-.05l-.02-.02h-.02ZM123.68,71.27l.04-.06v-.04s-.04,0-.04,0l-.04.06v.04s.04,0,.04,0Z"/>
            <g class="cls-15">
              <path class="cls-17" d="M106.37,42.2c-3.01,1.93-6.34,13.23-6.34,13.23l4.52-2.72-4.63,8.86,5.63-2.14-12.48,10.4s3.97.44,7.08-1.4-6.11,9.8-6.11,9.8l6.16-.45-4.25,7.19s10.43-3.22,12.21-5.89c5.59-8.38,6.71-29.06,12.63-30.79,4.63-1.35,15.87-.61,15.87-.61,0,0-18.98-12.74-30.3-5.49Z"/>
            </g>
          </g>
          <path class="cls-12" d="M139.08,75.15l2.24-.73c2.67-.87,2.93-4.1,2.65-6.8-.13-1.2-.55-2.35-1.21-3.36l-3.92-5.97c-1.48-2.3-4.39-3.53-7.4-3.13h0"/>
          <g>
            <path class="cls-2" d="M114.11,71.95c.05.08.09.16.14.24"/>
            <path class="cls-9" d="M114.58,72.66c.98,1.29,2.45,2.21,4.24,2.42l2.72.33"/>
            <line class="cls-2" x1="121.81" y1="75.45" x2="122.09" y2="75.48"/>
          </g>
          <polyline class="cls-6" points="139.26 87.42 125.29 88.62 124.73 88.54 124.17 86.3"/>
          <g class="cls-15">
            <path class="cls-17" d="M122.59,48.57c-5.85-.72-10.95-10.01-6.54-14.88,4.41-4.87,7.8-6.36,7.8-6.36-1.52,1.47-3.23,6.29-1.75,7.64l.5.46s4.94-5.38,5.81-7.98c.63-1.9-.57,5.24-.57,5.24l7.38-5.65-2.31,4.24,6.31-3.18-.94,3.84,6.76-2.45-1.64,5.11,8.37-2.25-5.19,3.41s2.88-1.77,7.46.83c4.58,2.59,7.98,10.1,9.17,13.99,1.95,6.33,11.82,19.05,11.82,19.05l-8.09-2.26,2.28,9.66-5.86-5.46,1.45,10.33-6.15-7.52-2.3,9.87-3.64-5.86-2.14,8.54-5.05-20.93-2.19-10.5c-1.53-5.12-3.13-5.32-9.38-6.05,0,0-8.08-.47-11.37-.87Z"/>
          </g>
        </g>
      </g>
    </g>
  </g>
</svg>