<?xml version="1.0" encoding="UTF-8"?>
<svg xmlns="http://www.w3.org/2000/svg" viewBox="0 0 256 256">
  <defs>
    <style>
      .cls-1 {
        stroke: #fff;
        stroke-width: 6px;
      }

      .cls-1, .cls-2, .cls-3, .cls-4, .cls-5, .cls-6, .cls-7 {
        stroke-miterlimit: 10;
      }

      .cls-1, .cls-2, .cls-4, .cls-5, .cls-6, .cls-7 {
        fill: none;
      }

      .cls-2 {
        stroke-dasharray: 1.47 1.47;
      }

      .cls-2, .cls-4, .cls-5 {
        stroke: red;
      }

      .cls-2, .cls-5, .cls-6, .cls-7 {
        stroke-width: 3.58px;
      }

      .cls-8 {
        isolation: isolate;
      }

      .cls-9 {
        fill: #00e59d;
        mix-blend-mode: hard-light;
      }

      .cls-10 {
        fill: #fff;
      }

      .cls-3 {
        fill: #96bd96;
        stroke-width: 2.86px;
      }

      .cls-3, .cls-6 {
        stroke: #000;
      }

      .cls-11 {
        fill: #cfc;
      }

      .cls-4 {
        stroke-width: 9px;
      }

      .cls-7 {
        stroke: #39b54a;
        stroke-dasharray: 1.43;
      }
    </style>
  </defs>
  <g class="cls-8">
    <g id="Layer_1">
      <g>
        <path class="cls-11" d="M128.45,165.52l19.15-1.06c11.44-.63,19.1-12.01,15.4-22.85l-13.49-39.42c-2.94-8.58-11-14.35-20.07-14.35h-28.32c-7.4,0-13.97,4.71-16.34,11.72l-17.18,50.72c-2.98,8.78,3.56,17.89,12.83,17.89l17.95-.99"/>
        <path class="cls-11" d="M141.54,164.79l2.82,43.23c.32,3.43-.87,6.85-3.3,9.29-2.24,2.25-5.31,4.12-8.51,5.42-3.2,1.3-6.55,2.04-9.36,2.04-8.58,0-16.19-5.52-18.84-13.68l-13.63-43.48"/>
        <path class="cls-6" d="M134.45,165.52l13.15-1.06c11.44-.63,19.1-12.01,15.4-22.85l-13.49-39.42c-2.94-8.58-11-14.35-20.07-14.35h-28.32c-7.4,0-13.97,4.71-16.34,11.72l-17.18,50.72c-2.98,8.78,3.56,17.89,12.83,17.89l14.95-.99"/>
        <path class="cls-6" d="M141.54,164.79l2.82,43.23c.32,3.43-.87,6.85-3.3,9.29-2.24,2.25-5.31,4.12-8.51,5.42-3.2,1.3-6.55,2.04-9.36,2.04-8.58,0-16.19-5.52-18.84-13.68l-13.63-43.48"/>
        <path d="M138.37,149.37l4.56-1.48c5.43-1.76,5.97-8.35,5.39-13.84-.26-2.44-1.12-4.79-2.47-6.84l-7.98-12.14c-3.02-4.68-8.94-7.18-15.06-6.38h0c-5.14.68-8.88,4.91-8.38,9.48l2.11,19.24c1.04,9.46,11.65,15.27,21.83,11.97Z"/>
        <g>
          <rect x="111.51" y="154.52" width="7.16" height="17.19" rx="3.58" ry="3.58" transform="translate(-82.2 132.59) rotate(-46)"/>
          <rect x="106.76" y="155.89" width="7.16" height="17.19" rx="3.58" ry="3.58" transform="translate(43.07 -21.81) rotate(14)"/>
        </g>
        <path d="M90.07,151.03l6.97.84c5.93.71,11.27-3.65,11.75-9.6l2.21-27.11c.23-2.8-1.77-5.29-4.56-5.67l-4.57-.62c-6.62-.9-13.04,2.67-15.77,8.76l-6.61,14.74c-3.67,8.19,1.65,17.6,10.57,18.67Z"/>
        <path class="cls-1" d="M124.35,140.5c0-4.14,3.36-7.5,7.5-7.5s7.5,3.36,7.5,7.5"/>
        <path class="cls-4" d="M88.35,140.5c0-4.14,3.36-7.5,7.5-7.5s7.5,3.36,7.5,7.5"/>
        <path class="cls-3" d="M57.07,70.08c-7.72,4.94-16.24,33.91-16.24,33.91l11.58-6.96-11.86,22.71,14.42-5.48-31.98,26.66s10.18,1.11,18.14-3.58c7.96-4.69-15.65,25.11-15.65,25.11l15.78-1.16-10.89,18.43s26.72-8.24,31.29-15.1c14.32-21.48,17.19-74.47,32.36-78.9,11.85-3.46,40.68-1.56,40.68-1.56,0,0-48.64-32.64-77.64-14.08Z"/>
        <path class="cls-3" d="M98.62,86.41c-15-1.84-28.07-25.64-16.76-38.13,11.3-12.49,19.99-16.3,19.99-16.3-3.88,3.77-8.27,16.12-4.49,19.57l1.28,1.17s12.67-13.78,14.89-20.45c1.62-4.87-1.46,13.42-1.46,13.42l18.91-14.47-5.91,10.86,16.17-8.15-2.42,9.83,17.33-6.27-4.21,13.08,21.46-5.76-13.3,8.73s7.38-4.53,19.12,2.12c11.74,6.65,20.45,25.88,23.51,35.84,4.99,16.22,30.29,48.82,30.29,48.82l-20.74-5.78,5.85,24.77-15.03-13.99,3.73,26.48-15.77-19.28-5.9,25.29-9.32-15.02-5.48,21.88-12.95-53.63-5.6-26.91c-3.92-13.12-8.01-13.63-24.05-15.5,0,0-20.72-1.19-29.13-2.23Z"/>
        <path class="cls-9" d="M57.07,70.08c-7.72,4.94-16.24,33.91-16.24,33.91l11.58-6.96-11.86,22.71,14.42-5.48-31.98,26.66s10.18,1.11,18.14-3.58c7.96-4.69-15.65,25.11-15.65,25.11l15.78-1.16-10.89,18.43s26.72-8.24,31.29-15.1c14.32-21.48,17.19-74.47,32.36-78.9,11.85-3.46,40.68-1.56,40.68-1.56,0,0-48.64-32.64-77.64-14.08Z"/>
        <path class="cls-9" d="M98.62,86.41c-15-1.84-28.07-25.64-16.76-38.13,11.3-12.49,19.99-16.3,19.99-16.3-3.88,3.77-8.27,16.12-4.49,19.57l1.28,1.17s12.67-13.78,14.89-20.45c1.62-4.87-1.46,13.42-1.46,13.42l18.91-14.47-5.91,10.86,16.17-8.15-2.42,9.83,17.33-6.27-4.21,13.08,21.46-5.76-13.3,8.73s7.38-4.53,19.12,2.12c11.74,6.65,20.45,25.88,23.51,35.84,4.99,16.22,30.29,48.82,30.29,48.82l-20.74-5.78,5.85,24.77-15.03-13.99,3.73,26.48-15.77-19.28-5.9,25.29-9.32-15.02-5.48,21.88-12.95-53.63-5.6-26.91c-3.92-13.12-8.01-13.63-24.05-15.5,0,0-20.72-1.19-29.13-2.23Z"/>
        <path class="cls-7" d="M140.89,154.54l5.74-1.86c6.84-2.22,7.52-10.52,6.79-17.42-.33-3.08-1.4-6.03-3.1-8.61l-10.05-15.29c-3.8-5.89-11.26-9.04-18.97-8.03h0"/>
        <g>
          <path class="cls-5" d="M76.89,147.23c.12.21.24.41.37.61"/>
          <path class="cls-2" d="M78.09,149.05c2.5,3.3,6.29,5.66,10.86,6.21l6.95.83"/>
          <line class="cls-5" x1="96.63" y1="156.18" x2="97.34" y2="156.27"/>
        </g>
        <path d="M118.19,190.44c-7.87.66-15.33-.14-21.49-1.99,4.61,10.94,13.89,18.24,23.53,17.44,9.64-.8,16.82-9.47,18.47-20.94-5.54,2.83-12.63,4.83-20.51,5.49Z"/>
        <path class="cls-10" d="M112.88,191.41h4.39v4.66c0,.45-.37.82-.82.82h-1.92c-.91,0-1.64-.74-1.64-1.64v-3.84h0Z" transform="translate(-45.26 35.31) rotate(-14.61)"/>
        <path class="cls-10" d="M120.17,189.65h1.92c.45,0,.82.37.82.82v4.66h-4.39v-3.84c0-.91.74-1.64,1.64-1.64Z" transform="translate(294 339.24) rotate(162.39)"/>
        <path class="cls-10" d="M127.16,187.33h1.59c.38,0,.68.31.68.68v3.87h-3.64v-3.19c0-.75.61-1.37,1.37-1.37Z" transform="translate(306.62 331.72) rotate(162.39)"/>
      </g>
    </g>
  </g>
</svg>