<?xml version="1.0" encoding="UTF-8"?>
<svg xmlns="http://www.w3.org/2000/svg" viewBox="0 0 256 256">
  <defs>
    <style>
      .cls-1 {
        stroke-dasharray: 1.47 1.47;
      }

      .cls-1, .cls-2, .cls-3, .cls-4, .cls-5 {
        stroke-miterlimit: 10;
      }

      .cls-1, .cls-3 {
        stroke: red;
      }

      .cls-1, .cls-3, .cls-4, .cls-5 {
        fill: none;
        stroke-width: 3.58px;
      }

      .cls-6 {
        isolation: isolate;
      }

      .cls-7 {
        fill: #00e59d;
        mix-blend-mode: hard-light;
      }

      .cls-8 {
        fill: #fff;
      }

      .cls-2 {
        fill: #96bd96;
        stroke-width: 2.86px;
      }

      .cls-2, .cls-4 {
        stroke: #000;
      }

      .cls-9 {
        fill: #cfc;
      }

      .cls-10 {
        fill: red;
      }

      .cls-5 {
        stroke: #39b54a;
        stroke-dasharray: 1.43;
      }
    </style>
  </defs>
  <g class="cls-6">
    <g id="Layer_1">
      <g>
        <path class="cls-9" d="M128.45,165.52l19.15-1.06c11.44-.63,19.1-12.01,15.4-22.85l-13.49-39.42c-2.94-8.58-11-14.35-20.07-14.35h-28.32c-7.4,0-13.97,4.71-16.34,11.72l-17.18,50.72c-2.98,8.78,3.56,17.89,12.83,17.89l17.95-.99"/>
        <path class="cls-9" d="M141.54,164.79l2.82,43.23c.32,3.43-.87,6.85-3.3,9.29-2.24,2.25-5.31,4.12-8.51,5.42-3.2,1.3-6.55,2.04-9.36,2.04-8.58,0-16.19-5.52-18.84-13.68l-13.63-43.48"/>
        <path class="cls-4" d="M128.45,165.52l19.15-1.06c11.44-.63,19.1-12.01,15.4-22.85l-13.49-39.42c-2.94-8.58-11-14.35-20.07-14.35h-28.32c-7.4,0-13.97,4.71-16.34,11.72l-17.18,50.72c-2.98,8.78,3.56,17.89,12.83,17.89l17.95-.99"/>
        <path class="cls-4" d="M141.54,164.79l2.82,43.23c.32,3.43-.87,6.85-3.3,9.29-2.24,2.25-5.31,4.12-8.51,5.42-3.2,1.3-6.55,2.04-9.36,2.04-8.58,0-16.19-5.52-18.84-13.68l-13.63-43.48"/>
        <path d="M138.37,149.37l4.56-1.48c5.43-1.76,5.97-8.35,5.39-13.84-.26-2.44-1.12-4.79-2.47-6.84l-7.98-12.14c-3.02-4.68-8.94-7.18-15.06-6.38h0c-5.14.68-8.88,4.91-8.38,9.48l2.11,19.24c1.04,9.46,11.65,15.27,21.83,11.97Z"/>
        <g>
          <rect x="111.51" y="154.52" width="7.16" height="17.19" rx="3.58" ry="3.58" transform="translate(-82.2 132.59) rotate(-46)"/>
          <rect x="106.76" y="155.89" width="7.16" height="17.19" rx="3.58" ry="3.58" transform="translate(43.07 -21.81) rotate(14)"/>
        </g>
        <path d="M90.07,151.03l6.97.84c5.93.71,11.27-3.65,11.75-9.6l2.21-27.11c.23-2.8-1.77-5.29-4.56-5.67l-4.57-.62c-6.62-.9-13.04,2.67-15.77,8.76l-6.61,14.74c-3.67,8.19,1.65,17.6,10.57,18.67Z"/>
        <path class="cls-8" d="M130.21,124.23h0c6.7,0,12.13,5.44,12.13,12.13v1.63c0,4.66-3.79,8.45-8.45,8.45h-5.55c-3.65,0-6.62-2.97-6.62-6.62v-7.1c0-4.69,3.81-8.49,8.49-8.49Z" transform="translate(-21.49 24.98) rotate(-10)"/>
        <circle cx="131.85" cy="137.5" r="6.27"/>
        <circle class="cls-8" cx="127.38" cy="138.76" r="1.07"/>
        <circle class="cls-8" cx="131.85" cy="137.5" r="2.86"/>
        <path d="M114.17,188.91h5.73v6.09c0,.59-.48,1.07-1.07,1.07h-2.51c-1.19,0-2.15-.96-2.15-2.15v-5.01h0Z" transform="translate(-19.48 13.29) rotate(-6)"/>
        <path d="M123.96,187.73h2.51c.59,0,1.07.48,1.07,1.07v6.09h-5.73v-5.01c0-1.19.96-2.15,2.15-2.15Z" transform="translate(277.75 360.76) rotate(171)"/>
        <path d="M133.54,186.1h2.08c.49,0,.89.4.89.89v5.05h-4.76v-4.16c0-.98.8-1.78,1.78-1.78Z" transform="translate(296.19 354.83) rotate(171)"/>
        <circle cx="125.27" cy="216.9" r="3.58"/>
        <path class="cls-2" d="M57.07,70.08c-7.72,4.94-16.24,33.91-16.24,33.91l11.58-6.96-11.86,22.71,14.42-5.48-31.98,26.66s10.18,1.11,18.14-3.58c7.96-4.69-15.65,25.11-15.65,25.11l15.78-1.16-10.89,18.43s26.72-8.24,31.29-15.1c14.32-21.48,17.19-74.47,32.36-78.9,11.85-3.46,40.68-1.56,40.68-1.56,0,0-48.64-32.64-77.64-14.08Z"/>
        <path class="cls-2" d="M98.62,86.41c-15-1.84-28.07-25.64-16.76-38.13,11.3-12.49,19.99-16.3,19.99-16.3-3.88,3.77-8.27,16.12-4.49,19.57l1.28,1.17s12.67-13.78,14.89-20.45c1.62-4.87-1.46,13.42-1.46,13.42l18.91-14.47-5.91,10.86,16.17-8.15-2.42,9.83,17.33-6.27-4.21,13.08,21.46-5.76-13.3,8.73s7.38-4.53,19.12,2.12c11.74,6.65,20.45,25.88,23.51,35.84,4.99,16.22,30.29,48.82,30.29,48.82l-20.74-5.78,5.85,24.77-15.03-13.99,3.73,26.48-15.77-19.28-5.9,25.29-9.32-15.02-5.48,21.88-12.95-53.63-5.6-26.91c-3.92-13.12-8.01-13.63-24.05-15.5,0,0-20.72-1.19-29.13-2.23Z"/>
        <path class="cls-7" d="M57.07,70.08c-7.72,4.94-16.24,33.91-16.24,33.91l11.58-6.96-11.86,22.71,14.42-5.48-31.98,26.66s10.18,1.11,18.14-3.58c7.96-4.69-15.65,25.11-15.65,25.11l15.78-1.16-10.89,18.43s26.72-8.24,31.29-15.1c14.32-21.48,17.19-74.47,32.36-78.9,11.85-3.46,40.68-1.56,40.68-1.56,0,0-48.64-32.64-77.64-14.08Z"/>
        <path class="cls-7" d="M98.62,86.41c-15-1.84-28.07-25.64-16.76-38.13,11.3-12.49,19.99-16.3,19.99-16.3-3.88,3.77-8.27,16.12-4.49,19.57l1.28,1.17s12.67-13.78,14.89-20.45c1.62-4.87-1.46,13.42-1.46,13.42l18.91-14.47-5.91,10.86,16.17-8.15-2.42,9.83,17.33-6.27-4.21,13.08,21.46-5.76-13.3,8.73s7.38-4.53,19.12,2.12c11.74,6.65,20.45,25.88,23.51,35.84,4.99,16.22,30.29,48.82,30.29,48.82l-20.74-5.78,5.85,24.77-15.03-13.99,3.73,26.48-15.77-19.28-5.9,25.29-9.32-15.02-5.48,21.88-12.95-53.63-5.6-26.91c-3.92-13.12-8.01-13.63-24.05-15.5,0,0-20.72-1.19-29.13-2.23Z"/>
        <path class="cls-10" d="M103.64,144.27l-.54.54-.51.57-.57.51-.25.19-.44.32-.41.03-.28-.09-.44-.32-.63-.51-.7-.76-.44-.51-.66-.79-.63-.63-.38-.25-.32-.13-.32.06-.51.32-.28.28-.51.44-1.33,1.52-.54.47-.28.28-.51.38-.47.03-.54-.28-.66-.66-.79-.85-.47-.54-.76-.63-.47-.54-.16-.28-.32-.51-.03-.47.38-.51.51-.57.47-.54,1.36-1.17.44-.51.19-.19.32-.57-.03-.47-.35-.41-2.09-2.09-.47-.54-.28-.28-.35-.6-.09-.47.35-.47.25-.32.57-.51.54-.41.54-.47.73-.85.6-.47.54-.35.47-.03.47.35.79.79.98,1.11,1.11.98.44.32.28.16.38-.06.41-.28.47-.41.44-.51,1.23-1.36.79-.79.47-.35.38-.13.28.03.35.28.25.19.44.51.7.89.51.51.79.66.73.73.28.41.09.35-.09.35-.32.44-1.08,1.08-.54.47-.79.66-.41.47-.25.25-.25.44-.09.35.09.28.28.41.76.76,1.74,1.55.47.54.22.28.35.47.03.54-.28.6-.54.54-.82.76ZM90.83,131.15l.22.41.03-.28-.09-.16-.16.03ZM89.4,132.82v-.06s-.16-.03-.16-.03v.06s.09.09.09.09l.06-.06ZM90.23,132.51v-.13h-.13l-.06.06.03.03v.06l.09.03.06-.06ZM90.7,132.16v-.06h-.13l-.03.03v.06h.13l.03-.03ZM90.45,132.54v.19s.13.13.13.13l.82-.32-.79-.16-.16.16ZM90.04,133.27l.06-.19-.03-.03-.09-.03-.13.13v.19s.19-.06.19-.06ZM91.43,131.69v.13l.13.06.13-.13-.16-.09-.09.03ZM91.52,132.22l-.16-.16-.16-.03.03.28.22.03.06-.13ZM90.73,133.65l.32.06-.16-.22-.25-.19-.03-.16-.22-.16.16.35h.06s.13.32.13.32ZM90.35,133.58l-.09-.09-.19.06.03.16.09.03.16-.16ZM91.14,132.92l.03.22h.25l-.03.28.19-.25-.44-.25ZM91.81,132.51l-.03.16.57.13v-.06l-.44-.25-.09.03ZM92.03,133.49l.19-.32-.19-.32h-.06l-.03-.03-.16-.03-.09.16.35.54ZM90.67,134.03l.28.22-.06-.19-.09-.09-.13.06ZM92.54,132.67l-.03.35.16.35.16-.03.13-.32-.19-.32-.22-.03ZM91.3,133.96h-.06s-.03.09-.03.09l.09.09.13-.06-.13-.13ZM91.18,134.85l-.16-.09.25-.44-.51.13.19.38.22.03ZM92.95,132.51l.28.54.06.32-.28.28-.89.13-.06.19.13.25.41-.09-.03-.16.16-.09.28.28.35-.03.06-.13-.06-.13-.13.06-.09-.09.32-.57-.03-.16.16-.28-.63-.32ZM91.97,133.74h-.13l-.03.16.09.09.06-.25ZM91.84,134.44l.16-.03.06.06.54-.03v-.13s-.89-.06-.89-.06l-.09.22.06.06h.13s.03-.09.03-.09ZM91.81,135.04l-.06-.13.03-.16-.16-.09h-.19s-.35.41-.35.41l.06.06h.57s.09-.09.09-.09ZM92.16,134.69l-.03.22-.16.09v.13s.13,0,.13,0l.25-.25v-.25s-.19.06-.19.06ZM95.54,140.35l.06-.38.22-.16-.16-.16-.22.09.03.03-.13-.06-.03-.28.09-.03.06-.25-.13-.06-.16.09-.06-.06.03-.03-.13-.13.09-.09-.03-.09.35-.35.16.09.06-.06v-.13l-.09-.03.06-.06-.03-.22-.16.03-.16.16-.09-.09v-.13l.16-.09v-.19l-.16-.16.13-.19-.09.16.32.32.06-.06-.03-.16-.13-.13v-.32l.19-.25h.19l.19-.13.16.03v.25s-.03.03-.03.03h-.06v.06l.03.03.16-.03.09.16-.32.7.09-.03-.03.03-.03.09.16-.03.03-.03v-.06l-.03-.03h-.06l.32-.25h.13l.35.22.03.35.22.03.03-.09h.13l.06.06.28-.09-.03-.16-1.14-.63-.06-.38.25-.51-.06-.19-.22-.03-.19.13-.28-.66-.32.19-.28-.28h-.06l.03-.09.22-.09.13-.25-.03-.03v-.06l-.06-.06.25-.06-.16-.09-.16.09-.19-.25-.32-.38.03-.47-.16-.16.13-.19-.19-.06-.16.09h-.06l-.13-.13-.06-.25-.13.19.09.41-.57.19.09.09.63.06.13.13-1.27-.06-.06.19-.35.28.16.6.41-.03.19.13-.57.19.03.16-.19.32-.54.28-.16-.03-.25-.25.03-.16.16-.03.09-.09v-.13s-.44.06-.44.06v-.32l-.03-.03-.22.03-.09.09h-.13s-.06.13-.06.13l1.01,1.08.09-.09.25-.06-.06.19.19.63.19-.13-.13-.44.06-.13-.03-.28.35-.41.28.03.13-.19.06.06.32-.25.09-.28-.06-.19-.16-.03-.03-.03.22-.47.28-.09.13.25-.09.16h-.13l-.06.06,1.01.13.03-.03.06.13-.13.06-.09.16.03.03-.13.13v.13s-.06.06-.06.06h-.51l-.28.22.16.16.06.25.16.09.16-.03.13-.13v-.06l.16.03.13-.13-.06-.32.16-.09.03-.09.19.38-.03.35-.22.22h-.63l-.13.19.19.25.16.03-.25.06-.28-.28-.19.06-.13.19-.19.06-.06-.13.22-.47-.57.06-.03-.09h-.13l-.03.09.13.06.09.22-.03.16.06.13.09.03-.03.54.54-.6.47.09-.06.06v.06s-.22-.03-.22-.03l-.32.32.13.32-.03.09-.19.13-.06.19.25.06.22-.22h.06l.13.19-.03.22-.25.13.16.09.22-.09.09.22-.16.22-.03-.03-.09.03-.19-.06-.19.06-.16-.16-.16.09.06.13.16.09-.13.57-.22-.03-.09.22.47-.22.03-.28.09-.03-.03-.16-.13-.06.13-.13.19.06.16-.09-.19.25.03.41.09.09.09-.09.03-.22.06-.06.16.09.09-.09-.03-.16.09-.03.09.03.03.28-.09.03-.16.28-.41.16-.13.19.35-.09.22.28.38-.06.06-.13.16-.03v.13h.13s.13-.13.13-.13ZM93.55,133.68l-.03.09.09.09h.06l-.06-.19h-.06ZM92.57,135.16l.03.09.09.03.13-.13v-.13l-.09-.03-.13.06-.03.09ZM94.43,135.39l.13.06.13-.06.03-.09-.16-.09-.16.09.03.09ZM98.07,132.32l-.09.16.03.16.35-.22-.06-.13-.22.03ZM98.48,132.1l-.03.09.09.09h.06s.06-.06.06-.06l-.13-.13h-.06ZM99.75,136.59l.06-.06.22-.03.09-.09-.6-.03-.25-.57-.13.76-.13.13-.13-.7.19-.38-.03-.22-.44-.44-.6.16v.44l-.13.19-.19-.57-.47-.22-.35-.54.09-.09-.03-.09.09-.16.35-.03-.03.16.13.13.16-.03-.06-.44.35-.03-.03-.22-.09-.09v-.13s-.16-.09-.16-.09l-.09.16-.13.06-.41.22-.16.41-.32.19.09.09.06.25-.03.03-.16-.09-.63.19.13.19.89-.06.32.25.06.38.22.16-.06.06.25.32.28.09.19-.06.03-.16.03-.03.51.25.06.25-.25.19-.13-.13v-.13l-.13-.06-.13.89.25.25.06-.06h.06l.41-.35.25.06.41-.16.09.09h.06l.06-.19-.09-.16.03-.03v-.06ZM92.38,139.02l.41.28h.06l.03-.03.38.51.09.03.09-.03-.35-.92.06-.19-.22-.16-.22.22.13.06.13-.06.03.03-.25.13-.03-.03-.06.06v-.06s-.03.03-.03.03l-.16-.03-.09-.09.03-.09-.09-.03-.09.03-.13.44.16.03.13-.13ZM99.62,131.46v.06s.06.06.06.06l.09.03.03-.03v-.06l-.03-.03-.16-.03ZM98.1,132.98v.63l.09.09.41-.22-.03-.16-.44-.38-.03.03ZM98.83,132.63l-.41.16-.06.25.16-.16.19.19.25.06-.13-.51ZM96.49,135.16l-.16-.09-.32.19.03.09.13.06.28-.16.03-.09ZM100.19,131.21l.03.09.16-.03.16-.16.13.06.16-.03-.35-.22-.28.28ZM93.42,138.23l.22-.03-.09-.16-.13-.06v.25ZM99.81,132.1l-.09-.16h-.19v.06s.16.22.16.22l.13-.13ZM91.46,140.38l.22-.28-.16-.03-.03.03h-.06l-.16.09.03.16.16.03ZM100.22,131.88l.06-.06-.16-.16h-.19l.06.19.22.09v-.06ZM99.33,132.25l-.09.09v.13s.25-.25.25-.25l-.16.03ZM92.28,139.62l.03-.28-.38.32.06.13h.13l.16-.16ZM89.59,142.25l-.03-.16h-.06l-.06.13.09.09.06-.06ZM99.24,132.54l-.22.28.32-.19-.09-.09ZM93.26,138.96l.38-.19.13-.25-.19-.13-.25.19-.06.38ZM98.64,134.22l-.06-.13-.16-.03-.06-.06h-.06s-.03-.16-.03-.16l-.16.03-.03.16.47.28.09-.09ZM96.87,135.48l-.16.03-.09.09-.13-.06-.13.06-.13.32.13.06.13-.13.47.28-.03-.6.09-.03v-.13s-.09-.03-.09-.03l-.06.13ZM90.57,141.77l-.03-.16-.25.06-.06.13.03.09h.13l.19-.13ZM94.94,137.16l.13.25-.13.06-.28-.03.28-.28ZM99.94,132.35v.06l-.32.13-.06.38.73-.66-.35.09ZM91.37,140.86l.22.22h.13s.25.25.25.25l1.2-1.01.06-.32-.79.85h-.19s-.16-.16-.16-.16l.09-.16-.25-.19-.57.51ZM92.6,139.69l.03.09.16-.03.03-.09-.13-.13-.09.16ZM99.11,133.3h.06s.13-.13.13-.13v-.06s-.09-.03-.09-.03l-.13.13.03.09ZM98.99,133.61l-.19-.13-.09.09v.13l.09.03.06.13-.13.38.09.28h.06l.03-.03.06-.89ZM98.23,134.63l-.03-.09-.09-.03-.13.06v.06s.13.13.13.13h.06s.06-.13.06-.13ZM90.01,142.66l.16.03.22-.22-.03-.03h-.06l-.06.06-.22.03v.13ZM95.44,137.16l-.13.19.13-.19ZM100.76,131.91l-.03.09.06.06h.13v-.13l-.06-.06-.03.03h-.06ZM101.14,131.59l.28.03.16-.09v-.06s-.06-.06-.06-.06l-.38.19ZM92.54,140.32l.13.06v-.06s-.09-.16-.09-.16l-.06.06.03.09ZM101.74,131.05l-.03.16h.13l.03-.16h-.13ZM90.16,142.63v.06l-.03-.03.03-.03ZM90.01,143.1l-.03-.09-.06-.06-.16.09.09.09h.13l.03-.03ZM100.76,132.29h-.19l-.13.13.32.89.16-.85-.16-.16ZM91.55,141.62l.03-.09-.03-.03h-.13v.06s-.03.03-.03.03l.16.03ZM95.86,137.5l-.25.13.19.32.03.03.13-.13.06-.82-.25.19.09.28ZM99.4,133.71l-.16.09.16.09.16-.09-.16-.09ZM100.19,133.3h-.32l.22.16.32-.44-.22.03v.25ZM100.09,135.23h-.13l-.32-.25-.03-.35-.19-.25.06-.38-.41.09.03.41h.19l.09.16-.28.28.03.35.16.09.09-.09-.06-.13.09-.09h.13l.47.35.16-.09.32.19.32-.63-.73.35ZM91.4,142.15l.25-.06.06-.13-.19-.13-.09.03-.09.16.06.13ZM101.11,132.38v.13h.06s.03.03.03.03l.03-.03v-.06s-.13-.06-.13-.06ZM97.5,137.5l.25.13.16.22.25.06.16-.09.06.25h.06l.03-.03v-.13s-.09-.16-.09-.16l.03-.03-.28-.09-.06-.13h-.13l-.03-.03-.03.03-.32-.13-.13-.19v-.38l-.25-.25-.09.16-.06-.06h-.06l-.03.16h-.13l-.06.38.22.09.16-.09-.03-.09.09-.09.25.51-.25-.06.16.28.13-.06.03-.16ZM91.21,142.66v-.06s-.09-.03-.09-.03l-.09.09v.06s.19-.06.19-.06ZM100.47,133.65l-.16-.09-.51.38.32.19.32-.19v-.06s.03-.03.03-.03v-.19ZM93.39,140.86l-.19-.25-.44.38.13.06.28-.22.22.03ZM93.99,140.83l-.06-.38-.41-.03.41.47.06-.06ZM95.89,138.36l.03-.22h-.06l-.09.16.13.06ZM100.98,133.14l-.03.09.03.09.09.03.19-.13.03-.16-.16-.03-.16.09ZM95.32,138.93l.25.06.19.38.09.03.06-.06.09.16.09.03.13.38.41.09-.82-1.01.22-.09.03.03.51-.19-.09.28.44-.32v-.06s.22-.09.22-.09l-.98-.22-.19-.19.03.28-.06.06-.03.16-.6.28ZM92.12,142.06l.13.06.28-.16v-.25s-.19.25-.19.25h-.13l-.09.09ZM97.79,136.52l.06.13.06.06.16-.16-.06-.13-.16-.03-.06.13ZM100.85,133.77l-.16-.09h-.06s-.06.06-.06.06l-.03.47.03.03h.06s.22-.47.22-.47ZM90.83,143.8l.03-.09-.03-.03-.16-.03v.13l.16.03ZM100.6,134.66l.06-.19-.25-.06-.47.16.06.19.32.13.28-.22ZM96.39,138.23l.16-.03.09-.09-.09-.09-.16.09v.13ZM93.48,141.33v-.06l-.03-.03-.16-.03-.09.09.13.06.16-.03ZM101.52,133.3l-.06.13.13.13.06-.06.03-.22-.16.03ZM98.73,136.14l-.03.03v-.06l.03.03ZM99.59,135.54l.03-.03-.09-.03-.16.16.22-.03v-.06ZM93.17,141.9l-.16.09.13.13.25.06.25-.19-.44.06-.03-.16ZM92.09,143.61v-.19l-.09-.16-.19-.06-.09.16.09.09h.13l.16.16ZM94.56,140.95l-.13-.13h-.13l-.09.09.35.03ZM93.9,141.36l-.16.09-.06.13.03.03h.06s.09-.09.09-.09l.03-.16ZM98.48,137.35l-.03.03-.03-.03h.06ZM97.12,139.66l.22-.28-.51-.38v.25l.28.03.03.03-.03.35ZM91.81,144.65l.03-.09-.06-.13-.03-.09-.06.06v.25h.13ZM97.88,138.52l-.09-.03-.13.06-.03.09.06.19.63.06v-.06l-.44-.32ZM97.88,139.78l.22-.41-.25-.44h-.25l-.13.19.35.35.06.32ZM96.52,140.64l-.06-.19-.16-.16-.16.09.38.25ZM96.71,141.46l-.13-.19.25-.25.06-.25-.63.13v.13l.13.13.06.25.25.06ZM97.09,140.45l-.13-.13-.16.09.16.16h.13v-.13ZM98.58,138.77l.09.85.22-.03.19-.38-.25-.38-.25-.06ZM99.56,140.64l.06-.19-.06-.13-.16.03-.13-.06.41-.73-.06-.19.25-.38-.76-.44.06.32.16.16.16.6-1.11.6-.41-.09.09.54.51-.06-.03-.22.25-.13.28.41.47-.03ZM97.82,140.22l-.03-.16h-.13l-.06.19.09.16.13-.19ZM98.54,140.95v-.13s-.25-.06-.25-.06l-.25.13-.6-.16-.09.09.06.25h.13l.25-.19.13.13.63-.06ZM97.53,141.71l-.06-.38-.19-.13h-.19l-.06.19-.03-.03-.19.19-.16.03-.06.13.09.09h.76l.09-.09ZM98.23,141.52v-.32h-.06s-.16.09-.16.09l-.03.16-.06.06v.06s-.19.06-.19.06v.19l.16.03.09-.16h.06l.19-.19ZM99.97,140.35l-.03-.22-.13-.06-.03.09.03.09.16.09ZM98.54,141.77l-.03.09.06.13.09.03.16-.16-.03-.09-.13-.06-.13.06ZM98.86,143.1l.06-.13-.13-.19.35-.54h-.7s-.06-.13-.06-.13h-.13l-.06.13.16.09.03.16.13.13-.13.19.09.16.38.13ZM99.78,140.67l.03.09.13.06.16-.03.09-.09-.22-.16-.19.13ZM99.59,142.88l.03-.09-.03-.09-.13-.06-.19.13.03.09.13.06.16-.03ZM100.95,142.66l-.19-.25-.25.06-.79.73v.19l.09.09.76-.82.19.06.19-.06ZM101.55,142.12l.03-.16-.19-.19-.16.03-.03.16.09.16.13.06.13-.06ZM101.17,143.83l-.19-.38v-.38l-.28.41.35.41.13-.06ZM100.32,144.3v-.06s-.06-.06-.06-.06l-.16.09.03.09.09.03.09-.09ZM101.9,143.17l.09-.03v-.06s-.03-.03-.03-.03l-.09-.03-.13.06.16.09ZM100.63,145.06l-.06-.19-.22-.09.19.32h.06l.03-.03ZM102.91,142.53l-.06.13.06.19.09-.03.03-.09v-.13l-.06-.06h-.06ZM101.42,144.59l.09-.16-.03-.09h-.06s-.09.16-.09.16l.03.09h.06Z"/>
        <path class="cls-5" d="M140.89,154.54l5.74-1.86c6.84-2.22,7.52-10.52,6.79-17.42-.33-3.08-1.4-6.03-3.1-8.61l-10.05-15.29c-3.8-5.89-11.26-9.04-18.97-8.03h0"/>
        <g>
          <path class="cls-3" d="M76.89,147.23c.12.21.24.41.37.61"/>
          <path class="cls-1" d="M78.09,149.05c2.5,3.3,6.29,5.66,10.86,6.21l6.95.83"/>
          <line class="cls-3" x1="96.63" y1="156.18" x2="97.34" y2="156.27"/>
        </g>
        <polyline class="cls-4" points="141.34 185.9 105.54 188.97 104.11 188.76 102.67 183.03"/>
      </g>
    </g>
  </g>
</svg>