<?xml version="1.0" encoding="UTF-8"?>
<svg xmlns="http://www.w3.org/2000/svg" xmlns:xlink="http://www.w3.org/1999/xlink" viewBox="0 0 256 256">
  <defs>
    <style>
      .cls-1, .cls-2, .cls-3, .cls-4, .cls-5, .cls-6, .cls-7, .cls-8 {
        fill: none;
      }

      .cls-2 {
        stroke-dasharray: 1.47 1.47;
      }

      .cls-2, .cls-3, .cls-4, .cls-9, .cls-5, .cls-6, .cls-7, .cls-8 {
        stroke-miterlimit: 10;
      }

      .cls-2, .cls-5 {
        stroke: red;
      }

      .cls-2, .cls-5, .cls-7, .cls-8 {
        stroke-width: 3.58px;
      }

      .cls-3 {
        stroke-width: 3px;
      }

      .cls-3, .cls-4 {
        stroke: #333;
      }

      .cls-10 {
        isolation: isolate;
      }

      .cls-11 {
        fill: #00e59d;
        mix-blend-mode: hard-light;
      }

      .cls-12 {
        fill: url(#linear-gradient-2);
      }

      .cls-12, .cls-13 {
        opacity: .7;
      }

      .cls-13 {
        fill: url(#linear-gradient);
      }

      .cls-4 {
        stroke-width: 2.25px;
      }

      .cls-14 {
        fill: #fff;
      }

      .cls-9 {
        fill: #96bd96;
        stroke-width: 2.86px;
      }

      .cls-9, .cls-6, .cls-7 {
        stroke: #000;
      }

      .cls-15 {
        opacity: .25;
      }

      .cls-16 {
        fill: #cfc;
      }

      .cls-17 {
        fill: red;
      }

      .cls-6 {
        stroke-width: 6px;
      }

      .cls-8 {
        stroke: #39b54a;
        stroke-dasharray: 1.43;
      }

      .cls-18 {
        clip-path: url(#clippath);
      }
    </style>
    <clipPath id="clippath">
      <path class="cls-1" d="M111.5,135.5c0,13.25-10.75,24-24,24s-24-10.75-24-24,10.75-24,24-24,24,10.75,24,24ZM138.5,111.5c-13.25,0-24,10.75-24,24s10.75,24,24,24,24-10.75,24-24-10.75-24-24-24Z"/>
    </clipPath>
    <linearGradient id="linear-gradient" x1="64.94" y1="143.71" x2="110.06" y2="127.29" gradientUnits="userSpaceOnUse">
      <stop offset="0" stop-color="#fff" stop-opacity=".2"/>
      <stop offset="1" stop-color="#fff" stop-opacity=".8"/>
    </linearGradient>
    <linearGradient id="linear-gradient-2" x1="115.94" y1="143.71" x2="161.06" y2="127.29" xlink:href="#linear-gradient"/>
  </defs>
  <g class="cls-10">
    <g id="Layer_1">
      <g>
        <g>
          <path class="cls-16" d="M128.45,165.52l19.15-1.06c11.44-.63,19.1-12.01,15.4-22.85l-13.49-39.42c-2.94-8.58-11-14.35-20.07-14.35h-28.32c-7.4,0-13.97,4.71-16.34,11.72l-17.18,50.72c-2.98,8.78,3.56,17.89,12.83,17.89l17.95-.99"/>
          <path class="cls-16" d="M141.54,164.79l2.82,43.23c.32,3.43-.87,6.85-3.3,9.29-2.24,2.25-5.31,4.12-8.51,5.42-3.2,1.3-6.55,2.04-9.36,2.04-8.58,0-16.19-5.52-18.84-13.68l-13.63-43.48"/>
          <path class="cls-7" d="M128.45,165.52l19.15-1.06c11.44-.63,19.1-12.01,15.4-22.85l-13.49-39.42c-2.94-8.58-11-14.35-20.07-14.35h-28.32c-7.4,0-13.97,4.71-16.34,11.72l-17.18,50.72c-2.98,8.78,3.56,17.89,12.83,17.89l17.95-.99"/>
          <path class="cls-7" d="M141.54,164.79l2.82,43.23c.32,3.43-.87,6.85-3.3,9.29-2.24,2.25-5.31,4.12-8.51,5.42-3.2,1.3-6.55,2.04-9.36,2.04-8.58,0-16.19-5.52-18.84-13.68l-13.63-43.48"/>
          <g>
            <rect x="111.51" y="154.52" width="7.16" height="17.19" rx="3.58" ry="3.58" transform="translate(-82.2 132.59) rotate(-46)"/>
            <rect x="106.76" y="155.89" width="7.16" height="17.19" rx="3.58" ry="3.58" transform="translate(43.07 -21.81) rotate(14)"/>
          </g>
          <path d="M114.17,188.91h5.73v6.09c0,.59-.48,1.07-1.07,1.07h-2.51c-1.19,0-2.15-.96-2.15-2.15v-5.01h0Z" transform="translate(-19.48 13.29) rotate(-6)"/>
          <path d="M123.96,187.73h2.51c.59,0,1.07.48,1.07,1.07v6.09h-5.73v-5.01c0-1.19.96-2.15,2.15-2.15Z" transform="translate(277.75 360.76) rotate(171)"/>
          <path d="M133.54,186.1h2.08c.49,0,.89.4.89.89v5.05h-4.76v-4.16c0-.98.8-1.78,1.78-1.78Z" transform="translate(296.19 354.83) rotate(171)"/>
          <circle cx="125.27" cy="216.9" r="3.58"/>
          <path class="cls-9" d="M57.07,73.08c-7.72,4.94-16.24,33.91-16.24,33.91l11.58-6.96-11.86,22.71,14.42-5.48-31.98,26.66s10.18,1.11,18.14-3.58c7.96-4.69-15.65,25.11-15.65,25.11l15.78-1.16-10.89,18.43s26.72-8.24,31.29-15.1c14.32-21.48,17.19-74.47,32.36-78.9,11.85-3.46,40.68-1.56,40.68-1.56,0,0-48.64-32.64-77.64-14.08Z"/>
          <path class="cls-9" d="M98.62,86.41c-15-1.84-28.07-25.64-16.76-38.13,11.3-12.49,19.99-16.3,19.99-16.3-3.88,3.77-8.27,16.12-4.49,19.57l1.28,1.17s12.67-13.78,14.89-20.45c1.62-4.87-1.46,13.42-1.46,13.42l18.91-14.47-5.91,10.86,16.17-8.15-2.42,9.83,17.33-6.27-4.21,13.08,21.46-5.76-13.3,8.73s7.38-4.53,19.12,2.12c11.74,6.65,20.45,25.88,23.51,35.84,4.99,16.22,30.29,48.82,30.29,48.82l-20.74-5.78,5.85,24.77-15.03-13.99,3.73,26.48-15.77-19.28-5.9,25.29-9.32-15.02-5.48,21.88-12.95-53.63-5.6-26.91c-3.92-13.12-8.01-13.63-24.05-15.5,0,0-20.72-1.19-29.13-2.23Z"/>
          <path class="cls-11" d="M57.07,73.08c-7.72,4.94-16.24,33.91-16.24,33.91l11.58-6.96-11.86,22.71,14.42-5.48-31.98,26.66s10.18,1.11,18.14-3.58c7.96-4.69-15.65,25.11-15.65,25.11l15.78-1.16-10.89,18.43s26.72-8.24,31.29-15.1c14.32-21.48,17.19-74.47,32.36-78.9,11.85-3.46,40.68-1.56,40.68-1.56,0,0-48.64-32.64-77.64-14.08Z"/>
          <path class="cls-11" d="M98.62,86.41c-15-1.84-28.07-25.64-16.76-38.13,11.3-12.49,19.99-16.3,19.99-16.3-3.88,3.77-8.27,16.12-4.49,19.57l1.28,1.17s12.67-13.78,14.89-20.45c1.62-4.87-1.46,13.42-1.46,13.42l18.91-14.47-5.91,10.86,16.17-8.15-2.42,9.83,17.33-6.27-4.21,13.08,21.46-5.76-13.3,8.73s7.38-4.53,19.12,2.12c11.74,6.65,20.45,25.88,23.51,35.84,4.99,16.22,30.29,48.82,30.29,48.82l-20.74-5.78,5.85,24.77-15.03-13.99,3.73,26.48-15.77-19.28-5.9,25.29-9.32-15.02-5.48,21.88-12.95-53.63-5.6-26.91c-3.92-13.12-8.01-13.63-24.05-15.5,0,0-20.72-1.19-29.13-2.23Z"/>
          <path class="cls-8" d="M140.89,154.54l5.74-1.86c6.84-2.22,7.52-10.52,6.79-17.42-.33-3.08-1.4-6.03-3.1-8.61l-10.05-15.29c-3.8-5.89-11.26-9.04-18.97-8.03h0"/>
          <g>
            <path class="cls-5" d="M76.89,147.23c.12.21.24.41.37.61"/>
            <path class="cls-2" d="M78.09,149.05c2.5,3.3,6.29,5.66,10.86,6.21l6.95.83"/>
            <line class="cls-5" x1="96.63" y1="156.18" x2="97.34" y2="156.27"/>
          </g>
          <polyline class="cls-7" points="141.34 185.9 105.54 188.97 104.11 188.76 102.67 183.03"/>
          <g class="cls-18">
            <g>
              <path d="M150.09,162.95l7.79-2.53c9.29-3.01,10.21-14.29,9.22-23.66-.44-4.18-1.91-8.19-4.22-11.7l-13.65-20.77c-5.16-8-15.29-12.28-25.76-10.91h0c-8.79,1.16-15.19,8.39-14.33,16.2l3.61,32.89c1.78,16.17,19.92,26.12,37.33,20.47Z"/>
              <path d="M79.49,162.79l11.92,1.43c10.14,1.22,19.27-6.24,20.1-16.42l3.79-46.36c.39-4.79-3.03-9.05-7.8-9.7l-7.81-1.06c-11.32-1.54-22.29,4.56-26.97,14.98l-11.3,25.2c-6.28,14.01,2.82,30.1,18.07,31.93Z"/>
              <path class="cls-14" d="M136.13,116.95h0c11.45,0,20.74,9.3,20.74,20.74v2.78c0,7.98-6.48,14.45-14.45,14.45h-9.49c-6.25,0-11.32-5.07-11.32-11.32v-12.13c0-8.01,6.51-14.52,14.52-14.52Z" transform="translate(-21.49 26.25) rotate(-10)"/>
              <circle cx="138.95" cy="139.66" r="10.71"/>
              <circle class="cls-14" cx="131.29" cy="141.8" r="1.84"/>
              <circle class="cls-14" cx="138.95" cy="139.66" r="4.9"/>
              <path class="cls-17" d="M99.69,148.23l-.92.92-.87.97-.97.87-.43.32-.76.54-.7.05-.49-.16-.76-.54-1.08-.87-1.19-1.3-.76-.87-1.14-1.35-1.08-1.08-.65-.43-.54-.22-.54.11-.87.54-.49.49-.87.76-2.27,2.6-.92.81-.49.49-.87.65-.81.05-.92-.49-1.14-1.14-1.35-1.46-.81-.92-1.3-1.08-.81-.92-.27-.49-.54-.87-.05-.81.65-.87.87-.97.81-.92,2.33-2,.76-.87.32-.32.54-.97-.05-.81-.59-.7-3.57-3.57-.81-.92-.49-.49-.59-1.03-.16-.81.6-.81.43-.54.97-.87.92-.7.92-.81,1.24-1.46,1.03-.81.92-.59.81-.05.81.59,1.35,1.35,1.68,1.89,1.89,1.68.76.54.49.27.65-.11.7-.49.81-.7.76-.87,2.11-2.33,1.35-1.35.81-.59.65-.22.49.05.59.49.43.32.76.87,1.19,1.51.87.87,1.35,1.14,1.24,1.24.49.7.16.59-.16.59-.54.76-1.84,1.84-.92.81-1.35,1.14-.7.81-.43.43-.43.76-.16.59.16.49.49.7,1.3,1.3,2.97,2.65.81.92.38.49.59.81.05.92-.49,1.03-.92.92-1.41,1.3ZM77.79,125.79l.38.7.05-.49-.16-.27-.27.05ZM75.36,128.66v-.11s-.27-.05-.27-.05v.11s.16.16.16.16l.11-.11ZM76.76,128.12v-.22h-.22l-.11.11.05.05v.11l.16.05.11-.11ZM77.57,127.52v-.11h-.22l-.05.05v.11h.22l.05-.05ZM77.14,128.17v.32s.22.22.22.22l1.41-.54-1.35-.27-.27.27ZM76.44,129.41l.11-.32-.05-.05-.16-.05-.22.22v.32s.32-.11.32-.11ZM78.82,126.71v.22l.22.11.22-.22-.27-.16-.16.05ZM78.98,127.63l-.27-.27-.27-.05.05.49.38.05.11-.22ZM77.63,130.06l.54.11-.27-.38-.43-.32-.05-.27-.38-.27.27.59h.11s.22.54.22.54ZM76.98,129.95l-.16-.16-.32.11.05.27.16.05.27-.27ZM78.33,128.82l.05.38h.43l-.05.49.32-.43-.76-.43ZM79.47,128.12l-.05.27.97.22v-.11l-.76-.43-.16.05ZM79.85,129.79l.32-.54-.32-.54h-.11l-.05-.05-.27-.05-.16.27.59.92ZM77.52,130.71l.49.38-.11-.32-.16-.16-.22.11ZM80.71,128.39l-.05.59.27.59.27-.05.22-.54-.32-.54-.38-.05ZM78.6,130.6h-.11s-.05.16-.05.16l.16.16.22-.11-.22-.22ZM78.39,132.12l-.27-.16.43-.76-.87.22.32.65.38.05ZM81.41,128.12l.49.92.11.54-.49.49-1.51.22-.11.32.22.43.7-.16-.05-.27.27-.16.49.49.59-.05.11-.22-.11-.22-.22.11-.16-.16.54-.97-.05-.27.27-.49-1.08-.54ZM79.74,130.22h-.22l-.05.27.16.16.11-.43ZM79.52,131.41l.27-.05.11.11.92-.05v-.22s-1.51-.11-1.51-.11l-.16.38.11.11h.22s.05-.16.05-.16ZM79.47,132.44l-.11-.22.05-.27-.27-.16h-.32s-.59.7-.59.7l.11.11h.97s.16-.16.16-.16ZM80.06,131.85l-.05.38-.27.16v.22s.22,0,.22,0l.43-.43v-.43s-.32.11-.32.11ZM85.85,141.53l.11-.65.38-.27-.27-.27-.38.16.05.05-.22-.11-.05-.49.16-.05.11-.43-.22-.11-.27.16-.11-.11.05-.05-.22-.22.16-.16-.05-.16.59-.59.27.16.11-.11v-.22l-.16-.05.11-.11-.05-.38-.27.05-.27.27-.16-.16v-.22l.27-.16v-.32l-.27-.27.22-.32-.16.27.54.54.11-.11-.05-.27-.22-.22v-.54l.32-.43h.32l.32-.22.27.05v.43s-.05.05-.05.05h-.11v.11l.05.05.27-.05.16.27-.54,1.19.16-.05-.05.05-.05.16.27-.05.05-.05v-.11l-.05-.05h-.11l.54-.43h.22l.59.38.05.59.38.05.05-.16h.22l.11.11.49-.16-.05-.27-1.95-1.08-.11-.65.43-.87-.11-.32-.38-.05-.32.22-.49-1.14-.54.32-.49-.49h-.11l.05-.16.38-.16.22-.43-.05-.05v-.11l-.11-.11.43-.11-.27-.16-.27.16-.32-.43-.54-.65.05-.81-.27-.27.22-.32-.32-.11-.27.16h-.11l-.22-.22-.11-.43-.22.32.16.7-.97.32.16.16,1.08.11.22.22-2.16-.11-.11.32-.59.49.27,1.03.7-.05.32.22-.97.32.05.27-.32.54-.92.49-.27-.05-.43-.43.05-.27.27-.05.16-.16v-.22s-.76.11-.76.11v-.54l-.05-.05-.38.05-.16.16h-.22s-.11.22-.11.22l1.73,1.84.16-.16.43-.11-.11.32.32,1.08.32-.22-.22-.76.11-.22-.05-.49.59-.7.49.05.22-.32.11.11.54-.43.16-.49-.11-.32-.27-.05-.05-.05.38-.81.49-.16.22.43-.16.27h-.22l-.11.11,1.73.22.05-.05.11.22-.22.11-.16.27.05.05-.22.22v.22s-.11.11-.11.11h-.87l-.49.38.27.27.11.43.27.16.27-.05.22-.22v-.11l.27.05.22-.22-.11-.54.27-.16.05-.16.32.65-.05.59-.38.38h-1.08l-.22.32.32.43.27.05-.43.11-.49-.49-.32.11-.22.32-.32.11-.11-.22.38-.81-.97.11-.05-.16h-.22l-.05.16.22.11.16.38-.05.27.11.22.16.05-.05.92.92-1.03.81.16-.11.11v.11s-.38-.05-.38-.05l-.54.54.22.54-.05.16-.32.22-.11.32.43.11.38-.38h.11l.22.32-.05.38-.43.22.27.16.38-.16.16.38-.27.38-.05-.05-.16.05-.32-.11-.32.11-.27-.27-.27.16.11.22.27.16-.22.97-.38-.05-.16.38.81-.38.05-.49.16-.05-.05-.27-.22-.11.22-.22.32.11.27-.16-.32.43.05.7.16.16.16-.16.05-.38.11-.11.27.16.16-.16-.05-.27.16-.05.16.05.05.49-.16.05-.27.49-.7.27-.22.32.59-.16.38.49.65-.11.11-.22.27-.05v.22h.22s.22-.22.22-.22ZM82.44,130.12l-.05.16.16.16h.11l-.11-.32h-.11ZM80.77,132.66l.05.16.16.05.22-.22v-.22l-.16-.05-.22.11-.05.16ZM83.96,133.04l.22.11.22-.11.05-.16-.27-.16-.27.16.05.16ZM90.18,127.79l-.16.27.05.27.59-.38-.11-.22-.38.05ZM90.88,127.41l-.05.16.16.16h.11s.11-.11.11-.11l-.22-.22h-.11ZM93.04,135.09l.11-.11.38-.05.16-.16-1.03-.05-.43-.97-.22,1.3-.22.22-.22-1.19.32-.65-.05-.38-.76-.76-1.03.27v.76l-.22.32-.32-.97-.81-.38-.59-.92.16-.16-.05-.16.16-.27.59-.05-.05.27.22.22.27-.05-.11-.76.59-.05-.05-.38-.16-.16v-.22s-.27-.16-.27-.16l-.16.27-.22.11-.7.38-.27.7-.54.32.16.16.11.43-.05.05-.27-.16-1.08.32.22.32,1.51-.11.54.43.11.65.38.27-.11.11.43.54.49.16.32-.11.05-.27.05-.05.87.43.11.43-.43.32-.22-.22v-.22l-.22-.11-.22,1.51.43.43.11-.11h.11l.7-.59.43.11.7-.27.16.16h.11l.11-.32-.16-.27.05-.05v-.11ZM80.44,139.26l.7.49h.11l.05-.05.65.87.16.05.16-.05-.59-1.57.11-.32-.38-.27-.38.38.22.11.22-.11.05.05-.43.22-.05-.05-.11.11v-.11s-.05.05-.05.05l-.27-.05-.16-.16.05-.16-.16-.05-.16.05-.22.76.27.05.22-.22ZM92.82,126.33v.11s.11.11.11.11l.16.05.05-.05v-.11l-.05-.05-.27-.05ZM90.23,128.93v1.08l.16.16.7-.38-.05-.27-.76-.65-.05.05ZM91.47,128.33l-.7.27-.11.43.27-.27.32.32.43.11-.22-.87ZM87.47,132.66l-.27-.16-.54.32.05.16.22.11.49-.27.05-.16ZM93.8,125.9l.05.16.27-.05.27-.27.22.11.27-.05-.59-.38-.49.49ZM82.23,137.9l.38-.05-.16-.27-.22-.11v.43ZM93.15,127.41l-.16-.27h-.32v.11s.27.38.27.38l.22-.22ZM78.87,141.58l.38-.49-.27-.05-.05.05h-.11l-.27.16.05.27.27.05ZM93.85,127.03l.11-.11-.27-.27h-.32l.11.32.38.16v-.11ZM92.34,127.68l-.16.16v.22s.43-.43.43-.43l-.27.05ZM80.28,140.28l.05-.49-.65.54.11.22h.22l.27-.27ZM75.68,144.77l-.05-.27h-.11l-.11.22.16.16.11-.11ZM92.18,128.17l-.38.49.54-.32-.16-.16ZM81.95,139.15l.65-.32.22-.43-.32-.22-.43.32-.11.65ZM91.15,131.04l-.11-.22-.27-.05-.11-.11h-.11s-.05-.27-.05-.27l-.27.05-.05.27.81.49.16-.16ZM88.12,133.2l-.27.05-.16.16-.22-.11-.22.11-.22.54.22.11.22-.22.81.49-.05-1.03.16-.05v-.22s-.16-.05-.16-.05l-.11.22ZM77.36,143.96l-.05-.27-.43.11-.11.22.05.16h.22l.32-.22ZM84.82,136.07l.22.43-.22.11-.49-.05.49-.49ZM93.37,127.85v.11l-.54.22-.11.65,1.24-1.14-.59.16ZM78.71,142.39l.38.38h.22s.43.43.43.43l2.05-1.73.11-.54-1.35,1.46h-.32s-.27-.27-.27-.27l.16-.27-.43-.32-.97.87ZM80.82,140.39l.05.16.27-.05.05-.16-.22-.22-.16.27ZM91.96,129.47h.11s.22-.22.22-.22v-.11s-.16-.05-.16-.05l-.22.22.05.16ZM91.74,130.01l-.32-.22-.16.16v.22l.16.05.11.22-.22.65.16.49h.11l.05-.05.11-1.51ZM90.45,131.74l-.05-.16-.16-.05-.22.11v.11s.22.22.22.22h.11s.11-.22.11-.22ZM76.38,145.48l.27.05.38-.38-.05-.05h-.11l-.11.11-.38.05v.22ZM85.69,136.07l-.22.32.22-.32ZM94.77,127.09l-.05.16.11.11h.22v-.22l-.11-.11-.05.05h-.11ZM95.42,126.55l.49.05.27-.16v-.11s-.11-.11-.11-.11l-.65.32ZM80.71,141.47l.22.11v-.11s-.16-.27-.16-.27l-.11.11.05.16ZM96.45,125.63l-.05.27h.22l.05-.27h-.22ZM76.66,145.42v.11l-.05-.05.05-.05ZM76.38,146.23l-.05-.16-.11-.11-.27.16.16.16h.22l.05-.05ZM94.77,127.74h-.32l-.22.22.54,1.51.27-1.46-.27-.27ZM79.03,143.69l.05-.16-.05-.05h-.22v.11s-.05.05-.05.05l.27.05ZM86.39,136.66l-.43.22.32.54.05.05.22-.22.11-1.41-.43.32.16.49ZM92.45,130.17l-.27.16.27.16.27-.16-.27-.16ZM93.8,129.47h-.54l.38.27.54-.76-.38.05v.43ZM93.64,132.77h-.22l-.54-.43-.05-.59-.32-.43.11-.65-.7.16.05.7h.32l.16.27-.49.49.05.59.27.16.16-.16-.11-.22.16-.16h.22l.81.59.27-.16.54.32.54-1.08-1.24.59ZM78.76,144.61l.43-.11.11-.22-.32-.22-.16.05-.16.27.11.22ZM95.37,127.9v.22h.11s.05.05.05.05l.05-.05v-.11s-.22-.11-.22-.11ZM89.2,136.66l.43.22.27.38.43.11.27-.16.11.43h.11l.05-.05v-.22s-.16-.27-.16-.27l.05-.05-.49-.16-.11-.22h-.22l-.05-.05-.05.05-.54-.22-.22-.32v-.65l-.43-.43-.16.27-.11-.11h-.11l-.05.27h-.22l-.11.65.38.16.27-.16-.05-.16.16-.16.43.87-.43-.11.27.49.22-.11.05-.27ZM78.44,145.48v-.11s-.16-.05-.16-.05l-.16.16v.11s.32-.11.32-.11ZM94.29,130.06l-.27-.16-.87.65.54.32.54-.32v-.11s.05-.05.05-.05v-.32ZM82.17,142.39l-.32-.43-.76.65.22.11.49-.38.38.05ZM83.2,142.34l-.11-.65-.7-.05.7.81.11-.11ZM86.44,138.12l.05-.38h-.11l-.16.27.22.11ZM95.15,129.2l-.05.16.05.16.16.05.32-.22.05-.27-.27-.05-.27.16ZM85.47,139.09l.43.11.32.65.16.05.11-.11.16.27.16.05.22.65.7.16-1.41-1.73.38-.16.05.05.87-.32-.16.49.76-.54v-.11s.38-.16.38-.16l-1.68-.38-.32-.32.05.49-.11.11-.05.27-1.03.49ZM80.01,144.45l.22.11.49-.27v-.43s-.32.43-.32.43h-.22l-.16.16ZM89.69,134.98l.11.22.11.11.27-.27-.11-.22-.27-.05-.11.22ZM94.93,130.28l-.27-.16h-.11s-.11.11-.11.11l-.05.81.05.05h.11s.38-.81.38-.81ZM77.79,147.42l.05-.16-.05-.05-.27-.05v.22l.27.05ZM94.5,131.79l.11-.32-.43-.11-.81.27.11.32.54.22.49-.38ZM87.31,137.9l.27-.05.16-.16-.16-.16-.27.16v.22ZM82.33,143.2v-.11l-.05-.05-.27-.05-.16.16.22.11.27-.05ZM96.07,129.47l-.11.22.22.22.11-.11.05-.38-.27.05ZM91.31,134.33l-.05.05v-.11l.05.05ZM92.77,133.31l.05-.05-.16-.05-.27.27.38-.05v-.11ZM81.79,144.18l-.27.16.22.22.43.11.43-.32-.76.11-.05-.27ZM79.95,147.1v-.32l-.16-.27-.32-.11-.16.27.16.16h.22l.27.27ZM84.17,142.55l-.22-.22h-.22l-.16.16.59.05ZM83.04,143.26l-.27.16-.11.22.05.05h.11s.16-.16.16-.16l.05-.27ZM90.88,136.39l-.05.05-.05-.05h.11ZM88.55,140.34l.38-.49-.87-.65v.43l.49.05.05.05-.05.59ZM79.47,148.88l.05-.16-.11-.22-.05-.16-.11.11v.43h.22ZM89.85,138.39l-.16-.05-.22.11-.05.16.11.32,1.08.11v-.11l-.76-.54ZM89.85,140.55l.38-.7-.43-.76h-.43l-.22.32.59.59.11.54ZM87.53,142.01l-.11-.32-.27-.27-.27.16.65.43ZM87.85,143.42l-.22-.32.43-.43.11-.43-1.08.22v.22l.22.22.11.43.43.11ZM88.5,141.69l-.22-.22-.27.16.27.27h.22v-.22ZM91.04,138.82l.16,1.46.38-.05.32-.65-.43-.65-.43-.11ZM92.72,142.01l.11-.32-.11-.22-.27.05-.22-.11.7-1.24-.11-.32.43-.65-1.3-.76.11.54.27.27.27,1.03-1.89,1.03-.7-.16.16.92.87-.11-.05-.38.43-.22.49.7.81-.05ZM89.74,141.31l-.05-.27h-.22l-.11.32.16.27.22-.32ZM90.99,142.55v-.22s-.43-.11-.43-.11l-.43.22-1.03-.27-.16.16.11.43h.22l.43-.32.22.22,1.08-.11ZM89.26,143.85l-.11-.65-.32-.22h-.32l-.11.32-.05-.05-.32.32-.27.05-.11.22.16.16h1.3l.16-.16ZM90.45,143.53v-.54h-.11s-.27.16-.27.16l-.05.27-.11.11v.11s-.32.11-.32.11v.32l.27.05.16-.27h.11l.32-.32ZM93.42,141.53l-.05-.38-.22-.11-.05.16.05.16.27.16ZM90.99,143.96l-.05.16.11.22.16.05.27-.27-.05-.16-.22-.11-.22.11ZM91.53,146.23l.11-.22-.22-.32.59-.92h-1.19s-.11-.22-.11-.22h-.22l-.11.22.27.16.05.27.22.22-.22.32.16.27.65.22ZM93.1,142.07l.05.16.22.11.27-.05.16-.16-.38-.27-.32.22ZM92.77,145.85l.05-.16-.05-.16-.22-.11-.32.22.05.16.22.11.27-.05ZM95.1,145.48l-.32-.43-.43.11-1.35,1.24v.32l.16.16,1.3-1.41.32.11.32-.11ZM96.12,144.56l.05-.27-.32-.32-.27.05-.05.27.16.27.22.11.22-.11ZM95.47,147.48l-.32-.65v-.65l-.49.7.59.7.22-.11ZM94.01,148.29v-.11s-.11-.11-.11-.11l-.27.16.05.16.16.05.16-.16ZM96.72,146.34l.16-.05v-.11s-.05-.05-.05-.05l-.16-.05-.22.11.27.16ZM94.56,149.59l-.11-.32-.38-.16.32.54h.11l.05-.05ZM98.45,145.26l-.11.22.11.32.16-.05.05-.16v-.22l-.11-.11h-.11ZM95.91,148.77l.16-.27-.05-.16h-.11s-.16.27-.16.27l.05.16h.11Z"/>
            </g>
          </g>
        </g>
        <g class="cls-15">
          <circle class="cls-3" cx="87.5" cy="138.5" r="24"/>
          <circle class="cls-3" cx="138.5" cy="138.5" r="24"/>
        </g>
        <g>
          <circle class="cls-4" cx="87.5" cy="135.5" r="24"/>
          <circle class="cls-4" cx="138.5" cy="135.5" r="24"/>
        </g>
        <g>
          <circle class="cls-13" cx="87.5" cy="135.5" r="24"/>
          <circle class="cls-12" cx="138.5" cy="135.5" r="24"/>
        </g>
        <line class="cls-6" x1="116" y1="137" x2="110" y2="137"/>
        <rect x="59" y="128" width="6" height="6"/>
        <rect x="161" y="128" width="6" height="6"/>
      </g>
    </g>
  </g>
</svg>