<?xml version="1.0" encoding="UTF-8"?>
<svg id="Layer_1" xmlns="http://www.w3.org/2000/svg" xmlns:xlink="http://www.w3.org/1999/xlink" viewBox="0 0 256 256">
  <defs>
    <style>
      .cls-1 {
        fill: url(#radial-gradient);
      }

      .cls-2 {
        fill: #c1272d;
      }
    </style>
    <radialGradient id="radial-gradient" cx="128" cy="128" fx="128" fy="128" r="154.47" gradientTransform="translate(0 -.06)" gradientUnits="userSpaceOnUse">
      <stop offset="0" stop-color="#f7931e"/>
      <stop offset=".25" stop-color="#f15a24"/>
      <stop offset=".31" stop-color="#f25321"/>
      <stop offset=".39" stop-color="#f44019"/>
      <stop offset=".49" stop-color="#f9220d"/>
      <stop offset=".59" stop-color="red"/>
      <stop offset="1" stop-color="#c1272d"/>
    </radialGradient>
  </defs>
  <path class="cls-1" d="M128.09,68.38c1.51-4.01,3.19-7.83,5.2-11.49,5.46-9.95,12.64-18.32,22.43-24.25,6.79-4.11,14.14-6.57,22.06-7.36,21.82-2.16,42.94,9.27,53.25,28.15,3.9,7.13,6.07,14.77,6.75,22.85,1.04,12.31-1.73,23.94-6.25,35.26-4.93,12.34-11.72,23.65-19.38,34.45-12.75,17.99-27.55,34.2-43.32,49.55-12.7,12.36-25.98,24.06-39.88,35.05-.71.56-1.13.57-1.83,0-25.2-20.08-48.66-41.97-69.4-66.69-10.53-12.55-20.09-25.8-27.68-40.37-4.86-9.33-8.79-19.02-10.75-29.4-2.71-14.36-1.31-28.2,5.96-41.04,8.36-14.76,21.04-23.94,37.67-27.04,19.54-3.64,36.14,2.41,49.75,16.74,6.61,6.96,11.21,15.19,14.68,24.09.17.44.35.88.53,1.31.01.03.05.05.21.2Z"/>
  <path class="cls-2" d="M171.37,156.41c-2.75,5.29-8.3,9.53-15.27,10.93-11.21,2.26-21.85-3.64-23.75-13.21-1.9-9.57,5.64-19.15,16.86-21.41,6.26-1.27,12.34.01,16.82,3.06v-51.58l-57.13,12.91s.33,68.49.06,70.11c-1.31,7.43-7.94,13.94-16.92,15.75-11.22,2.26-21.85-3.65-23.76-13.21-1.9-9.56,5.65-19.15,16.86-21.41,6.43-1.3,12.65.09,17.17,3.31v-69.5l69.45-13.92s.34,74.8-.4,88.16M86.89,117.46l.12-1.15-1.22-.74.67,1.44-.55.7.07.62.62-.07.29-.79ZM98.43,156.36l.53.19.5-1.76.72-.33.47-.88-2.15.56-.13,1.6.07.62ZM108.12,178.58l.77,1.18.45-6.57-.71-.11-.51,5.5ZM106.01,151.94l.04-1.33-.61-.37-.64.52-.04,1.33.71.11.54-.25ZM105.18,162.85l-.41,1.94,1-.68,2.14-.12.21-.97-1.22-.74-1.71.57ZM103.24,155.87l.34.72.27.1.18-.08.1-.26-.17-.36-.53-.19-.18.08ZM103.26,148.85l-.72.34.04,1.96.72-.33.66-1.41-.7-.55ZM99.81,164.48l.29-.79-.32-1.17-.58,1.58.61.37ZM101.09,150.3l-4.98.13-.63.51.07.62,5.08-.39,1.21,1.19.21-1.42-.96-.65ZM94.9,155.37v-.45s-.87-.02-.87-.02l-.1.26.17.36.26.1.54-.25ZM108.26,157.69l-.46.43.25.54.63-.07.46-.43-.52-.64-.36.17ZM100.25,167.78l-.37.61.51.64.26.1.08.18,1.18-.77-.16-.8-.79-.29-.72.34ZM94.26,146.46l.72-.34.71.11,1.62-.75-2.61-1.85.37-.61-.61-.37-.36.17-.33,2.12-.8.16-.29.79.76,1.62.72-.34.11-.71ZM97.83,158.83l-.64.52.35.28h.44s.64-.5.64-.5l-.35-.28h-.44ZM97.32,148.33l-.25-.54-.97-.21-.28.35.25.54.61.37.36-.17.27-.35ZM107.22,79.26l.17.36.27.09.63-.51v-.44s-.79.15-.79.15l-.28.35ZM98.88,91.92h-.44s.08,3.46.08,3.46l.7.55,1.15.12.47-.88.72-.33-.16-.8-2.17-1.84-.35-.28ZM109.36,98.43l.07.62.53.19.46-.43-.17-.36-.53-.19-.36.17ZM102.54,78.16l.24,4.27.51.64.18-.08.2-.97.18-.08-.56-2.15.29-.79.54-.25.11-.71-1.06-.38-.63.51ZM103.83,70.1l-.55.7.24.98-.48,1.32,1.07-.06.74-1.22.18-.08.08.18.54-.25.11-.71-.78-.73-1.15-.12ZM110.2,61.66l1.15.12.9-.42-.34-.72-.98.24-.73.78ZM108.88,128.47l-1.21,2.1-5.57-1.13-1.11-1.45-1.38,1.74,2,1.48.47-.88,1.24.3-.33,2.12,1.65,1.2.8-.16.11-.71-.61-.37-.07-.62.46-.43,3.22-.62.29-.79,1.79-.4-1.05-3.67-.74,1.22.06,1.07ZM104.16,103.27l.51.64.11-.71-.52-.64-.11.71ZM106.79,133.39l-.1.26.17.36-.1.26.73-.78-.17-.36-.54.25ZM112.8,134.53l-1.16.32-1.38,1.74-3.07-1.42.31,1.61,1.91,1.74.06,1.07-4.75-5.02-3.47.08-1.76,2.79,1.98,2.37-.1.26.08.18-3.07-1.42-.64.52-5.23-.41-.75-1.62.29-.79.81-.6.43.46,1.43-.23v-.44s-1.74-.94-1.74-.94l-.17-.36,1.29-1.48-.96-.65-.89-.02-.43-.46-.8.16-.19.53.43.46-1.06,2.9.91,2.43-.55.7.06,1.07.8-.16.52.64.79.29-.98.24-1.86,3.06,1.32.48,3.04-3.83,3.11.09.95,1.09,1.34-.41-.1.26.08.18,3.65-.17.38-1.06-.42-.9.26.1.1-.26,2.69-.81,1.22.74-.22,1.42-2.04-.15,3.52,4.28-.29.79-.61-.37-2.78,1.08-4.2-2.43-.87,2.38.24.98.78.73.98-.24.65-.96-.61-.37.37-.61,2.1,1.21,2.41-.47,1.32.48,1.34-.41.38-1.06.52.64.53.19.36-.17-.6-.82-.79-.29.12-1.15-.26-.1-.08-.18.18-.08.17.36.26-3.19,1.26-.59.95-2.2.71.11.46-.43-.6-.82-1.05-.39-.08-.18.77-2.11ZM105.46,143.22l-.25-.54-.61-.37-.82.6.34.72.79.29.36-.17.19-.53ZM108.19,153.78l-.12,1.15.96.65-.41-1.35.55-.69v-.45s-.61.07-.61.07l-.37.61ZM106.16,117.9l.25.54.53.19.36-.17.19-.53-.78-.73-.55.7ZM91,164.86l-.11.71.34.72.11-.71-.34-.72ZM87.53,84.5l-.13-1.69-.69-.55-.73.78,1.2,1.63.36-.17ZM104.5,123.28l1.38,1.55.36-.17-.81-2.69-1.35.41v.44s.42.46.42.46ZM97.94,112.96l1.27-1.03.29-.79-.25-.54h-.44s-.87,2.36-.87,2.36ZM98.76,115.65l.1-.26-.17-.36-.53-.19-.19.53.17.36.26.1.36-.17ZM101.29,123.46l-.55-2.59-.83,1.04,1.04.83-1.19,1.21,1.53-.49ZM103.06,120.66l-2.47-3.89-1.15-.12-1.09.95.24.98,2.46,1.05,2.01,1.03ZM99.2,109.09l.1-.26-.51-.64-.46.43.52.64.36-.17ZM94.25,101.75l.29-.79-.96-.65-1.19,1.21,1.14.57.72-.34ZM105.2,191.12l-.53-.19-.8.16.25.54,1.57,1.02.19-.53-.16-.8-.61-.37.08.18ZM95.84,172.91l.1-.26-1.47-1.29-1.51.05,2.91,3.9-.2-2.32.18-.08ZM104.22,123.63l-.78-.73-.98.24-.63,3.36,1.88-.66.67-1.85-.17-.36ZM101.06,115.9l.43.46.54-.25-.17-.36-.26-.1-.54.25ZM107.47,128.25l.41-1.94-.68-1-2.31,3.05.87.47,1.71-.57ZM92.89,128.47l-.07-.63v-.44s2.78-.63,2.78-.63l-2.71-1.59-.69,2.29.68,1ZM104.05,119.98l.72-.34.04-1.33-.43-.46-1.01,1.13.68,1ZM95.45,129.25l-.69-.55-1.34.41-1.32-.48-.54.25,3.21,2.67.92-1.31-.24-.98ZM97.14,125.83l-.17-.36-.71-.11.06,1.07.53.19.29-.79ZM93.73,117.56l.88.47,1.08-.5.1-.26-.43-.46-.89-.02-.73.78ZM99.02,131.75l1.5.4.18-.08.1-.26-3.19-3.56-.89-.02-.46.43v.44s.42.46.42.46l.63-.07,1.71,2.27ZM94.28,123.44l.21,1.87.65-.96-.16-.8-.35-.28-.36.17ZM85.54,98.58l-.2-2.32-.7-.55-.55.7.42.9-.48,1.32.24.98.8-.15.47-.88ZM93.52,121.82l.04-1.33,1.33.04-.16-.8-.79-.29-1.36.85-.76,1.67.88.47.82-.6ZM87.33,108.05l.26.1,1.8-.84.32-2.12-1.09.95-2.14.12-.3,1.24.96.65.18-.08ZM99.22,127.93l.8-.16.55-.7-.08-.18-.27-.09-.72.33-.29.79ZM98.47,132.45l-.07-.62-.79-.29-1.36.85-.7-.55-.55.69.52.64.72-.34.26.1.08.18,1.07-.06.82-.6ZM96.66,120.57l-.84,1.49,1.2,1.63.15-5.33-.76,1.67.25.54ZM97.23,135.43l.17.36,1.07-.06.28-.35-.25-.54-.53-.19-.54.25-.19.53ZM141.55,98.21l1.23.53,1.76-1.76-1.41-2.47.17-.88-.53-.53-.53.18-1.94,4.05.35,1.06.88-.17ZM148.25,92.22l.88,1.23,1.06-.35-.71-1.76h-.7s-.53.88-.53.88ZM134.15,101.03l-.18-.18h-.35M138.91,99.1l-1.41-.35M119.17,117.43l1.23-.17M159.88,95.39l2.47.35,1.06-1.06-.53-1.23-1.06.35-.53.88-1.41.7ZM157.76,96.8h.35s.88-.88.88-.88l-1.06-.35-.53.18v.7s.35.35.35.35ZM166.57,91.51l.53.88,1.23-.53v-.71s-.53-.53-.53-.53l-1.23.88ZM172.04,76.17l2.82.35,1.41-2.47-4.23,1.41v.7ZM171.33,69.12l5.99,1.41-4.76-4.76-1.41.35-.53,1.59.7,1.41ZM154.41,98.74l-.88,1.59,3.88-.7-.35-2.11-.88,1.94-1.76-.7ZM110.71,107.91l-1.06-2.12-1.23-.18-.18.18-.35-.35v-.35l.18-.18v-.36s-.18-.18-.18-.18l1.59.18.88-1.94-2.82-1.41v-1.76s-1.23.88-1.23.88l.18,2.65-3.35,4.41,1.23.53.53,1.59-2.47,1.06-1.06-.71-.53,1.23-.7.35.35,3.17-1.59.53-2.11-.7-2.82,1.06-1.23,1.59,5.99,5.99-2.29,1.94.18.88h1.06s.53-.88.53-.88h1.06s.7-2.47.7-2.47l-1.23-1.94.88-.53.88.53h1.41s1.58,1.23,1.58,1.23l3-1.94.17-.88-2.64.53-.35-.35-.18-1.23,1.06-1.76,1.06.71.53-.88v-2.12s1.41-.35,1.41-.35l2.11,1.41v-2.12M117.41,105.44l.35-.35v-.35s-1.23-1.94-1.23-1.94l-2.64,1.23M119.34,92.22l.18-.18.53-.18-.88-.53-.88.53.18.53.88-.18ZM113.7,101.39l-2.82-2.47-1.59,1.23,1.94.53,1.94,2.64.53-1.94ZM123.57,91.87l.18-.18h3.17s-.18-.88-.18-.88l-.88-.53-.17-1.23.88-.88h.7s1.06-1.41,1.06-1.41l-.88-.53-6.34,2.12.53,1.59,1.94,1.94ZM133.8,83.05h.35s.18-.18.18-.18v-1.06s-.7-.7-.7-.7l-.35,1.06.53.88ZM130.45,79.7v-.35l-.53-.53-1.23.18.7,1.06h.7s.35-.35.35-.35ZM132.56,79.7l1.41.35-.53-1.59-1.59-.18-.18.53.88.88ZM162.52,102.27l-.7.35v.7s.71.35.71.35l.7-1.06h-.35l-.35-.35ZM114.23,89.93l-1.23-1.94-1.41,1.41-.88,3.35-4.93.35,1.06-1.76.53-.18v-.7s-7.05.35-7.05.35l-1.59,3.35.35,1.41-1.76.7-1.06-5.64h.7v-.35s-1.59-.18-1.59-.18l-6.87,12.17,7.93,2.64-.35,1.41-8.11-.35-.35,1.06.71,1.06-.35.35-1.23.17-.18.53.71.71,4.05.18,1.59,3.7h1.41s.88-.88.88-.88l.35-1.76,1.41-1.41-.18-.18.18-.18.18.18,3-3-1.23-3.7,2.82-2.12.88,1.23-.53,2.65,1.23.53,1.76-.35.53-1.94-.71-2.47.88-2.64-.18-.18-.18.18-.88-3,.71-1.06,5.82,3,.7,1.76,2.82.35,2.29-1.59-3.35-1.23-1.94-3.35,3.7-.18,1.94,2.64.53.18.53-.18.18-.53-.35-.71-.88-.17-1.59-3.35-1.41-.35ZM102.95,95.22l-.88.17-1.58-1.59,2.64.88-.18.18v.35ZM102.25,96.63l.53.88-1.59,1.94-.88-1.23,1.06-1.41-.53-.18h1.41ZM161.64,81.64l.53.88h1.06s.53-1.59.53-1.59l-1.94-1.23-.18.88v1.06ZM159.7,88.16l2.47-.71v-1.41s-.71,0-.71,0l-.88.53-1.06.35-.53.88.7.35ZM169.92,77.94l-.53,1.24,1.06-.35.53-.88-.35-.71-.7.7ZM176.62,66.3l.88.17.35-.7-.35-.35-.88-.18-.18.18v.35l.18.53ZM170.45,71.06l.18.18h.35s.71-.71.71-.71v-1.06s-1.06.7-1.06.7l-.17.88ZM168.16,81.11l-1.59-1.59,1.41-1.41-2.12-1.76h-.35s-.35,1.06-.35,1.06l1.76,3.88v2.12s1.24-2.29,1.24-2.29ZM145.25,99.45h-.71M136.97,93.98l3.88-1.41.7-1.06-1.58-1.23-.7.35v.7s-2.29,2.64-2.29,2.64ZM165.34,70.18l1.23-3h1.06s-.17-1.23-.17-1.23l-2.64,1.94.53,2.29ZM161.11,77.23h-2.47s-1.41-1.41-1.41-1.41l-.18-.88,1.94-1.59.35-1.41,1.41-.7.53.88.88-.18.35-.7-.18-.88-.88-.88-3.88,1.76.35-1.41-1.41-.7.53,2.29-.71,1.41-1.23.53-1.76,2.47,3.53,2.47.88,1.94-.18,1.23-2.99,1.24-1.24-.88h-1.41s-3-2.64-3-2.64l-1.23.17-.71,2.47.35,1.06-1.59.53.18.18-.18.18-.18-.18.18-.18-1.41-1.06-3,3-2.29-.53.18-2.29-1.58.18-1.06,1.06-1.76.35-1.59,3.7-2.29-1.94-1.41,5.29,1.41,1.06-2.11,4.94-3-.88-1.06-3.17-1.41-1.06-1.23,3.35-1.76,1.06-.71-.71-3.17,2.82,5.29-.71,1.41,3.17,1.41.35v.7s-1.06.71-1.06.71l-2.29-.53-.53.53v1.06s.88.53.88.53h1.06s.53.53.53.53l3.52-1.06.53-2.65,1.41-1.41-.18-1.94h.35s.18-.18.18-.18l1.94.18,1.59,1.23,1.06-1.06-2.12-1.77-.53-1.94,2.12-.7,2.11,2.47,1.23.18.18-.18v-.35s-.53-.88-.53-.88l-.88-.17-.88-1.59,1.06-.71.71-2.82-.88-1.23-.88.18,2.29-.88,1.06.35,1.59-1.23h1.76s.35.35.35.35l.35,1.41h8.46s4.23-3.17,4.23-3.17l.17-1.23,4.23-2.12.18-3.35,1.23-.53.88-.88ZM131.51,90.63l2.11-.71v.35s.18.18.18.18l-2.29.18ZM145.78,87.64l-.71-1.06.35-.35v-.35s.53-.53.53-.53l.35.71.53.53-1.06,1.06ZM150.54,86.75l-.18-.18-1.58.18.17-.88h.35s1.24-.88,1.24-.88l.35.35h.35l-.7,1.41ZM152.12,72.47h.35s.53-.88.53-.88l-.18-.53-.88.53.18.88ZM119.34,100.68l-.88-.53-.53.88.35.35h.71s0-.35,0-.35l.35-.35ZM139.61,79.35l2.64,1.23,2.47-6.35-.35-.35-.7.35-1.06,3.53-3,1.59ZM156.17,92.04h1.06s1.06-1.06,1.06-1.06l-.71-.71-1.24-.18-.88,1.24.7.7ZM178.82,139.53l.93.82h.7s.35-.7.35-.7l-.23-.58h-1.4s-.35.47-.35.47ZM178.47,150.01l-.7-.23.35.7.47.23.23-.23-.35-.47ZM180.1,144.31l-.35.23v.23s.23.23.23.23h.23s.35-.47.35-.47l-.47-.23ZM177.88,147.68h.7s.12-.12.12-.12l-.7-.12-.12.23ZM166.71,161.66l.58-.12.12-.35-1.28.12.58.35ZM176.37,155.72l-.23.23v1.51s.46,0,.46,0l.23-1.05-.23-.7h-.23ZM165.31,163.87l-.47.82,3.14-1.98.81.82.35-.58v-.93l-3.38,1.51-.12-.12.58-1.4-.93.47-.12,1.16.12.23ZM163.1,158.63h.23l-.23.58.35.93.47.35,1.51-1.05-1.16-.7.7-.12v-.7s-.35-.47-.35-.47h-.23s-.23.23-.23.23v.12s-.7.23-.7.23l-.35.58ZM159.14,160.73l.35-.47-.47-.23-.58.12v.23s.23.23.23.23l.47.12ZM167.52,163.87l-.58,1.28.81-.47.23-.58-.12-.23h-.35ZM161.82,153.62l-.12,1.51,1.16,1.16.7-.35.82.12.46-.7,1.63,1.05.12.35.35.12.23-.23-.12-.23.35-.47,1.74-.23.82-1.98-.47-.81-.93-.23-.23.12-.93,2.1-.47-.12-1.16.35-.35-.47-1.28-.12-.12-.47.23-.58-.58-.7-1.05-.23.7.82h-.93v-.12h-.12s-.46.35-.46.35ZM165.43,158.86v.58s.47.47.47.47l.7-.12-.81-1.4-.35.47ZM171.37,153.62h3.96s-.12,1.4-.12,1.4l.35.23.35-.35-.12-.47.35-.35-.58-1.05-1.05-.23.12-.47.47-.12.47-.47.93-.12.35-1.63-.23-.35-.7,1.05h-.23l-.47-.35-.23-.93.58-.12-.12-.47-.7-.7.35-.58,1.16-.23-.7-.7.93-4.08.23-.23.58-.12v-.12.12l-.23,3.03,1.51-1.86.81.23-.81-1.28-.12.12.23-.58-.23-.58-2.79.35v-.23l-.12-.12-1.05-.23-.47,1.28,1.63-.23-.58,1.86-.81.7-1.05-.35-.47.35v.12h-.23l-.12-.12v-.12l-.12-.12h-.12l.58-.47-.35-.93-1.4.47-.58-.58-.12.7.93.81.35,2.56.58-.23.7.35-.46,1.16-.58.12.23.58-.12.35,1.16.93-.35.7-.93.47-.58,1.28.12.93ZM174.16,156.07l-.23.23v.23s.23.23.23.23h.23s.23-.35.23-.35l-.23-.23-.23-.12ZM173.69,155.72l.12-.23-.12-.12v-.23l-.35.12v.23l.12.23h.23ZM168.22,158.75l1.98,1.63v.47s.7,1.16.7,1.16l.82.12.46-.7-.23-.82.23-.23.12-.7h-.12l.12-.58-.23-.58-.47.12-.35.47h-1.05s-.7-.82-.7-.82l.47-1.75-.47-.47-.58.12-.7,1.75h-.23s.23.81.23.81ZM170.43,160.26l.93-1.05.47.35-.23,1.05-.12.12h-.12l-.93-.47ZM171.83,156.77l.58-.47.12-.81-.47-.35-.23.81v.82ZM173.11,158.51l-.12.35.12.23h.23s.35-.35.35-.35l-.12-.23-.23-.12-.23.12ZM160.66,158.16l.46-.58-.23-.47h-.12s-.23.23-.23.23h-.35l-.12-.47-.7-.58h-.23s.23.82.23.82h.46s.82,1.05.82,1.05ZM171.95,136.62v-.12l.12-.23-.47.12-.12.47.23.12.23-.35ZM173.11,141.51l-1.75.12-.12.93.81-.47,1.51.23-.46-.82ZM170.2,136.97l.12-.58-.23-.35h-.23s-.12.12-.12.12l.12.81h.35ZM160.89,159.1l.47-.35-1.05-.47-.47.35.12.47.58.12.23-.12h.12ZM160.89,155.49l.12-.12v-.35l-.12-.12h-.12s-.12.47-.12.47l.23.12ZM169.5,137.55l-1.05-.23v.93s.82,1.4.82,1.4l-1.51,1.75-.23-.93.12-.23-.23-.23-2.21,2.45.58,1.63.58.35-.35.82-2.21-1.51.23-.23-.12-.12-.58.47,1.75,6.29,3.49-1.75.35.58-2.79,2.56.23.47.58.12v.23l-.35.47.12.23h.47s1.4-1.28,1.4-1.28l1.75.7.47-.47v-.58s-.47-.7-.47-.7v-.93s-.12,0-.12,0v-.12h.12s0-1.98,0-1.98l-1.63-.82.23-1.63.7.12.7,1.05.58-.23.47-.7-.47-.82-1.05-.58-.58-1.16h-.12v.12l-1.28-.7-.12-.58,2.91-.93.81.35,1.05-.82.23-1.28-1.51.7-1.75-.47,1.16-1.28,1.51.23.23-.12.12-.23-.12-.23-.35-.12-.35.23-1.63-.58-.58.35ZM167.52,143.03l-.23.35h-1.05s1.16-.58,1.16-.58v.12l.12.12ZM167.76,143.72l.47.12.12,1.16-.7-.12-.12-.82-.23.12.47-.47ZM170.08,156.42l.58-.35.12-.7-.23-.12-.35.47-.12.7ZM171.13,157l-.58.7.12.47.47.23.7-.7-.23-.58-.46-.12ZM160.42,161.89l.7-.35.23-.58-.12-.35h-.47s-.58-.47-.58-.47l-.7.12.58.7v.58l.35.35ZM179.28,135.69l-.7.12.7,2.33.58-.35.35-1.28-.93-.82ZM174.74,139.42l-.46.12.12.47h.23s.23-.23.23-.23l-.12-.12v-.23ZM145.87,125.44l.35-.12-.12-.35-.46-.23v-.93s-.47.7-.47.7l.35.58.35.35ZM147.73,160.03l-.35.23,1.86,3.38.12-.81-1.63-2.8ZM145.99,153.86l-.47.7.35.47,1.16-.47.7.12-.7-.93-1.05.12ZM150.53,152.92l-.7-.7.12.7.35.35.23-.35ZM143.89,151.76l-.12.47.35.12.35-.12v-.35s-.35-.12-.35-.12h-.23ZM150.41,155.14l-.35.35.12.47.81.12v-.12l.12-.12.12-.47-.35-.23h-.47ZM124.22,104.48l-.23.58.23.35h.35s0-.12,0-.12h.12l.7.47.58-.23-.58-.58-.12-.58-.47-.23-.58.35ZM118.75,100.98l-.58.12v.47s.58,0,.58,0l.58-.35-.58-.23ZM155.07,151.76l.23.35v-.47l-.23-.35v.47ZM154.02,168.65l-.23.35.12.47.23.23.58-.93v-.35l-.47.12-.23.23v-.12ZM154.6,156.77l.47,1.28.58-2.8-.82.35-.46,1.05.12.12h.12ZM158.44,163.17l-.81.58,2.33.12.7,1.63.35-.93-.35-1.51-.35-.23-1.05.12v-1.16s-.46-.12-.46-.12l-.35.23v1.28ZM153.62,92.69l1.01.26,2.76-1.53-.03-.41-.63-.4-.69.14-2.57-1.07-.88,1.37.87.95.16.68ZM156.8,86.37l-.24-.54-1.73-.53.07.82,1.35.67.56-.41ZM153.84,97.88l-.21-.13.79-2.6-.78-1.09-1.02-.27-.23.82-1.16.42-.41,1.1-1.02-.27,4.16,2.29-.12-.27ZM151.59,104.6l-.28-.96M149.18,91.77l-1.85-.8-1.04.69.12.27.92.4h1.79s.84.53.84.53l.77-.28-.66-.81h-.9ZM149.67,76.72l.57-.41-.07-.82-1.22-.4-.53.82,1.15,1.91.11-1.1ZM149.51,79.73h.6s-.03-.41-.03-.41l-.66-.82-.44.69.12.27.42.27ZM150.86,71.66l-.63-.4h-.6s-.02.96-.02.96l.92.4.32-.96ZM162.22,68.28l-.26-3.28-1.6,1.11,1.27,2.18h.6ZM169.26,69.32l1.16-.42-.18-1.09-5.66-3.65,3.25,4.62,1.43.53ZM148.51,85.89l-2.3-.12-.68,1.51.12.27-.09.14,1.08,1.09,1.1.13.02-.96.73-2.06ZM147.04,114.89l-1.35-.67.12.27,1.26.81-.03-.41ZM147.4,80.71l1.33-.7-1.91-.26.74,3,1.04-.69-1.2-1.36ZM157.88,145.01l-2.22-1.62-.05.55.96.81,1.31.26ZM157.79,148.84l.68-1.51-1.32-1.63v2.32s-.31,0-.31,0l-4.92-5.7-.71,1.1.18,1.09,2.09-.02,4.16,5.98-.22-1.5.39-.14ZM165.18,144.27l-1.08-1.08.09-.14-.24-.55-.42-.27-.98.14-.53.82,1.17.95-2.62-.52,1.93,2.99,1.1.13,1.33-.7.02-.96.42.27-.18-1.09ZM171.83,152.83h.59s.18-.28.18-.28l-.96-.81-1.02-.27.28.96.93.4ZM152.79,146.01l-.39.14-.02.96,1.11,1.49-.07-2.19-.63-.4ZM170.9,139.99l-.21-.13-.09.14-1.68-1.08,1.88-.15-2.06-.94-1.58.15-.02.96-.56.42-2.39-1.35-.98.14-1.83-1.76-.93-.4-.08-3.55-.33-.41-1.85-.81-1.46.42-.04,3.28,2.96,2.3.28.96-.39.14.24.54.72.27.47-.28,3.73.65.31,1.36,1.56.81.99,1.22,2.98-.02.94-1.92-.57-.95ZM160.72,141.98l-2.53.7,1.17.95h1.19s.44-.7.44-.7l-.28-.96ZM152.28,109.51l.09-.14-.09.14.96.81.24.55-1.42,5.89-1.79.02,1.92,1.62.19,1.09h-1.79s-.56.43-.56.43l.96.81-1.13.83-1.1-.13-.42-.27-.46-2.05-.69.14-.61,2.33,1.59,1.22.49,1.09.75.68-.14.68-2.06-.94-1.84.56.36.82-.56.42.36.82.81.13.85-1.78,7.12,4.59.92-.96-.07-2.19-1.32-1.63-.1-1.23,2.8.25.06-.55.86-.42-.96-.81.05-1.91,1.52.4.87.95,2.57-2.62,2.3.12.32-.96h-1.49s-2.16-2.16-2.16-2.16l-1.33.7.69,1.22-.21-.13h-.3s-.09.14-.09.14h-.3s-.42-.27-.42-.27l.09-.14-.57-.95-2.15-.8-.94-1.77.37-2.87,2.76,2.17.13-2.05-2.06-.94h-.3s-.18.28-.18.28l-4.76-3.65M146.9,129.38h-.6s.15.69.15.69l.42.27h.6s.18-.28.18-.28l-.24-.54-.51-.13ZM148.93,129.91l.39-.14.18-.28-.54-.54-.18.28h-.3s.03.41.03.41l.42.27ZM157.1,138.86l-.42-.27.07-2.87-.96-.81h-1.19s-.49,2.61-.49,2.61l-1.88.15-1.89-1.22-.27-.95-.75-.68-.86.42-.23.82-.21-.13-.32.96.24.54-1.04.69.31,1.36,1.56.81,2.14-.56.35-.55,4.8.37,1.04-.69ZM148.9,138.25l-.21-.13-.12-.27.38-1.51,1.1.13.88,2.32-2.03-.53ZM151.69,132.07l.2-1.23-1.1-.13-.41,1.1.69,1.23.62-.96ZM147.1,133.2l-.51-.13-.39.14.36.82.42.27.39-.14.06-.55-.33-.41ZM172.38,147.36l.84.54,1.04-.69-.42-.27-1.7-.12-.56.42-.63-.41-.24-.54-.21-.13-.77.28.39,1.23,2.26-.29ZM172.28,109.76l.4,1.23.97-1.51-.33-.41.8-1.24-1.44-1.9.14,3.01-.53.83ZM166.31,109.81l.51.13.15-.68-.75-.68.03.41-.09.14.15.68ZM158.9,113.97l2.9,1.48,1.11,1.49.5-1.23-3.06-2.16-1.46.42ZM167.31,107.34l1.52.4-.39-4.92-.75-.68-.83.83.24.54-.44.69-1.1-.13-.75-.68-.81-.13,1.09,2.45-.09.14,2.3,1.49ZM169.87,98.3l.77-.28-.84-.54h-.9s-.09.14-.09.14l.12.27.93.4ZM169.67,111.97l.83-.83-.12-.27-.42-.27-.68.14-.23.82.63.41ZM172.75,100.74l.24.54,1.14.54-.27-.95-.63-.41h-.3s-.18.28-.18.28ZM173.25,99.5l.39-.14-.69-1.22-1.52-.4.78,1.09,1.05.68ZM169.2,148.61l.33.41,1.14.54.57-.41-.57-.95-2.24-.67.57.95.21.13ZM172.24,144.35l.15-.68-.21-.13h-.3s-.27.42-.27.42l.12.27.51.13ZM142.42,75.55l-.12-.27-.65.55.54.54h.6s.06-.55.06-.55l-.42-.27ZM169.07,111.97l-3.38-1.2-.45-.68-.72-.27-.39.14.03.41.33.41,2.9,1.48,1.12,2.86-3.5-1.48-2.19-2.58-.55,1.78,1.27,2.18,1.73.53,4.53,4.48-.65.55-2.84-.66.09-.14-.21-.14-1.93.7-2.33-.53-1.46.42.31,1.36.87.95,2.05-.43,1.35.67-.82,2.19-3.55-.93-1.5,2.34.21.13-.09.14-.21-.13-.71,1.1-1.37.28-.44.69.49,1.09,3.67,1.2,1.54,3.13.84.54.39-.14-.28-.96.18-.28,1.14.54.77-.28-3.08-6.26,1.07-.28,4.96,6.11,7.92-5.4-.69-1.22h-.3s.24.55.24.55l-5.13-.78v-1.37s1.3.26,1.3.26l2.29-1.25-2.12-5.45h-.6s.03.42.03.42l-1.13.83-1.4-3.82,2.53-.7.71-1.1-2.06-.94-.78-1.09ZM169.56,121.81l.09-.14,1.65,2.04-1.88-1.21-.16-.68h.3ZM168.79,123.46l-.33-.41-.83.83-1.35-.67,1.09-1.24.93.4.48,1.09ZM154.8,133.69l-.28-.96-.51-.13-.32.96.78,1.09.32-.96ZM151.22,133.72l-.86.42.73,1.63,1.02.27.56-.41-.52-1.5-.92-.4ZM161.47,76.36l.68-.14-1.71-1.49-1.16.42.36.82.93.4h.9ZM156.27,78.45l.57-.41-.07-.82.14-.68-.24-.54h-1.19s.25,1.92.25,1.92l.54.54ZM168.6,152.31l.44-.69,1.58-.15-1.17-.95-1.4-.13-.84-.54-.47.28-.02.96.99,1.22h.89ZM161.21,69.39l-.72-.27-.56.41.06.82.86-.42.35-.55ZM168.9,64.81h.3s.09-.14.09-.14l-.45-.68-.42-.27-.47.28.45.68.51.13ZM167.17,69.34l.23-.82h-.89s-.35.56-.35.56l.12.27.21.13.69-.14ZM157.27,72.29h1.79s3.88,1.32,3.88,1.32l.77-.28-.12-.27-2.22-1.62-.71,1.1-1.89-1.22-1.51.97ZM150.5,89.7l.45.68.44-.69-.24-.55-1.13-.54-.06.55.54.54ZM160.07,93.73h.6s.06-.55.06-.55l-1.59-1.22-.65.55.14,3.01,1.45-1.79ZM171.11,73.82l.73-2.06-1.1-.13.36.82-2.11.97,2.12.39ZM164.04,77.43l-.02.96-2.77.16-.34,3.28-.98.14-1.23,3.29,2.9,6.54,1.31.26.42.27.6,1.36-.5,1.24.66.81.04,1.78-.15-.68-1.35-.67-2.14.56-.23.82-1.65-.67-.45-.68-.93-.4h-.3s-.09.14-.09.14l.57.95,2.81,1.62.13,1.64-1.82-.4-2.22-1.62-.53.82,1.59,1.22.81,1.5-.09.14.12.27-1.7-.12-.71,1.1-2.05.43.32,2.73.63.41.36.82.75.68h.9s.27-.42.27-.42l-1.24-1.77.23-.82h.6s.78,1.08.78,1.08l3.17,1.07,1.22,4.09,1.3-2.47-.84-.54.29-1.37,2.41-.98-1.38-1.08-3.05-.8-1.77-2.31,3.45-1.67,1.38,1.08,3.99-1.13-2.43-1.76,2.58-1.25-.31-1.36.53-.82-.39-1.23-1.88.15-1.24-1.77,1.5-2.34-1.38-1.08-.09.14-.21-.13.09-.14.21.13-.1-1.23,1.02.27,1.84-.56-.28-.96-3.26-2.3-.48-1.09-1.17-.95.02-2.32.98-.15,1.94.67,3.3,2.71,1.48-1.38.02-.96.95-.55,2.12.39-1.08-1.08-1.07.28.16-3.01-1.05-.68-.81-.13-.47.28.15.68.93.4-.11,1.1-1.07.28-.68,1.51-.8-.13-1.68-1.08-.85-1.91-.44.69ZM162.69,97.94l.21.14h.3s.13,1.63.13,1.63l-.64-1.77ZM161.49,87.84l.63.41.72.27-.27.41h-.3s-.18.28-.18.28l-1.14-.54.53-.82ZM161.02,84.43l.12.27.42.27-.32.96.12.27-.69.14-.39-1.23-.21-.14.95-.55ZM172.4,83.79l.14-.68-.51-.13-.56.42.12.27.81.13ZM151.37,99.4l-.35,1.92.78,1.09,3.03-1.94-1.17-.95-2.29-.12ZM158.83,109.46h-.3s.24.55.24.55l.42.27.56-.42-.75-.68-.18.28ZM170.39,91.05l2.62-.84.06-.55-.42-.27-4.52,1.95,1.95,2.04.31-2.33ZM154.5,81.2l.74-.69-.57-.95-.84-.54-.53.83.36.82.84.54ZM171.27,154.61l-.45-.68-.92-.4-.88,1.37-1.8-1.35-.81-.13-1.78,1.38-.08,1.5,2.5-1.11,4.28,2.56-1.02-1.63.97-1.51ZM73.61,174.45l1.75-1-.5-2.74-.75,1v1s-1.74,1.5-1.74,1.5l.5.5.75-.25ZM73.86,164.47l.5.75,1.5-.75.25-1-.75-.5-1.49.75v.75ZM70.86,168.71l-.5-.5h-.5s-.25.25-.25.25v.25l.25.25h1s0-.25,0-.25ZM77.84,164.72l-1.25,1.5v1s2.24-1,2.24-1v-1s-1-.5-1-.5ZM77.1,167.71l-1.5,1,1.99.75,2.24,5.99.75-.25.25-1-2.49-5.74-1.24-.75ZM75.85,178.93l.25.25h.5s.25-.25.25-.25l-.5-1-.5.25v.75ZM85.57,174.69v1s2.24,0,2.24,0l.75-.75-.25-1,2.24-1.5v-.5s-.75-.5-.75-.5l-.5.75-3.49-1.99v2.24s.5.75.5.75v1s-.75.5-.75.5ZM70.12,176.19l-.5-.25-.25,1,.25.5.5.25.25-1-.25-.5ZM82.33,172.2v.5l.75.5h.75s.25-.5.25-.5l-.75-1h-.75s-.25.5-.25.5ZM69.71,180.61l-.5-.5h-.5s-.25.75-.25.75l.5.5.75-.25v-.5ZM100.27,147.51l1-1.5-4.74.75.5,2.25-.75.75,1,3.99-.25.75-.75.25-.75-.5-.75.5.25,1,2.24,1.25,2.24-1.5,1,1.25-.75,1,2.74,1.5,1.25-2.49-2.24-.5-4.24-5.73,1.75-2.49,1.25-.5ZM94.54,152.25h-.5s-.5,1.25-.5,1.25l.25-.25h.5s.25-.25.25-.25v-.75ZM88.06,148.76h-.25s-1-1-1-1l-1.25-.25-.25.75.5.75-1.99,2.24v1.75s-3.49,1.99-3.49,1.99h.5v.25h-.25l-.25-.25-1.25.75-.75-.75-1.24-.25v.5s.5.5.5.5l1,.25-1,1,.25,1.74,1.25,1.25.75,2.99,2.49,1.74-.5.75-.75-.5-.75,1.25.25,1.25,1.25.5,1.25-.25,2.24-2.25-4.98-3.49-.25-3.74-.75-.5.75-.75,6.73,1.74-1.25-2.25,1.5-1,1.49,1,.5,3.49-.25.25.25.25h-1.25s-1,1-1,1l1.75,4.24h.25s.25-.25.25-.25l.25,1.74,1.75.5,1.74,3.49-2.74,5.49,1.25,1.25,2.49-3.74-.25-1.25.75.75,1,.25.25,1,1.25-.5.5-1,3.24-.25,2.74-2.74.75.25.5-.5-.25-1-.75-.25-.5-1-1.25-.75-1,2.25h-.5s-2-1.5-2-1.5l-.5.25.5,1.74.75.25-.25,1.24-.75.75h-2.24s-3.24-5.73-3.24-5.73l.25-1-3.24-2.74h.25s.25-.25.25-.25l3.74,1,2.24-3.49-1.75-3.99-8.22-2.74,1.25-.5,2.99,1.25,2-.5-3.24-2.74,1.24-2.49-.25-1.5-1.99,1.99ZM83.57,160.23v.5s.75.75.75.75h1s.25-1.25.25-1.25l-.75-.5h-.75s-.5.5-.5.5ZM71.11,161.48l-.25-.75-.5.25-.5,1-1.75.25,1.25.75,1.25-.75.5-.75ZM112.98,144.52l-1.25-.5-.5.5v.5l.5.5h.75s.5-1,.5-1ZM108,150.51l.5-.25-.25-1.75-3.49.5v.5l2.49.75.75.25ZM109,155.99l.75-2,1.49.75.75-1.5-3.24.75.25,2ZM113.23,152.25l2.49,2.25,1.25-.25.5-1.75-.75-1.25-5.73-.75,2.24,1.74ZM106.5,150.76l-1.75,1.74.25,2.49,3.49-2.49-.25-1.25-1.25-.5h-.5ZM117.47,149.51l-.25-.25h-.5s0,.75,0,.75l.75.25v-.75ZM100.27,151.76l1,.75,2.24-4.24-1.49-.25-1.99,1.5.25,2.25ZM109,166.47l2.24-2-3.24-2.24.75,3.49-.5.25-.75.25,1.5.25ZM112.73,149.26l.75-1.75-.75-.25-1.49.75v1s1.49.25,1.49.25ZM104.01,163.97l-1,1.74,4.74,2.25v-.75s-1.25-1.25-1.25-1.25l-.25-1.74-1-.5-1.25.25ZM107.5,160.73l.5.5,1.25-.5-.5-.75h-.5s-.75.75-.75.75ZM104.01,161.73l.25.75.75.25.5-.25.25-.75-.5-1-5.73-1.74-.25.25v.25s1.25,1.5,1.25,1.5l3.49.75ZM112.49,161.48l-.5-.25-1,.25-.75,1.25,2.24-.75v-.5ZM114.48,163.22l1,.75,1.5-1.74.25-2-.75-.75-1,.25.75,1.5-1.5.75-.25,1.25ZM105.51,157.99v-1s-.25-.25-.25-.25h-.25s-.5,1-.5,1l.25,1,.75-.75ZM99.78,163.22l.5,1.25h.25l.25.25v1s1,.25,1,.25l.5-1-1-.5.25-1.99-.75-.75-.75.25-.25,1.25ZM115.23,157.74l1.49-1.74-5.98,2.99,2.49.5,1.25-1.75h.75ZM97.78,164.47v-.75s-.5-.5-.5-.5h-.75s-.25.5-.25.5l.5,1.25h.5s.5-.5.5-.5ZM144.01,157.85l1.03.86,2.19-1.19-.65-2.77.42-.8-.36-.66-.56.02-3.01,3.34.04,1.11.9.08ZM152.12,153.99l.5,1.43,1.12-.04-.18-1.89-.68-.2-.76.7ZM135.65,158.14l1.83,4.4-.04-1.12,1.65-.62.95-1.37,1.21-.38-.04-1.11-1.25-.74-3.86,1.25-.12-.22-.34-.1ZM143.25,161.67l-.91-.64-.64.92.48.88-.6,2.03.26.99.34.1,1.29-1.27-.51-1.99.3-1.02ZM162.38,160.33l2.27,1.04,1.31-.72-.16-1.33-1.12.04-.75.7-1.55.28ZM159.96,161.08l.34.1,1.09-.6-.92-.64-.56.02-.2.68.24.44ZM169.9,158.5l.26.99,1.33-.16.2-.68-.36-.66-1.43.5ZM179.48,145.34l2.61,1.14,2.05-1.97-4.45.16-.2.68ZM147.78,163.74l-1.33.16-.18,1.23,1.15,1.08.22-.12.34.1,2.31-.97.58-2.59-3.08,1.11ZM156.2,162l-1.29,1.27,3.92.42.26-2.13-1.39,1.61-1.49-1.17ZM126.82,138.25l4.12-.26-2.17-1.38-1.97,1.07-.46-.32-2.41,1.31,1.57.28,1.31-.72ZM128.56,146.67l.22-.12,3.04.9.08-.9-.7-.76.18-1.23,1.09-.6.68.2,1.41-1.05-.7-.76-6.68.23.06,1.67,1.31,2.41ZM140.86,141.11l.34.1.22-.12.3-1.02-.48-.87-.64.91.26,1ZM138.59,136.95l.1-.34-.36-.66-1.23-.18.38,1.21.68.2.44-.24ZM140.62,137.55l1.25.74-.06-1.67-1.47-.62-.32.46.6,1.1ZM162.97,167.67l-.78.14-.2.68.58.54.97-.81-.34-.1-.24-.44ZM167.96,147.64l.26,1,1.01.3.96-1.37-1.51-1.73-.42.79-.3,1.02ZM164.26,153.34l2.57.02.4-1.35-.68-.2-.99.26-1.12.04-.75.7.58.54ZM176.95,146.43l-.86,1.04,1.11-.04.76-.7-.14-.78-.87.48ZM186.67,137.17l.79.42.54-.58-.24-.44-.8-.42-.22.12-.1.34.02.56ZM174.37,148.97l-1.07-1.97,1.75-.95-1.53-2.29-.34-.1-.64.91.59,4.22-.6,2.03,1.83-1.85ZM146.81,161.43l.78-.14-.37-1.21-.68-.2-1.09.6.8.42.58.54ZM140.81,152.49l4.12-.25.97-.82-1.17-1.63-.78.14-.2.68-2.95,1.89ZM174.75,137.69l2.03-2.53,1.01.3.18-1.23-3.08,1.11-.14,2.35ZM143.55,77.58l-2.37-.7-.95-1.75.08-.89,2.31-.97.74-1.25,1.55-.28.26,1,.89.08.54-.58.08-.9-.6-1.1-4.22.59.74-1.25-1.15-1.07-.14,2.35-1.08,1.15-1.33.16-2.39,1.87,2.68,3.36.3,2.11-.52,1.13-3.22.34-.93-1.2-1.35-.4-2.13-3.38-1.23-.18-1.37,2.17.04,1.11-1.67.06.12.22-.22.12-.12-.22.22-.12-1.05-1.41-3.72,2.03-2.05-1.16.82-2.15-1.57-.28-1.31.72-1.79-.16-2.57,3.1-1.65-2.51-2.85,4.67,1.05,1.41-3.42,4.14-2.62-1.69-.12-3.35-1.05-1.41-2.13,2.86-1.99.52-.48-.88-3.84,1.81,5.27.82.46,3.44,1.25.74-.2.68-1.21.38-2.05-1.16-.66.36-.3,1.02.7.76,1.01.3.36.66,3.68-.02,1.26-2.39,1.75-.95.38-1.91.34.1.22-.12,1.81.72,1.17,1.63,1.31-.72-1.53-2.29.04-2.01,2.23-.08,1.33,2.96,1.13.52.22-.12.1-.34-.26-1-.79-.42-.4-1.77,1.21-.38,1.47-2.51-.5-1.43-.89-.08,2.45-.2.91.64,1.87-.73,1.69.5.24.44-.06,1.45,8.11,2.39,4.95-1.85.52-1.13,4.66-.83,1.12-3.16,1.33-.16,1.09-.6ZM111.37,82.05l2.23-.08-.1.34.12.22-2.25-.48ZM125.91,83.22l-.38-1.21.44-.24.1-.34.66-.36.14.78.36.66-1.31.72ZM130.72,83.72l-.12-.22-1.57-.28.42-.8.34.1,1.43-.49.24.44.34.1-1.07,1.15ZM161.43,136.15l.34.1.76-.7-.02-.56-.99.26-.08.9ZM147.48,139.2l2.19,1.93,4.16-5.39-.24-.44-.78.14-2.01,3.08-3.32.67ZM159.78,156.07l1.01.3,1.31-.72-.48-.88-1.13-.52-1.19.94.48.87Z"/>
</svg>