<?xml version="1.0" encoding="UTF-8"?>
<svg id="Layer_1" xmlns="http://www.w3.org/2000/svg" viewBox="0 0 256 256">
  <defs>
    <style>
      .cls-1, .cls-2, .cls-3 {
        fill: #eaeaea;
      }

      .cls-2 {
        stroke-width: 1.76px;
      }

      .cls-2, .cls-4, .cls-3, .cls-5, .cls-6, .cls-7, .cls-8 {
        stroke-miterlimit: 10;
      }

      .cls-2, .cls-3, .cls-5, .cls-6 {
        stroke: #000;
      }

      .cls-4 {
        stroke: #848484;
        stroke-dasharray: .78;
      }

      .cls-4, .cls-5, .cls-7, .cls-8 {
        fill: none;
        stroke-width: 1.96px;
      }

      .cls-3 {
        stroke-width: 1.51px;
      }

      .cls-6 {
        fill: #fff;
        stroke-width: 1.57px;
      }

      .cls-7 {
        stroke-dasharray: .8 .8;
      }

      .cls-7, .cls-8 {
        stroke: #4d4d4d;
      }

      .cls-9 {
        opacity: .6;
      }

      .cls-10 {
        fill: red;
      }

      .cls-11 {
        fill: aqua;
      }
    </style>
  </defs>
  <path d="M101.2,41.2h54.44c4.69,0,8.49,3.81,8.49,8.49v59.29c0,19.56-15.88,35.43-35.43,35.43h0c-19.56,0-35.43-15.88-35.43-35.43v-59.85c0-4.38,3.55-7.93,7.93-7.93Z" transform="translate(256.39 187) rotate(-179.39)"/>
  <rect class="cls-6" x="127.43" y="122.69" width="3.92" height="32.11" transform="translate(257.28 278.87) rotate(-179.39)"/>
  <polygon points="98.69 137.06 160.11 137.72 159.27 216.04 128.97 211.05 97.84 216.93 98.69 137.06"/>
  <path class="cls-1" d="M134.18,93.58l10.48-.47c6.26-.28,10.52-6.46,8.55-12.41l-7.14-21.63c-1.55-4.71-5.93-7.91-10.89-7.96l-15.49-.17c-4.04-.04-7.67,2.5-9.01,6.31l-9.69,27.64c-1.68,4.79,1.84,9.8,6.91,9.86l9.82-.44"/>
  <path class="cls-1" d="M141.34,93.26l1.29,23.66c.16,1.88-.52,3.74-1.86,5.06-1.24,1.22-2.93,2.22-4.69,2.91-1.76.69-3.59,1.08-5.13,1.06-4.69-.05-8.82-3.12-10.22-7.59l-7.2-23.86"/>
  <path class="cls-5" d="M134.18,93.58l10.48-.47c6.26-.28,10.52-6.46,8.55-12.41l-7.14-21.63c-1.55-4.71-5.93-7.91-10.89-7.96l-15.49-.17c-4.04-.04-7.67,2.5-9.01,6.31l-9.69,27.64c-1.68,4.79,1.84,9.8,6.91,9.86l9.82-.44"/>
  <path class="cls-5" d="M141.34,93.26l1.29,23.66c.16,1.88-.52,3.74-1.86,5.06-1.24,1.22-2.93,2.22-4.69,2.91-1.76.69-3.59,1.08-5.13,1.06-4.69-.05-8.82-3.12-10.22-7.59l-7.2-23.86"/>
  <path d="M139.7,84.81l2.5-.78c2.98-.93,3.31-4.53,3.03-7.54-.13-1.34-.58-2.62-1.31-3.76l-4.29-6.69c-1.62-2.57-4.85-3.98-8.2-3.58h0c-2.82.34-4.89,2.63-4.64,5.13l1.04,10.53c.51,5.18,6.28,8.42,11.87,6.67Z"/>
  <rect x="124.93" y="87.49" width="3.92" height="9.4" rx="1.96" ry="1.96" transform="translate(-27.85 117.77) rotate(-45.39)"/>
  <rect x="122.32" y="88.21" width="3.92" height="9.4" rx="1.96" ry="1.96" transform="translate(27.46 -28.35) rotate(14.61)"/>
  <path d="M113.28,85.43l3.81.5c3.24.42,6.18-1.93,6.48-5.18l1.37-14.81c.14-1.53-.94-2.9-2.46-3.13l-2.49-.37c-3.61-.53-7.15,1.38-8.67,4.7l-3.7,8.02c-2.06,4.46.8,9.64,5.67,10.27Z"/>
  <path d="M131.36,107.87c-.02,1.99-1.65,3.58-3.64,3.56-1.99-.02-3.58-1.65-3.56-3.64.02-1.99,1.65-1.86,3.64-1.83,1.99.02,3.58-.08,3.56,1.91Z"/>
  <rect x="157.33" y="139.49" width="13.31" height="62.99" transform="translate(325.28 344.5) rotate(-179.11)"/>
  <rect x="85.36" y="139.49" width="13.31" height="62.99" transform="translate(181.36 343.38) rotate(-179.11)"/>
  <path class="cls-4" d="M141.05,87.65l3.15-.99c3.75-1.17,4.17-5.71,3.81-9.49-.16-1.68-.73-3.3-1.65-4.73l-5.41-8.42c-2.04-3.24-6.1-5.01-10.33-4.5h0"/>
  <g>
    <path class="cls-8" d="M106.09,83.28c.06.11.13.23.2.34"/>
    <path class="cls-7" d="M106.74,84.28c1.35,1.82,3.4,3.13,5.9,3.46l3.79.5"/>
    <line class="cls-8" x1="116.83" y1="88.29" x2="117.22" y2="88.34"/>
  </g>
  <rect class="cls-2" x="130.48" y="125.43" width="5.02" height="7.02" rx="1" ry="1" transform="translate(-52.09 136.7) rotate(-46.51)"/>
  <rect class="cls-3" x="125.67" y="121.13" width="3.26" height="4.57" rx=".65" ry=".65" transform="translate(-49.85 130.84) rotate(-46.51)"/>
  <rect class="cls-3" x="121.21" y="117.07" width="3.26" height="4.57" rx=".65" ry=".65" transform="translate(-48.29 126.34) rotate(-46.51)"/>
  <path class="cls-9" d="M93.17,101.37s13.44-14.62,37.15-14.37c14.68.16,33.71,15.13,33.71,15.13l.21-19.87c.21-19.49-15.56-35.6-35.05-35.81h0c-19.49-.21-35.6,15.56-35.81,35.05l-.21,19.87Z"/>
  <path d="M93.25,93.99s13.44-14.62,37.15-14.37c14.68.16,33.71,15.13,33.71,15.13l.21-19.87c.21-19.49-15.56-35.6-35.05-35.81h0c-19.49-.21-35.6,15.56-35.81,35.05l-.21,19.87Z"/>
  <circle class="cls-10" cx="133.52" cy="79.68" r="3.45"/>
  <circle class="cls-11" cx="112.35" cy="79.45" r="3.45"/>
</svg>