<?xml version="1.0" encoding="UTF-8"?>
<svg id="Layer_1" xmlns="http://www.w3.org/2000/svg" viewBox="0 0 256 256">
  <defs>
    <style>
      .cls-1 {
        stroke-width: 2.11px;
      }

      .cls-1, .cls-2, .cls-3, .cls-4, .cls-5, .cls-6, .cls-7 {
        stroke-miterlimit: 10;
      }

      .cls-1, .cls-8, .cls-7 {
        fill: #eaeaea;
      }

      .cls-1, .cls-4, .cls-5, .cls-7 {
        stroke: #000;
      }

      .cls-2 {
        stroke-dasharray: .96 .96;
      }

      .cls-2, .cls-3, .cls-5, .cls-6 {
        fill: none;
        stroke-width: 2.35px;
      }

      .cls-2, .cls-6 {
        stroke: #4d4d4d;
      }

      .cls-3 {
        stroke: #848484;
        stroke-dasharray: .94;
      }

      .cls-4 {
        fill: #fff;
        stroke-width: 1.88px;
      }

      .cls-9 {
        opacity: .6;
      }

      .cls-10 {
        fill: red;
      }

      .cls-11 {
        fill: aqua;
      }

      .cls-7 {
        stroke-width: 1.81px;
      }
    </style>
  </defs>
  <path d="M95.84,23.84h65.33c5.62,0,10.19,4.57,10.19,10.19v71.15c0,23.47-19.05,42.52-42.52,42.52h0c-23.47,0-42.52-19.05-42.52-42.52V33.36c0-5.25,4.27-9.52,9.52-9.52Z" transform="translate(256.75 172.92) rotate(-179.39)"/>
  <rect class="cls-4" x="127.32" y="121.63" width="4.7" height="38.53" transform="translate(257.82 283.17) rotate(-179.39)"/>
  <polygon points="92.83 138.87 166.53 139.66 165.53 233.64 129.16 227.66 91.81 234.72 92.83 138.87"/>
  <path class="cls-8" d="M135.42,86.7l12.57-.56c7.51-.34,12.62-7.75,10.26-14.89l-8.57-25.96c-1.87-5.65-7.12-9.49-13.07-9.55l-18.58-.2c-4.85-.05-9.2,3-10.81,7.58l-11.63,33.16c-2.01,5.74,2.21,11.77,8.29,11.83l11.79-.53"/>
  <path class="cls-8" d="M144.01,86.31l1.55,28.39c.19,2.26-.62,4.49-2.23,6.07-1.49,1.46-3.51,2.66-5.62,3.5-2.11.83-4.31,1.3-6.15,1.28-5.63-.06-10.58-3.74-12.27-9.11l-8.64-28.63"/>
  <path class="cls-5" d="M135.42,86.7l12.57-.56c7.51-.34,12.62-7.75,10.26-14.89l-8.57-25.96c-1.87-5.65-7.12-9.49-13.07-9.55l-18.58-.2c-4.85-.05-9.2,3-10.81,7.58l-11.63,33.16c-2.01,5.74,2.21,11.77,8.29,11.83l11.79-.53"/>
  <path class="cls-5" d="M144.01,86.31l1.55,28.39c.19,2.26-.62,4.49-2.23,6.07-1.49,1.46-3.51,2.66-5.62,3.5-2.11.83-4.31,1.3-6.15,1.28-5.63-.06-10.58-3.74-12.27-9.11l-8.64-28.63"/>
  <path d="M142.04,76.17l3-.94c3.58-1.12,3.98-5.44,3.63-9.04-.15-1.61-.7-3.15-1.57-4.51l-5.15-8.02c-1.95-3.09-5.82-4.78-9.84-4.29h0c-3.38.41-5.86,3.16-5.57,6.16l1.25,12.64c.62,6.21,7.54,10.1,14.24,8.01Z"/>
  <rect x="124.31" y="79.39" width="4.7" height="11.28" rx="2.35" ry="2.35" transform="translate(-22.82 115.48) rotate(-45.39)"/>
  <rect x="121.19" y="80.25" width="4.7" height="11.28" rx="2.35" ry="2.35" transform="translate(25.67 -28.39) rotate(14.61)"/>
  <path d="M110.33,76.92l4.57.6c3.89.51,7.42-2.31,7.78-6.22l1.64-17.78c.17-1.84-1.13-3.49-2.95-3.75l-2.99-.44c-4.34-.64-8.57,1.66-10.41,5.64l-4.44,9.62c-2.47,5.35.96,11.56,6.8,12.33Z"/>
  <path d="M135.48,102.95c-.05,4.29-3.56,7.73-7.85,7.68-4.29-.05-7.73-3.56-7.68-7.85.05-4.29,3.56-1.98,7.85-1.93,4.29.05,7.73-2.19,7.68,2.1Z"/>
  <rect x="163.19" y="141.79" width="15.98" height="75.59" transform="translate(339.54 361.81) rotate(-179.11)"/>
  <rect x="76.83" y="141.79" width="15.98" height="75.59" transform="translate(166.83 360.46) rotate(-179.11)"/>
  <path class="cls-3" d="M143.65,79.58l3.78-1.18c4.5-1.41,5.01-6.85,4.58-11.39-.19-2.02-.88-3.96-1.98-5.67l-6.49-10.1c-2.45-3.89-7.32-6.01-12.39-5.4h0"/>
  <g>
    <path class="cls-6" d="M101.71,74.33c.08.14.15.27.24.41"/>
    <path class="cls-2" d="M102.49,75.54c1.62,2.18,4.09,3.76,7.08,4.15l4.55.6"/>
    <line class="cls-6" x1="114.6" y1="80.35" x2="115.07" y2="80.41"/>
  </g>
  <rect class="cls-1" x="130.98" y="124.92" width="6.02" height="8.43" rx="1.2" ry="1.2" transform="translate(-51.91 137.48) rotate(-46.51)"/>
  <rect class="cls-7" x="125.2" y="119.76" width="3.91" height="5.48" rx=".78" ry=".78" transform="translate(-49.23 130.46) rotate(-46.51)"/>
  <rect class="cls-7" x="119.85" y="114.89" width="3.91" height="5.48" rx=".78" ry=".78" transform="translate(-47.36 125.05) rotate(-46.51)"/>
  <path class="cls-9" d="M86.21,96.04s16.13-17.54,44.58-17.24c17.61.19,40.45,18.15,40.45,18.15l.26-23.84c.25-23.38-18.68-42.72-42.06-42.97h0c-23.38-.25-42.72,18.68-42.97,42.06l-.26,23.84Z"/>
  <path d="M86.3,87.18s16.13-17.54,44.58-17.24c17.61.19,40.45,18.15,40.45,18.15l.26-23.84c.25-23.38-18.68-42.72-42.06-42.97h0c-23.38-.25-42.72,18.68-42.97,42.06l-.26,23.84Z"/>
  <ellipse class="cls-10" cx="130.14" cy="70.01" rx="6.9" ry="7.76"/>
  <ellipse class="cls-11" cx="104.74" cy="69.74" rx="6.9" ry="7.76"/>
</svg>