<?xml version="1.0" encoding="UTF-8"?>
<svg id="Layer_1" xmlns="http://www.w3.org/2000/svg" viewBox="0 0 256 256">
  <defs>
    <style>
      .cls-1 {
        stroke-width: 2.05px;
      }

      .cls-1, .cls-2, .cls-3, .cls-4, .cls-5, .cls-6, .cls-7 {
        stroke-miterlimit: 10;
      }

      .cls-1, .cls-2, .cls-8 {
        fill: #eaeaea;
      }

      .cls-1, .cls-2, .cls-5, .cls-7 {
        stroke: #000;
      }

      .cls-2 {
        stroke-width: 2.39px;
      }

      .cls-3, .cls-4, .cls-6, .cls-7 {
        fill: none;
        stroke-width: 2.66px;
      }

      .cls-3, .cls-6 {
        stroke: #4d4d4d;
      }

      .cls-4 {
        stroke: #848484;
        stroke-dasharray: 1.07;
      }

      .cls-5 {
        fill: #fff;
        stroke-width: 2.13px;
      }

      .cls-9 {
        opacity: .6;
      }

      .cls-10 {
        fill: red;
      }

      .cls-11 {
        fill: aqua;
      }

      .cls-6 {
        stroke-dasharray: 1.09 1.09;
      }
    </style>
  </defs>
  <path d="M91.55,9.96h74.04c6.37,0,11.55,5.18,11.55,11.55v80.63c0,26.6-21.59,48.19-48.19,48.19h0c-26.6,0-48.19-21.59-48.19-48.19V20.75c0-5.95,4.83-10.79,10.79-10.79Z" transform="translate(257.03 161.66) rotate(-179.39)"/>
  <rect class="cls-5" x="127.23" y="120.78" width="5.33" height="43.67" transform="translate(258.24 286.61) rotate(-179.39)"/>
  <polygon points="88.14 140.32 171.67 141.22 170.53 247.73 129.32 240.95 86.98 248.95 88.14 140.32"/>
  <path class="cls-8" d="M136.4,81.19l14.25-.64c8.51-.38,14.3-8.78,11.63-16.87l-9.72-29.42c-2.11-6.4-8.07-10.76-14.81-10.83l-21.06-.23c-5.5-.06-10.43,3.39-12.25,8.59l-13.18,37.59c-2.28,6.51,2.5,13.33,9.4,13.41l13.36-.6"/>
  <path class="cls-8" d="M146.14,80.75l1.75,32.17c.21,2.56-.7,5.08-2.53,6.88-1.68,1.66-3.98,3.02-6.37,3.96-2.39.94-4.89,1.47-6.97,1.45-6.38-.07-11.99-4.24-13.9-10.33l-9.79-32.45"/>
  <path class="cls-7" d="M136.4,81.19l14.25-.64c8.51-.38,14.3-8.78,11.63-16.87l-9.72-29.42c-2.11-6.4-8.07-10.76-14.81-10.83l-21.06-.23c-5.5-.06-10.43,3.39-12.25,8.59l-13.18,37.59c-2.28,6.51,2.5,13.33,9.4,13.41l13.36-.6"/>
  <path class="cls-7" d="M146.14,80.75l1.75,32.17c.21,2.56-.7,5.08-2.53,6.88-1.68,1.66-3.98,3.02-6.37,3.96-2.39.94-4.89,1.47-6.97,1.45-6.38-.07-11.99-4.24-13.9-10.33l-9.79-32.45"/>
  <path d="M143.91,69.26l3.4-1.06c4.05-1.27,4.51-6.17,4.12-10.25-.17-1.82-.79-3.57-1.78-5.11l-5.84-9.09c-2.21-3.5-6.59-5.41-11.15-4.86h0c-3.83.46-6.64,3.58-6.31,6.98l1.42,14.32c.7,7.04,8.54,11.45,16.14,9.07Z"/>
  <rect x="123.82" y="72.91" width="5.33" height="12.78" rx="2.66" ry="2.66" transform="translate(-18.8 113.64) rotate(-45.39)"/>
  <rect x="120.28" y="73.88" width="5.33" height="12.78" rx="2.66" ry="2.66" transform="translate(24.23 -28.42) rotate(14.61)"/>
  <path d="M107.97,70.11l5.18.68c4.41.58,8.41-2.62,8.82-7.05l1.86-20.15c.19-2.08-1.28-3.95-3.35-4.25l-3.39-.5c-4.91-.72-9.72,1.88-11.8,6.39l-5.03,10.91c-2.8,6.07,1.09,13.1,7.71,13.97Z"/>
  <path d="M138.92,97.35c.99,5.64-2.77,11.02-8.41,12.01-5.64.99-11.02-2.77-12.01-8.41-.99-5.64,4.18-3.47,9.82-4.47,5.64-.99,9.6-4.77,10.6.86Z"/>
  <rect x="167.88" y="143.62" width="18.11" height="85.67" transform="translate(350.95 375.65) rotate(-179.11)"/>
  <rect x="70.01" y="143.62" width="18.11" height="85.67" transform="translate(155.21 374.12) rotate(-179.11)"/>
  <path class="cls-4" d="M145.74,73.12l4.28-1.34c5.1-1.6,5.67-7.76,5.19-12.9-.22-2.29-1-4.49-2.24-6.43l-7.35-11.45c-2.78-4.41-8.3-6.82-14.04-6.12h0"/>
  <g>
    <path class="cls-3" d="M98.21,67.18c.09.16.17.31.27.46"/>
    <path class="cls-6" d="M99.08,68.54c1.83,2.47,4.63,4.26,8.02,4.71l5.16.68"/>
    <line class="cls-3" x1="112.81" y1="73.99" x2="113.34" y2="74.06"/>
  </g>
  <rect class="cls-2" x="131.37" y="124.51" width="6.82" height="9.55" rx="1.36" ry="1.36" transform="translate(-51.77 138.11) rotate(-46.51)"/>
  <rect class="cls-1" x="124.83" y="118.66" width="4.44" height="6.21" rx=".89" ry=".89" transform="translate(-48.73 130.15) rotate(-46.51)"/>
  <rect class="cls-1" x="118.76" y="113.14" width="4.44" height="6.21" rx=".89" ry=".89" transform="translate(-46.61 124.02) rotate(-46.51)"/>
  <path class="cls-9" d="M80.63,91.78s18.28-19.88,50.53-19.54c19.96.21,45.84,20.57,45.84,20.57l.29-27.02c.28-26.5-21.17-48.42-47.67-48.7h0c-26.5-.28-48.42,21.17-48.7,47.67l-.29,27.02Z"/>
  <path d="M80.74,81.74s18.28-19.88,50.53-19.54c19.96.21,45.84,20.57,45.84,20.57l.29-27.02c.28-26.5-21.17-48.42-47.67-48.7h0c-26.5-.28-48.42,21.17-48.7,47.67l-.29,27.02Z"/>
  <ellipse class="cls-10" cx="130.43" cy="62.28" rx="8.63" ry="19.41"/>
  <ellipse class="cls-11" cx="101.64" cy="61.97" rx="8.63" ry="19.41"/>
</svg>