<?xml version="1.0" encoding="UTF-8"?>
<svg id="Layer_1" xmlns="http://www.w3.org/2000/svg" viewBox="0 0 256 256">
  <defs>
    <style>
      .cls-1 {
        stroke: #848484;
        stroke-dasharray: .75;
      }

      .cls-1, .cls-2, .cls-3, .cls-4, .cls-5, .cls-6, .cls-7 {
        stroke-miterlimit: 10;
      }

      .cls-1, .cls-4, .cls-6, .cls-7 {
        fill: none;
        stroke-width: 1.88px;
      }

      .cls-8, .cls-2, .cls-3 {
        fill: #eaeaea;
      }

      .cls-2 {
        stroke-width: 1.68px;
      }

      .cls-2, .cls-3, .cls-4, .cls-5 {
        stroke: #000;
      }

      .cls-3 {
        stroke-width: 1.44px;
      }

      .cls-5 {
        fill: #fff;
        stroke-width: 1.5px;
      }

      .cls-9 {
        opacity: .6;
      }

      .cls-10 {
        fill: red;
      }

      .cls-11 {
        fill: aqua;
      }

      .cls-6 {
        stroke-dasharray: .77 .77;
      }

      .cls-6, .cls-7 {
        stroke: #4d4d4d;
      }
    </style>
  </defs>
  <path d="M102.3,44.77h52.2c4.49,0,8.14,3.65,8.14,8.14v56.85c0,18.75-15.22,33.98-33.98,33.98h0c-18.75,0-33.98-15.22-33.98-33.98v-57.39c0-4.2,3.41-7.61,7.61-7.61Z" transform="translate(256.32 189.89) rotate(-179.39)"/>
  <rect class="cls-5" x="127.45" y="122.91" width="3.76" height="30.79" transform="translate(257.17 277.98) rotate(-179.39)"/>
  <polygon points="99.9 136.69 158.79 137.32 157.99 212.42 128.93 207.64 99.08 213.28 99.9 136.69"/>
  <path class="cls-8" d="M133.93,94.99l10.05-.45c6-.27,10.08-6.19,8.2-11.9l-6.85-20.74c-1.49-4.52-5.69-7.58-10.44-7.64l-14.85-.16c-3.88-.04-7.35,2.39-8.64,6.05l-9.29,26.5c-1.61,4.59,1.76,9.4,6.63,9.45l9.42-.42"/>
  <path class="cls-8" d="M140.79,94.69l1.24,22.69c.15,1.8-.5,3.58-1.79,4.85-1.19,1.17-2.81,2.13-4.49,2.79-1.69.67-3.45,1.04-4.92,1.02-4.5-.05-8.46-2.99-9.8-7.28l-6.9-22.88"/>
  <path class="cls-4" d="M133.93,94.99l10.05-.45c6-.27,10.08-6.19,8.2-11.9l-6.85-20.74c-1.49-4.52-5.69-7.58-10.44-7.64l-14.85-.16c-3.88-.04-7.35,2.39-8.64,6.05l-9.29,26.5c-1.61,4.59,1.76,9.4,6.63,9.45l9.42-.42"/>
  <path class="cls-4" d="M140.79,94.69l1.24,22.69c.15,1.8-.5,3.58-1.79,4.85-1.19,1.17-2.81,2.13-4.49,2.79-1.69.67-3.45,1.04-4.92,1.02-4.5-.05-8.46-2.99-9.8-7.28l-6.9-22.88"/>
  <path d="M139.22,86.58l2.4-.75c2.86-.89,3.18-4.35,2.9-7.23-.12-1.28-.56-2.52-1.25-3.6l-4.12-6.41c-1.56-2.47-4.65-3.82-7.86-3.43h0c-2.7.33-4.69,2.52-4.45,4.92l1,10.1c.49,4.96,6.02,8.07,11.38,6.4Z"/>
  <rect x="125.05" y="89.15" width="3.76" height="9.01" rx="1.88" ry="1.88" transform="translate(-28.89 118.24) rotate(-45.39)"/>
  <rect x="122.56" y="89.84" width="3.76" height="9.01" rx="1.88" ry="1.88" transform="translate(27.83 -28.34) rotate(14.61)"/>
  <path d="M113.88,87.18l3.65.48c3.11.41,5.93-1.85,6.22-4.97l1.31-14.2c.14-1.47-.9-2.79-2.36-3l-2.39-.35c-3.47-.51-6.85,1.33-8.32,4.51l-3.55,7.69c-1.97,4.28.77,9.24,5.44,9.85Z"/>
  <circle cx="127.77" cy="108.66" r="3.45"/>
  <rect x="156.12" y="139.02" width="12.77" height="60.4" transform="translate(322.35 340.95) rotate(-179.11)"/>
  <rect x="87.11" y="139.02" width="12.77" height="60.4" transform="translate(184.34 339.87) rotate(-179.11)"/>
  <path class="cls-1" d="M140.51,89.31l3.02-.94c3.6-1.13,4-5.47,3.66-9.1-.15-1.62-.7-3.17-1.58-4.53l-5.19-8.07c-1.96-3.11-5.85-4.81-9.9-4.32h0"/>
  <g>
    <path class="cls-7" d="M106.99,85.11c.06.11.12.22.19.32"/>
    <path class="cls-6" d="M107.61,86.08c1.29,1.74,3.26,3,5.66,3.32l3.64.48"/>
    <line class="cls-7" x1="117.29" y1="89.92" x2="117.67" y2="89.97"/>
  </g>
  <rect class="cls-2" x="130.38" y="125.54" width="4.81" height="6.74" rx=".96" ry=".96" transform="translate(-52.12 136.54) rotate(-46.51)"/>
  <rect class="cls-3" x="125.77" y="121.41" width="3.13" height="4.38" rx=".63" ry=".63" transform="translate(-49.97 130.92) rotate(-46.51)"/>
  <rect class="cls-3" x="121.49" y="117.52" width="3.13" height="4.38" rx=".63" ry=".63" transform="translate(-48.48 126.6) rotate(-46.51)"/>
  <path class="cls-9" d="M94.6,102.46s12.89-14.02,35.62-13.78c14.07.15,32.32,14.5,32.32,14.5l.2-19.05c.2-18.69-14.92-34.14-33.61-34.34h0c-18.69-.2-34.14,14.92-34.34,33.61l-.2,19.05Z"/>
  <path d="M94.68,95.38s12.89-14.02,35.62-13.78c14.07.15,32.32,14.5,32.32,14.5l.2-19.05c.2-18.69-14.92-34.14-33.61-34.34h0c-18.69-.2-34.14,14.92-34.34,33.61l-.2,19.05Z"/>
  <circle class="cls-10" cx="133.3" cy="81.66" r="1.9"/>
  <circle class="cls-11" cx="113" cy="81.44" r="1.9"/>
</svg>