<?xml version="1.0" encoding="UTF-8"?>
<svg id="Layer_1" xmlns="http://www.w3.org/2000/svg" viewBox="0 0 256 256">
  <defs>
    <style>
      .cls-1 {
        stroke-dasharray: .88 .88;
      }

      .cls-1, .cls-2, .cls-3, .cls-4, .cls-5, .cls-6, .cls-7 {
        stroke-miterlimit: 10;
      }

      .cls-1, .cls-4, .cls-5, .cls-6 {
        fill: none;
        stroke-width: 2.15px;
      }

      .cls-1, .cls-5 {
        stroke: #4d4d4d;
      }

      .cls-8, .cls-2, .cls-7 {
        fill: #eaeaea;
      }

      .cls-2 {
        stroke-width: 1.65px;
      }

      .cls-2, .cls-3, .cls-4, .cls-7 {
        stroke: #000;
      }

      .cls-3 {
        fill: #fff;
        stroke-width: 1.72px;
      }

      .cls-9 {
        opacity: .6;
      }

      .cls-10 {
        fill: red;
      }

      .cls-11 {
        fill: aqua;
      }

      .cls-6 {
        stroke: #848484;
        stroke-dasharray: .86;
      }

      .cls-7 {
        stroke-width: 1.92px;
      }
    </style>
  </defs>
  <path d="M98.62,32.87h59.67c5.14,0,9.31,4.17,9.31,9.31v64.99c0,21.43-17.4,38.84-38.84,38.84h0c-21.43,0-38.84-17.4-38.84-38.84V41.56c0-4.8,3.9-8.69,8.69-8.69Z" transform="translate(256.56 180.24) rotate(-179.39)"/>
  <rect class="cls-3" x="127.38" y="122.18" width="4.29" height="35.2" transform="translate(257.54 280.93) rotate(-179.39)"/>
  <polygon points="95.88 137.93 163.2 138.65 162.28 224.49 129.06 219.03 94.94 225.48 95.88 137.93"/>
  <path class="cls-8" d="M134.77,90.27l11.48-.51c6.86-.31,11.53-7.08,9.37-13.6l-7.83-23.71c-1.7-5.16-6.5-8.67-11.94-8.73l-16.97-.18c-4.43-.05-8.4,2.74-9.87,6.92l-10.62,30.29c-1.84,5.25,2.02,10.75,7.57,10.81l10.77-.48"/>
  <path class="cls-8" d="M142.62,89.92l1.41,25.93c.17,2.06-.57,4.1-2.04,5.55-1.36,1.34-3.21,2.43-5.14,3.19-1.93.76-3.94,1.18-5.62,1.17-5.14-.06-9.67-3.42-11.2-8.32l-7.89-26.15"/>
  <path class="cls-4" d="M134.77,90.27l11.48-.51c6.86-.31,11.53-7.08,9.37-13.6l-7.83-23.71c-1.7-5.16-6.5-8.67-11.94-8.73l-16.97-.18c-4.43-.05-8.4,2.74-9.87,6.92l-10.62,30.29c-1.84,5.25,2.02,10.75,7.57,10.81l10.77-.48"/>
  <path class="cls-4" d="M142.62,89.92l1.41,25.93c.17,2.06-.57,4.1-2.04,5.55-1.36,1.34-3.21,2.43-5.14,3.19-1.93.76-3.94,1.18-5.62,1.17-5.14-.06-9.67-3.42-11.2-8.32l-7.89-26.15"/>
  <path d="M140.82,80.66l2.74-.86c3.27-1.02,3.63-4.97,3.32-8.26-.14-1.47-.64-2.88-1.43-4.12l-4.71-7.33c-1.78-2.82-5.31-4.36-8.99-3.92h0c-3.09.37-5.36,2.88-5.08,5.63l1.14,11.54c.56,5.67,6.88,9.23,13.01,7.31Z"/>
  <rect x="124.63" y="83.6" width="4.29" height="10.3" rx="2.15" ry="2.15" transform="translate(-25.44 116.67) rotate(-45.39)"/>
  <rect x="121.78" y="84.38" width="4.29" height="10.3" rx="2.15" ry="2.15" transform="translate(26.6 -28.37) rotate(14.61)"/>
  <path d="M111.86,81.34l4.17.55c3.55.46,6.78-2.11,7.11-5.68l1.5-16.24c.16-1.68-1.03-3.18-2.7-3.43l-2.73-.4c-3.96-.58-7.83,1.52-9.51,5.15l-4.05,8.79c-2.25,4.89.88,10.56,6.21,11.26Z"/>
  <path d="M133.78,105.46c-.04,3.33-2.77,6.01-6.1,5.97-3.33-.04-6.01-2.77-5.97-6.1.04-3.33,2.77-3.11,6.1-3.08,3.33.04,6.01-.13,5.97,3.21Z"/>
  <rect x="160.14" y="140.59" width="14.59" height="69.04" transform="translate(332.13 352.81) rotate(-179.11)"/>
  <rect x="81.26" y="140.59" width="14.59" height="69.04" transform="translate(174.38 351.58) rotate(-179.11)"/>
  <path class="cls-6" d="M142.3,83.77l3.45-1.08c4.11-1.29,4.57-6.26,4.18-10.4-.18-1.85-.8-3.62-1.81-5.18l-5.93-9.23c-2.24-3.55-6.69-5.49-11.32-4.94h0"/>
  <g>
    <path class="cls-5" d="M103.99,78.98c.07.13.14.25.22.37"/>
    <path class="cls-1" d="M104.7,80.08c1.48,1.99,3.73,3.43,6.47,3.79l4.16.54"/>
    <line class="cls-5" x1="115.76" y1="84.48" x2="116.19" y2="84.53"/>
  </g>
  <rect class="cls-7" x="130.72" y="125.19" width="5.5" height="7.7" rx="1.1" ry="1.1" transform="translate(-52 137.07) rotate(-46.51)"/>
  <rect class="cls-2" x="125.45" y="120.47" width="3.57" height="5" rx=".71" ry=".71" transform="translate(-49.55 130.66) rotate(-46.51)"/>
  <rect class="cls-2" x="120.55" y="116.02" width="3.57" height="5" rx=".71" ry=".71" transform="translate(-47.84 125.72) rotate(-46.51)"/>
  <path class="cls-9" d="M89.82,98.81s14.74-16.02,40.72-15.75c16.09.17,36.95,16.58,36.95,16.58l.23-21.77c.23-21.36-17.06-39.02-38.42-39.25h0c-21.36-.23-39.02,17.06-39.25,38.42l-.23,21.77Z"/>
  <path d="M89.91,90.72s14.74-16.02,40.72-15.75c16.09.17,36.95,16.58,36.95,16.58l.23-21.77c.23-21.36-17.06-39.02-38.42-39.25h0c-21.36-.23-39.02,17.06-39.25,38.42l-.23,21.77Z"/>
  <circle class="cls-10" cx="132.66" cy="75.03" r="5.18"/>
  <circle class="cls-11" cx="109.46" cy="74.79" r="5.18"/>
</svg>