<?xml version="1.0" encoding="UTF-8"?>
<svg id="Layer_1" xmlns="http://www.w3.org/2000/svg" xmlns:xlink="http://www.w3.org/1999/xlink" viewBox="0 0 256 256">
  <defs>
    <style>
      .cls-1 {
        filter: url(#drop-shadow-3);
      }

      .cls-2 {
        fill: url(#linear-gradient-2);
      }

      .cls-3 {
        stroke-dasharray: 1.78 1.78;
      }

      .cls-3, .cls-4 {
        stroke: red;
      }

      .cls-3, .cls-4, .cls-5, .cls-6 {
        fill: none;
        stroke-miterlimit: 10;
        stroke-width: 4.33px;
      }

      .cls-7 {
        fill: url(#linear-gradient);
      }

      .cls-8 {
        fill: #fff;
      }

      .cls-9 {
        fill: #cad5dd;
      }

      .cls-10 {
        fill: #cfc;
      }

      .cls-11 {
        fill: red;
      }

      .cls-5 {
        stroke: #000;
      }

      .cls-12 {
        fill: #db5402;
      }

      .cls-13 {
        fill: #dfe7ed;
      }

      .cls-6 {
        stroke: #39b54a;
        stroke-dasharray: 1.73;
      }
    </style>
    <linearGradient id="linear-gradient" x1="98.6" y1="88.13" x2="158.6" y2="88.13" gradientUnits="userSpaceOnUse">
      <stop offset="0" stop-color="#000"/>
      <stop offset=".5" stop-color="#7f7f7f"/>
      <stop offset="1" stop-color="#000"/>
    </linearGradient>
    <filter id="drop-shadow-3" filterUnits="userSpaceOnUse">
      <feOffset dx="0" dy="2.47"/>
      <feGaussianBlur result="blur" stdDeviation="4.94"/>
      <feFlood flood-color="#000" flood-opacity="1"/>
      <feComposite in2="blur" operator="in"/>
      <feComposite in="SourceGraphic"/>
    </filter>
    <linearGradient id="linear-gradient-2" x1="131.75" y1="91.13" x2="131.75" y2="63.44" gradientUnits="userSpaceOnUse">
      <stop offset="0" stop-color="#fbb03b"/>
      <stop offset="1" stop-color="#f15a24"/>
    </linearGradient>
  </defs>
  <g>
    <path class="cls-10" d="M156.45,161.04l3.41,52.31c.39,4.15-1.06,8.28-4,11.24-2.71,2.73-6.42,4.98-10.3,6.56-3.88,1.58-7.92,2.47-11.32,2.47-10.38,0-19.59-6.68-22.8-16.56l-16.49-52.62"/>
    <path class="cls-5" d="M156.45,161.04l3.41,52.31c.39,4.15-1.06,8.28-4,11.24-2.71,2.73-6.42,4.98-10.3,6.56-3.88,1.58-7.92,2.47-11.32,2.47-10.38,0-19.59-6.68-22.8-16.56l-16.49-52.62"/>
    <path class="cls-10" d="M143.79,174.61l23.17-1.28c13.84-.77,23.12-14.54,18.63-27.65l-16.32-47.7c-3.55-10.38-13.31-17.36-24.28-17.36h-34.26c-8.95,0-16.91,5.7-19.78,14.18l-20.79,61.37c-3.6,10.63,4.3,21.65,15.52,21.65l21.72-1.2"/>
    <path class="cls-5" d="M143.79,174.61l23.17-1.28c13.84-.77,23.12-14.54,18.63-27.65l-16.32-47.7c-3.55-10.38-13.31-17.36-24.28-17.36h-34.26c-8.95,0-16.91,5.7-19.78,14.18l-20.79,61.37c-3.6,10.63,4.3,21.65,15.52,21.65l21.72-1.2"/>
    <path d="M155.79,155.08l5.52-1.79c6.57-2.13,7.22-10.11,6.52-16.74-.31-2.96-1.35-5.79-2.98-8.28l-9.66-14.69c-3.65-5.66-10.82-8.69-18.23-7.72h0c-6.22.82-10.75,5.94-10.14,11.47l2.56,23.28c1.26,11.44,14.1,18.48,26.42,14.48Z"/>
    <g>
      <rect x="123.29" y="161.31" width="8.66" height="20.79" rx="4.33" ry="4.33" transform="translate(-84.55 144.23) rotate(-46)"/>
      <rect x="117.54" y="162.96" width="8.66" height="20.79" rx="4.33" ry="4.33" transform="translate(45.56 -24.33) rotate(14)"/>
    </g>
    <path d="M97.35,157.08l8.43,1.01c7.18.86,13.63-4.41,14.22-11.62l2.68-32.81c.28-3.39-2.15-6.4-5.52-6.86l-5.53-.75c-8.01-1.09-15.78,3.23-19.08,10.6l-7.99,17.83c-4.45,9.92,2,21.3,12.79,22.59Z"/>
    <path class="cls-8" d="M145.92,121.65h0c8.1,0,14.68,6.58,14.68,14.68v1.97c0,5.64-4.58,10.23-10.23,10.23h-6.72c-4.42,0-8.01-3.59-8.01-8.01v-8.59c0-5.67,4.6-10.28,10.28-10.28Z" transform="translate(-21.21 27.77) rotate(-10)"/>
    <circle cx="147.91" cy="137.8" r="7.58"/>
    <circle class="cls-8" cx="142.49" cy="139.45" r="1.3"/>
    <circle class="cls-8" cx="147.91" cy="137.93" r="3.47"/>
    <ellipse cx="133.98" cy="202.62" rx="12.89" ry="17.35"/>
    <path class="cls-11" d="M113.76,142.82l-.65.65-.61.69-.69.61-.31.23-.54.38-.5.04-.34-.11-.54-.38-.77-.61-.84-.92-.54-.61-.8-.96-.77-.77-.46-.31-.38-.15-.38.08-.61.38-.34.34-.61.54-1.61,1.84-.65.57-.34.34-.61.46-.57.04-.65-.34-.8-.8-.96-1.03-.57-.65-.92-.77-.57-.65-.19-.34-.38-.61-.04-.57.46-.61.61-.69.57-.65,1.65-1.42.54-.61.23-.23.38-.69-.04-.57-.42-.5-2.53-2.53-.57-.65-.34-.34-.42-.73-.11-.57.42-.57.31-.38.69-.61.65-.5.65-.57.88-1.03.73-.57.65-.42.57-.04.57.42.96.96,1.19,1.34,1.34,1.19.54.38.34.19.46-.08.5-.34.57-.5.54-.61,1.49-1.65.96-.96.57-.42.46-.15.34.04.42.34.31.23.54.61.84,1.07.61.61.96.8.88.88.34.5.11.42-.11.42-.38.54-1.3,1.3-.65.57-.96.8-.5.57-.31.31-.31.54-.11.42.11.34.34.5.92.92,2.1,1.88.57.65.27.34.42.57.04.65-.34.73-.65.65-.99.92ZM98.26,126.94l.27.5.04-.34-.11-.19-.19.04ZM96.54,128.96v-.08s-.19-.04-.19-.04v.08s.11.11.11.11l.08-.08ZM97.54,128.58v-.15h-.15l-.08.08.04.04v.08l.11.04.08-.08ZM98.11,128.16v-.08h-.15l-.04.04v.08h.15l.04-.04ZM97.8,128.62v.23s.15.15.15.15l1-.38-.96-.19-.19.19ZM97.31,129.5l.08-.23-.04-.04-.11-.04-.15.15v.23s.23-.08.23-.08ZM98.99,127.59v.15l.15.08.15-.15-.19-.11-.11.04ZM99.11,128.24l-.19-.19-.19-.04.04.34.27.04.08-.15ZM98.15,129.96l.38.08-.19-.27-.31-.23-.04-.19-.27-.19.19.42h.08s.15.38.15.38ZM97.69,129.88l-.11-.11-.23.08.04.19.11.04.19-.19ZM98.65,129.08l.04.27h.31l-.04.34.23-.31-.54-.31ZM99.45,128.58l-.04.19.69.15v-.08l-.54-.31-.11.04ZM99.72,129.77l.23-.38-.23-.38h-.08l-.04-.04-.19-.04-.11.19.42.65ZM98.07,130.42l.34.27-.08-.23-.11-.11-.15.08ZM100.33,128.77l-.04.42.19.42.19-.04.15-.38-.23-.38-.27-.04ZM98.84,130.34h-.08s-.04.11-.04.11l.11.11.15-.08-.15-.15ZM98.68,131.41l-.19-.11.31-.54-.61.15.23.46.27.04ZM100.83,128.58l.34.65.08.38-.34.34-1.07.15-.08.23.15.31.5-.11-.04-.19.19-.11.34.34.42-.04.08-.15-.08-.15-.15.08-.11-.11.38-.69-.04-.19.19-.34-.77-.38ZM99.64,130.07h-.15l-.04.19.11.11.08-.31ZM99.49,130.92l.19-.04.08.08.65-.04v-.15s-1.07-.08-1.07-.08l-.11.27.08.08h.15s.04-.11.04-.11ZM99.45,131.64l-.08-.15.04-.19-.19-.11h-.23s-.42.5-.42.5l.08.08h.69s.11-.11.11-.11ZM99.87,131.22l-.04.27-.19.11v.15s.15,0,.15,0l.31-.31v-.31s-.23.08-.23.08ZM103.97,138.07l.08-.46.27-.19-.19-.19-.27.11.04.04-.15-.08-.04-.34.11-.04.08-.31-.15-.08-.19.11-.08-.08.04-.04-.15-.15.11-.11-.04-.11.42-.42.19.11.08-.08v-.15l-.11-.04.08-.08-.04-.27-.19.04-.19.19-.11-.11v-.15l.19-.11v-.23l-.19-.19.15-.23-.11.19.38.38.08-.08-.04-.19-.15-.15v-.38l.23-.31h.23l.23-.15.19.04v.31s-.04.04-.04.04h-.08v.08l.04.04.19-.04.11.19-.38.84.11-.04-.04.04-.04.11.19-.04.04-.04v-.08l-.04-.04h-.08l.38-.31h.15l.42.27.04.42.27.04.04-.11h.15l.08.08.34-.11-.04-.19-1.38-.77-.08-.46.31-.61-.08-.23-.27-.04-.23.15-.34-.8-.38.23-.34-.34h-.08l.04-.11.27-.11.15-.31-.04-.04v-.08l-.08-.08.31-.08-.19-.11-.19.11-.23-.31-.38-.46.04-.57-.19-.19.15-.23-.23-.08-.19.11h-.08l-.15-.15-.08-.31-.15.23.11.5-.69.23.11.11.77.08.15.15-1.53-.08-.08.23-.42.34.19.73.5-.04.23.15-.69.23.04.19-.23.38-.65.34-.19-.04-.31-.31.04-.19.19-.04.11-.11v-.15s-.54.08-.54.08v-.38l-.04-.04-.27.04-.11.11h-.15s-.08.15-.08.15l1.22,1.3.11-.11.31-.08-.08.23.23.77.23-.15-.15-.54.08-.15-.04-.34.42-.5.34.04.15-.23.08.08.38-.31.11-.34-.08-.23-.19-.04-.04-.04.27-.57.34-.11.15.31-.11.19h-.15l-.08.08,1.22.15.04-.04.08.15-.15.08-.11.19.04.04-.15.15v.15s-.08.08-.08.08h-.61l-.34.27.19.19.08.31.19.11.19-.04.15-.15v-.08l.19.04.15-.15-.08-.38.19-.11.04-.11.23.46-.04.42-.27.27h-.77l-.15.23.23.31.19.04-.31.08-.34-.34-.23.08-.15.23-.23.08-.08-.15.27-.57-.69.08-.04-.11h-.15l-.04.11.15.08.11.27-.04.19.08.15.11.04-.04.65.65-.73.57.11-.08.08v.08s-.27-.04-.27-.04l-.38.38.15.38-.04.11-.23.15-.08.23.31.08.27-.27h.08l.15.23-.04.27-.31.15.19.11.27-.11.11.27-.19.27-.04-.04-.11.04-.23-.08-.23.08-.19-.19-.19.11.08.15.19.11-.15.69-.27-.04-.11.27.57-.27.04-.34.11-.04-.04-.19-.15-.08.15-.15.23.08.19-.11-.23.31.04.5.11.11.11-.11.04-.27.08-.08.19.11.11-.11-.04-.19.11-.04.11.04.04.34-.11.04-.19.34-.5.19-.15.23.42-.11.27.34.46-.08.08-.15.19-.04v.15h.15s.15-.15.15-.15ZM101.55,130l-.04.11.11.11h.08l-.08-.23h-.08ZM100.37,131.8l.04.11.11.04.15-.15v-.15l-.11-.04-.15.08-.04.11ZM102.63,132.06l.15.08.15-.08.04-.11-.19-.11-.19.11.04.11ZM107.03,128.35l-.11.19.04.19.42-.27-.08-.15-.27.04ZM107.52,128.08l-.04.11.11.11h.08s.08-.08.08-.08l-.15-.15h-.08ZM109.05,133.52l.08-.08.27-.04.11-.11-.73-.04-.31-.69-.15.92-.15.15-.15-.84.23-.46-.04-.27-.54-.54-.73.19v.54l-.15.23-.23-.69-.57-.27-.42-.65.11-.11-.04-.11.11-.19.42-.04-.04.19.15.15.19-.04-.08-.54.42-.04-.04-.27-.11-.11v-.15s-.19-.11-.19-.11l-.11.19-.15.08-.5.27-.19.5-.38.23.11.11.08.31-.04.04-.19-.11-.77.23.15.23,1.07-.08.38.31.08.46.27.19-.08.08.31.38.34.11.23-.08.04-.19.04-.04.61.31.08.31-.31.23-.15-.15v-.15l-.15-.08-.15,1.07.31.31.08-.08h.08l.5-.42.31.08.5-.19.11.11h.08l.08-.23-.11-.19.04-.04v-.08ZM100.14,136.47l.5.34h.08l.04-.04.46.61.11.04.11-.04-.42-1.11.08-.23-.27-.19-.27.27.15.08.15-.08.04.04-.31.15-.04-.04-.08.08v-.08s-.04.04-.04.04l-.19-.04-.11-.11.04-.11-.11-.04-.11.04-.15.54.19.04.15-.15ZM108.9,127.32v.08s.08.08.08.08l.11.04.04-.04v-.08l-.04-.04-.19-.04ZM107.07,129.16v.77l.11.11.5-.27-.04-.19-.54-.46-.04.04ZM107.95,128.74l-.5.19-.08.31.19-.19.23.23.31.08-.15-.61ZM105.11,131.8l-.19-.11-.38.23.04.11.15.08.34-.19.04-.11ZM109.59,127.01l.04.11.19-.04.19-.19.15.08.19-.04-.42-.27-.34.34ZM101.4,135.51l.27-.04-.11-.19-.15-.08v.31ZM109.13,128.08l-.11-.19h-.23v.08s.19.27.19.27l.15-.15ZM99.03,138.11l.27-.34-.19-.04-.04.04h-.08l-.19.11.04.19.19.04ZM109.63,127.82l.08-.08-.19-.19h-.23l.08.23.27.11v-.08ZM108.56,128.28l-.11.11v.15s.31-.31.31-.31l-.19.04ZM100.02,137.19l.04-.34-.46.38.08.15h.15l.19-.19ZM96.77,140.37l-.04-.19h-.08l-.08.15.11.11.08-.08ZM108.44,128.62l-.27.34.38-.23-.11-.11ZM101.21,136.39l.46-.23.15-.31-.23-.15-.31.23-.08.46ZM107.72,130.65l-.08-.15-.19-.04-.08-.08h-.08s-.04-.19-.04-.19l-.19.04-.04.19.57.34.11-.11ZM105.57,132.18l-.19.04-.11.11-.15-.08-.15.08-.15.38.15.08.15-.15.57.34-.04-.73.11-.04v-.15s-.11-.04-.11-.04l-.08.15ZM97.96,139.79l-.04-.19-.31.08-.08.15.04.11h.15l.23-.15ZM103.24,134.21l.15.31-.15.08-.34-.04.34-.34ZM109.28,128.39v.08l-.38.15-.08.46.88-.8-.42.11ZM98.91,138.68l.27.27h.15s.31.31.31.31l1.45-1.22.08-.38-.96,1.03h-.23s-.19-.19-.19-.19l.11-.19-.31-.23-.69.61ZM100.41,137.27l.04.11.19-.04.04-.11-.15-.15-.11.19ZM108.29,129.54h.08s.15-.15.15-.15v-.08s-.11-.04-.11-.04l-.15.15.04.11ZM108.14,129.92l-.23-.15-.11.11v.15l.11.04.08.15-.15.46.11.34h.08l.04-.04.08-1.07ZM107.22,131.15l-.04-.11-.11-.04-.15.08v.08s.15.15.15.15h.08s.08-.15.08-.15ZM97.27,140.87l.19.04.27-.27-.04-.04h-.08l-.08.08-.27.04v.15ZM103.85,134.21l-.15.23.15-.23ZM110.28,127.86l-.04.11.08.08h.15v-.15l-.08-.08-.04.04h-.08ZM110.74,127.47l.34.04.19-.11v-.08s-.08-.08-.08-.08l-.46.23ZM100.33,138.03l.15.08v-.08s-.11-.19-.11-.19l-.08.08.04.11ZM111.47,126.82l-.04.19h.15l.04-.19h-.15ZM97.46,140.83v.08l-.04-.04.04-.04ZM97.27,141.4l-.04-.11-.08-.08-.19.11.11.11h.15l.04-.04ZM110.28,128.31h-.23l-.15.15.38,1.07.19-1.03-.19-.19ZM99.14,139.6l.04-.11-.04-.04h-.15v.08s-.04.04-.04.04l.19.04ZM104.35,134.63l-.31.15.23.38.04.04.15-.15.08-.99-.31.23.11.34ZM108.63,130.04l-.19.11.19.11.19-.11-.19-.11ZM109.59,129.54h-.38l.27.19.38-.54-.27.04v.31ZM109.48,131.87h-.15l-.38-.31-.04-.42-.23-.31.08-.46-.5.11.04.5h.23l.11.19-.34.34.04.42.19.11.11-.11-.08-.15.11-.11h.15l.57.42.19-.11.38.23.38-.77-.88.42ZM98.95,140.25l.31-.08.08-.15-.23-.15-.11.04-.11.19.08.15ZM110.7,128.43v.15h.08s.04.04.04.04l.04-.04v-.08s-.15-.08-.15-.08ZM106.34,134.63l.31.15.19.27.31.08.19-.11.08.31h.08l.04-.04v-.15s-.11-.19-.11-.19l.04-.04-.34-.11-.08-.15h-.15l-.04-.04-.04.04-.38-.15-.15-.23v-.46l-.31-.31-.11.19-.08-.08h-.08l-.04.19h-.15l-.08.46.27.11.19-.11-.04-.11.11-.11.31.61-.31-.08.19.34.15-.08.04-.19ZM98.72,140.87v-.08s-.11-.04-.11-.04l-.11.11v.08s.23-.08.23-.08ZM109.94,129.96l-.19-.11-.61.46.38.23.38-.23v-.08s.04-.04.04-.04v-.23ZM101.36,138.68l-.23-.31-.54.46.15.08.34-.27.27.04ZM102.09,138.65l-.08-.46-.5-.04.5.57.08-.08ZM104.39,135.66l.04-.27h-.08l-.11.19.15.08ZM110.55,129.35l-.04.11.04.11.11.04.23-.15.04-.19-.19-.04-.19.11ZM103.7,136.35l.31.08.23.46.11.04.08-.08.11.19.11.04.15.46.5.11-.99-1.22.27-.11.04.04.61-.23-.11.34.54-.38v-.08s.27-.11.27-.11l-1.19-.27-.23-.23.04.34-.08.08-.04.19-.73.34ZM99.83,140.14l.15.08.34-.19v-.31s-.23.31-.23.31h-.15l-.11.11ZM106.68,133.44l.08.15.08.08.19-.19-.08-.15-.19-.04-.08.15ZM110.39,130.11l-.19-.11h-.08s-.08.08-.08.08l-.04.57.04.04h.08s.27-.57.27-.57ZM98.26,142.24l.04-.11-.04-.04-.19-.04v.15l.19.04ZM110.09,131.18l.08-.23-.31-.08-.57.19.08.23.38.15.34-.27ZM105,135.51l.19-.04.11-.11-.11-.11-.19.11v.15ZM101.48,139.26v-.08l-.04-.04-.19-.04-.11.11.15.08.19-.04ZM111.2,129.54l-.08.15.15.15.08-.08.04-.27-.19.04ZM107.83,132.98l-.04.04v-.08l.04.04ZM108.86,132.26l.04-.04-.11-.04-.19.19.27-.04v-.08ZM101.1,139.95l-.19.11.15.15.31.08.31-.23-.54.08-.04-.19ZM99.79,142.01v-.23l-.11-.19-.23-.08-.11.19.11.11h.15l.19.19ZM102.78,138.8l-.15-.15h-.15l-.11.11.42.04ZM101.98,139.3l-.19.11-.08.15.04.04h.08s.11-.11.11-.11l.04-.19ZM107.52,134.44l-.04.04-.04-.04h.08ZM105.88,137.23l.27-.34-.61-.46v.31l.34.04.04.04-.04.42ZM99.45,143.28l.04-.11-.08-.15-.04-.11-.08.08v.31h.15ZM106.8,135.85l-.11-.04-.15.08-.04.11.08.23.77.08v-.08l-.54-.38ZM106.8,137.38l.27-.5-.31-.54h-.31l-.15.23.42.42.08.38ZM105.15,138.42l-.08-.23-.19-.19-.19.11.46.31ZM105.38,139.41l-.15-.23.31-.31.08-.31-.77.15v.15l.15.15.08.31.31.08ZM105.84,138.19l-.15-.15-.19.11.19.19h.15v-.15ZM107.64,136.16l.11,1.03.27-.04.23-.46-.31-.46-.31-.08ZM108.83,138.42l.08-.23-.08-.15-.19.04-.15-.08.5-.88-.08-.23.31-.46-.92-.54.08.38.19.19.19.73-1.34.73-.5-.11.11.65.61-.08-.04-.27.31-.15.34.5.57-.04ZM106.72,137.92l-.04-.19h-.15l-.08.23.11.19.15-.23ZM107.6,138.8v-.15s-.31-.08-.31-.08l-.31.15-.73-.19-.11.11.08.31h.15l.31-.23.15.15.77-.08ZM106.38,139.72l-.08-.46-.23-.15h-.23l-.08.23-.04-.04-.23.23-.19.04-.08.15.11.11h.92l.11-.11ZM107.22,139.49v-.38h-.08s-.19.11-.19.11l-.04.19-.08.08v.08s-.23.08-.23.08v.23l.19.04.11-.19h.08l.23-.23ZM109.32,138.07l-.04-.27-.15-.08-.04.11.04.11.19.11ZM107.6,139.79l-.04.11.08.15.11.04.19-.19-.04-.11-.15-.08-.15.08ZM107.98,141.4l.08-.15-.15-.23.42-.65h-.84s-.08-.15-.08-.15h-.15l-.08.15.19.11.04.19.15.15-.15.23.11.19.46.15ZM109.09,138.46l.04.11.15.08.19-.04.11-.11-.27-.19-.23.15ZM108.86,141.13l.04-.11-.04-.11-.15-.08-.23.15.04.11.15.08.19-.04ZM110.51,140.87l-.23-.31-.31.08-.96.88v.23l.11.11.92-.99.23.08.23-.08ZM111.24,140.22l.04-.19-.23-.23-.19.04-.04.19.11.19.15.08.15-.08ZM110.78,142.28l-.23-.46v-.46l-.34.5.42.5.15-.08ZM109.74,142.86v-.08s-.08-.08-.08-.08l-.19.11.04.11.11.04.11-.11ZM111.66,141.48l.11-.04v-.08s-.04-.04-.04-.04l-.11-.04-.15.08.19.11ZM110.13,143.77l-.08-.23-.27-.11.23.38h.08l.04-.04ZM112.88,140.71l-.08.15.08.23.11-.04.04-.11v-.15l-.08-.08h-.08ZM111.08,143.2l.11-.19-.04-.11h-.08s-.11.19-.11.19l.04.11h.08Z"/>
    <path class="cls-6" d="M158.84,161.33l6.94-2.25c8.28-2.69,9.1-12.73,8.21-21.08-.39-3.72-1.7-7.29-3.76-10.42l-12.16-18.5c-4.6-7.12-13.62-10.94-22.95-9.72h0"/>
    <g>
      <path class="cls-4" d="M81.4,152.48c.14.25.29.5.44.74"/>
      <path class="cls-3" d="M82.86,154.69c3.03,3.99,7.61,6.85,13.14,7.52l8.41,1.01"/>
      <line class="cls-4" x1="105.29" y1="163.32" x2="106.15" y2="163.42"/>
    </g>
    <path class="cls-8" d="M127.69,193.32h5.81v6.18c0,.6-.49,1.09-1.09,1.09h-2.54c-1.2,0-2.18-.98-2.18-2.18v-5.09h0Z" transform="translate(-19.87 14.73) rotate(-6)"/>
    <path class="cls-8" d="M137.63,192.13h2.54c.6,0,1.09.49,1.09,1.09v6.18h-5.81v-5.09c0-1.2.98-2.18,2.18-2.18Z" transform="translate(305.64 367.47) rotate(171)"/>
  </g>
  <ellipse class="cls-7" cx="128.6" cy="88.13" rx="30" ry="6.75"/>
  <g class="cls-1">
    <g>
      <path class="cls-2" d="M163.58,65.21l-7.14,17.67-2.16,5.34c-5.25,1.74-14.79,2.91-25.68,2.91s-19.53-1.05-24.9-2.64l-1.41-6.24-2.37-10.47c3.09.93,6.12,2.1,9.36,2.61,6.09.9,11.85.09,17.04-3.57,1.74-1.26,3.24-1.41,5.1-.51,3.33,1.59,6.75,2.16,10.5,1.56,5.04-.84,9.21-2.94,12.27-7.29.66-.9,1.38-1.38,2.37-1.02,2.28.87,4.71.9,7.02,1.65Z"/>
      <path class="cls-12" d="M163.59,65.2c-2.31-.73-4.76-.76-7.04-1.63-.99-.38-1.7.1-2.35,1.02-3.07,4.33-7.23,6.44-12.27,7.27-3.75.61-7.17.04-10.51-1.55-1.87-.89-3.35-.75-5.11.5-5.17,3.68-10.93,4.49-17.03,3.57-3.23-.49-6.27-1.65-9.37-2.61-1.08-1.6-2.16-3.2-3.24-4.8-1.15-2.47-2.66-4.65-4.48-6.6.6-1.03,1.32-1.14,2.29-.52.95.61,2.04,1.17,3.14,1.06,1.71-.18,2.63.7,3.66,2.01,6.58,8.39,18.29,8.61,25.27.56.6-.69,1.17-1.42,1.75-2.13,8.88,9.4,20.77,4.83,23.88-5.52,1.85-.38,3.54-.24,5.21,1.03,1.85,1.4,4.05,1.79,6.34,1.87,1.71.06,3.26-.78,4.94-.61-1.7,2.36-3.39,4.72-5.09,7.08Z"/>
      <path class="cls-9" d="M184.91,43.7c-.72-5.52-5.7-8.73-9.72-7.98-.99.18-1.56-.09-2.19-.75-2.28-2.37-5.04-3.75-8.16-4.08-1.59-.15-2.88-.81-3.99-1.83-5.43-4.95-14.67-4.14-19.5,2.82-.33.48-.54,1.08-1.41.93-1.35-2.25-3.27-3.75-5.94-4.23-2.82-.51-4.86,1.41-7.08,2.46-.27-.33-.42-.45-.51-.63-4.2-9.06-15.42-10.89-21.63-3.27-.81.96-1.77,1.17-2.97,1.29-4.41.39-8.31,1.95-10.92,6.12-.45.72-.93,1.62-1.95,1.23-1.38-.48-2.61.12-3.84.42-5.37,1.2-9.15,6.45-9,12.33.15,6.15,4.59,11.34,10.05,12.06,2.1.27,4.02-.42,6.03-.24.6-1.02,1.32-1.14,2.31-.51.96.63,2.04,1.17,3.15,1.08,1.71-.18,2.61.69,3.66,1.98,6.57,8.4,18.27,8.64,25.26.57.6-.69,1.17-1.41,1.74-2.13,8.91,9.39,20.79,4.83,23.91-5.52,1.83-.36,3.51-.24,5.19,1.02,1.86,1.41,4.05,1.8,6.33,1.89,1.71.06,3.27-.78,4.95-.6,2.7-2.16,5.07-4.41,8.97-4.5,4.47-.12,7.83-5.4,7.26-9.93ZM133.28,50.42c-1.68.96-2.94,2.1-3.99,3.87-1.77,2.97-4.59,4.41-7.92,3.63-1.68-.42-2.46-.15-3.33,1.47-2.61,4.92-8.64,5.58-12.3,1.44-.81-.9-1.59-1.47-2.7-1.83-2.82-.96-5.07-2.91-6.81-5.43-.33-.48-.54-1.05-1.35-1.29-4.92,4.32-8.04,3.03-10.74.42-2.4-2.31-2.52-6.66-.57-9.51,2.31-3.33,6-3.84,10.59-1.23,1.65-4.59,4.38-8.16,9.06-9.51,4.56-1.32,8.64-.48,12.3,2.97,1.68-1.17,3.21-2.67,5.49-2.37,1.59.21,3.03.54,3.84,2.01.72,1.26,1.41,1.35,2.73,1.14,4.47-.75,6.84.54,8.58,4.23,1.68,3.69.51,8.07-2.88,9.99ZM164.6,50.96c-4.17-.09-7.05-3.12-7.05-7.71-.75-3.9,3.57-8.01,7.29-7.83,3.78.18,7.17,2.94,7.2,7.74.03,4.77-3.39,7.86-7.44,7.8Z"/>
      <path class="cls-13" d="M94.87,52.28c-4.92,4.33-8.02,3.03-10.73.43-2.41-2.31-2.51-6.67-.56-9.51,2.29-3.33,5.98-3.85,10.59-1.23,1.64-4.61,4.39-8.16,9.06-9.52,4.55-1.33,8.64-.47,12.28,2.99,1.7-1.2,3.23-2.67,5.51-2.38,1.57.2,3.01.55,3.83,2.01.71,1.26,1.42,1.35,2.73,1.14,4.48-.74,6.83.53,8.56,4.25,1.71,3.66.52,8.05-2.87,9.98-1.68.96-2.93,2.11-3.99,3.88-1.77,2.97-4.6,4.42-7.93,3.61-1.67-.4-2.46-.13-3.32,1.48-2.62,4.91-8.65,5.58-12.3,1.44-.79-.9-1.58-1.46-2.7-1.84-2.82-.96-5.05-2.89-6.81-5.42-.33-.47-.52-1.06-1.35-1.29Z"/>
      <path class="cls-13" d="M157.55,43.26c-.75-3.92,3.55-8.02,7.28-7.84,3.8.19,7.17,2.94,7.2,7.75.03,4.74-3.37,7.86-7.42,7.78-4.18-.08-7.05-3.13-7.06-7.69Z"/>
    </g>
  </g>
</svg>