<?xml version="1.0" encoding="UTF-8"?>
<svg xmlns="http://www.w3.org/2000/svg" xmlns:xlink="http://www.w3.org/1999/xlink" viewBox="0 0 256 256">
  <defs>
    <style>
      .cls-1 {
        isolation: isolate;
      }

      .cls-2 {
        fill: #00e59d;
        mix-blend-mode: hard-light;
      }

      .cls-3 {
        fill: #fff;
      }

      .cls-4 {
        filter: url(#drop-shadow-1);
      }

      .cls-4, .cls-5 {
        fill: #50aae1;
      }

      .cls-5 {
        filter: url(#drop-shadow-2);
      }

      .cls-6 {
        fill: #96bd96;
        stroke-width: 3.06px;
      }

      .cls-6, .cls-7, .cls-8, .cls-9, .cls-10, .cls-11 {
        stroke-miterlimit: 10;
      }

      .cls-6, .cls-9, .cls-11 {
        stroke: #000;
      }

      .cls-7 {
        stroke-dasharray: 1.57 1.57;
      }

      .cls-7, .cls-8, .cls-9, .cls-10 {
        stroke-width: 3.83px;
      }

      .cls-7, .cls-8, .cls-9, .cls-10, .cls-11, .cls-12, .cls-13 {
        fill: none;
      }

      .cls-7, .cls-8, .cls-12 {
        stroke: red;
      }

      .cls-14 {
        fill: #cfc;
      }

      .cls-10 {
        stroke: #39b54a;
        stroke-dasharray: 1.53;
      }

      .cls-11 {
        stroke-width: 4.44px;
      }

      .cls-12 {
        stroke-width: 12px;
      }

      .cls-12, .cls-13 {
        stroke-linejoin: bevel;
      }

      .cls-13 {
        stroke: #fff;
        stroke-width: 9px;
      }
    </style>
    <filter id="drop-shadow-1" filterUnits="userSpaceOnUse">
      <feOffset dx="0" dy="0"/>
      <feGaussianBlur result="blur" stdDeviation="2.94"/>
      <feFlood flood-color="#000" flood-opacity=".7"/>
      <feComposite in2="blur" operator="in"/>
      <feComposite in="SourceGraphic"/>
    </filter>
    <filter id="drop-shadow-2" filterUnits="userSpaceOnUse">
      <feOffset dx="0" dy="0"/>
      <feGaussianBlur result="blur-2" stdDeviation="2.94"/>
      <feFlood flood-color="#000" flood-opacity=".7"/>
      <feComposite in2="blur-2" operator="in"/>
      <feComposite in="SourceGraphic"/>
    </filter>
  </defs>
  <g class="cls-1">
    <g id="Layer_1">
      <g>
        <path class="cls-14" d="M164.76,128.19l40.37,35.42c3.29,2.73,5.24,6.77,5.24,11.04,0,3.94-1.04,8.26-2.71,12.21-1.67,3.95-3.95,7.53-6.41,9.99-7.52,7.52-19.03,9.35-28.51,4.52l-50.07-26.17"/>
        <path class="cls-11" d="M164.76,128.19l40.37,35.42c3.29,2.73,5.24,6.77,5.24,11.04,0,3.94-1.04,8.26-2.71,12.21-1.67,3.95-3.95,7.53-6.41,9.99-7.52,7.52-19.03,9.35-28.51,4.52l-50.07-26.17"/>
        <path class="cls-14" d="M159.14,148.15l13.67-15.27c8.16-9.12,5.36-23.51-5.63-28.9l-39.98-19.6c-8.7-4.27-19.15-2.53-26.01,4.33l-21.4,21.4c-5.59,5.59-7,14.12-3.49,21.21l25.35,51.31c4.39,8.89,16.21,10.83,23.22,3.83l12.81-14.32"/>
        <path class="cls-9" d="M159.14,148.15l13.67-15.27c8.16-9.12,5.36-23.51-5.63-28.9l-39.98-19.6c-8.7-4.27-19.15-2.53-26.01,4.33l-21.4,21.4c-5.59,5.59-7,14.12-3.49,21.21l25.35,51.31c4.39,8.89,16.21,10.83,23.22,3.83l12.81-14.32"/>
        <path d="M162.91,164.64c-6.38,8.88-15.22,14.91-24.89,17.88,26.09,13.85,49.55,16.96,57.37,6.08,7.82-10.88-2.3-32.54-23.31-53.45.18,10.23-2.78,20.6-9.16,29.49Z"/>
        <path d="M154.44,128.46l2.33-4.56c2.77-5.44-1.8-10.82-6.38-14.53-2.04-1.65-4.46-2.77-7.03-3.31l-15.21-3.14c-5.81-1.25-12.18,1.33-16.2,6.56h0c-3.37,4.4-3,10.42.83,13.49l16.13,12.94c7.93,6.36,20.34,2.74,25.54-7.45Z"/>
        <g>
          <rect x="143.4" y="147.25" width="7.65" height="18.37" rx="3.83" ry="3.83" transform="translate(-6.61 306.37) rotate(-91)"/>
          <rect x="140.85" y="151.87" width="7.65" height="18.37" rx="3.83" ry="3.83" transform="translate(-62.28 97.52) rotate(-31)"/>
        </g>
        <path d="M119.19,166.21l5.9-4.63c5.02-3.94,5.76-11.27,1.63-16.14l-18.82-22.16c-1.94-2.29-5.34-2.66-7.73-.84l-3.92,2.98c-5.68,4.32-7.84,11.87-5.3,18.54l6.14,16.13c3.42,8.97,14.55,12.05,22.1,6.13Z"/>
        <path class="cls-6" d="M33.09,129.98c-2.1,9.56,13.35,37.89,13.35,37.89l3.49-14.01,8.2,26.12,6.76-15.04-4.02,44.31s8.54-6.85,11.01-16.41c2.47-9.56,7.14,30.8,7.14,30.8l11.05-12.8,5.7,22.16s13.96-26.42,12.24-35.06c-5.41-27.06-43.29-69.26-35.17-84.08,6.34-11.57,29.56-31.92,29.56-31.92,0,0-61.42,12.09-69.31,48.04Z"/>
        <path class="cls-6" d="M76.82,110.92c-12.72,9.94-40.59,1.83-41.48-16.15-.9-17.98,2.79-27.43,2.79-27.43-.08,5.79,5.93,18.43,11.39,18.18l1.86-.08s-.84-19.99-4.2-26.7c-2.46-4.9,9.03,11.25,9.03,11.25l3.35-25.22,3.75,12.67,6.06-18.37,5.6,9.26,8.36-17.83,6.7,13.07,11.86-20.57-3.45,16.64s2.16-9,16.05-12.85c13.9-3.85,35,4.1,44.85,9.32,16.03,8.49,59.78,14,59.78,14l-20.04,11.3,23.13,14.3-21.93.79,22.82,17.19-26.49-2.65,14.66,23.57-18.39-4.31,12.39,20.67-50.31-30.74-24.57-16.1c-12.88-6.95-16.35-4.24-29.89,6.46,0,0-16.56,14.75-23.69,20.33Z"/>
        <path class="cls-2" d="M33.09,129.98c-2.1,9.56,13.35,37.89,13.35,37.89l3.49-14.01,8.2,26.12,6.76-15.04-4.02,44.31s8.54-6.85,11.01-16.41c2.47-9.56,7.14,30.8,7.14,30.8l11.05-12.8,5.7,22.16s13.96-26.42,12.24-35.06c-5.41-27.06-43.29-69.26-35.17-84.08,6.34-11.57,29.56-31.92,29.56-31.92,0,0-61.42,12.09-69.31,48.04Z"/>
        <path class="cls-2" d="M76.82,110.92c-12.72,9.94-40.59,1.83-41.48-16.15-.9-17.98,2.79-27.43,2.79-27.43-.08,5.79,5.93,18.43,11.39,18.18l1.86-.08s-.84-19.99-4.2-26.7c-2.46-4.9,9.03,11.25,9.03,11.25l3.35-25.22,3.75,12.67,6.06-18.37,5.6,9.26,8.36-17.83,6.7,13.07,11.86-20.57-3.45,16.64s2.16-9,16.05-12.85c13.9-3.85,35,4.1,44.85,9.32,16.03,8.49,59.78,14,59.78,14l-20.04,11.3,23.13,14.3-21.93.79,22.82,17.19-26.49-2.65,14.66,23.57-18.39-4.31,12.39,20.67-50.31-30.74-24.57-16.1c-12.88-6.95-16.35-4.24-29.89,6.46,0,0-16.56,14.75-23.69,20.33Z"/>
        <path class="cls-10" d="M160.25,130.46l2.93-5.74c3.49-6.85-2.27-13.63-8.04-18.29-2.57-2.08-5.62-3.49-8.85-4.16l-19.15-3.96c-7.32-1.58-15.34,1.67-20.4,8.26h0"/>
        <g>
          <path class="cls-8" d="M106.36,173.29c.25.07.49.13.74.19"/>
          <path class="cls-7" d="M108.65,173.76c4.38.6,9.03-.47,12.9-3.51l5.88-4.62"/>
          <line class="cls-8" x1="128.05" y1="165.14" x2="128.65" y2="164.67"/>
        </g>
        <path class="cls-3" d="M162.95,173.67h6.12v6.5c0,.63-.51,1.15-1.15,1.15h-2.68c-1.27,0-2.3-1.03-2.3-2.3v-5.36h0Z" transform="translate(-76.4 194.81) rotate(-51)"/>
        <path class="cls-3" d="M170.14,167h2.68c.63,0,1.15.51,1.15,1.15v6.5h-6.12v-5.36c0-1.27,1.03-2.3,2.3-2.3Z" transform="translate(409.56 132.97) rotate(126)"/>
        <path class="cls-3" d="M175.72,158.81h2.22c.53,0,.95.43.95.95v5.4h-5.08v-4.45c0-1.05.85-1.91,1.91-1.91Z" transform="translate(411.07 114.53) rotate(126)"/>
      </g>
      <path class="cls-12" d="M100.83,147.27c-.36-4.94,2.88-11.99,8.77-18.29"/>
      <path class="cls-13" d="M122.85,115.72c6.3-5.89,13.35-9.14,18.29-8.77"/>
      <path class="cls-4" d="M134.89,183.58c1.1,1.35,2.21,2.7,3.3,4.07.65.82,1.26,1.67,1.89,2.51,1.21,1.85,2.42,3.71,3.43,5.69.09.2.18.4.28.6.68,1.65,1.09,3.36,1.03,5.16-.04,1.04-.27,2.04-.45,3.05-.63,1.85-1.58,3.51-2.88,4.97-1.18,1.12-2.44,2.11-3.96,2.72-4.22,1.72-8.22,1.3-11.94-1.32-3.01-2.12-4.63-5.09-4.93-8.74-.19-2.29.19-4.57.57-6.84.04-.21.06-.42.09-.63.61-2.97,1.31-5.92,2.23-8.8.75-2.35,1.53-4.69,2.74-6.86.21-.37.44-.74.7-1.07.48-.62.82-.69,1.52-.35.72.35,1.34.86,1.94,1.38.15.13.26.29.46.35,1.33,1.37,2.67,2.75,4,4.12Z"/>
      <path class="cls-5" d="M187.62,115.04c1.61-.68,3.21-1.38,4.82-2.04.97-.4,1.96-.74,2.94-1.11,2.12-.65,4.24-1.29,6.42-1.71.22-.03.43-.07.65-.1,1.78-.2,3.53-.12,5.24.45.98.32,1.88.82,2.81,1.28,1.6,1.12,2.93,2.49,3.97,4.15.75,1.44,1.34,2.93,1.52,4.56.48,4.53-1.04,8.26-4.59,11.1-2.87,2.3-6.18,3.04-9.76,2.31-2.26-.46-4.34-1.45-6.41-2.44-.19-.09-.39-.18-.58-.26-2.68-1.41-5.32-2.9-7.84-4.59-2.05-1.37-4.08-2.77-5.83-4.54-.3-.3-.59-.63-.83-.97-.46-.63-.44-.98.09-1.55.54-.59,1.2-1.05,1.86-1.48.16-.11.35-.17.46-.35,1.69-.9,3.38-1.8,5.07-2.69Z"/>
    </g>
  </g>
</svg>