<?xml version="1.0" encoding="UTF-8"?>
<svg id="Layer_1" xmlns="http://www.w3.org/2000/svg" xmlns:xlink="http://www.w3.org/1999/xlink" viewBox="0 0 256 256">
  <defs>
    <style>
      .cls-1 {
        fill: none;
      }

      .cls-2 {
        fill: url(#linear-gradient);
      }

      .cls-3 {
        isolation: isolate;
      }

      .cls-4 {
        fill: red;
      }

      .cls-5 {
        clip-path: url(#clippath);
      }
    </style>
    <linearGradient id="linear-gradient" x1="31.46" y1="177.5" x2="223.45" y2="177.5" gradientUnits="userSpaceOnUse">
      <stop offset="0" stop-color="gray"/>
      <stop offset="1" stop-color="#333"/>
    </linearGradient>
    <clipPath id="clippath">
      <rect class="cls-1" x="31.46" y="119" width="192" height="96"/>
    </clipPath>
  </defs>
  <path class="cls-2" d="M31.46,187.99c0,26.51,42.98,48.01,95.98,48.01s96.01-21.49,96.01-48.01v-21c0-26.5-42.98-47.99-96.01-47.99s-95.98,21.49-95.98,47.99v21Z"/>
  <g class="cls-3">
    <g class="cls-5">
      <g>
        <path d="M103.36,189.07l-.35.2.13.76.76-.04.13-.28-.46-.36-.22-.27M155.01,188.13l1.3.89h.38s.19-.11.19-.11l-.49-.55-1.38-.23M96.55,187.26l.05.38.97.05.14-.28-.19-.09-.97-.05M161.6,186.51h-.38s-.49.51-.49.51l.22.27h.38s.49-.51.49-.51l-.22-.27M154.12,186.37l-.89.32.24.27.59.07.51-.3-.03-.19-.43-.18M103.14,185.64l-.49.5.59.26.76-.03,1.03.43-.08-.57-.65-.45-1.16-.15M91.64,185.38l-.89.32.62.26.76-.03.16-.11-.22-.27-.43-.18M98.63,183.94l-.51.31.03.19,1.11-.24-.03-.19-.59-.07M94.04,183.75l-.38.03-.35.2-1.32.15.08.38.97.05-.22-.08.16-.11.05.19,1.19-.72-.19-.09M89.13,182.92h-.38s-.32.41-.32.41l.62.26.35-.2-.27-.46M157.9,182.87l-1.49,1.3,2.29,1.13.73-.22-1.35-1.08-.19-1.13M163.16,182.44l-.73.23,1,.24.54-.12-.03-.19-.19-.08-.59-.08M148.58,181.94l-1.05.43.24.27.78.16.92-.15.13-.28-.22-.28-.81-.15M100.71,181.65l-.54.11-.49.5.43.36,1.49-.26.32-.39-1.21-.32M110.59,181.41l-.92.32.84.34,1.54.13,1.4-.63-2.59.3-.27-.46M94.75,181.25l-1.48.24-.32.4.24.27.76-.03,1.08-.43-.27-.46M106.71,181.01l-1,.81-.76.03-.54.31.81.16,1.62-.55-.14-.76M156.22,180.94l-1.49.26-4.35,2.38.11.57.62.26,4.1-2.66,1.16.15,1.11-.24-1.27-.7M169.54,180.74h-.38s-.32.4-.32.4l.49.55.54-.12.13-.28-.05-.38-.41-.18M141.89,180.71l-.76.03-.3.39,1,.24.27.47.81.34-.65.61.65.45,2.32.28.32-.4-.86-.53,1.81-1.7-4.16.18-.46-.35M100.71,180.6l-.76.03.05.19-.19.11.97.05.14-.3-.22-.08M114.64,179.62l-.89.32-.32.39.22.08h.38s.51-.32.51-.32l.11-.47M143.37,179.4l-.7.23-.16.28.46.36.59.07.84-.51-.22-.27-.81-.16M110.97,179.29l-.51.31.78.16.95-.13-.05-.19-.19-.09-.97-.05M159.68,178.87l-.92.15-.11.47.65.45.78.16.73-.23.11-.47-1.24-.53M134.79,178.25l-1.13.05-.27.58-.19-.08-1.05.61-.92.13-.32.41.62.26,4.54-.2.51-.31-.57-1.12-1.21-.32M140.48,178.01h-.38s-.92.34-.92.34l-.11.49-.32.2.03.19-1.11.24.11.57.95.04.49-.49.38-.03,1.05-.61-.16-.95M117.59,177.86l-.76.04-.51.3h2.08s-.81-.34-.81-.34M110.08,177.52l-2.43,1.26.78.15,1.59-.73,1.32.03-1.27-.7M132.3,177.02l-3.73.55.08.38.81.34.51.74,1.54.12-.84-.53,1.38-.82.24-.78M114.35,176.86h-2.46s2.7,1.32,2.7,1.32l.35-.2-.59-1.12M140.62,176.66l-1.46.45-3.67-.31-.51.31.51.74.76-.04,1.4-.63.84.35,3.75-.35-.08-.39-1.54-.12M106.09,176.36l-.35.2.24.28.78.15-.03-.19-.65-.45M99.79,176.35l-.19.11h-.38s-.89.34-.89.34l.27.47.97.05,1.16-.92-.94-.05M128.47,175.77l-.92.32,2.4.66-.46-.55-1.03-.43M109.97,175.71l-4.29,2.77-1.13.04-1.03-.43.49-.49-1.62-.51-3.13,1.67,1.43.59.76-.03,1.65.69,6.67-3.33.22-.97M132.44,175.69l-.89.32,1.03.43.76-.03-.05-.38-.84-.35M150.53,175.57l-1.08.43.24.27.78.16.94-.15.51-.3-1.4-.42M137.22,174.72l-.76.04-.27.58.65.45.67-.59-.3-.47M106.52,174.45l-.49.5.22.27.95-.14.13-.3-.81-.34M149.34,174.19l-.14.3.22.27,1,.24-.3-.66-.78-.15M104.14,173.97l-2.11,1.04.43.36.76-.03.86-.51.05-.86M112.86,172.73l-.89.32.46.36,1,.24-.46,1.74-1.35-.04-.46.69,2.73-.8.03-.85.57-.12-.27-.46-.78-.16.67-.41,1.16.13.92-.32-1.19-.15-1.08.24-1.05-.43M131.01,171.75l.11.76,1.73.03.22.08-.03,1.05,1.19-.9-3.21-1.01M107.49,171.35l-1.21.72.78.16.73-.23.22.08-1.46.45-.19-.08-.35.2-.03-.19-.19.11-.94-.05-.62-.26.13-.3-.59-.07-.54.12-.54,1.35.97.05.7-.4,2.59.74h.38s.19-.12.19-.12l2.51,1.42.59.07.54-.12-2.54-2.65.27-.59-1.4-.4M137,171.3l-1.51.07-.65.59,2.27.95.54.93,1.11-1.28-1.76-1.26M111.22,170.8l-1.43.63-.16,1.16,2.16-.68.62-.78-1.19-.34M141.27,170.64l1.03,2.52,1.3-.15.94-1.19-1.7-1.07-1.57-.12M136.41,169.99l-.73.22-.14.3.49.55,3.81.03-.03-.19-2.83-.84-.57-.07M144.37,169.83l.54.93,1.03.43,1.27,1.75-6.29,2.08-2.51-.18.84,1.59,3-.32-.3-.66,1.43-.43,1.92,1.15,2.83-.22.27-.58-.43-.36-.94.13-.78-.16,2.08-2.28-.49-.55,1.32-1.19-4.78-1.13M110.05,169.61l.11.76,1.32-.15-.65-.45-.78-.16M125.07,169.44h-.38s-.49.51-.49.51l.78.16.08-.68M125.44,169.42l.32.84-.32.2-.11.49-3.46,1.01,1.54.12,1.35,1.08.57.07.35-.2.65.45.59.08.94,1.09,2.51.18-5.45-2.81,1.3-.34.19.08,2.94-.7-.43.88,2.48-1.05-.03-.19,1.27-.35-5.97-.4-1.24-.51M128.79,168.9l-.92.32.08.38.92-.13.51-.31-.59-.26M125.04,166.1l-1.4.63.73.82-1.46.45,1.3.89.22.09.68-.42-.05-2.47M131.79,164.37l-.49.5-.41-.18-.38.03-.11.47-.76.04-.16,1.15,1.35.23.92-.32-.24-.28.51-.31,1.78,1.46-1.54-.13,1.08.81.73-.22.11-.49,1.57.31,1.08.62,1.54.13.89-.34.51.74h.38s.16-.12.16-.12l-.05-.38-.65-.45.16-.09-1.75-.22-.43-.36-.76.04-.22-.09-.16.11-1.97-.3-.84-.53-.22-1.13-1.65-.7M135.68,163.74l-.3.39.43.36.43.16.84-.51-.43-.36-.97-.04M118.86,167.71l-1.73-.03,1.57-.92.89.73-.73.22M121.07,167.24l.65-.61-.65.61M120.53,162.11h-.38s1.35,1.11,1.35,1.11v1.04l-1.21.73-3.78.16-.68.61,1.27.7.97.05-1.48.26-1.84-.78-1.11.24-.67.59-1.08.24-.46-.36,1.08-1.47-3.38.34-.24-.27-.76.03-.14.3.78.15.7.63-.11.49.43.36.59.07.08,1.62,2.92-1.94,2.89.16-.35.2.03.19-1.35-.04-1.7,1.04.92.9-.16.3-1.05.43-.27.58,1.54.12,1.21-.72.38-.03.84.54-.05.68-1.46.43,1,.24,1.27-.34.67.63-.81.7-.22-.08-.54.12-1.03.81.41,1.21.62.26.51-.31.08-.66.35-.22,1,.24.51-.31-.27-.46.54-.12.59.07.32.85-.54.12-.78.89-2.38.58-.68.59,2.03-.38,1.49.8,2.24-.28.3-.39.95-.13.05.38.76-.04.7-.41.16-1.16,1.24-.53-1.03-.43-1.27.34.22.09-.81-.16-.32-.84.54-.12.24-.77-.78-.16-.89.32-.41-.18.16-.09-.81-.35.51-.31-.24-.27,1.89-1.13,1,.24.35-.2-.05-.38-.59-.07.35-.2-.32-.66-.92.13-.86.51-.62-.26-.05-.38.89-.32-.11-.57-1.03-.43.67-.59-.49.49,2.05.86.35-.2-.3-.46-.81-.35-.16-.94,1-.81,1.13-.04,1.08-.43.94.05.14.76-.16.11h-.38s.03.2.03.2l.22.08.92-.13.65.45-1.54,2.17.57-.12-.19.09-.13.3.95-.13.16-.11-.03-.19-.22-.08h-.38s1.75-.82,1.75-.82l.76-.03,2.21.57.35,1.03,1.35.04.13-.3.76-.03.43.18,1.65-.36-.27-.46-7.16-1.59-.57-1.12,1.24-1.58-.49-.55-1.32-.04-1.08.43-2.05-1.9-1.78.65-1.86-.78M115.4,161l-.89.32.22.28.81.15.7-.22.16-.3-1-.24M104.33,160.92l-.73.22-.13.3.24.27.57.07.7-.4-.05-.38-.59-.07M129.66,160.85l-.3.39-.95.13-.51.31-.78-.15-.73.22-.59.99.78.15.7-.4,2.97.73-.49-1.8.54-.12-.05-.38-.59-.07M145.24,160.55l-.86.51,1.3-.15-.03-.19.16-.11-.57-.07M97.53,160.16l-1.13.05-1.86,1.31.41.18,3.4-.15.51-.31-.43-.35.11-.49-1-.24M125.93,160.16l-1.81.65.24.27.78.16,1.62-.55.13-.28-.97-.24M101.87,159.88l-1.11.24-.08.66-.89.32.05.38.76-.03,1.38-.82-.11-.76M95.26,159.22l-2.94.51,1.32,1.08,1.35.04-1-.24,1.27-1.39M103.2,158.87l-5.32.04-.46.69.43.18.76-.04.13-.28.92-.13.41.16,3.21-.23-.08-.38M92.23,158.3l-.7.22,1.81.59-.49-.55-.62-.26M95.29,158.16h-.38s-.16.31-.16.31l.62.26.73-.22-.81-.35M136.22,157.99l-.73.23.03.19.84.34h.38s.3-.4.3-.4l-.24-.27-.57-.08M99.12,157.33l-.76.04-.11.47.62.26.24-.77M149.96,157.11l-2.75.59.49.55,1.94.3,1.59-.74.27-.58-1.54-.12M88.78,157.02l-1.11.24.3.46.57.08.86-.53-.62-.26M108.92,156.71l-.38.03-.13.28.62.26h.38s-.49-.57-.49-.57M144.26,156.11l-2.4.39.41,1.23,1.13-.05.65.45-1.57.93.38,1.03,1,.24.51-.31-.43-.35.51-.31.76-.04,3.02.92.89-.32,2,.49,1.54-1.97-4.16,1.23-.76.03-2.02-.68-.38-1.03-1.27-.7.19-1.16M136.81,155.96l-.95.13-.11.49,3,.73.51-.31-.43-.36-.97-.05-.41-.18-.38.03-.27-.47M86.83,155.68l-.7.4.11.57,1.11-.23.27-.59-.19-.08-.59-.07M89.26,155.48l1.13,1h.38s.92.89.92.89l1.94.11-1.08-.62-1.59-.5-.27-.47-1.43-.41M143.53,155.29l-.89.32,1,.24.89-.32-1-.24M93.77,155.09l.32.65,1.51-.05-.05.85,1-.81-2.78-.63M82.33,155.02l.05.19.62.26.32-.2-.03-.19-.97-.05M113.59,154.98l-.68.61.78,1.2-3.29.72.62.26,3.81.03.81.35-7.59.13-.27.58-1.94.95,1.27,1.76,2.43-.2,1.22.32-3.32.72.27.47-.94,1-3.08.99-.97-.05-1.65-.69.11-.49.94-.13.51-.31-.05-.38-2.62.31-.16-.94-.22-.08-1.3.15-.54.31-.76.03-.3.39,6.62,2.96.51-.31,1.49-.26-.3.58,1.48,1.85,1.05-.43-.97-1.28.3-.4-.32-.84,1.86-1.32,1.7.03.67-.61.41.18,1.75-.84.43-.88-.49-.55-.97-.05-.19-.08,1.05-1.48,1.67-.35.89.72-.49.5-.76.04-.35.2,6.1.11.19-.09.43.36-.73.22-.46.5.19.08-.67.42.05.38-.35.2-3.02.13-1.59.73,1.05.43.49.74,1,.24.94-.13.68-.42-.03-.19.97.05.67-.4-.54-.93.89-.32.13-.3.16-.28,1.27-.34.62-.8-.22-.08-.03-.19-.4-.18,1.48-.26-1-.24-.89.32-1.27-.7-2.11-1.05-.05-1.43-1.03-.43.65-.59-1.16-.15-.89.32-.38.03-.84-.35-.49-.74M151.28,154.86h-.38s-.35.23-.35.23l.05,1.42.22.09.38-.03,1.08-1.47-1-.24M139.84,154.79l-.51.31.05.38.59.07.43.36-.54,1.16.7.82h.38s.19-.12.19-.12l-.08-2.66-1.22-.32M148.96,154.57l-2.83,1.27,2,.49,1.78-.65-.03-.19.16-.11-.11-.57-.97-.24M97.5,154.55l-.49.5,2.35,1.51.97-1-1.3-.89h-.38s-.19-.07-.19-.07l-.97-.05M132.73,154.43l-.49.5-.73.23-2.35.77-.73,1.27-1.78.65.62.26.51.74-.19.11-1-.24-3.67.73.86.54,5.24-.43,2.03.67.59,1.12,1.4.42-.35.2,1.67.88,1.75.22,1.11-.24.11-.49.16-.09,3.16.62-.03-.19.22.08-.19.11.51.74-1.4.63-.84-.35-.05-.38-.78-.15-.3,2.67,1.65.69.32-.2-.19-.08.38-.03-.19.11h.38s2.29-1.16,2.29-1.16l1.54.12,2.38-.58.62.26h.38s.27-.59.27-.59l-.65-.46.19-.09-.05-.19.35-.2,1.3-.16.54-.31-3.62.07-1.81-1.63-.35,2.29-.7.42-1.11-2.05.92-1.17-.3-.66-2.89-1.2-3.51.62.24,1.32-.65.61-1.46-1.66-2.94-.53-2.35-1.53.51-.31-.24-.27.49-.5,2.05-.19-.11.49.84.35.92-.13-.59-1.31,2.05-.19-.3-.65-.62-.27-.05-.38-1-.24M101.98,153.97l-.03,1.05,1.13,1,.92-.13.59-.99-1.3-.89-1.32-.04M88.02,153.72l-.76.03-.35.2.22.09.03.19.57.07.35-.2-.05-.38M90.29,153.62l-.86.51.11.58.81.34,4.75-1.16-4.81-.27M98.09,153.56l-.57.12-.11.49,3.48.23-.03-.19-2.78-.65M142.08,153.45l-.67.41.22.28.38-.03.7-.4-.03-.19-.59-.07M104.36,153.39l1.97,1.54.54.92-1.54.93-5.24.61-.27.58.89.73,2.4-.39-.27-.46.89-.34,1.84.78,2.08-.19.3-.39-.43-.36-.73.23-.62-.26,1.59-1.8-.27-.46.81-.89-3.94-.78M156.93,153.37l-.92.13-.32.39.84.35.32-.2.08-.68M135.6,153.36l-.19.09.35,1.89.59.26,2.35-.77-.27-.46-2.83-1.01M149.23,152.95l-1.3.15.13.76-1.89.08,1.4.42,1.65-1.4M153.61,152.85l-.89.34-.16.28.24.28.59.07,1.05-.43.11-.49-.95-.05M90.7,152.75l-.76.03-.16.11.03.19.76-.04.19-.09-.05-.19M93.69,152.43l.35.84,1.32.04.32-.39-1.03-.43-.97-.05M139.59,152.22l-2.38.58-.24.77.84-.51,1.24.53,1.54.12-1-1.49M142,151.83l-1.19.9,1.81-.65-.62-.26M136.19,151.33l-1.32.15-.49.5.3.46,1.94-.76-.43-.35M95.39,151.21l-.57.11.08.38.78.16.7-.42-1-.23M153.07,150.87l.05.38h.38s.22.07.22.07l.16-.09-.03-.19-.78-.16M143.35,150.82l-.95.13-.51.31.08.38,1.38-.82M148.07,150.71l-2.03.38.03.19-1.81.46-.19,1.15,4-2.17M137.59,150.7h-.38s-.14.3-.14.3l.62.27.38-.03.35-.2-.84-.34M150.93,150.69l-1.13.04-.7.42,2.38,2.57.49-2.59-1.03-.43M144.51,149.92l-1.13.05.03.19,1.08.62.67-.42-.65-.45M91.88,149.74l-.92.13,1.54,1.17.03-.86-.65-.45M151.28,149.43l-.16.09-.38.03-.13.28.41.18.76-.03-.08-.38-.41-.18M146.83,148.96l-1.13.05.46.54,1.38.23-.03-.19.35-.2-1.03-.43M143.7,148.53l.03.19.4.16.59.08.16-.11-.03-.19-.19-.08-.97-.05M155.01,147.84l-2.16.66,1.7.03.89-.32-.03-.19-.4-.18M156.9,146.7l-.76.04-.11.47.76-.03.11-.49M148.53,146.69l-1.57.93.24.27.92-.13.86-.51.81.15.92-.13-2.19-.57M123.37,152.08l2.24-.28,2.29-.96,2.62-1.35,2.38-1.63,6.67-4.39,4.32-2.57,2.65-1.17,2.21-.47h1.73s2.21.78,2.21.78l1.62.5,2.92,1.39,4.62,2.47,3.29,1.38,5.08,1.78,4.73,1.98,1.92,1.15.76,1.03-.41,1.05-1.65,1.42-5.86,3.5-2.97,1.55-4.37,2.19-2.21,1.53-1.38.82-1.3,1.39-.38,1.07.7.82,1.92,1.16,4.94,2.07,11.21,4.18,3.13,1.49,1.46.78,2.35,1.34.46,1.59-1.38,1.88-2.94,1.74-4.51,2.48-2.94,1.75-2.73,1.84-3.13,1.66-1.43.63-2.48,1.05-2.43.2-1.75-.2-2.81-.84-4.05-1.35-4.56-2.08-2.92-1.4-4.37-2.19-4.1-1.73-2.4-.65-1.97-.3-1.86.27-2.83,1.08-1.57.92-2.78,1.46-7.15,4.89-2.97,1.55-1.57.93-2.81,1.27-2.83.22-3.35-.72-4.32-1.81-5.18-2.35-3.11-1.47-4.89-1.7-3.1-1.49-1.11-.81-2.13-1.43-.46-1.4,2.02-1.61,2.73-1.84,2.54-1.74,7.53-3.85,2.38-1.63,1.03-.61,1.59-1.78-.43-1.42-2.29-1.13-13.58-5.7-3.1-1.48-1.86-.77-2.38-1.71-.81-1.39,1.81-1.51,1.35-1.01,3.16-1.66,3-1.36,2.97-1.57,3.89-2.74,3.35-1.58,3.02-1.17,2.83-.22,3,.92,5.16,2.15,6.43,3.06,7.16,2.63,2.81.84,1.78.39M127.44,119c-53,0-95.98,21.49-95.98,47.99s42.98,48.01,95.98,48.01,96.01-21.49,96.01-48.01-42.98-47.99-96.01-47.99"/>
        <path class="cls-4" d="M118.69,166.76l-1.57.92,1.73.03.73-.22-.89-.73M121.72,166.63l-.65.61.65-.61M103.14,190.02l-.13-.76.35-.2.22.27.46.36-.13.28-.76.04M156.31,189.03l-1.3-.89,1.38.23.49.55-.19.09h-.38M97.58,187.69l-.97-.05-.05-.38.97.05.19.09-.14.28M160.95,187.3l-.22-.27.49-.5h.38s.22.26.22.26l-.49.5h-.38M154.06,187.03l-.59-.07-.24-.27.89-.32.43.18.03.19-.51.3M103.25,186.39l-.59-.26.49-.5,1.16.15.65.45.08.57-1.03-.43-.76.03M91.37,185.96l-.62-.26.89-.32.43.18.22.27-.16.11-.76.03M98.15,184.44l-.03-.19.51-.31.59.07.03.19-1.11.24M93.04,184.56l-.97-.05-.08-.38,1.32-.15.35-.2.38-.03.19.09-1.19.72-.05-.19-.16.11.22.08M89.05,183.59l-.62-.26.32-.39h.38s.27.45.27.45l-.35.2M158.71,185.3l-2.29-1.13,1.49-1.3.19,1.13,1.35,1.08-.73.22M163.43,182.91l-1-.24.73-.23.59.08.19.08.03.19-.54.12M148.56,182.8l-.78-.16-.24-.27,1.05-.43.81.15.22.28-.13.28-.92.15M100.12,182.63l-.43-.36.49-.5.54-.11,1.21.32-.32.39-1.49.26M112.05,182.21l-1.54-.13-.84-.34.92-.32.27.46,2.59-.3-1.4.63M93.18,182.17l-.24-.27.32-.4,1.48-.24.27.46-1.08.43-.76.03M105.22,182.32l-.81-.16.54-.31.76-.03,1-.81.14.76-1.62.55M151.12,184.4l-.62-.26-.11-.57,4.35-2.38,1.49-.26,1.27.7-1.11.24-1.16-.15-4.1,2.66M169.32,181.7l-.49-.55.32-.39h.38s.41.16.41.16l.05.38-.13.28-.54.12M145.24,183.52l-2.32-.28-.65-.45.65-.61-.81-.34-.27-.47-1-.24.3-.39.76-.03.46.35,4.16-.18-1.81,1.7.86.53-.32.4M100.79,180.98l-.97-.05.19-.11-.05-.19.76-.03.22.08-.14.3M113.65,180.41l-.22-.08.32-.39.89-.32-.11.47-.51.31h-.38M143.56,180.35l-.59-.07-.46-.36.16-.28.7-.23.81.16.22.27-.84.51M111.24,179.76l-.78-.16.51-.31.97.05.19.09.05.19-.95.13M160.09,180.1l-.78-.16-.65-.45.11-.47.92-.15,1.24.53-.11.47-.73.23M133.38,178.89l.27-.58,1.13-.05,1.21.32.57,1.12-.51.31-4.54.2-.62-.26.32-.41.92-.13,1.05-.61.19.08M138.73,180.08l-.95-.04-.11-.57,1.11-.24-.03-.19.32-.2.11-.49.92-.32h.38s.16.93.16.93l-1.05.61-.38.03-.49.49M118.4,178.21h-2.08s.51-.31.51-.31l.76-.04.81.35M108.43,178.93l-.78-.15,2.43-1.26,1.27.7-1.32-.03-1.59.73M131.52,179.16l-1.54-.12-.51-.74-.81-.34-.08-.38,3.73-.55-.24.78-1.38.82.84.53M114.59,178.19l-2.7-1.31h2.46s.59,1.11.59,1.11l-.35.2M139.16,177.11l1.46-.45,1.54.12.08.39-3.75.35-.84-.35-1.4.63-.76.04-.51-.74.51-.31,3.67.31M106.76,177l-.78-.15-.24-.28.35-.2.65.45.03.19M99.58,177.32l-.97-.05-.27-.47.89-.32h.38s.19-.12.19-.12l.94.05-1.16.92M129.95,176.75l-2.4-.66.92-.32,1.03.43.46.55M104.55,178.52l1.13-.04,4.29-2.77-.22.97-6.67,3.33-1.65-.69-.76.03-1.43-.59,3.13-1.67,1.62.51-.49.49,1.03.43M132.57,176.44l-1.03-.43.89-.32.84.35.05.38-.76.03M150.47,176.43l-.78-.16-.24-.27,1.08-.43,1.4.42-.51.3-.94.15M136.84,175.78l-.65-.45.27-.58.76-.04.3.47-.67.59M106.25,175.22l-.22-.27.49-.5.81.34-.13.3-.95.14M150.42,175l-1-.24-.22-.27.14-.3.78.15.3.66M102.47,175.38l-.43-.36,2.11-1.04-.05.86-.86.51-.76.03M133.03,173.66l.03-1.05-.22-.08-1.73-.03-.11-.76,3.21,1.01-1.19.9M107.06,172.23l-.78-.16,1.21-.72,1.4.4-.27.59,2.54,2.65-.54.12-.59-.07-2.51-1.42-.19.11h-.38s-2.59-.73-2.59-.73l-.7.4-.97-.05.54-1.35.54-.12.59.07-.13.3.62.26.94.05.19-.11.03.19.35-.2.19.08,1.46-.45-.22-.08-.73.23M137.65,173.84l-.54-.93-2.27-.95.65-.59,1.51-.07,1.76,1.26-1.11,1.28M109.62,172.6l.16-1.16,1.43-.63,1.19.34-.62.78-2.16.68M142.29,173.16l-1.03-2.52,1.57.12,1.7,1.07-.94,1.19-1.3.15M139.84,171.08l-3.81-.03-.49-.55.14-.3.73-.22.57.07,2.83.84.03.19M140.92,175.03l6.29-2.08-1.27-1.75-1.03-.43-.54-.93,4.78,1.13-1.32,1.19.49.55-2.08,2.28.78.16.94-.13.43.36-.27.58-2.83.22-1.92-1.15-1.43.43.3.66-3,.32-.84-1.59,2.51.18M110.16,170.37l-.11-.76.78.16.65.45-1.32.15M124.99,170.11l-.78-.16.49-.5h.38s-.08.66-.08.66M125.34,173.23l-.57-.07-1.35-1.08-1.54-.12,3.46-1.01.11-.49.32-.2-.32-.84,1.24.51,5.97.4-1.27.35.03.19-2.48,1.05.43-.88-2.94.7-.19-.08-1.3.34,5.45,2.81-2.51-.18-.94-1.09-.59-.08-.65-.45-.35.2M127.96,169.6l-.08-.38.92-.32.59.26-.51.31-.92.13M124.42,168.99l-.22-.09-1.3-.89,1.46-.45-.73-.82,1.4-.63.05,2.47-.68.42M131.3,164.87l.49-.5,1.65.7.22,1.13.84.53,1.97.3.16-.11.22.09.76-.04.43.36,1.75.22-.16.09.65.45.05.38-.16.11h-.38s-.51-.73-.51-.73l-.89.34-1.54-.13-1.08-.62-1.57-.31-.11.49-.73.22-1.08-.81,1.54.13-1.78-1.46-.51.31.24.28-.92.32-1.35-.23.16-1.15.76-.04.11-.47.38-.03.41.18M136.24,164.66l-.43-.16-.43-.36.3-.39.97.04.43.36-.84.51M120.15,162.12h.38s1.86.77,1.86.77l1.78-.65,2.05,1.9,1.08-.43,1.32.04.49.55-1.24,1.58.57,1.12,7.16,1.59.27.46-1.65.36-.43-.18-.76.03-.13.3-1.35-.04-.35-1.03-2.21-.57-.76.03-1.75.84h.38s.22.07.22.07l.03.19-.16.11-.95.13.13-.3.19-.09-.57.12,1.54-2.17-.65-.45-.92.13-.22-.08-.03-.19h.38s.16-.12.16-.12l-.14-.76-.94-.05-1.08.43-1.13.04-1,.81.16.94.81.35.3.46-.35.2-2.05-.86.49-.49-.67.59,1.03.43.11.57-.89.32.05.38.62.26.86-.51.92-.13.32.66-.35.2.59.07.05.38-.35.2-1-.24-1.89,1.13.24.27-.51.31.81.35-.16.09.41.18.89-.32.78.16-.24.77-.54.12.32.84.81.16-.22-.09,1.27-.34,1.03.43-1.24.53-.16,1.16-.7.41-.76.04-.05-.38-.95.13-.3.39-2.24.28-1.49-.8-2.03.38.68-.59,2.38-.58.78-.89.54-.12-.32-.85-.59-.07-.54.12.27.46-.51.31-1-.24-.35.22-.08.66-.51.31-.62-.26-.41-1.21,1.03-.81-.92.32-1.16-.13-.67.41.78.16.27.46-.57.12-.03.85-2.73.8.46-.69,1.35.04.46-1.74-1-.24-.46-.36.89-.32,1.05.43,1.08-.24,1.19.15.54-.12.22.08.81-.7-.67-.63-1.27.34-1-.24,1.46-.43.05-.68-.84-.54-.38.03-1.21.72-1.54-.12.27-.58,1.05-.43.16-.3-.92-.9,1.7-1.04,1.35.04-.03-.19.35-.2-2.89-.16-2.92,1.94-.08-1.62-.59-.07-.43-.36.11-.49-.7-.63-.78-.15.14-.3.76-.03.24.27,3.38-.34-1.08,1.47.46.36,1.08-.24.67-.59,1.11-.24,1.84.78,1.48-.26-.97-.05-1.27-.7.68-.61,3.78-.16,1.21-.73v-1.04l-1.35-1.09M115.54,161.76l-.81-.15-.22-.28.89-.32,1,.24-.16.3-.7.22M104.28,161.77l-.57-.07-.24-.27.13-.3.73-.22.59.07.05.38-.7.4M127.9,161.69l.51-.31.95-.13.3-.39.59.07.05.38-.54.12.49,1.8-2.97-.73-.7.4-.78-.15.59-.99.73-.22.78.15M144.37,161.07l.86-.51.57.07-.16.11.03.19-1.3.15M94.93,161.7l-.41-.18,1.86-1.31,1.13-.05,1,.24-.11.49.43.35-.51.31-3.4.15M125.15,161.24l-.78-.16-.24-.27,1.81-.65.97.24-.13.28-1.62.55M99.85,161.49l-.05-.38.89-.32.08-.66,1.11-.24.11.76-1.38.82-.76.03M94.99,160.85l-1.35-.04-1.32-1.08,2.94-.51-1.27,1.39,1,.24M97.85,159.77l-.43-.18.46-.69,5.32-.04.08.38-3.21.23-.41-.16-.92.13-.13.28-.76.04M93.34,159.11l-1.81-.59.7-.22.62.26.49.55M95.37,158.73l-.62-.26.16-.3h.38s.81.34.81.34l-.73.22M136.35,158.75l-.84-.34-.03-.19.73-.23.57.08.24.27-.3.39h-.38M98.88,158.1l-.62-.26.11-.47.76-.04-.24.77M149.64,158.56l-1.94-.3-.49-.55,2.75-.59,1.54.12-.27.58-1.59.74M88.54,157.8l-.57-.08-.3-.46,1.11-.24.62.26-.86.53M109.03,157.27l-.62-.26.13-.28.38-.03.49.55h-.38M142.27,157.73l-.41-1.23,2.4-.39-.19,1.16,1.27.7.38,1.03,2.02.68.76-.03,4.16-1.23-1.54,1.97-2-.49-.89.32-3.02-.92-.76.04-.51.31.43.35-.51.31-1-.24-.38-1.03,1.57-.93-.65-.45-1.13.05M138.76,157.31l-3-.73.11-.49.95-.13.27.47.38-.03.41.18.97.05.43.36-.51.31M86.24,156.65l-.11-.57.7-.4.59.07.19.08-.27.59-1.11.23M90.4,156.48l-1.13-1,1.43.41.27.47,1.59.5,1.08.62-1.94-.11-.92-.9h-.38M143.64,155.86l-1-.24.89-.32,1,.24-.89.32M94.1,155.73l-.32-.65,2.78.63-1,.81.05-.85-1.51.05M83,155.46l-.62-.26-.05-.19.97.05.03.19-.32.2M107.11,161.55l-1.27-1.76,1.94-.95.27-.58,7.59-.13-.81-.35-3.81-.03-.62-.26,3.29-.72-.78-1.2.68-.61.49.74.84.35.38-.03.89-.32,1.16.15-.65.59,1.03.43.05,1.43,2.11,1.05,1.27.7.89-.32,1,.24-1.48.26.4.18.03.19.22.08-.62.8-1.27.34-.16.28-.13.3-.89.32.54.93-.67.4-.97-.05.03.19-.68.42-.94.13-1-.24-.49-.74-1.05-.43,1.59-.73,3.02-.13.35-.2-.05-.38.67-.42-.19-.08.46-.5.73-.22-.43-.36-.19.09-6.1-.11.35-.2.76-.04.49-.5-.89-.72-1.67.35-1.05,1.48.19.08.97.05.49.55-.43.88-1.75.84-.41-.18-.67.61-1.7-.03-1.86,1.32.32.84-.3.4.97,1.28-1.05.43-1.48-1.85.3-.58-1.49.26-.51.31-6.62-2.96.3-.39.76-.03.54-.31,1.3-.15.22.08.16.94,2.62-.31.05.38-.51.31-.94.13-.11.49,1.65.69.97.05,3.08-.99.94-1-.27-.47,3.32-.72-1.22-.32-2.43.2M150.82,156.6l-.22-.09-.05-1.42.35-.22h.38s1,.23,1,.23l-1.08,1.47-.38.03M140.56,157.89l-.7-.82.54-1.16-.43-.36-.59-.07-.05-.38.51-.31,1.22.32.08,2.66-.19.11h-.38M148.12,156.33l-2-.49,2.83-1.27.97.24.11.57-.16.11.03.19-1.78.65M99.36,156.56l-2.35-1.51.49-.5.97.05.19.08h.38s1.3.88,1.3.88l-.97,1M127.6,158.95l.19-.11-.51-.74-.62-.26,1.78-.65.73-1.27,2.35-.77.73-.23.49-.5,1,.24.05.38.62.27.3.65-2.05.19.59,1.31-.92.13-.84-.35.11-.49-2.05.19-.49.5.24.27-.51.31,2.35,1.53,2.94.53,1.46,1.66.65-.61-.24-1.32,3.51-.62,2.89,1.2.3.66-.92,1.17,1.11,2.05.7-.42.35-2.29,1.81,1.63,3.62-.07-.54.31-1.3.16-.35.2.05.19-.19.09.65.46-.27.58h-.38s-.62-.24-.62-.24l-2.38.58-1.54-.12-2.29,1.15h-.38s.19-.09.19-.09l-.38.03.19.08-.32.2-1.65-.69.3-2.67.78.15.05.38.84.35,1.4-.63-.51-.74.19-.11-.22-.08.03.19-3.16-.62-.16.09-.11.49-1.11.24-1.75-.22-1.67-.88.35-.2-1.4-.42-.59-1.12-2.03-.67-5.24.43-.86-.54,3.67-.73,1,.24M103.09,156.02l-1.13-1,.03-1.05,1.32.04,1.3.89-.59.99-.92.13M87.73,154.3l-.57-.07-.03-.19-.22-.09.35-.2.76-.03.05.38-.35.2M90.34,155.05l-.81-.34-.11-.58.86-.51,4.81.27-4.75,1.16M100.9,154.4l-3.48-.23.11-.49.57-.12,2.78.65.03.19M141.62,154.14l-.22-.28.67-.41.59.07.03.19-.7.4-.38.03M100.71,158.69l-.89-.73.27-.58,5.24-.61,1.54-.93-.54-.92-1.97-1.54,3.94.78-.81.89.27.46-1.59,1.8.62.26.73-.23.43.36-.3.39-2.08.19-1.84-.78-.89.34.27.46-2.4.39M156.52,154.25l-.84-.35.32-.39.92-.13-.08.68-.32.2M136.35,155.6l-.59-.26-.35-1.89.19-.09,2.83,1.01.27.46-2.35.77M147.58,154.36l-1.4-.42,1.89-.08-.13-.76,1.3-.15-1.65,1.4M153.39,153.82l-.59-.07-.24-.28.16-.28.89-.34.95.05-.11.49-1.05.43M89.8,153.08l-.03-.19.16-.11.76-.03.05.19-.19.09-.76.04M95.37,153.3l-1.32-.04-.35-.84.97.05,1.03.43-.32.39M136.97,153.57l.24-.77,2.38-.58,1,1.49-1.54-.12-1.24-.53-.84.51M140.81,152.74l1.19-.9.62.26-1.81.65M134.68,152.44l-.3-.46.49-.5,1.32-.15.43.35-1.94.76M95.69,151.86l-.78-.16-.08-.38.57-.11,1,.23-.7.42M153.12,151.25l-.05-.38.78.16.03.19-.16.09-.22-.08h-.38M141.97,151.64l-.08-.38.51-.31.95-.13-1.38.82M144.07,152.89l.19-1.15,1.81-.46-.03-.19,2.03-.38-4,2.17M137.7,151.27l-.62-.27.14-.28h.38s.84.32.84.32l-.35.2-.38.03M151.47,153.71l-2.38-2.57.7-.42,1.13-.04,1.03.43-.49,2.59M144.48,150.78l-1.08-.62-.03-.19,1.13-.05.65.45-.67.42M92.5,151.05l-1.54-1.17.92-.13.65.45-.03.86M151.01,150.01l-.41-.18.13-.28.38-.03.16-.09.41.18.08.38-.76.03M147.53,149.78l-1.38-.23-.46-.54,1.13-.05,1.03.43-.35.2.03.19M144.72,148.96l-.59-.08-.4-.16-.03-.19.97.05.19.08.03.19-.16.11M154.55,148.53l-1.7-.03,2.16-.66.4.18.03.19-.89.32M156.04,147.22l.11-.47.76-.04-.11.49-.76.03M147.21,147.89l-.24-.27,1.57-.93,2.19.57-.92.13-.81-.15-.86.51-.92.13M148.75,139.25l-2.21.47-2.65,1.17-4.32,2.57-6.67,4.39-2.38,1.63-2.62,1.35-2.29.96-2.24.28-1.78-.39-2.81-.84-7.16-2.63-6.43-3.06-5.16-2.15-3-.92-2.83.22-3.02,1.17-3.35,1.58-3.89,2.74-2.97,1.57-3,1.36-3.16,1.66-1.35,1.01-1.81,1.51.81,1.39,2.38,1.71,1.86.77,3.1,1.48,13.58,5.7,2.29,1.13.43,1.42-1.59,1.78-1.03.61-2.38,1.63-7.53,3.85-2.54,1.74-2.73,1.84-2.02,1.61.46,1.4,2.13,1.43,1.11.81,3.1,1.49,4.89,1.7,3.11,1.47,5.18,2.35,4.32,1.81,3.35.72,2.83-.22,2.81-1.27,1.57-.93,2.97-1.55,7.15-4.89,2.78-1.46,1.57-.92,2.83-1.08,1.86-.27,1.97.3,2.4.65,4.1,1.73,4.37,2.19,2.92,1.4,4.56,2.08,4.05,1.35,2.81.84,1.75.2,2.43-.2,2.48-1.05,1.43-.63,3.13-1.66,2.73-1.84,2.94-1.75,4.51-2.48,2.94-1.74,1.38-1.88-.46-1.59-2.35-1.34-1.46-.78-3.13-1.49-11.21-4.18-4.94-2.07-1.92-1.16-.7-.82.38-1.07,1.3-1.39,1.38-.82,2.21-1.53,4.37-2.19,2.97-1.55,5.86-3.5,1.65-1.42.41-1.05-.76-1.03-1.92-1.15-4.73-1.98-5.08-1.78-3.29-1.38-4.62-2.47-2.92-1.39-1.62-.5-2.21-.77h-1.73"/>
      </g>
    </g>
  </g>
</svg>