<?xml version="1.0" encoding="UTF-8"?>
<svg xmlns="http://www.w3.org/2000/svg" viewBox="0 0 256 256">
  <defs>
    <style>
      .cls-1 {
        isolation: isolate;
      }

      .cls-2 {
        fill: #00e59d;
        mix-blend-mode: hard-light;
      }

      .cls-3 {
        fill: #fff;
      }

      .cls-4 {
        fill: #96bd96;
        stroke-width: 2.86px;
      }

      .cls-4, .cls-5 {
        stroke: #000;
        stroke-miterlimit: 10;
      }

      .cls-6 {
        fill: #cfc;
      }

      .cls-7 {
        fill: red;
      }

      .cls-5 {
        fill: none;
        stroke-width: 3.58px;
      }
    </style>
  </defs>
  <g class="cls-1">
    <g id="Layer_1">
      <g>
        <path class="cls-6" d="M128.45,165.52l19.15-1.06c11.44-.63,19.1-12.01,15.4-22.85l-13.49-39.42c-2.94-8.58-11-14.35-20.07-14.35h-28.32c-7.4,0-13.97,4.71-16.34,11.72l-17.18,50.72c-2.98,8.78,3.56,17.89,12.83,17.89l17.95-.99"/>
        <path class="cls-6" d="M141.54,164.79l2.82,43.23c.32,3.43-.87,6.85-3.3,9.29-2.24,2.25-5.31,4.12-8.51,5.42-3.2,1.3-6.55,2.04-9.36,2.04-8.58,0-16.19-5.52-18.84-13.68l-13.63-43.48"/>
        <path class="cls-5" d="M137.45,165.52l10.15-1.06c11.44-.63,19.1-12.01,15.4-22.85l-13.49-39.42c-2.94-8.58-11-14.35-20.07-14.35h-28.32c-7.4,0-13.97,4.71-16.34,11.72l-17.18,50.72c-2.98,8.78,3.56,17.89,12.83,17.89l14.95-.99"/>
        <path class="cls-5" d="M141.54,164.79l2.82,43.23c.32,3.43-.87,6.85-3.3,9.29-2.24,2.25-5.31,4.12-8.51,5.42-3.2,1.3-6.55,2.04-9.36,2.04-8.58,0-16.19-5.52-18.84-13.68l-13.63-43.48"/>
        <path d="M138.37,149.37l4.56-1.48c5.43-1.76,5.97-8.35,5.39-13.84-.26-2.44-1.12-4.79-2.47-6.84l-7.98-12.14c-3.02-4.68-8.94-7.18-15.06-6.38h0c-5.14.68-8.88,4.91-8.38,9.48l2.11,19.24c1.04,9.46,11.65,15.27,21.83,11.97Z"/>
        <g>
          <rect x="114.51" y="154.52" width="7.16" height="17.19" rx="3.58" ry="3.58" transform="translate(-81.28 134.75) rotate(-46)"/>
          <rect x="109.76" y="155.89" width="7.16" height="17.19" rx="3.58" ry="3.58" transform="translate(43.16 -22.53) rotate(14)"/>
        </g>
        <path d="M90.07,151.03l6.97.84c5.93.71,11.27-3.65,11.75-9.6l2.21-27.11c.23-2.8-1.77-5.29-4.56-5.67l-4.57-.62c-6.62-.9-13.04,2.67-15.77,8.76l-6.61,14.74c-3.67,8.19,1.65,17.6,10.57,18.67Z"/>
        <path class="cls-4" d="M57.07,70.08c-7.72,4.94-16.24,33.91-16.24,33.91l11.58-6.96-11.86,22.71,14.42-5.48-31.98,26.66s10.18,1.11,18.14-3.58c7.96-4.69-15.65,25.11-15.65,25.11l15.78-1.16-10.89,18.43s26.72-8.24,31.29-15.1c14.32-21.48,17.19-74.47,32.36-78.9,11.85-3.46,40.68-1.56,40.68-1.56,0,0-48.64-32.64-77.64-14.08Z"/>
        <path class="cls-4" d="M98.62,86.41c-15-1.84-28.07-25.64-16.76-38.13,11.3-12.49,19.99-16.3,19.99-16.3-3.88,3.77-8.27,16.12-4.49,19.57l1.28,1.17s12.67-13.78,14.89-20.45c1.62-4.87-1.46,13.42-1.46,13.42l18.91-14.47-5.91,10.86,16.17-8.15-2.42,9.83,17.33-6.27-4.21,13.08,21.46-5.76-13.3,8.73s7.38-4.53,19.12,2.12c11.74,6.65,20.45,25.88,23.51,35.84,4.99,16.22,30.29,48.82,30.29,48.82l-20.74-5.78,5.85,24.77-15.03-13.99,3.73,26.48-15.77-19.28-5.9,25.29-9.32-15.02-5.48,21.88-12.95-53.63-5.6-26.91c-3.92-13.12-8.01-13.63-24.05-15.5,0,0-20.72-1.19-29.13-2.23Z"/>
        <path class="cls-2" d="M57.07,70.08c-7.72,4.94-16.24,33.91-16.24,33.91l11.58-6.96-11.86,22.71,14.42-5.48-31.98,26.66s10.18,1.11,18.14-3.58c7.96-4.69-15.65,25.11-15.65,25.11l15.78-1.16-10.89,18.43s26.72-8.24,31.29-15.1c14.32-21.48,17.19-74.47,32.36-78.9,11.85-3.46,40.68-1.56,40.68-1.56,0,0-48.64-32.64-77.64-14.08Z"/>
        <path class="cls-2" d="M98.62,86.41c-15-1.84-28.07-25.64-16.76-38.13,11.3-12.49,19.99-16.3,19.99-16.3-3.88,3.77-8.27,16.12-4.49,19.57l1.28,1.17s12.67-13.78,14.89-20.45c1.62-4.87-1.46,13.42-1.46,13.42l18.91-14.47-5.91,10.86,16.17-8.15-2.42,9.83,17.33-6.27-4.21,13.08,21.46-5.76-13.3,8.73s7.38-4.53,19.12,2.12c11.74,6.65,20.45,25.88,23.51,35.84,4.99,16.22,30.29,48.82,30.29,48.82l-20.74-5.78,5.85,24.77-15.03-13.99,3.73,26.48-15.77-19.28-5.9,25.29-9.32-15.02-5.48,21.88-12.95-53.63-5.6-26.91c-3.92-13.12-8.01-13.63-24.05-15.5,0,0-20.72-1.19-29.13-2.23Z"/>
        <path d="M119.11,182.31c-6.51.68-12.8-1.34-18.11-5.27,1.81,7.86,4.1,17.35,6.7,22.91,4.33,9.27,9.47,11.75,14.47,11.62,6.66-.16,14.64-2.75,14.72-13.65.03-5.07-1.27-18.37-1.17-24.53-4.37,4.94-10.11,8.22-16.62,8.91Z"/>
        <path class="cls-3" d="M115.33,187.71h4.39v4.66c0,.45-.37.82-.82.82h-1.92c-.91,0-1.64-.74-1.64-1.64v-3.84h0Z" transform="translate(-13 8.66) rotate(-4)"/>
        <path class="cls-3" d="M124.2,186.65h1.92c.45,0,.82.37.82.82v4.66h-4.39v-3.84c0-.91.74-1.64,1.64-1.64Z" transform="translate(300.95 332.16) rotate(162.39)"/>
        <polygon class="cls-7" points="105.25 138.84 104.9 138.36 104.68 138.08 104.21 137.54 102.47 135.99 101.71 135.23 101.42 134.82 101.33 134.54 101.42 134.19 101.68 133.75 101.93 133.49 102.34 133.02 103.13 132.35 103.67 131.88 104.74 130.8 105.06 130.36 105.15 130.01 105.06 129.67 104.77 129.25 104.05 128.53 103.26 127.86 102.75 127.36 102.05 126.47 101.61 125.97 101.36 125.78 101.01 125.49 100.73 125.46 100.35 125.59 99.87 125.93 99.08 126.72 97.85 128.08 97.41 128.59 96.93 129 96.52 129.29 96.14 129.35 95.86 129.19 95.41 128.88 94.31 127.89 93.33 126.79 92.54 126 92.06 125.65 91.59 125.68 91.05 126.03 90.45 126.5 89.72 127.36 89.18 127.83 88.65 128.24 88.08 128.75 87.82 129.06 87.48 129.54 87.57 130.01 87.92 130.61 88.2 130.9 88.68 131.44 90.76 133.52 91.11 133.94 91.14 134.41 90.83 134.98 90.64 135.17 90.2 135.67 88.84 136.84 88.36 137.38 87.85 137.95 87.48 138.46 87.51 138.93 87.82 139.44 87.98 139.72 88.46 140.26 89.21 140.89 89.69 141.43 90.48 142.28 91.14 142.95 91.68 143.23 92.16 143.2 92.66 142.82 92.95 142.54 93.48 142.06 94.81 140.54 95.32 140.1 95.6 139.82 96.11 139.5 96.43 139.44 96.74 139.56 97.12 139.82 97.75 140.45 98.42 141.24 98.86 141.75 99.56 142.51 100.19 143.01 100.63 143.33 100.92 143.42 101.33 143.39 101.77 143.08 102.02 142.89 102.59 142.38 103.1 141.81 103.64 141.27 104.46 140.51 105 139.98 105.28 139.37 105.25 138.84"/>
        <rect class="cls-3" x="121.72" y="124.23" width="20.62" height="22.21" rx="10.31" ry="10.31" transform="translate(-21.49 24.98) rotate(-10)"/>
        <circle cx="132.5" cy="135.5" r="4.5"/>
      </g>
    </g>
  </g>
</svg>