<?xml version="1.0" encoding="UTF-8"?>
<svg id="Layer_2" data-name="Layer 2" xmlns="http://www.w3.org/2000/svg" viewBox="0 0 341.56 711.35">
  <defs>
    <style>
      .cls-1, .cls-2, .cls-3, .cls-4, .cls-5, .cls-6, .cls-7, .cls-8, .cls-9 {
        stroke-miterlimit: 10;
      }

      .cls-1, .cls-10, .cls-3, .cls-8 {
        fill: #eaeaea;
      }

      .cls-1, .cls-3, .cls-4, .cls-5, .cls-8, .cls-9 {
        stroke: #000;
      }

      .cls-1, .cls-5 {
        stroke-width: 3.61px;
      }

      .cls-2, .cls-4, .cls-6, .cls-7, .cls-9 {
        stroke-width: 4.51px;
      }

      .cls-2, .cls-6 {
        stroke: #4d4d4d;
      }

      .cls-2, .cls-6, .cls-7, .cls-9 {
        fill: none;
      }

      .cls-11, .cls-10, .cls-12, .cls-13 {
        stroke-width: 0px;
      }

      .cls-11, .cls-12 {
        fill: #000;
      }

      .cls-3 {
        stroke-width: 3.16px;
      }

      .cls-12 {
        opacity: .6;
      }

      .cls-4, .cls-5 {
        fill: #fff;
      }

      .cls-6 {
        stroke-dasharray: 0 0 1.85 1.85;
      }

      .cls-7 {
        stroke: #848484;
        stroke-dasharray: 0 1.81;
      }

      .cls-8 {
        stroke-width: 2.71px;
      }

      .cls-13 {
        fill: red;
      }
    </style>
  </defs>
  <g id="Layer_1-2" data-name="Layer 1">
    <g>
      <path class="cls-11" d="M192.71,9.63h125.49c10.81,0,19.58,8.77,19.58,19.58v136.67c0,45.08-36.6,81.67-81.67,81.67h0c-45.08,0-81.67-36.6-81.67-81.67V27.92c0-10.09,8.19-18.28,18.28-18.28Z" transform="translate(499.64 279.62) rotate(-174.86)"/>
      <rect class="cls-5" x="247.07" y="195.72" width="9.03" height="74.02" transform="translate(503.35 465.26) rotate(179.96)"/>
      <circle class="cls-5" cx="251.62" cy="277.86" r="9.93"/>
      <rect class="cls-1" x="262.78" y="585.55" width="9.03" height="100.06"/>
      <polygon class="cls-11" points="167.81 229.67 335.36 229.54 335.52 530.48 252.7 519.8 167.97 534.19 167.81 229.67"/>
      <polygon class="cls-11" points="282.65 656.72 251.96 656.74 252.81 473.02 283.51 473 282.65 656.72"/>
      <path class="cls-10" d="M268.56,131.36l24.16.83c14.43.5,25.34-12.93,21.91-26.95l-12.48-51.01c-2.72-11.1-12.19-19.25-23.58-20.28l-35.55-3.2c-9.29-.84-18.07,4.34-21.84,12.87l-27.3,61.74c-4.73,10.69,2.44,22.86,14.09,23.91l22.65.78"/>
      <path class="cls-10" d="M285.07,131.93l-1.34,54.6c.02,4.35-1.87,8.5-5.2,11.29-3.07,2.57-7.13,4.57-11.3,5.84-4.17,1.27-8.45,1.83-11.98,1.51-10.78-.97-19.7-8.76-22.11-19.31l-12.2-56.13"/>
      <path class="cls-9" d="M268.56,131.36l24.16.83c14.43.5,25.34-12.93,21.91-26.95l-12.48-51.01c-2.72-11.1-12.19-19.25-23.58-20.28l-35.55-3.2c-9.29-.84-18.07,4.34-21.84,12.87l-27.3,61.74c-4.73,10.69,2.44,22.86,14.09,23.91l22.65.78"/>
      <path class="cls-9" d="M285.07,131.93l-1.34,54.6c.02,4.35-1.87,8.5-5.2,11.29-3.07,2.57-7.13,4.57-11.3,5.84-4.17,1.27-8.45,1.83-11.98,1.51-10.78-.97-19.7-8.76-22.11-19.31l-12.2-56.13"/>
      <path class="cls-11" d="M282.83,112.21l5.89-1.34c7.02-1.6,8.44-9.81,8.33-16.76-.05-3.1-.86-6.14-2.32-8.87l-8.65-16.15c-3.26-6.21-10.41-10.03-18.19-9.71h0c-6.53.27-11.71,5.16-11.59,10.95l.48,24.39c.24,11.99,12.9,20.49,26.06,17.49Z"/>
      <rect class="cls-11" x="247.54" y="116" width="9.03" height="21.66" rx="4.51" ry="4.51" transform="translate(-21.56 195.8) rotate(-40.86)"/>
      <rect class="cls-11" x="241.42" y="117.18" width="9.03" height="21.66" rx="4.51" ry="4.51" transform="translate(55.57 -73.56) rotate(19.14)"/>
      <path class="cls-11" d="M222,108.83l8.66,1.84c7.37,1.56,14.56-3.31,15.84-10.73l5.84-33.79c.6-3.49-1.63-6.85-5.08-7.64l-5.67-1.3c-8.21-1.88-16.67,1.88-20.79,9.22l-9.96,17.76c-5.54,9.87.08,22.29,11.16,24.64Z"/>
      <path class="cls-11" d="M247.56,159.42h7.22v7.67c0,.75-.61,1.35-1.35,1.35h-3.16c-1.49,0-2.71-1.21-2.71-2.71v-6.32h0Z" transform="translate(-2.43 3.79) rotate(-.86)"/>
      <path class="cls-11" d="M260.01,158.81h3.16c.75,0,1.35.61,1.35,1.35v7.67h-7.22v-6.32c0-1.49,1.21-2.71,2.71-2.71Z" transform="translate(532.22 308.71) rotate(176.14)"/>
      <path class="cls-11" d="M272.28,157.82h2.62c.62,0,1.12.5,1.12,1.12v6.37h-6v-5.25c0-1.24,1.01-2.25,2.25-2.25Z" transform="translate(556.31 304.4) rotate(176.14)"/>
      <circle class="cls-11" cx="258.75" cy="195.51" r="4.51"/>
      <path class="cls-4" d="M251.99,676.57h57.09c11.34,0,20.54,9.21,20.54,20.54v11.95h-75.53c-1.16,0-2.1-.94-2.1-2.1v-30.39h0Z"/>
      <line class="cls-9" x1="302.52" y1="676.56" x2="270.95" y2="708.18"/>
      <line class="cls-9" x1="313.36" y1="676.55" x2="281.79" y2="708.17"/>
      <line class="cls-9" x1="291.69" y1="676.57" x2="260.12" y2="708.19"/>
      <rect class="cls-1" x="223.16" y="585.55" width="9.03" height="100.06"/>
      <polygon class="cls-11" points="243.03 656.72 212.34 656.74 213.19 473.02 243.89 473 243.03 656.72"/>
      <path class="cls-4" d="M212.36,676.57h57.09c11.34,0,20.54,9.21,20.54,20.54v11.95h-75.53c-1.16,0-2.1-.94-2.1-2.1v-30.39h0Z"/>
      <line class="cls-9" x1="262.9" y1="676.56" x2="231.33" y2="708.18"/>
      <line class="cls-9" x1="273.74" y1="676.55" x2="242.17" y2="708.17"/>
      <line class="cls-9" x1="252.07" y1="676.57" x2="220.5" y2="708.19"/>
      <rect class="cls-11" x="142.39" y="226.94" width="30.69" height="256.44" transform="translate(-86.4 657.51) rotate(-117.13)"/>
      <rect class="cls-3" x="29" y="414.53" width="9.03" height="12.64" rx="1.81" ry="1.81" transform="translate(-325.74 642.61) rotate(-117.13)"/>
      <rect class="cls-8" x="17.79" y="423.1" width="5.87" height="8.21" rx="1.17" ry="1.17" transform="translate(-350.01 640.48) rotate(-117.13)"/>
      <rect class="cls-8" x="8.24" y="428.25" width="5.87" height="8.21" rx="1.17" ry="1.17" transform="translate(-368.51 639.48) rotate(-117.13)"/>
      <rect class="cls-11" x="83.55" y="14.61" width="30.69" height="256.44" transform="translate(-62.55 78.68) rotate(-33.63)"/>
      <rect class="cls-3" x="15.06" y="20.52" width="9.03" height="12.64" rx="1.81" ry="1.81" transform="translate(-11.59 15.33) rotate(-33.63)"/>
      <rect class="cls-8" x="8.88" y="10.75" width="5.87" height="8.21" rx="1.17" ry="1.17" transform="translate(-6.25 9.03) rotate(-33.63)"/>
      <rect class="cls-8" x="2.68" y="1.84" width="5.87" height="8.21" rx="1.17" ry="1.17" transform="translate(-2.35 4.11) rotate(-33.63)"/>
      <path class="cls-7" d="M285.41,118.98l7.42-1.69c8.84-2.01,10.63-12.36,10.49-21.11-.06-3.9-1.08-7.73-2.93-11.16l-10.89-20.33c-4.1-7.82-13.11-12.63-22.91-12.23h0"/>
      <g>
        <path class="cls-2" d="M205.89,102.57c.12.27.25.55.39.81"/>
        <path class="cls-6" d="M207.19,105c2.77,4.42,7.25,7.82,12.93,9.02l8.63,1.83"/>
        <line class="cls-2" x1="229.66" y1="116.05" x2="230.55" y2="116.23"/>
      </g>
      <polyline class="cls-9" points="282.44 158.4 237.14 158.22 235.36 157.79 234.21 150.44"/>
      <path class="cls-12" d="M172.91,141.79s33.55-31.15,87.98-26.25c33.7,3.03,74.71,40.89,74.71,40.89l4.1-45.61c4.03-44.74-29.29-84.64-74.03-88.66h0c-44.74-4.03-84.64,29.29-88.66,74.03l-4.1,45.61Z"/>
      <path class="cls-11" d="M174.43,124.84s33.55-31.15,87.98-26.25c33.7,3.03,74.71,40.89,74.71,40.89l4.1-45.61c4.03-44.74-29.29-84.64-74.03-88.66h0c-44.74-4.03-84.64,29.29-88.66,74.03l-4.1,45.61Z"/>
      <circle class="cls-13" cx="280.4" cy="100.56" r="4.58"/>
      <circle class="cls-13" cx="231.8" cy="96.18" r="4.58"/>
    </g>
  </g>
</svg>