<?xml version="1.0" encoding="UTF-8"?>
<svg id="Layer_2" data-name="Layer 2" xmlns="http://www.w3.org/2000/svg" xmlns:xlink="http://www.w3.org/1999/xlink" viewBox="0 0 449.1 562.4">
  <defs>
    <style>
      .cls-1, .cls-2 {
        fill: #fff;
      }

      .cls-1, .cls-2, .cls-3, .cls-4, .cls-5, .cls-6, .cls-7, .cls-8, .cls-9 {
        stroke-miterlimit: 10;
      }

      .cls-1, .cls-2, .cls-3, .cls-4, .cls-8, .cls-9 {
        stroke: #000;
      }

      .cls-1, .cls-8 {
        stroke-width: 3.23px;
      }

      .cls-10 {
        fill: aqua;
      }

      .cls-10, .cls-11, .cls-12, .cls-13, .cls-14 {
        stroke-width: 0px;
      }

      .cls-2, .cls-4, .cls-5, .cls-6, .cls-7 {
        stroke-width: 4.04px;
      }

      .cls-3 {
        stroke-width: 2.42px;
      }

      .cls-3, .cls-12, .cls-8, .cls-9 {
        fill: #eaeaea;
      }

      .cls-4, .cls-5, .cls-6, .cls-7 {
        fill: none;
      }

      .cls-15 {
        filter: url(#drop-shadow-1);
      }

      .cls-11, .cls-13 {
        fill: #000;
      }

      .cls-13 {
        opacity: .6;
      }

      .cls-5 {
        stroke: #848484;
        stroke-dasharray: 0 1.62;
      }

      .cls-6 {
        stroke-dasharray: 0 0 1.66 1.66;
      }

      .cls-6, .cls-7 {
        stroke: #4d4d4d;
      }

      .cls-14 {
        fill: red;
      }

      .cls-9 {
        stroke-width: 2.83px;
      }
    </style>
    <filter id="drop-shadow-1" filterUnits="userSpaceOnUse">
      <feOffset dx="6.83" dy="4.78"/>
      <feGaussianBlur result="blur" stdDeviation="6.83"/>
      <feFlood flood-color="#000" flood-opacity=".5"/>
      <feComposite in2="blur" operator="in"/>
      <feComposite in="SourceGraphic"/>
    </filter>
  </defs>
  <g id="Layer_1-2" data-name="Layer 1">
    <g class="cls-15">
      <g>
        <path class="cls-11" d="M156.94,4.01h112.35c9.67,0,17.53,7.85,17.53,17.53v122.36c0,40.36-32.77,73.13-73.13,73.13h0c-40.36,0-73.13-32.77-73.13-73.13V20.38c0-9.03,7.34-16.37,16.37-16.37Z" transform="translate(409.02 250.97) rotate(-171.63)"/>
        <g>
          <g>
            <rect class="cls-1" x="198.27" y="171.5" width="8.08" height="66.27" transform="translate(372.68 436.55) rotate(-171.63)"/>
            <circle class="cls-1" cx="196.43" cy="244.62" r="8.89"/>
          </g>
          <g>
            <rect class="cls-8" x="178.4" y="462.57" width="8.08" height="66.27" transform="translate(74.11 -21.28) rotate(8.37)"/>
            <circle class="cls-8" cx="188.33" cy="455.73" r="8.89"/>
          </g>
          <polygon class="cls-11" points="128.51 190.95 276.93 212.79 248.76 404.25 176.8 383.94 99.88 385.59 128.51 190.95"/>
          <polygon class="cls-11" points="194.98 504.91 167.79 500.91 183.03 342.53 210.22 346.53 194.98 504.91"/>
          <g>
            <path class="cls-12" d="M224.69,113.62l21.55,1.96c12.87,1.17,23.31-10.28,20.95-22.99l-8.58-46.23c-1.87-10.06-9.93-17.83-20.05-19.32l-31.62-4.65c-8.26-1.22-16.37,2.97-20.18,10.4l-27.52,53.81c-4.77,9.32,1.03,20.56,11.39,22.09l20.21,1.84"/>
            <path class="cls-12" d="M239.42,114.96l-3.95,48.74c-.2,3.89-2.1,7.5-5.22,9.83-2.87,2.15-6.6,3.73-10.39,4.65-3.79.93-7.65,1.21-10.78.75-9.58-1.41-17.17-8.83-18.79-18.38l-8.08-50.79"/>
            <path class="cls-4" d="M224.69,113.62l21.55,1.96c12.87,1.17,23.31-10.28,20.95-22.99l-8.58-46.23c-1.87-10.06-9.93-17.83-20.05-19.32l-31.62-4.65c-8.26-1.22-16.37,2.97-20.18,10.4l-27.52,53.81c-4.77,9.32,1.03,20.56,11.39,22.09l20.21,1.84"/>
            <path class="cls-4" d="M239.42,114.96l-3.95,48.74c-.2,3.89-2.1,7.5-5.22,9.83-2.87,2.15-6.6,3.73-10.39,4.65-3.79.93-7.65,1.21-10.78.75-9.58-1.41-17.17-8.83-18.79-18.38l-8.08-50.79"/>
            <path class="cls-11" d="M238.42,97.22l5.33-.9c6.36-1.08,8.04-8.35,8.29-14.57.11-2.77-.46-5.53-1.63-8.04l-6.92-14.87c-2.6-5.72-8.8-9.49-15.77-9.6h0c-5.85-.09-10.72,4.02-10.91,9.2l-.8,21.83c-.39,10.73,10.5,18.97,22.41,16.95Z"/>
            <g>
              <rect class="cls-11" x="206.12" y="99.04" width="8.08" height="19.4" rx="4.04" ry="4.04" transform="translate(-22.67 150.94) rotate(-37.63)"/>
              <rect class="cls-11" x="200.6" y="99.78" width="8.08" height="19.4" rx="4.04" ry="4.04" transform="translate(57.07 -69.65) rotate(22.37)"/>
            </g>
            <path class="cls-11" d="M184.21,91.13l7.64,2.08c6.51,1.77,13.18-2.22,14.7-8.79l6.93-29.91c.72-3.09-1.11-6.2-4.16-7.08l-5-1.44c-7.24-2.09-15,.84-19.05,7.19l-9.8,15.37c-5.45,8.55-1.05,19.93,8.73,22.59Z"/>
            <path class="cls-11" d="M204.28,137.81h6.47v6.87c0,.67-.54,1.21-1.21,1.21h-2.83c-1.34,0-2.42-1.09-2.42-2.42v-5.66h0Z" transform="translate(6.04 -8.46) rotate(2.37)"/>
            <path class="cls-11" d="M215.44,137.76h2.83c.67,0,1.21.54,1.21,1.21v6.87h-6.47v-5.66c0-1.34,1.09-2.42,2.42-2.42Z" transform="translate(434.03 281.21) rotate(179.37)"/>
            <path class="cls-11" d="M226.49,137.49h2.35c.56,0,1.01.45,1.01,1.01v5.7h-5.37v-4.7c0-1.11.9-2.01,2.01-2.01Z" transform="translate(455.86 279.19) rotate(179.37)"/>
            <circle class="cls-11" cx="212.69" cy="170.47" r="4.04"/>
          </g>
          <g>
            <path class="cls-2" d="M162.72,523.4h51.11c10.15,0,18.39,8.24,18.39,18.39v10.7h-67.62c-1.04,0-1.88-.84-1.88-1.88v-27.21h0Z" transform="translate(80.41 -23.02) rotate(8.37)"/>
            <line class="cls-4" x1="209.98" y1="525.09" x2="177.88" y2="548.95"/>
            <line class="cls-4" x1="219.58" y1="526.5" x2="187.47" y2="550.36"/>
            <line class="cls-4" x1="200.39" y1="523.67" x2="168.28" y2="547.54"/>
          </g>
          <g>
            <g>
              <rect class="cls-8" x="107.96" y="446.35" width="8.08" height="66.27" transform="translate(398.46 79) rotate(48.72)"/>
              <circle class="cls-8" cx="142.37" cy="452.83" r="8.89"/>
            </g>
            <polygon class="cls-11" points="116.67 495.83 98.54 475.18 220.69 374.23 238.82 394.88 116.67 495.83"/>
            <g>
              <path class="cls-2" d="M63.48,509.29h51.11c10.15,0,18.39,8.24,18.39,18.39v10.7h-67.62c-1.04,0-1.88-.84-1.88-1.88v-27.21h0Z" transform="translate(427.11 104.43) rotate(48.72)"/>
              <line class="cls-4" x1="116.1" y1="522.13" x2="76.18" y2="519.54"/>
              <line class="cls-4" x1="122.5" y1="529.42" x2="82.58" y2="526.83"/>
              <line class="cls-4" x1="109.7" y1="514.85" x2="69.78" y2="512.25"/>
            </g>
          </g>
          <g>
            <rect class="cls-11" x="65.92" y="35.98" width="27.48" height="187.41" transform="translate(220.95 186.23) rotate(143.37)"/>
            <g>
              <rect class="cls-9" x="14.44" y="39.03" width="8.08" height="11.31" rx="1.62" ry="1.62" transform="translate(59.98 69.53) rotate(143.37)"/>
              <rect class="cls-3" x="8.1" y="30.85" width="5.25" height="7.35" rx="1.05" ry="1.05" transform="translate(39.94 55.83) rotate(143.37)"/>
              <rect class="cls-3" x="2.47" y="22.93" width="5.25" height="7.35" rx="1.05" ry="1.05" transform="translate(25.06 44.92) rotate(143.37)"/>
            </g>
          </g>
          <g>
            <rect class="cls-11" x="326.97" y="83.91" width="27.48" height="187.41" transform="translate(401.46 557.01) rotate(-126.63)"/>
            <g>
              <rect class="cls-9" x="421.66" y="110.78" width="8.08" height="11.31" rx="1.62" ry="1.62" transform="translate(586.25 527.54) rotate(-126.63)"/>
              <rect class="cls-3" x="433.24" y="105.01" width="5.25" height="7.35" rx="1.05" ry="1.05" transform="translate(608.7 523.32) rotate(-126.63)"/>
              <rect class="cls-3" x="441.16" y="99.37" width="5.25" height="7.35" rx="1.05" ry="1.05" transform="translate(625.86 520.68) rotate(-126.63)"/>
            </g>
          </g>
          <path class="cls-5" d="M240.39,103.4l6.71-1.14c8-1.36,10.12-10.51,10.44-18.34.14-3.49-.58-6.96-2.05-10.13l-8.71-18.72c-3.27-7.2-11.08-11.95-19.86-12.08h0"/>
          <g>
            <path class="cls-7" d="M170.13,84.72c.1.25.2.5.31.75"/>
            <path class="cls-6" d="M171.17,86.96c2.25,4.09,6.09,7.36,11.1,8.72l7.62,2.07"/>
            <line class="cls-7" x1="190.7" y1="97.97" x2="191.48" y2="98.18"/>
          </g>
          <polyline class="cls-4" points="235.74 138.49 195.25 136.04 193.69 135.57 193.03 128.94"/>
        </g>
        <path class="cls-13" d="M138.66,118.12s31.57-26.15,79.97-19.03c29.97,4.41,64.72,40.32,64.72,40.32l5.97-40.56c5.85-39.79-21.91-77.14-61.7-82.99h0c-39.79-5.85-77.14,21.91-82.99,61.7l-5.97,40.56Z"/>
        <path class="cls-11" d="M140.88,103.04s31.57-26.15,79.97-19.03c29.97,4.41,64.72,40.32,64.72,40.32l5.97-40.56c5.85-39.79-21.91-77.14-61.7-82.99h0c-39.79-5.85-77.14,21.91-82.99,61.7l-5.97,40.56Z"/>
      </g>
      <circle class="cls-10" cx="235.75" cy="81.81" r="4.1"/>
      <circle class="cls-14" cx="192.52" cy="75.45" r="4.1"/>
    </g>
  </g>
</svg>