<?xml version="1.0" encoding="UTF-8"?>
<svg id="Layer_2" data-name="Layer 2" xmlns="http://www.w3.org/2000/svg" viewBox="0 0 399 610.49">
  <defs>
    <style>
      .cls-1 {
        fill: aqua;
      }

      .cls-1, .cls-2, .cls-3, .cls-4, .cls-5 {
        stroke-width: 0px;
      }

      .cls-6, .cls-7, .cls-8, .cls-9, .cls-10, .cls-11, .cls-12, .cls-13, .cls-14 {
        stroke-miterlimit: 10;
      }

      .cls-6, .cls-7, .cls-8, .cls-9, .cls-13 {
        stroke-width: 4.25px;
      }

      .cls-6, .cls-9, .cls-10, .cls-11, .cls-12, .cls-14 {
        stroke: #000;
      }

      .cls-6, .cls-11 {
        fill: #fff;
      }

      .cls-2, .cls-4 {
        fill: #000;
      }

      .cls-3, .cls-10, .cls-12, .cls-14 {
        fill: #eaeaea;
      }

      .cls-7 {
        stroke-dasharray: 0 0 1.75 1.75;
      }

      .cls-7, .cls-8 {
        stroke: #4d4d4d;
      }

      .cls-7, .cls-8, .cls-9, .cls-13 {
        fill: none;
      }

      .cls-4 {
        opacity: .6;
      }

      .cls-10, .cls-11 {
        stroke-width: 3.4px;
      }

      .cls-12 {
        stroke-width: 2.98px;
      }

      .cls-5 {
        fill: red;
      }

      .cls-13 {
        stroke: #848484;
        stroke-dasharray: 0 1.7;
      }

      .cls-14 {
        stroke-width: 2.55px;
      }
    </style>
  </defs>
  <g id="Layer_1-2" data-name="Layer 1">
    <g>
      <circle class="cls-11" cx="293.27" cy="258.9" r="9.35"/>
      <g>
        <rect class="cls-10" x="303.78" y="506.18" width="8.5" height="80.07"/>
        <polygon class="cls-2" points="322.49 559.03 293.58 559.05 294.39 400.19 323.3 400.17 322.49 559.03"/>
        <path class="cls-6" d="M293.61,577.73h53.77c10.68,0,19.35,8.67,19.35,19.35v11.26h-71.14c-1.09,0-1.98-.89-1.98-1.98v-28.63h0Z"/>
        <line class="cls-9" x1="341.21" y1="577.72" x2="311.48" y2="607.5"/>
        <line class="cls-9" x1="351.41" y1="577.72" x2="321.68" y2="607.5"/>
        <line class="cls-9" x1="331.01" y1="577.73" x2="301.27" y2="607.51"/>
      </g>
      <g>
        <rect class="cls-10" x="266.46" y="506.18" width="8.5" height="80.07"/>
        <polygon class="cls-2" points="285.17 559.03 256.27 559.05 257.07 400.19 285.98 400.17 285.17 559.03"/>
        <path class="cls-6" d="M256.29,577.73h53.77c10.68,0,19.35,8.67,19.35,19.35v11.26h-71.14c-1.09,0-1.98-.89-1.98-1.98v-28.63h0Z"/>
        <line class="cls-9" x1="303.89" y1="577.72" x2="274.16" y2="607.5"/>
        <line class="cls-9" x1="314.1" y1="577.72" x2="284.36" y2="607.5"/>
        <line class="cls-9" x1="293.69" y1="577.73" x2="263.95" y2="607.51"/>
      </g>
      <g>
        <rect class="cls-2" x="370.09" y="213.77" width="28.91" height="199.01" transform="translate(769.09 626.55) rotate(180)"/>
        <rect class="cls-12" x="381.99" y="418.4" width="8.5" height="11.9" rx="1.7" ry="1.7" transform="translate(772.49 848.7) rotate(180)"/>
        <rect class="cls-14" x="383.31" y="433.93" width="5.53" height="7.74" rx="1.11" ry="1.11" transform="translate(772.16 875.6) rotate(180)"/>
        <rect class="cls-14" x="383.53" y="444.15" width="5.53" height="7.74" rx="1.11" ry="1.11" transform="translate(772.58 896.04) rotate(180)"/>
      </g>
      <g>
        <path class="cls-2" d="M230.88,4.64h118.2c10.18,0,18.44,8.26,18.44,18.44v128.73c0,42.46-34.47,76.93-76.93,76.93h0c-42.46,0-76.93-34.47-76.93-76.93V21.86c0-9.5,7.72-17.22,17.22-17.22Z" transform="translate(581.26 233.16) rotate(179.96)"/>
        <rect class="cls-11" x="288.98" y="181.53" width="8.5" height="69.72" transform="translate(586.63 432.56) rotate(179.96)"/>
        <path class="cls-3" d="M302.51,118.22l22.73-1.28c13.58-.76,22.67-14.28,18.26-27.14l-16.05-46.79c-3.49-10.19-13.07-17.02-23.84-17.02l-33.62.03c-8.78,0-16.58,5.61-19.4,13.93l-20.35,60.24c-3.52,10.43,4.24,21.24,15.25,21.23l21.31-1.2"/>
        <path class="cls-3" d="M318.05,117.35l3.39,51.33c.39,4.08-1.03,8.13-3.92,11.03-2.66,2.68-6.3,4.89-10.1,6.44-3.8,1.55-7.77,2.43-11.11,2.44-10.19,0-19.22-6.54-22.38-16.23l-16.22-51.62"/>
        <path class="cls-9" d="M302.51,118.22l22.73-1.28c13.58-.76,22.67-14.28,18.26-27.14l-16.05-46.79c-3.49-10.19-13.07-17.02-23.84-17.02l-33.62.03c-8.78,0-16.58,5.61-19.4,13.93l-20.35,60.24c-3.52,10.43,4.24,21.24,15.25,21.23l21.31-1.2"/>
        <path class="cls-9" d="M318.05,117.35l3.39,51.33c.39,4.08-1.03,8.13-3.92,11.03-2.66,2.68-6.3,4.89-10.1,6.44-3.8,1.55-7.77,2.43-11.11,2.44-10.19,0-19.22-6.54-22.38-16.23l-16.22-51.62"/>
        <path class="cls-2" d="M314.27,99.04l5.41-1.76c6.45-2.1,7.08-9.92,6.39-16.43-.31-2.9-1.33-5.68-2.93-8.12l-9.49-14.41c-3.59-5.55-10.62-8.52-17.89-7.56h0c-6.1.81-10.54,5.83-9.94,11.26l2.53,22.84c1.24,11.23,13.85,18.12,25.93,14.19Z"/>
        <rect class="cls-2" x="282.39" y="105.18" width="8.5" height="20.41" rx="4.25" ry="4.25" transform="translate(4.62 241.64) rotate(-46.04)"/>
        <rect class="cls-2" x="276.76" y="106.8" width="8.5" height="20.41" rx="4.25" ry="4.25" transform="translate(36.52 -64.32) rotate(13.96)"/>
        <path class="cls-2" d="M256.93,101.05l8.28.99c7.04.84,13.38-4.34,13.95-11.41l2.6-32.19c.27-3.33-2.11-6.28-5.42-6.73l-5.43-.73c-7.86-1.06-15.48,3.18-18.72,10.42l-7.83,17.5c-4.35,9.73,1.98,20.9,12.56,22.16Z"/>
        <path class="cls-2" d="M285.58,146h6.8v7.23c0,.7-.57,1.28-1.28,1.28h-2.98c-1.41,0-2.55-1.14-2.55-2.55v-5.95h0Z" transform="translate(-14.21 31.26) rotate(-6.04)"/>
        <path class="cls-2" d="M297.21,144.6h2.98c.7,0,1.28.57,1.28,1.28v7.23h-6.8v-5.95c0-1.41,1.14-2.55,2.55-2.55Z" transform="translate(615.81 249) rotate(170.96)"/>
        <path class="cls-2" d="M308.57,142.65h2.47c.58,0,1.06.47,1.06,1.06v6h-5.65v-4.94c0-1.17.95-2.12,2.12-2.12Z" transform="translate(637.68 241.93) rotate(170.96)"/>
        <circle class="cls-2" cx="298.78" cy="179.23" r="4.25"/>
        <path class="cls-13" d="M317.27,105.18l6.81-2.22c8.12-2.64,8.92-12.5,8.04-20.69-.39-3.65-1.67-7.16-3.69-10.22l-11.95-18.15c-4.52-6.99-13.37-10.73-22.53-9.52h0"/>
        <g>
          <path class="cls-8" d="M241.28,96.55c.14.25.28.49.44.73"/>
          <path class="cls-7" d="M242.7,98.71c2.97,3.91,7.47,6.72,12.9,7.36l8.25.98"/>
          <line class="cls-8" x1="264.72" y1="107.17" x2="265.57" y2="107.27"/>
        </g>
        <polyline class="cls-9" points="317.83 142.4 275.33 146.09 273.63 145.84 271.92 139.04"/>
        <path class="cls-4" d="M213.67,136.15s28.82-32.08,80.3-32.11c31.87-.02,73.56,32,73.56,32l-.03-43.13c-.03-42.31-34.68-76.9-76.99-76.87h0c-42.31.03-76.9,34.68-76.87,76.99l.03,43.13Z"/>
        <path class="cls-2" d="M213.66,120.12s28.82-32.08,80.3-32.11c31.87-.02,73.56,32,73.56,32l-.03-43.13C367.45,34.56,332.81-.03,290.5,0h0c-42.31.03-76.9,34.68-76.87,76.99l.03,43.13Z"/>
        <circle class="cls-1" cx="307.66" cy="86.09" r="4.31"/>
        <circle class="cls-5" cx="261.69" cy="86.13" r="4.31"/>
      </g>
      <polygon class="cls-2" points="214.32 213.51 372.14 213.39 372.29 454.31 294.28 444.25 214.48 457.8 214.32 213.51"/>
      <g>
        <rect class="cls-2" x="125.44" y="136.85" width="28.91" height="199.01" transform="translate(-96.46 376.24) rotate(-90)"/>
        <rect class="cls-12" x="24.56" y="232.1" width="8.5" height="11.9" rx="1.7" ry="1.7" transform="translate(-209.24 266.86) rotate(-90)"/>
        <rect class="cls-14" x="12.6" y="234.02" width="5.53" height="7.74" rx="1.11" ry="1.11" transform="translate(-222.52 253.25) rotate(-90)"/>
        <rect class="cls-14" x="2.38" y="234.23" width="5.53" height="7.74" rx="1.11" ry="1.11" transform="translate(-232.95 243.24) rotate(-90)"/>
      </g>
    </g>
  </g>
</svg>