<?xml version="1.0" encoding="UTF-8"?>
<svg id="Layer_2" data-name="Layer 2" xmlns="http://www.w3.org/2000/svg" viewBox="0 0 349.65 687.16">
  <defs>
    <style>
      .cls-1 {
        fill: aqua;
      }

      .cls-1, .cls-2, .cls-3, .cls-4, .cls-5 {
        stroke-width: 0px;
      }

      .cls-6 {
        stroke: #848484;
        stroke-dasharray: 0 1.75;
      }

      .cls-6, .cls-7, .cls-8, .cls-9, .cls-10, .cls-11, .cls-12, .cls-13, .cls-14 {
        stroke-miterlimit: 10;
      }

      .cls-6, .cls-7, .cls-9, .cls-11, .cls-14 {
        stroke-width: 4.38px;
      }

      .cls-6, .cls-7, .cls-9, .cls-14 {
        fill: none;
      }

      .cls-7, .cls-9 {
        stroke: #4d4d4d;
      }

      .cls-8, .cls-10 {
        stroke-width: 3.5px;
      }

      .cls-8, .cls-10, .cls-11, .cls-12, .cls-13, .cls-14 {
        stroke: #000;
      }

      .cls-8, .cls-11 {
        fill: #fff;
      }

      .cls-9 {
        stroke-dasharray: 0 0 1.8 1.8;
      }

      .cls-2, .cls-4 {
        fill: #000;
      }

      .cls-3, .cls-10, .cls-12, .cls-13 {
        fill: #eaeaea;
      }

      .cls-4 {
        opacity: .6;
      }

      .cls-12 {
        stroke-width: 3.06px;
      }

      .cls-13 {
        stroke-width: 2.63px;
      }

      .cls-5 {
        fill: red;
      }
    </style>
  </defs>
  <g id="Layer_1-2" data-name="Layer 1">
    <g>
      <path class="cls-2" d="M19.71,4.73h121.71c10.48,0,18.99,8.51,18.99,18.99v132.55c0,43.72-35.49,79.21-79.21,79.21h0C37.48,235.49,1.98,199.99,1.98,156.27V22.46C1.98,12.68,9.93,4.73,19.71,4.73Z" transform="translate(168.11 236.15) rotate(177.23)"/>
      <rect class="cls-8" x="79.25" y="187.05" width="8.75" height="71.79" transform="translate(167.43 445.83) rotate(179.96)"/>
      <circle class="cls-8" cx="83.66" cy="266.72" r="9.63"/>
      <rect class="cls-10" x="94.49" y="565.15" width="8.75" height="97.05"/>
      <polygon class="cls-2" points="2.37 219.98 164.88 219.86 165.04 511.74 84.71 501.38 2.53 515.33 2.37 219.98"/>
      <polygon class="cls-2" points="113.76 634.17 83.99 634.19 84.82 456.01 114.59 455.99 113.76 634.17"/>
      <path class="cls-3" d="M93.53,121.1l23.32-2.43c13.93-1.45,22.62-15.8,17.45-28.82l-18.8-47.34c-4.09-10.3-14.28-16.87-25.36-16.33l-34.58,1.67c-9.03.44-16.78,6.58-19.27,15.28l-17.98,62.96c-3.11,10.9,5.4,21.64,16.73,21.09l21.86-2.28"/>
      <path class="cls-3" d="M109.47,119.44l6,52.63c.6,4.17-.66,8.41-3.49,11.54-2.6,2.88-6.24,5.34-10.07,7.12-3.84,1.78-7.88,2.88-11.3,3.05-10.48.51-20.09-5.79-23.82-15.6l-19.22-52.3"/>
      <path class="cls-14" d="M93.53,121.1l23.32-2.43c13.93-1.45,22.62-15.8,17.45-28.82l-18.8-47.34c-4.09-10.3-14.28-16.87-25.36-16.33l-34.58,1.67c-9.03.44-16.78,6.58-19.27,15.28l-17.98,62.96c-3.11,10.9,5.4,21.64,16.73,21.09l21.86-2.28"/>
      <path class="cls-14" d="M109.47,119.44l6,52.63c.6,4.17-.66,8.41-3.49,11.54-2.6,2.88-6.24,5.34-10.07,7.12-3.84,1.78-7.88,2.88-11.3,3.05-10.48.51-20.09-5.79-23.82-15.6l-19.22-52.3"/>
      <path class="cls-2" d="M104.69,100.8l5.48-2.08c6.53-2.47,6.8-10.56,5.76-17.22-.46-2.97-1.65-5.78-3.42-8.21l-10.47-14.36c-3.96-5.53-11.34-8.24-18.77-6.9h0c-6.24,1.13-10.56,6.52-9.67,12.07l3.72,23.37c1.83,11.49,15.13,17.96,27.37,13.32Z"/>
      <rect class="cls-2" x="72.69" y="108.45" width="8.75" height="21.01" rx="4.38" ry="4.38" transform="translate(-63.19 98.53) rotate(-48.77)"/>
      <rect class="cls-2" x="66.98" y="110.4" width="8.75" height="21.01" rx="4.38" ry="4.38" transform="translate(24.91 -11.58) rotate(11.23)"/>
      <path class="cls-2" d="M45.81,105.68l8.56.61c7.29.52,13.55-5.12,13.79-12.42l1.1-33.24c.11-3.44-2.48-6.36-5.9-6.66l-5.62-.49c-8.14-.71-15.76,4.03-18.74,11.63l-7.2,18.39c-4,10.22,3.06,21.4,14.01,22.18Z"/>
      <path class="cls-2" d="M77.68,150.33h7v7.44c0,.72-.59,1.31-1.31,1.31h-3.06c-1.45,0-2.63-1.18-2.63-2.63v-6.13h0Z" transform="translate(-22.65 14.19) rotate(-8.77)"/>
      <path class="cls-2" d="M89.58,148.44h3.06c.72,0,1.31.59,1.31,1.31v7.44h-7v-6.13c0-1.45,1.18-2.63,2.63-2.63Z" transform="translate(210.19 283.97) rotate(168.23)"/>
      <path class="cls-2" d="M101.14,145.89h2.54c.6,0,1.09.49,1.09,1.09v6.18h-5.81v-5.09c0-1.2.98-2.18,2.18-2.18Z" transform="translate(232.09 275.12) rotate(168.23)"/>
      <circle class="cls-2" cx="96.32" cy="183.43" r="4.38"/>
      <path class="cls-11" d="M84.02,653.42h55.37c11,0,19.93,8.93,19.93,19.93v11.59h-73.25c-1.13,0-2.04-.91-2.04-2.04v-29.48h0Z"/>
      <line class="cls-14" x1="133.03" y1="653.42" x2="102.41" y2="684.08"/>
      <line class="cls-14" x1="143.54" y1="653.41" x2="112.92" y2="684.07"/>
      <line class="cls-14" x1="122.53" y1="653.42" x2="91.91" y2="684.09"/>
      <rect class="cls-10" x="56.06" y="565.15" width="8.75" height="97.05"/>
      <polygon class="cls-2" points="75.33 634.17 45.56 634.19 46.39 456.01 76.16 455.99 75.33 634.17"/>
      <path class="cls-11" d="M45.59,653.42h55.37c11,0,19.93,8.93,19.93,19.93v11.59H47.63c-1.13,0-2.04-.91-2.04-2.04v-29.48h0Z"/>
      <line class="cls-14" x1="94.6" y1="653.42" x2="63.98" y2="684.08"/>
      <line class="cls-14" x1="105.11" y1="653.41" x2="74.49" y2="684.07"/>
      <line class="cls-14" x1="84.1" y1="653.42" x2="53.48" y2="684.09"/>
      <rect class="cls-2" x="224.63" y="14.59" width="29.77" height="248.72" transform="translate(150.95 -123.41) rotate(41.23)"/>
      <rect class="cls-12" x="323.64" y="29.17" width="8.75" height="12.26" rx="1.75" ry="1.75" transform="translate(104.58 -207.43) rotate(41.23)"/>
      <rect class="cls-13" x="334.42" y="21.01" width="5.69" height="7.97" rx="1.14" ry="1.14" transform="translate(100.08 -216.08) rotate(41.23)"/>
      <rect class="cls-13" x="341.19" y="12.95" width="5.69" height="7.97" rx="1.14" ry="1.14" transform="translate(96.45 -222.54) rotate(41.23)"/>
      <rect class="cls-2" x="162.21" y="202.57" width="29.77" height="248.72" transform="translate(547.64 357.53) rotate(123.16)"/>
      <rect class="cls-12" x="287.75" y="393.89" width="8.75" height="12.26" rx="1.75" ry="1.75" transform="translate(786.79 374.29) rotate(123.16)"/>
      <rect class="cls-13" x="300.78" y="403.75" width="5.69" height="7.97" rx="1.14" ry="1.14" transform="translate(811.03 376.6) rotate(123.16)"/>
      <rect class="cls-13" x="309.71" y="409.32" width="5.69" height="7.97" rx="1.14" ry="1.14" transform="translate(829.52 377.75) rotate(123.16)"/>
      <path class="cls-6" d="M108.07,106.96l6.9-2.61c8.22-3.12,8.56-13.29,7.26-21.68-.58-3.74-2.07-7.28-4.3-10.33l-13.18-18.08c-4.99-6.96-14.28-10.38-23.64-8.69h0"/>
      <g>
        <path class="cls-7" d="M29.49,101.81c.16.25.32.49.48.73"/>
        <path class="cls-9" d="M31.06,103.97c3.25,3.88,8.01,6.54,13.62,6.94l8.53.61"/>
        <line class="cls-7" x1="54.13" y1="111.58" x2="55" y2="111.65"/>
      </g>
      <polyline class="cls-14" points="110.48 145.22 66.94 151.1 65.18 150.92 63.09 144.01"/>
      <path class="cls-4" d="M3.04,143.89s28.07-34.4,81.02-36.97c32.77-1.59,77.23,29.3,77.23,29.3l-2.15-44.36c-2.11-43.52-39.44-77.4-82.95-75.29h0C32.66,18.68-1.22,56.01.89,99.53l2.15,44.36Z"/>
      <path class="cls-2" d="M2.24,127.41s28.07-34.4,81.02-36.97c32.77-1.59,77.23,29.3,77.23,29.3l-2.15-44.36C156.23,31.87,118.9-2.01,75.38.09h0C31.87,2.2-2.01,39.53.09,83.05l2.15,44.36Z"/>
      <circle class="cls-1" cx="101.11" cy="89.91" r="4.44"/>
      <circle class="cls-5" cx="53.83" cy="92.2" r="4.44"/>
    </g>
  </g>
</svg>