<?xml version="1.0" encoding="UTF-8"?>
<svg id="Layer_2" data-name="Layer 2" xmlns="http://www.w3.org/2000/svg" viewBox="0 0 266.73 590.86">
  <defs>
    <style>
      .cls-1 {
        stroke-width: 2.17px;
      }

      .cls-1, .cls-2, .cls-3, .cls-4, .cls-5, .cls-6, .cls-7, .cls-8, .cls-9 {
        stroke-miterlimit: 10;
      }

      .cls-1, .cls-10, .cls-5, .cls-6 {
        fill: #eaeaea;
      }

      .cls-1, .cls-4, .cls-5, .cls-6, .cls-8, .cls-9 {
        stroke: #000;
      }

      .cls-2, .cls-3 {
        stroke: #4d4d4d;
      }

      .cls-2, .cls-3, .cls-4, .cls-7, .cls-9 {
        stroke-width: 3.62px;
      }

      .cls-2, .cls-3, .cls-7, .cls-9 {
        fill: none;
      }

      .cls-3 {
        stroke-dasharray: 0 0 1.48 1.48;
      }

      .cls-11, .cls-10, .cls-12, .cls-13 {
        stroke-width: 0px;
      }

      .cls-11, .cls-12 {
        fill: #000;
      }

      .cls-4, .cls-8 {
        fill: #fff;
      }

      .cls-12 {
        opacity: .6;
      }

      .cls-13 {
        fill: red;
      }

      .cls-5, .cls-8 {
        stroke-width: 2.89px;
      }

      .cls-6 {
        stroke-width: 2.53px;
      }

      .cls-7 {
        stroke: #848484;
        stroke-dasharray: 0 1.45;
      }
    </style>
  </defs>
  <g id="Layer_1-2" data-name="Layer 1">
    <g>
      <path class="cls-11" d="M91.71,28.71h100.53c8.66,0,15.68,7.03,15.68,15.68v109.49c0,36.11-29.32,65.43-65.43,65.43h0c-36.11,0-65.43-29.32-65.43-65.43V43.36c0-8.08,6.56-14.65,14.65-14.65Z" transform="translate(273.29 260.3) rotate(-174.86)"/>
      <rect class="cls-8" x="135.26" y="177.78" width="7.23" height="59.3" transform="translate(277.91 414.76) rotate(179.96)"/>
      <circle class="cls-8" cx="138.9" cy="243.59" r="7.95"/>
      <rect class="cls-5" x="147.85" y="490.08" width="7.23" height="80.16"/>
      <polygon class="cls-11" points="71.76 204.98 205.99 204.88 206.12 445.96 139.77 437.41 71.89 448.93 71.76 204.98"/>
      <polygon class="cls-11" points="163.76 547.09 139.17 547.11 139.86 399.94 164.45 399.92 163.76 547.09"/>
      <path class="cls-10" d="M152.47,126.23l19.35.67c11.56.4,20.3-10.35,17.55-21.59l-10-40.87c-2.18-8.9-9.77-15.42-18.89-16.24l-28.48-2.56c-7.44-.67-14.48,3.48-17.5,10.31l-21.87,49.46c-3.79,8.56,1.96,18.32,11.29,19.16l18.15.62"/>
      <path class="cls-10" d="M165.7,126.68l-1.07,43.74c.01,3.48-1.5,6.81-4.16,9.04-2.46,2.06-5.71,3.66-9.05,4.68-3.34,1.02-6.77,1.46-9.59,1.21-8.63-.78-15.78-7.02-17.71-15.47l-9.77-44.97"/>
      <path class="cls-9" d="M152.47,126.23l19.35.67c11.56.4,20.3-10.35,17.55-21.59l-10-40.87c-2.18-8.9-9.77-15.42-18.89-16.24l-28.48-2.56c-7.44-.67-14.48,3.48-17.5,10.31l-21.87,49.46c-3.79,8.56,1.96,18.32,11.29,19.16l18.15.62"/>
      <path class="cls-9" d="M165.7,126.68l-1.07,43.74c.01,3.48-1.5,6.81-4.16,9.04-2.46,2.06-5.71,3.66-9.05,4.68-3.34,1.02-6.77,1.46-9.59,1.21-8.63-.78-15.78-7.02-17.71-15.47l-9.77-44.97"/>
      <path class="cls-11" d="M163.91,110.89l4.72-1.08c5.62-1.28,6.76-7.86,6.67-13.43-.04-2.48-.69-4.92-1.86-7.1l-6.93-12.94c-2.61-4.98-8.34-8.03-14.57-7.78h0c-5.23.21-9.38,4.13-9.29,8.77l.39,19.54c.19,9.6,10.34,16.42,20.88,14.01Z"/>
      <rect class="cls-11" x="135.63" y="113.93" width="7.23" height="17.36" rx="3.62" ry="3.62" transform="translate(-46.28 120.97) rotate(-40.86)"/>
      <rect class="cls-11" x="130.73" y="114.87" width="7.23" height="17.36" rx="3.62" ry="3.62" transform="translate(47.94 -37.22) rotate(19.14)"/>
      <path class="cls-11" d="M115.18,108.18l6.93,1.47c5.9,1.25,11.66-2.65,12.69-8.59l4.68-27.07c.48-2.8-1.31-5.48-4.07-6.12l-4.54-1.04c-6.58-1.5-13.35,1.5-16.65,7.39l-7.98,14.22c-4.44,7.91.07,17.85,8.94,19.74Z"/>
      <path class="cls-11" d="M135.65,148.7h5.79v6.15c0,.6-.49,1.08-1.08,1.08h-2.53c-1.2,0-2.17-.97-2.17-2.17v-5.06h0Z" transform="translate(-2.27 2.09) rotate(-.86)"/>
      <path class="cls-11" d="M145.62,148.21h2.53c.6,0,1.08.49,1.08,1.08v6.15h-5.79v-5.06c0-1.2.97-2.17,2.17-2.17Z" transform="translate(302.57 293.47) rotate(176.14)"/>
      <path class="cls-11" d="M155.45,147.43h2.1c.5,0,.9.4.9.9v5.1h-4.8v-4.2c0-.99.81-1.8,1.8-1.8Z" transform="translate(321.87 290.02) rotate(176.14)"/>
      <circle class="cls-11" cx="144.62" cy="177.62" r="3.62"/>
      <path class="cls-4" d="M139.19,563h45.73c9.08,0,16.46,7.37,16.46,16.46v9.58h-60.51c-.93,0-1.69-.76-1.69-1.69v-24.35h0Z"/>
      <line class="cls-9" x1="179.68" y1="562.99" x2="154.39" y2="588.32"/>
      <line class="cls-9" x1="188.36" y1="562.98" x2="163.07" y2="588.31"/>
      <line class="cls-9" x1="171" y1="563" x2="145.71" y2="588.33"/>
      <rect class="cls-5" x="116.11" y="490.08" width="7.23" height="80.16"/>
      <polygon class="cls-11" points="132.02 547.09 107.43 547.11 108.12 399.94 132.71 399.92 132.02 547.09"/>
      <path class="cls-4" d="M107.45,563h45.73c9.08,0,16.46,7.37,16.46,16.46v9.58h-60.51c-.93,0-1.69-.76-1.69-1.69v-24.35h0Z"/>
      <line class="cls-9" x1="147.94" y1="562.99" x2="122.65" y2="588.32"/>
      <line class="cls-9" x1="156.62" y1="562.98" x2="131.33" y2="588.31"/>
      <line class="cls-9" x1="139.26" y1="563" x2="113.97" y2="588.33"/>
      <rect class="cls-11" x="216.02" y="30.51" width="24.59" height="205.44" transform="translate(42.19 -54.48) rotate(14.98)"/>
      <rect class="cls-6" x="252.39" y="19.05" width="7.23" height="10.12" rx="1.45" ry="1.45" transform="translate(14.93 -65.34) rotate(14.98)"/>
      <rect class="cls-1" x="256.74" y="9.81" width="4.7" height="6.58" rx=".94" ry=".94" transform="translate(12.19 -66.52) rotate(14.98)"/>
      <rect class="cls-1" x="258.82" y="1.37" width="4.7" height="6.58" rx=".94" ry=".94" transform="translate(10.08 -67.34) rotate(14.98)"/>
      <rect class="cls-11" x="39.74" y="35.64" width="24.59" height="205.44" transform="translate(-45.16 26.99) rotate(-20.5)"/>
      <rect class="cls-6" x="7.64" y="28.37" width="7.23" height="10.12" rx="1.45" ry="1.45" transform="translate(-11 6.06) rotate(-20.5)"/>
      <rect class="cls-1" x="5.03" y="19.38" width="4.7" height="6.58" rx=".94" ry=".94" transform="translate(-7.47 4.02) rotate(-20.5)"/>
      <rect class="cls-1" x="1.82" y="11.3" width="4.7" height="6.58" rx=".94" ry=".94" transform="translate(-4.85 2.38) rotate(-20.5)"/>
      <path class="cls-7" d="M165.97,116.31l5.94-1.35c7.08-1.61,8.51-9.9,8.4-16.91-.05-3.13-.87-6.19-2.34-8.94l-8.73-16.29c-3.29-6.27-10.5-10.12-18.35-9.79h0"/>
      <g>
        <path class="cls-2" d="M102.27,103.17c.1.22.2.44.31.65"/>
        <path class="cls-3" d="M103.31,105.11c2.22,3.54,5.81,6.26,10.36,7.23l6.91,1.47"/>
        <line class="cls-2" x1="121.31" y1="113.96" x2="122.02" y2="114.11"/>
      </g>
      <polyline class="cls-9" points="163.59 147.89 127.3 147.75 125.88 147.4 124.96 141.51"/>
      <path class="cls-12" d="M75.84,134.59s26.88-24.95,70.48-21.03c26.99,2.43,59.85,32.76,59.85,32.76l3.29-36.54c3.22-35.84-23.46-67.8-59.3-71.03h0c-35.84-3.22-67.8,23.46-71.03,59.3l-3.29,36.54Z"/>
      <path class="cls-11" d="M77.07,121.01s26.88-24.95,70.48-21.03c26.99,2.43,59.85,32.76,59.85,32.76l3.29-36.54c3.22-35.84-23.46-67.8-59.3-71.03h0c-35.84-3.22-67.8,23.46-71.03,59.3l-3.29,36.54Z"/>
      <circle class="cls-13" cx="161.96" cy="101.55" r="3.67"/>
      <circle class="cls-13" cx="123.02" cy="98.05" r="3.67"/>
    </g>
  </g>
</svg>