<?xml version="1.0" encoding="UTF-8"?>
<svg id="Layer_2" data-name="Layer 2" xmlns="http://www.w3.org/2000/svg" viewBox="0 0 81.09 83">
  <defs>
    <style>
      .cls-1 {
        fill: #fff;
      }

      .cls-2 {
        fill: #05d690;
      }

      .cls-3 {
        fill: red;
      }

      .cls-4 {
        fill: #1a1a1a;
      }
    </style>
  </defs>
  <g id="Layer_4" data-name="Layer 4">
    <g>
      <circle class="cls-1" cx="39.55" cy="22.42" r="22.42"/>
      <g>
        <path class="cls-4" d="M39.55,10.31h0c-6.19,0-11.21,5.02-11.21,11.21h0v11.21h22.42v-11.21h0c0-6.19-5.02-11.21-11.21-11.21Z"/>
        <rect class="cls-1" x="40.95" y="25.08" width="5.6" height="5.6" rx="2.8" ry="2.8" transform="translate(71.63 -15.87) rotate(90)"/>
        <rect class="cls-1" x="32.54" y="25.08" width="5.6" height="5.6" rx="2.8" ry="2.8" transform="translate(63.22 -7.46) rotate(90)"/>
        <rect class="cls-2" x="42.87" y="27" width="1.75" height="1.75" rx=".88" ry=".88" transform="translate(71.63 -15.87) rotate(90)"/>
        <rect class="cls-3" x="34.47" y="27" width="1.75" height="1.75" rx=".88" ry=".88" transform="translate(63.22 -7.46) rotate(90)"/>
      </g>
    </g>
    <g>
      <path class="cls-1" d="M0,82.55v-25.92h4.25v11.22c1.11-1.92,3.41-3.07,6.03-3.07,4.91,0,7.91,3.83,7.91,9.27s-3.24,8.95-8.19,8.95c-2.58,0-4.77-1.15-5.78-3.14l-.28,2.68H0ZM9.13,79.1c3,0,4.77-2.16,4.77-5.23s-1.78-5.26-4.77-5.26-4.84,2.16-4.84,5.26,1.92,5.23,4.84,5.23Z"/>
      <path class="cls-1" d="M19.51,73.94c0-5.4,3.52-9.13,8.57-9.13s8.43,3.45,8.43,8.81v1.29l-12.96.03c.31,3.03,1.92,4.56,4.74,4.56,2.33,0,3.87-.91,4.35-2.54h3.94c-.73,3.76-3.87,6.03-8.36,6.03-5.12,0-8.71-3.73-8.71-9.06ZM23.65,72.24h8.64c0-2.37-1.64-3.94-4.18-3.94s-4.04,1.36-4.46,3.94Z"/>
      <path class="cls-1" d="M37.86,73.94c0-5.4,3.52-9.13,8.57-9.13s8.43,3.45,8.43,8.81v1.29l-12.96.03c.31,3.03,1.92,4.56,4.74,4.56,2.33,0,3.87-.91,4.35-2.54h3.94c-.73,3.76-3.87,6.03-8.36,6.03-5.12,0-8.71-3.73-8.71-9.06ZM42.01,72.24h8.64c0-2.37-1.64-3.94-4.18-3.94s-4.04,1.36-4.46,3.94Z"/>
      <path class="cls-1" d="M58.66,82.55v-13.65h-3.31v-3.55h3.31v-5.36h4.25v5.36h3.34v3.55h-3.34v13.65h-4.25Z"/>
      <path class="cls-1" d="M70.92,77.32c.03,1.5,1.15,2.44,3.1,2.44s3.07-.8,3.07-2.06c0-.87-.45-1.5-1.99-1.85l-3.1-.73c-3.1-.7-4.6-2.16-4.6-4.91,0-3.38,2.86-5.4,6.83-5.4s6.48,2.23,6.51,5.57h-4.04c-.03-1.46-1.01-2.4-2.65-2.4s-2.65.77-2.65,2.06c0,.98.77,1.6,2.23,1.95l3.1.73c2.89.66,4.35,1.99,4.35,4.63,0,3.48-2.96,5.64-7.21,5.64s-7-2.3-7-5.68h4.04Z"/>
    </g>
  </g>
</svg>