<?xml version="1.0" encoding="UTF-8"?>
<svg id="Layer_1" data-name="Layer 1" xmlns="http://www.w3.org/2000/svg" viewBox="0 0 1080 325">
  <defs>
    <style>
      .cls-1 {
        fill: #fff;
      }

      .cls-2 {
        fill: #05d690;
      }

      .cls-3 {
        fill: red;
      }

      .cls-4 {
        fill: #1a1a1a;
      }
    </style>
  </defs>
  <g>
    <path class="cls-1" d="M252.14,197.38h0c0-69.04-55.96-125-125-125H2.14v250h125c69.04,0,125-55.96,125-125Z"/>
    <g>
      <rect class="cls-4" x="95.91" y="166.16" width="62.45" height="62.45" rx="31.23" ry="31.23" transform="translate(254.28 394.77) rotate(180)"/>
      <rect class="cls-2" x="117.38" y="187.63" width="19.52" height="19.52" rx="9.76" ry="9.76"/>
    </g>
  </g>
  <path class="cls-1" d="M492.99,196.89h0c0,69.04,55.96,125,125,125h65V71.89h-65c-69.04,0-125,55.96-125,125Z"/>
  <g>
    <rect class="cls-4" x="622.54" y="165.66" width="62.45" height="62.45" rx="31.23" ry="31.23"/>
    <rect class="cls-3" x="644.01" y="187.13" width="19.52" height="19.52" rx="9.76" ry="9.76"/>
  </g>
  <path class="cls-1" d="M1009.34,196.46h0c0-69.04-55.96-125-125-125h0s0,0,0,0c-69.04,0-125,55.96-125,125h0s250,0,250,0Z"/>
  <path class="cls-1" d="M692.99,196.46h0c0,69.04,55.96,125,125,125h0c69.04,0,125-55.96,125-125h0s-250,0-250,0Z"/>
  <g>
    <rect class="cls-4" x="853.11" y="132.41" width="62.45" height="62.45" rx="31.23" ry="31.23" transform="translate(1047.98 -720.7) rotate(90)"/>
    <rect class="cls-2" x="874.58" y="153.88" width="19.52" height="19.52" rx="9.76" ry="9.76"/>
  </g>
  <g>
    <rect class="cls-4" x="786.76" y="198.65" width="62.45" height="62.45" rx="31.23" ry="31.23" transform="translate(1047.87 -588.11) rotate(90)"/>
    <rect class="cls-3" x="808.23" y="220.12" width="19.52" height="19.52" rx="9.76" ry="9.76" transform="translate(1047.87 -588.11) rotate(90)"/>
  </g>
  <g>
    <path class="cls-1" d="M372.95,72.97h0c-69.04,0-125,55.96-125,125h0c0,69.04,55.96,125,125,125h0c69.04,0,125-55.96,125-125h0c0-69.04-55.96-125-125-125Z"/>
    <g>
      <rect class="cls-4" x="341.73" y="166.74" width="62.45" height="62.45" rx="31.23" ry="31.23" transform="translate(570.92 -174.98) rotate(90)"/>
      <rect class="cls-3" x="363.2" y="188.21" width="19.52" height="19.52" rx="9.76" ry="9.76" transform="translate(570.92 -174.98) rotate(90)"/>
    </g>
  </g>
  <rect class="cls-1" x="997.86" y="65.67" width="80" height="13"/>
  <rect class="cls-1" x="997.86" y="33.85" width="80" height="13"/>
  <rect class="cls-1" x="997.86" y="2.03" width="80" height="13"/>
</svg>