<?xml version="1.0" encoding="UTF-8"?>
<svg id="Layer_1" data-name="Layer 1" xmlns="http://www.w3.org/2000/svg" viewBox="0 0 1080 430">
  <defs>
    <style>
      .cls-1 {
        fill: #fff;
      }

      .cls-2 {
        fill: #05d690;
      }

      .cls-3 {
        fill: red;
      }

      .cls-4 {
        fill: #1a1a1a;
      }
    </style>
  </defs>
  <g>
    <path class="cls-1" d="M252.14,200.73h0c0-69.04-55.96-125-125-125H2.14v250h125c69.04,0,125-55.96,125-125Z"/>
    <g>
      <rect class="cls-4" x="95.91" y="169.5" width="62.45" height="62.45" rx="31.23" ry="31.23" transform="translate(254.28 401.46) rotate(180)"/>
      <rect class="cls-2" x="117.38" y="190.97" width="19.52" height="19.52" rx="9.76" ry="9.76"/>
    </g>
  </g>
  <path class="cls-1" d="M492.99,200.23h0c0,69.04,55.96,125,125,125h65V75.23h-65c-69.04,0-125,55.96-125,125Z"/>
  <g>
    <rect class="cls-4" x="622.54" y="169" width="62.45" height="62.45" rx="31.23" ry="31.23"/>
    <rect class="cls-3" x="644.01" y="190.47" width="19.52" height="19.52" rx="9.76" ry="9.76"/>
  </g>
  <path class="cls-1" d="M1009.34,199.81h0c0-69.04-55.96-125-125-125h0s0,0,0,0c-69.04,0-125,55.96-125,125h0s250,0,250,0Z"/>
  <path class="cls-1" d="M692.99,199.81h0c0,69.04,55.96,125,125,125h0c69.04,0,125-55.96,125-125h0s-250,0-250,0Z"/>
  <g>
    <rect class="cls-4" x="853.11" y="135.76" width="62.45" height="62.45" rx="31.23" ry="31.23" transform="translate(1051.32 -717.35) rotate(90)"/>
    <rect class="cls-2" x="874.58" y="157.22" width="19.52" height="19.52" rx="9.76" ry="9.76"/>
  </g>
  <g>
    <rect class="cls-4" x="786.76" y="202" width="62.45" height="62.45" rx="31.23" ry="31.23" transform="translate(1051.21 -584.76) rotate(90)"/>
    <rect class="cls-3" x="808.23" y="223.47" width="19.52" height="19.52" rx="9.76" ry="9.76" transform="translate(1051.21 -584.76) rotate(90)"/>
  </g>
  <g>
    <path class="cls-1" d="M372.95,76.32h0c-69.04,0-125,55.96-125,125h0c0,69.04,55.96,125,125,125h0c69.04,0,125-55.96,125-125h0c0-69.04-55.96-125-125-125Z"/>
    <g>
      <rect class="cls-4" x="341.73" y="170.09" width="62.45" height="62.45" rx="31.23" ry="31.23" transform="translate(574.27 -171.64) rotate(90)"/>
      <rect class="cls-3" x="363.2" y="191.56" width="19.52" height="19.52" rx="9.76" ry="9.76" transform="translate(574.27 -171.64) rotate(90)"/>
    </g>
  </g>
  <rect class="cls-1" x="997.86" y="69.02" width="80" height="13"/>
  <rect class="cls-1" x="997.86" y="37.2" width="80" height="13"/>
  <rect class="cls-1" x="997.86" y="5.38" width="80" height="13"/>
  <g>
    <path class="cls-1" d="M3.11,392.77h12.46c6.17,0,9.93,3.21,9.93,8.44,0,3.47-1.54,5.95-4.5,7.19,3.3,1.07,4.97,3.55,4.97,7.19,0,5.35-3.73,8.48-10.19,8.48H3.11v-31.3ZM8.59,397.61v8.52h6.64c3,0,4.67-1.58,4.67-4.37s-1.71-4.15-4.8-4.15h-6.51ZM8.59,410.75v8.48h6.98c3.08,0,4.8-1.5,4.8-4.32,0-2.65-1.76-4.15-4.8-4.15h-6.98Z"/>
    <path class="cls-1" d="M28.97,413.49c0-6.64,4.32-11.22,10.53-11.22s10.36,4.24,10.36,10.83v1.58l-15.93.04c.39,3.73,2.35,5.61,5.82,5.61,2.87,0,4.75-1.11,5.35-3.13h4.84c-.9,4.62-4.75,7.41-10.28,7.41-6.29,0-10.7-4.58-10.7-11.13ZM34.07,411.39h10.62c0-2.91-2.01-4.84-5.14-4.84s-4.97,1.67-5.48,4.84Z"/>
    <path class="cls-1" d="M52.82,413.49c0-6.64,4.32-11.22,10.53-11.22s10.36,4.24,10.36,10.83v1.58l-15.93.04c.39,3.73,2.35,5.61,5.82,5.61,2.87,0,4.75-1.11,5.35-3.13h4.84c-.9,4.62-4.75,7.41-10.28,7.41-6.29,0-10.7-4.58-10.7-11.13ZM57.92,411.39h10.62c0-2.91-2.01-4.84-5.14-4.84s-4.97,1.67-5.48,4.84Z"/>
    <path class="cls-1" d="M79.67,424.07v-16.78h-4.07v-4.37h4.07v-6.59h5.22v6.59h4.11v4.37h-4.11v16.78h-5.22Z"/>
    <path class="cls-1" d="M95.6,417.65c.04,1.84,1.41,3,3.81,3s3.77-.98,3.77-2.53c0-1.07-.56-1.84-2.44-2.27l-3.81-.9c-3.81-.86-5.65-2.65-5.65-6.04,0-4.15,3.51-6.64,8.39-6.64s7.96,2.74,8.01,6.85h-4.97c-.04-1.8-1.24-2.95-3.25-2.95s-3.25.94-3.25,2.53c0,1.2.94,1.97,2.74,2.4l3.81.9c3.55.81,5.35,2.44,5.35,5.69,0,4.28-3.64,6.94-8.86,6.94s-8.61-2.83-8.61-6.98h4.97Z"/>
    <path class="cls-1" d="M124.42,424.07v-31.3h10.96c9.25,0,15.63,6.38,15.63,15.71s-6.25,15.58-15.33,15.58h-11.26ZM129.9,397.82v21.19h5.27c6.25,0,10.06-4.02,10.06-10.53s-3.9-10.66-10.36-10.66h-4.97Z"/>
    <path class="cls-1" d="M165.4,402.32c6.55,0,11.3,4.54,11.3,11.13s-4.75,11.13-11.3,11.13-11.3-4.54-11.3-11.13,4.75-11.13,11.3-11.13ZM165.4,419.91c3.6,0,6.08-2.61,6.08-6.47s-2.48-6.46-6.08-6.46-6.08,2.61-6.08,6.46,2.48,6.47,6.08,6.47Z"/>
    <path class="cls-1" d="M190.2,402.27c5.78,0,9.72,3.21,10.28,8.31h-5.22c-.6-2.4-2.36-3.64-4.84-3.64-3.34,0-5.57,2.53-5.57,6.51s2.05,6.47,5.39,6.47c2.61,0,4.45-1.28,5.01-3.6h5.27c-.64,4.92-4.75,8.31-10.28,8.31-6.42,0-10.62-4.45-10.62-11.18s4.32-11.17,10.58-11.17Z"/>
    <path class="cls-1" d="M223.98,402.92v21.15h-4.84l-.38-2.83c-1.28,2.01-4.02,3.38-6.85,3.38-4.88,0-7.75-3.3-7.75-8.48v-13.23h5.22v11.39c0,4.02,1.58,5.65,4.5,5.65,3.3,0,4.88-1.93,4.88-5.95v-11.09h5.22Z"/>
    <path class="cls-1" d="M229.38,424.07v-21.15h4.8l.43,2.48c1.07-1.76,3.21-3.13,6.25-3.13,3.21,0,5.44,1.58,6.55,4.02,1.07-2.44,3.55-4.02,6.77-4.02,5.14,0,7.96,3.08,7.96,7.96v13.83h-5.18v-12.46c0-3.04-1.63-4.62-4.11-4.62s-4.45,1.63-4.45,5.09v11.99h-5.22v-12.5c0-2.95-1.58-4.54-4.07-4.54s-4.5,1.63-4.5,5.05v11.99h-5.22Z"/>
    <path class="cls-1" d="M266.04,413.49c0-6.64,4.32-11.22,10.53-11.22s10.36,4.24,10.36,10.83v1.58l-15.93.04c.38,3.73,2.35,5.61,5.82,5.61,2.87,0,4.75-1.11,5.35-3.13h4.84c-.9,4.62-4.75,7.41-10.28,7.41-6.29,0-10.7-4.58-10.7-11.13ZM271.13,411.39h10.62c0-2.91-2.01-4.84-5.14-4.84s-4.97,1.67-5.48,4.84Z"/>
    <path class="cls-1" d="M291.13,424.07v-21.15h4.84l.43,2.74c1.33-2.14,3.9-3.38,6.76-3.38,5.31,0,8.05,3.3,8.05,8.78v13.02h-5.22v-11.77c0-3.55-1.76-5.27-4.45-5.27-3.21,0-5.18,2.23-5.18,5.65v11.39h-5.22Z"/>
    <path class="cls-1" d="M318.32,424.07v-16.78h-4.07v-4.37h4.07v-6.59h5.22v6.59h4.11v4.37h-4.11v16.78h-5.22Z"/>
    <path class="cls-1" d="M329.84,418.03c0-3.9,2.83-6.34,7.83-6.72l6.34-.47v-.47c0-2.87-1.71-4.02-4.37-4.02-3.08,0-4.8,1.28-4.8,3.51h-4.45c0-4.58,3.77-7.58,9.5-7.58s9.21,3.08,9.21,8.95v12.84h-4.58l-.39-3.13c-.9,2.18-3.77,3.68-7.06,3.68-4.5,0-7.24-2.61-7.24-6.59ZM344.06,415.5v-1.11l-4.41.34c-3.25.3-4.5,1.37-4.5,3.08,0,1.93,1.29,2.87,3.64,2.87,3.21,0,5.27-1.93,5.27-5.18Z"/>
    <path class="cls-1" d="M355.92,424.07v-16.78h-4.07v-4.37h4.07v-6.59h5.22v6.59h4.11v4.37h-4.11v16.78h-5.22Z"/>
    <path class="cls-1" d="M367.91,395.51c0-1.76,1.41-3.13,3.21-3.13s3.12,1.37,3.12,3.13-1.41,3.17-3.12,3.17c-1.8,0-3.21-1.41-3.21-3.17ZM368.51,402.92h5.22v21.15h-5.22v-21.15Z"/>
    <path class="cls-1" d="M389.19,402.32c6.55,0,11.3,4.54,11.3,11.13s-4.75,11.13-11.3,11.13-11.3-4.54-11.3-11.13,4.75-11.13,11.3-11.13ZM389.19,419.91c3.6,0,6.08-2.61,6.08-6.47s-2.48-6.46-6.08-6.46-6.08,2.61-6.08,6.46,2.48,6.47,6.08,6.47Z"/>
    <path class="cls-1" d="M404.66,424.07v-21.15h4.84l.43,2.74c1.33-2.14,3.9-3.38,6.76-3.38,5.31,0,8.05,3.3,8.05,8.78v13.02h-5.22v-11.77c0-3.55-1.76-5.27-4.45-5.27-3.21,0-5.18,2.23-5.18,5.65v11.39h-5.22Z"/>
  </g>
</svg>