<?xml version="1.0" encoding="UTF-8"?>
<svg id="Layer_1" data-name="Layer 1" xmlns="http://www.w3.org/2000/svg" xmlns:xlink="http://www.w3.org/1999/xlink" viewBox="0 0 256 256">
  <defs>
    <style>
      .cls-1 {
        fill: url(#radial-gradient);
        opacity: .5;
      }

      .cls-2 {
        fill: #fff;
      }

      .cls-3 {
        fill: #05d690;
      }

      .cls-4 {
        fill: red;
      }

      .cls-5 {
        fill: #1a1a1a;
      }
    </style>
    <radialGradient id="radial-gradient" cx="336.01" cy="-29.07" fx="336.01" fy="-29.07" r="22.27" gradientTransform="translate(-98.83 155.73) scale(.95)" gradientUnits="userSpaceOnUse">
      <stop offset="0" stop-color="#1a1a1a"/>
      <stop offset=".81" stop-color="red"/>
    </radialGradient>
  </defs>
  <g>
    <path class="cls-2" d="M125.02,88.1h0c-22.04,0-39.9,17.87-39.9,39.9h0v39.9h79.81v-39.9h0c0-22.04-17.87-39.9-39.9-39.9Z"/>
    <rect class="cls-5" x="130.01" y="140.67" width="19.95" height="19.95" rx="9.98" ry="9.98" transform="translate(290.63 10.66) rotate(90)"/>
    <rect class="cls-5" x="100.08" y="140.67" width="19.95" height="19.95" rx="9.98" ry="9.98" transform="translate(260.71 40.59) rotate(90)"/>
    <rect class="cls-3" x="136.87" y="147.53" width="6.24" height="6.24" rx="3.12" ry="3.12"/>
    <rect class="cls-4" x="106.94" y="147.53" width="6.24" height="6.24" rx="3.12" ry="3.12" transform="translate(260.71 40.59) rotate(90)"/>
  </g>
  <circle class="cls-2" cx="221.69" cy="128" r="33.31"/>
  <g>
    <g>
      <path class="cls-2" d="M125.15,223.95c-37.61,0-71.93-22.14-87.44-56.41l2.73-1.23c15.03,33.2,48.28,54.65,84.72,54.65s67.54-19.83,83.35-51.76l2.68,1.33c-16.31,32.95-49.28,53.43-86.03,53.43Z"/>
      <polygon class="cls-2" points="215.86 184.29 212.97 185.07 209.17 170.81 195.22 175.64 194.24 172.81 211.23 166.93 215.86 184.29"/>
    </g>
    <g>
      <path class="cls-2" d="M39.69,91.37l-2.75-1.18c15.15-35.32,49.77-58.15,88.21-58.15s71.1,21.64,86.86,55.14l-2.71,1.27c-15.27-32.45-48.3-53.42-84.15-53.42s-70.78,22.11-85.46,56.33Z"/>
      <polygon class="cls-2" points="195.11 84.57 196.15 81.76 209.99 86.87 214.07 72.68 216.95 73.51 211.98 90.79 195.11 84.57"/>
    </g>
  </g>
  <g>
    <circle class="cls-5" cx="221.75" cy="128" r="28.72"/>
    <path class="cls-1" d="M230.35,128l12.65,12.65c-2.11,3.53-5.07,6.49-8.6,8.6l-12.65-12.65-12.65,12.65c-3.53-2.11-6.49-5.07-8.6-8.6l12.65-12.65-12.65-12.65c2.11-3.53,5.07-6.49,8.6-8.6l12.65,12.65,12.65-12.65c3.53,2.11,6.49,5.07,8.6,8.6l-12.65,12.65Z"/>
    <path class="cls-2" d="M237.24,128c0,.65-.04,1.28-.12,1.91-8.45,1.81-15.48,5.93-21.2,12.45-.77-.31-1.51-.68-2.21-1.11,2.99-3.58,6.52-6.53,10.45-9.02-4.81,1.48-9.35,3.44-13.17,6.92-.58-.55-1.11-1.15-1.59-1.79,4.58-4.06,10.01-6.34,15.71-8.14h-18.81c-.03-.4-.05-.81-.05-1.22s.02-.83.05-1.24h18.89c-5.71-1.78-11.18-4.04-15.78-8.13.49-.65,1.04-1.26,1.62-1.82,3.88,3.54,8.52,5.5,13.38,7.04-4.02-2.46-7.63-5.41-10.71-9.09.71-.43,1.45-.8,2.22-1.12,5.72,6.52,12.74,10.64,21.2,12.45.08.62.12,1.26.12,1.91Z"/>
    <path class="cls-4" d="M213.32,145.03l-4.22,4.22c-3.53-2.11-6.49-5.07-8.6-8.6l4.22-4.22c1.85,3.72,4.88,6.75,8.6,8.6Z"/>
    <path class="cls-4" d="M209.1,106.75l4.22,4.22c-3.72,1.85-6.75,4.88-8.6,8.6l-4.22-4.22c2.11-3.53,5.07-6.49,8.6-8.6Z"/>
    <path class="cls-4" d="M230.18,110.97l4.22-4.22c3.53,2.11,6.49,5.07,8.6,8.6l-4.22,4.22c-1.85-3.72-4.88-6.75-8.6-8.6Z"/>
    <path class="cls-4" d="M238.78,136.43l4.22,4.22c-2.11,3.53-5.07,6.49-8.6,8.6l-4.22-4.22c3.72-1.85,6.75-4.88,8.6-8.6Z"/>
  </g>
  <path class="cls-2" d="M20.68,98.51c3.79-1.57,7.94-2.44,12.3-2.44,16.48,0,30.06,12.38,31.87,28.3-17.72-3.58-32.35-12.14-44.17-25.87ZM64.85,131.62c-17.72,3.58-32.35,12.14-44.17,25.87,3.79,1.57,7.94,2.44,12.3,2.44,16.48,0,30.06-12.38,31.87-28.3ZM7.5,108.61c-3.66,4.76-6.01,10.57-6.5,16.9,13,0,25.92,0,38.84,0-11.73-3.66-22.97-8.33-32.35-16.9ZM1,130.46c.48,6.34,2.83,12.15,6.49,16.91,9.33-8.52,20.48-13.22,32.19-16.91-12.88,0-25.75,0-38.68,0ZM37.78,136.5c-9.92,3.05-19.27,7.11-27.07,14.47,1.69,1.62,3.55,3.06,5.56,4.28,6.13-7.48,13.39-13.6,21.51-18.75ZM16.24,100.76c-1.97,1.2-3.8,2.61-5.46,4.2,7.92,7.47,17.47,11.54,27.5,14.7-8.31-5.09-15.73-11.21-22.04-18.9Z"/>
</svg>