<?xml version="1.0" encoding="UTF-8"?>
<svg id="Layer_1" data-name="Layer 1" xmlns="http://www.w3.org/2000/svg" viewBox="0 0 256 256">
  <defs>
    <style>
      .cls-1 {
        fill: #fff;
      }

      .cls-2 {
        fill: #05d690;
      }

      .cls-3 {
        fill: red;
      }

      .cls-4 {
        fill: #1a1a1a;
      }
    </style>
  </defs>
  <path class="cls-1" d="M128,249.5c-48.65,0-88.23-39.58-88.23-88.23s39.58-88.23,88.23-88.23,88.24,39.58,88.24,88.23-39.58,88.23-88.24,88.23ZM128,76.03c-47,0-85.23,38.24-85.23,85.23s38.24,85.23,85.23,85.23,85.24-38.24,85.24-85.23-38.24-85.23-85.24-85.23Z"/>
  <path class="cls-3" d="M132.25,241.15l-.52-9.99c.93-.05,1.85-.12,2.77-.2l.92,9.96c-1.05.1-2.1.17-3.16.23ZM120.66,240.93c-1.05-.1-2.1-.21-3.15-.35l1.3-9.92c.91.12,1.83.22,2.76.31l-.91,9.96ZM146.86,239.03l-2.35-9.72c.9-.22,1.79-.45,2.68-.7l2.74,9.62c-1.01.29-2.04.56-3.07.81ZM106.15,238.24c-1.02-.29-2.03-.6-3.03-.92l3.11-9.5c.88.29,1.76.56,2.65.81l-2.73,9.62ZM160.83,234.24l-4.11-9.12c.84-.38,1.67-.77,2.5-1.19l4.46,8.95c-.94.47-1.89.92-2.86,1.35ZM92.37,232.91c-.95-.47-1.89-.96-2.81-1.47l4.81-8.77c.81.44,1.63.87,2.46,1.29l-4.46,8.95ZM173.66,226.96l-5.72-8.21c.76-.53,1.51-1.07,2.24-1.63l6.03,7.98c-.84.64-1.69,1.25-2.56,1.86ZM79.82,225.14c-.84-.64-1.67-1.29-2.49-1.96l6.33-7.74c.72.59,1.44,1.16,2.18,1.72l-6.03,7.98ZM184.94,217.46l-7.11-7.03c.65-.66,1.28-1.33,1.91-2.01l7.39,6.74c-.71.78-1.44,1.55-2.18,2.3ZM68.91,215.2c-.71-.78-1.41-1.57-2.09-2.38l7.64-6.45c.6.71,1.21,1.4,1.83,2.08l-7.38,6.74ZM194.3,206.05l-8.28-5.61c.52-.76,1.02-1.54,1.51-2.32l8.5,5.27c-.56.9-1.13,1.79-1.73,2.66ZM60.01,203.44c-.56-.89-1.09-1.8-1.62-2.72l8.69-4.94c.46.8.93,1.6,1.42,2.38l-8.49,5.28ZM201.41,193.11l-9.17-3.98c.37-.85.72-1.7,1.05-2.57l9.32,3.62c-.38.99-.79,1.97-1.21,2.94ZM53.41,190.24c-.38-.98-.75-1.97-1.09-2.97l9.46-3.26c.3.88.62,1.74.95,2.6l-9.32,3.63ZM206.01,179.06l-9.75-2.22c.2-.9.39-1.8.56-2.71l9.83,1.83c-.19,1.04-.41,2.07-.64,3.1ZM49.36,176.04c-.19-1.03-.37-2.07-.52-3.12l9.89-1.46c.14.92.29,1.83.46,2.74l-9.83,1.84ZM207.94,164.43l-9.99-.39c.04-.92.05-1.85.05-2.78v-.16h10v.16c0,1.06-.02,2.11-.06,3.16ZM58,161.44l-2.91-.1h-7.09s0-.07,0-.07c0-1.03.02-2.06.06-3.08l9.99.38c-.03.9-.05,1.79-.05,2.7v.18ZM197.25,150.99c-.14-.92-.29-1.83-.46-2.74l9.83-1.85c.19,1.03.37,2.07.52,3.12l-9.89,1.47ZM59.16,148.47l-9.83-1.81c.19-1.04.4-2.08.64-3.11l9.75,2.21c-.2.9-.39,1.8-.56,2.71ZM194.2,138.45c-.3-.88-.62-1.74-.96-2.6l9.31-3.64c.38.98.75,1.97,1.09,2.97l-9.45,3.27ZM62.68,136.05l-9.33-3.61c.38-.99.78-1.97,1.2-2.94l9.18,3.97c-.37.85-.72,1.7-1.05,2.57ZM188.88,126.69c-.46-.8-.93-1.6-1.42-2.38l8.49-5.29c.56.89,1.1,1.8,1.62,2.72l-8.69,4.95ZM68.43,124.48l-8.5-5.27c.56-.9,1.13-1.79,1.72-2.66l8.29,5.6c-.52.77-1.02,1.54-1.51,2.33ZM181.49,116.1c-.6-.71-1.21-1.4-1.83-2.08l7.38-6.75c.71.78,1.41,1.57,2.09,2.37l-7.63,6.46ZM76.22,114.16l-7.4-6.73c.71-.78,1.44-1.55,2.18-2.3l7.12,7.02c-.65.66-1.28,1.33-1.9,2.01ZM172.28,107.04c-.72-.59-1.45-1.16-2.19-1.72l6.02-7.98c.84.64,1.67,1.29,2.49,1.95l-6.32,7.75ZM85.75,105.45l-6.04-7.97c.84-.64,1.69-1.26,2.56-1.86l5.72,8.2c-.76.53-1.5,1.07-2.24,1.63ZM161.56,99.82c-.81-.44-1.63-.87-2.46-1.28l4.45-8.96c.95.47,1.88.96,2.81,1.47l-4.8,8.77ZM96.72,98.63l-4.48-8.94c.94-.47,1.89-.92,2.86-1.36l4.12,9.11c-.84.38-1.67.78-2.49,1.19ZM149.7,94.69c-.88-.29-1.76-.55-2.65-.8l2.71-9.62c1.02.29,2.03.59,3.03.92l-3.1,9.51ZM108.74,93.95l-2.75-9.62c1.01-.29,2.03-.56,3.06-.81l2.36,9.72c-.9.22-1.79.45-2.68.71ZM137.11,91.85c-.91-.12-1.83-.22-2.76-.3l.9-9.96c1.05.09,2.1.21,3.15.35l-1.29,9.92ZM121.43,91.57l-.93-9.96c1.05-.1,2.1-.17,3.16-.23l.53,9.99c-.93.05-1.85.12-2.77.2Z"/>
  <path class="cls-1" d="M150.77,78.35h-3v-13.63c0-10.9-8.87-19.77-19.77-19.77s-19.77,8.87-19.77,19.77v10.89h-3v-10.89c0-12.55,10.21-22.77,22.77-22.77s22.77,10.21,22.77,22.77v13.63Z"/>
  <path class="cls-1" d="M72.79,96.11h-3v-31.4c0-32.1,26.11-58.21,58.21-58.21s58.21,26.11,58.21,58.21v30.73h-3v-30.73c0-30.44-24.77-55.21-55.21-55.21s-55.21,24.77-55.21,55.21v31.4Z"/>
  <g>
    <path class="cls-1" d="M128.22,113.85h0c-22.09,0-40,17.91-40,40h0v40h80v-40h0c0-22.09-17.91-40-40-40Z"/>
    <rect class="cls-4" x="133.22" y="166.55" width="20" height="20" rx="10" ry="10" transform="translate(319.77 33.33) rotate(90)"/>
    <rect class="cls-4" x="103.22" y="166.55" width="20" height="20" rx="10" ry="10" transform="translate(289.77 63.33) rotate(90)"/>
    <rect class="cls-2" x="140.1" y="173.43" width="6.25" height="6.25" rx="3.12" ry="3.12"/>
    <rect class="cls-3" x="110.1" y="173.43" width="6.25" height="6.25" rx="3.12" ry="3.12" transform="translate(289.77 63.33) rotate(90)"/>
  </g>
</svg>