<?xml version="1.0" encoding="UTF-8"?>
<svg id="Layer_1" data-name="Layer 1" xmlns="http://www.w3.org/2000/svg" viewBox="0 0 256 256">
  <defs>
    <style>
      .cls-1 {
        fill: #fff;
      }

      .cls-2 {
        fill: #05d690;
      }

      .cls-3 {
        fill: red;
      }

      .cls-4 {
        fill: aqua;
      }

      .cls-5 {
        fill: #1a1a1a;
      }
    </style>
  </defs>
  <path class="cls-1" d="M72.86,254.76l-55.86-90.95C-13.8,113.66,1.93,47.8,52.08,17h0C102.23-13.8,168.09,1.94,198.9,52.08l55.86,90.95-181.9,111.73ZM52.87,18.28l.79,1.28C4.91,49.49-10.38,113.5,19.56,162.24l54.29,88.39,176.79-108.59-54.29-88.39C166.4,4.91,102.39-10.38,53.65,19.56l-.79-1.28Z"/>
  <g>
    <circle class="cls-5" cx="172.78" cy="138.46" r="23.84"/>
    <path class="cls-2" d="M178.29,135.07l13.1,3.13c.04,3.1-.69,6.16-2.13,8.91l-13.1-3.13-3.13,13.1c-3.09.04-6.16-.7-8.91-2.13l3.13-13.1-13.1-3.13c-.04-3.1.7-6.16,2.13-8.91l13.1,3.13,3.13-13.1c3.1-.04,6.17.69,8.91,2.13l-3.13,13.1Z"/>
  </g>
  <g>
    <circle class="cls-5" cx="105.82" cy="179.59" r="23.84"/>
    <path class="cls-3" d="M111.34,176.2l13.1,3.13c.04,3.1-.69,6.16-2.13,8.91l-13.1-3.13-3.13,13.1c-3.09.04-6.16-.7-8.91-2.13l3.13-13.1-13.1-3.13c-.04-3.1.7-6.16,2.13-8.91l13.1,3.13,3.13-13.1c3.1-.04,6.17.69,8.91,2.13l-3.13,13.1Z"/>
  </g>
  <path class="cls-1" d="M172.83,166.28c-2.17,0-4.35-.26-6.52-.77-7.22-1.73-13.34-6.16-17.23-12.49-8.03-13.07-3.92-30.23,9.14-38.25,6.33-3.89,13.79-5.08,21.02-3.35,7.22,1.73,13.34,6.16,17.23,12.49s5.08,13.79,3.35,21.02c-1.73,7.22-6.16,13.34-12.49,17.23-4.43,2.72-9.43,4.12-14.5,4.12ZM172.73,113.64c-4.53,0-8.98,1.25-12.94,3.68-11.66,7.16-15.31,22.47-8.15,34.12h0c3.47,5.65,8.93,9.6,15.37,11.15,6.44,1.54,13.1.48,18.75-2.99,5.65-3.47,9.6-8.93,11.14-15.37,1.54-6.45.48-13.1-2.99-18.75-3.47-5.65-8.93-9.6-15.37-11.15-1.93-.46-3.88-.69-5.81-.69Z"/>
  <path class="cls-1" d="M105.87,207.41c-2.17,0-4.35-.26-6.52-.77-7.22-1.73-13.34-6.16-17.23-12.49-8.03-13.07-3.92-30.23,9.14-38.25,6.33-3.89,13.79-5.08,21.02-3.35,7.22,1.73,13.34,6.16,17.23,12.49s5.08,13.79,3.35,21.02c-1.73,7.22-6.16,13.34-12.49,17.23-4.43,2.72-9.43,4.12-14.5,4.12ZM105.78,154.79c-4.43,0-8.9,1.18-12.94,3.66-11.66,7.16-15.31,22.47-8.16,34.12,3.47,5.65,8.93,9.6,15.37,11.14,6.44,1.54,13.11.48,18.75-2.99,11.66-7.16,15.31-22.47,8.16-34.12-4.68-7.62-12.84-11.82-21.18-11.82Z"/>
  <path class="cls-3" d="M92.15,124.86c-10.43,0-18.61-19.69-18.61-44.83h3c0,25.02,8.07,41.83,15.61,41.83s15.61-16.81,15.61-41.83-8.07-41.84-15.61-41.84c-4.16,0-8.27,4.85-11.29,13.3l-2.83-1.01c3.52-9.86,8.53-15.3,14.11-15.3,10.43,0,18.61,19.69,18.61,44.84s-8.17,44.83-18.61,44.83Z"/>
  <path class="cls-4" d="M65.96,107.78c-6.22,0-10.61-1.82-12.64-5.33-2.61-4.53-.81-11.1,5.07-18.5,5.59-7.03,14.27-14.15,24.46-20.03,10.18-5.88,20.69-9.85,29.57-11.17,9.36-1.39,15.95.34,18.56,4.86,4.92,8.53-6.49,24.33-26.54,36.75-.98.6-1.97,1.2-2.99,1.79l-1.5-2.6c.99-.57,1.96-1.15,2.91-1.74,18.03-11.17,29.48-25.84,25.52-32.7-1.93-3.34-7.58-4.58-15.52-3.4-8.52,1.27-18.65,5.1-28.51,10.8-9.87,5.7-18.25,12.55-23.61,19.29-4.99,6.28-6.75,11.8-4.82,15.14,2.01,3.48,7.98,4.66,16.38,3.26l.49,2.96c-2.47.41-4.76.62-6.84.62Z"/>
  <path class="cls-2" d="M118.31,107.78c-1.82,0-3.79-.16-5.9-.47-8.89-1.32-19.39-5.29-29.57-11.17s-18.87-12.99-24.46-20.03c-5.88-7.41-7.68-13.98-5.07-18.5,2.61-4.53,9.2-6.25,18.56-4.86,8.89,1.32,19.39,5.29,29.57,11.17,1.26.73,2.53,1.49,3.75,2.26l-1.6,2.54c-1.19-.75-2.42-1.49-3.65-2.2-9.87-5.7-19.99-9.53-28.51-10.8-7.93-1.18-13.59.06-15.52,3.4-1.93,3.34-.17,8.86,4.82,15.14,5.36,6.75,13.74,13.6,23.61,19.29s19.99,9.53,28.51,10.8c7.93,1.18,13.59-.06,15.52-3.4,2.09-3.62-.08-9.65-5.97-16.54l2.28-1.95c6.86,8.03,9.1,15.12,6.29,19.99-2.02,3.51-6.43,5.33-12.66,5.33Z"/>
</svg>