<?xml version="1.0" encoding="UTF-8"?>
<svg id="Layer_1" data-name="Layer 1" xmlns="http://www.w3.org/2000/svg" viewBox="0 0 256 256">
  <defs>
    <style>
      .cls-1 {
        fill: #fff;
      }

      .cls-2 {
        fill: #05d690;
      }

      .cls-3 {
        fill: #1a1a1a;
      }
    </style>
  </defs>
  <path class="cls-2" d="M187,255c-37.26,0-67.57-30.31-67.57-67.57h2.98c0,35.61,28.97,64.59,64.59,64.59s64.59-28.97,64.59-64.59-28.97-64.59-64.59-64.59v-2.98c37.26,0,67.57,30.31,67.57,67.57s-30.31,67.57-67.57,67.57Z"/>
  <path class="cls-1" d="M44.29,227.58c-23.64,0-42.86-19.23-42.86-42.86s19.23-42.87,42.86-42.87,42.86,19.23,42.86,42.87-19.23,42.86-42.86,42.86ZM44.29,144.82c-21.99,0-39.89,17.89-39.89,39.89s17.89,39.89,39.89,39.89,39.89-17.89,39.89-39.89-17.89-39.89-39.89-39.89Z"/>
  <path class="cls-1" d="M44.29,86.73C20.66,86.73,1.43,67.5,1.43,43.86S20.66,1,44.29,1s42.86,19.23,42.86,42.86-19.23,42.86-42.86,42.86ZM44.29,3.98C22.3,3.98,4.41,21.87,4.41,43.86s17.89,39.89,39.89,39.89,39.89-17.89,39.89-39.89S66.29,3.98,44.29,3.98Z"/>
  <path class="cls-1" d="M185.14,86.73c-23.64,0-42.86-19.23-42.86-42.86S161.5,1,185.14,1s42.86,19.23,42.86,42.86-19.23,42.86-42.86,42.86ZM185.14,3.98c-21.99,0-39.89,17.89-39.89,39.89s17.89,39.89,39.89,39.89,39.89-17.89,39.89-39.89S207.13,3.98,185.14,3.98Z"/>
  <circle class="cls-1" cx="114.85" cy="114.85" r="39.31"/>
  <g>
    <rect class="cls-1" x="151.29" y="134.12" width="2.98" height="43.09" transform="translate(-65.32 153.62) rotate(-45)"/>
    <polygon class="cls-1" points="152.42 172.53 152.52 169.55 167.2 170.09 166.66 155.41 169.64 155.31 170.29 173.18 152.42 172.53"/>
  </g>
  <polygon class="cls-2" points="177.47 218.09 159.2 203.66 164.32 197.16 176.1 206.47 210.23 163.26 216.73 168.39 177.47 218.09"/>
  <g>
    <circle class="cls-3" cx="114.85" cy="114.85" r="36.2"/>
    <path class="cls-2" d="M124.69,114.85l14.46,14.46c-2.41,4.04-5.8,7.42-9.83,9.83l-14.46-14.46-14.47,14.46c-4.03-2.41-7.42-5.8-9.83-9.83l14.46-14.47-14.46-14.46c2.41-4.04,5.8-7.42,9.83-9.83l14.46,14.46,14.46-14.46c4.04,2.41,7.42,5.8,9.83,9.83l-14.46,14.46Z"/>
  </g>
</svg>