<?xml version="1.0" encoding="UTF-8"?>
<svg id="Layer_1" data-name="Layer 1" xmlns="http://www.w3.org/2000/svg" viewBox="0 0 256 256">
  <defs>
    <style>
      .cls-1 {
        fill: #fff;
      }

      .cls-2 {
        fill: #05d690;
      }

      .cls-3 {
        fill: red;
      }

      .cls-4 {
        fill: #1a1a1a;
      }
    </style>
  </defs>
  <path class="cls-1" d="M241.24,226.36H14.76c-7.59,0-13.76-6.17-13.76-13.76V26.29c0-7.59,6.17-13.76,13.76-13.76h226.47c7.59,0,13.76,6.17,13.76,13.76v186.31c0,7.59-6.17,13.76-13.76,13.76ZM14.76,15.49c-5.95,0-10.8,4.84-10.8,10.8v186.31c0,5.95,4.84,10.8,10.8,10.8h226.47c5.95,0,10.8-4.84,10.8-10.8V26.29c0-5.95-4.84-10.8-10.8-10.8H14.76Z"/>
  <path class="cls-1" d="M211.66,194.55H44.35c-5.23,0-9.48-4.25-9.48-9.48V53.81c0-5.23,4.25-9.48,9.48-9.48h167.31c5.23,0,9.48,4.25,9.48,9.48v131.26c0,5.23-4.25,9.48-9.48,9.48ZM44.35,47.29c-3.59,0-6.52,2.92-6.52,6.52v131.26c0,3.59,2.92,6.52,6.52,6.52h167.31c3.59,0,6.52-2.92,6.52-6.52V53.81c0-3.59-2.92-6.52-6.52-6.52H44.35Z"/>
  <rect class="cls-3" x="212.09" y="79.91" width="12.85" height="20.75"/>
  <rect class="cls-3" x="212.09" y="140.2" width="12.85" height="20.75"/>
  <rect class="cls-1" x="195.63" y="217.63" width="19.77" height="31.93" rx="2.96" ry="2.96" transform="translate(439.11 28.08) rotate(90)"/>
  <rect class="cls-1" x="42.74" y="217.63" width="19.77" height="31.93" rx="2.96" ry="2.96" transform="translate(286.22 180.97) rotate(90)"/>
  <g>
    <path class="cls-1" d="M127.47,175.79c-30.79,0-55.84-25.05-55.84-55.84s25.05-55.84,55.84-55.84,55.84,25.05,55.84,55.84-25.05,55.84-55.84,55.84ZM127.47,67.08c-29.16,0-52.88,23.72-52.88,52.88s23.72,52.88,52.88,52.88,52.88-23.72,52.88-52.88-23.72-52.88-52.88-52.88Z"/>
    <path class="cls-3" d="M130.16,170.02l-.33-6.26c.58-.03,1.16-.07,1.73-.13l.58,6.24c-.66.06-1.31.11-1.98.14ZM122.9,169.89c-.66-.06-1.32-.13-1.97-.22l.81-6.21c.57.07,1.15.14,1.72.19l-.56,6.24ZM139.31,168.68l-1.47-6.09c.56-.14,1.12-.28,1.68-.44l1.72,6.03c-.64.18-1.27.35-1.92.51ZM113.81,168.2c-.64-.18-1.27-.37-1.9-.58l1.95-5.96c.55.18,1.1.35,1.66.51l-1.7,6.03ZM148.06,165.68l-2.58-5.71c.53-.24,1.05-.49,1.57-.74l2.8,5.61c-.59.29-1.19.58-1.79.85ZM105.17,164.87c-.59-.3-1.18-.6-1.76-.92l3.01-5.5c.51.28,1.02.55,1.54.81l-2.79,5.61ZM156.1,161.12l-3.58-5.14c.48-.33.94-.67,1.4-1.02l3.78,5c-.53.4-1.06.79-1.61,1.17ZM97.31,160c-.53-.4-1.05-.81-1.56-1.23l3.97-4.85c.45.37.9.72,1.37,1.07l-3.78,5ZM163.17,155.17l-4.46-4.4c.41-.41.8-.83,1.19-1.26l4.63,4.22c-.45.49-.9.97-1.37,1.44ZM90.47,153.78c-.45-.49-.88-.98-1.31-1.49l4.79-4.05c.37.44.76.88,1.15,1.31l-4.63,4.23ZM169.03,148.02l-5.19-3.52c.32-.48.64-.96.94-1.46l5.33,3.3c-.35.56-.71,1.12-1.08,1.67ZM84.88,146.42c-.35-.56-.69-1.13-1.01-1.7l5.45-3.1c.29.5.58,1,.89,1.49l-5.32,3.31ZM173.49,139.9l-5.75-2.49c.23-.53.45-1.07.66-1.61l5.84,2.26c-.24.62-.49,1.23-.76,1.84ZM80.74,138.15c-.24-.61-.47-1.23-.68-1.86l5.92-2.05c.19.55.39,1.09.6,1.63l-5.84,2.28ZM176.37,131.1l-6.11-1.39c.13-.56.25-1.13.35-1.7l6.16,1.15c-.12.65-.26,1.3-.4,1.94ZM78.2,129.26c-.12-.65-.23-1.3-.33-1.95l6.2-.92c.09.58.18,1.15.29,1.72l-6.16,1.15ZM177.57,121.94l-6.26-.24c.02-.58.03-1.16.03-1.74v-.19h6.27v.19c0,.66-.01,1.32-.04,1.98ZM77.34,120.05v-.19c0-.54.01-1.16.04-1.79l6.26.24c-.02.55-.03,1.09-.03,1.65l-6.27.1ZM170.86,113.43c-.09-.58-.18-1.15-.29-1.72l6.16-1.16c.12.65.23,1.3.33,1.95l-6.2.93ZM84.33,111.98l-6.17-1.13c.12-.65.25-1.3.4-1.95l6.11,1.38c-.13.56-.24,1.13-.35,1.7ZM168.94,105.58c-.19-.55-.39-1.09-.6-1.63l5.84-2.29c.24.61.47,1.24.69,1.86l-5.92,2.05ZM86.52,104.19l-5.85-2.25c.24-.62.49-1.24.75-1.85l5.75,2.49c-.23.53-.45,1.07-.66,1.61ZM165.59,98.22c-.29-.5-.58-1-.89-1.49l5.31-3.32c.35.56.69,1.13,1.02,1.7l-5.44,3.11ZM90.12,96.94l-5.33-3.29c.35-.57.71-1.12,1.08-1.67l5.19,3.51c-.32.48-.64.97-.94,1.46ZM160.95,91.59c-.38-.44-.76-.88-1.15-1.3l4.62-4.24c.45.49.88.98,1.31,1.48l-4.78,4.06ZM94.99,90.47l-4.64-4.21c.45-.49.9-.97,1.36-1.44l4.47,4.4c-.41.41-.8.83-1.19,1.26ZM155.17,85.93c-.45-.37-.91-.72-1.37-1.07l3.76-5.01c.53.4,1.05.8,1.56,1.22l-3.96,4.86ZM100.96,85l-3.79-4.99c.53-.4,1.06-.79,1.6-1.17l3.59,5.13c-.47.33-.94.67-1.4,1.02ZM148.45,81.41c-.51-.28-1.02-.54-1.54-.8l2.78-5.62c.59.29,1.18.6,1.76.92l-3,5.5ZM107.82,80.72l-2.81-5.6c.59-.3,1.18-.58,1.78-.85l2.59,5.71c-.53.24-1.05.49-1.56.75ZM141.01,78.21c-.55-.18-1.1-.35-1.66-.5l1.69-6.03c.64.18,1.27.37,1.9.57l-1.93,5.96ZM115.35,77.78l-1.73-6.02c.63-.18,1.27-.35,1.92-.51l1.49,6.09c-.56.14-1.12.29-1.68.45ZM133.12,76.44c-.57-.07-1.15-.14-1.72-.19l.55-6.24c.66.06,1.32.13,1.97.21l-.8,6.22ZM123.3,76.28l-.59-6.24c.66-.06,1.32-.11,1.98-.15l.34,6.26c-.58.03-1.16.08-1.73.13Z"/>
    <g>
      <path class="cls-1" d="M127.61,90.24h0c-13.85,0-25.07,11.22-25.07,25.07h0v25.07h50.14v-25.07h0c0-13.85-11.22-25.07-25.07-25.07Z"/>
      <rect class="cls-4" x="130.75" y="123.27" width="12.53" height="12.53" rx="6.27" ry="6.27" transform="translate(266.55 -7.48) rotate(90)"/>
      <rect class="cls-4" x="111.95" y="123.27" width="12.53" height="12.53" rx="6.27" ry="6.27" transform="translate(247.75 11.32) rotate(90)"/>
      <rect class="cls-2" x="135.06" y="127.58" width="3.92" height="3.92" rx="1.96" ry="1.96"/>
      <rect class="cls-3" x="116.25" y="127.58" width="3.92" height="3.92" rx="1.96" ry="1.96" transform="translate(247.75 11.32) rotate(90)"/>
    </g>
  </g>
</svg>