<?xml version="1.0" encoding="UTF-8"?>
<svg id="Layer_1" data-name="Layer 1" xmlns="http://www.w3.org/2000/svg" xmlns:xlink="http://www.w3.org/1999/xlink" viewBox="0 0 256 256">
  <defs>
    <style>
      .cls-1 {
        fill: #7a0f0f;
      }

      .cls-2 {
        fill: #ad0909;
      }

      .cls-3 {
        fill: none;
      }

      .cls-4 {
        fill: #2f1818;
      }

      .cls-5 {
        fill: #980c0c;
      }

      .cls-6 {
        fill: #3d1616;
      }

      .cls-7 {
        fill: #cc0606;
      }

      .cls-8 {
        fill: #251919;
      }

      .cls-9 {
        fill: #fb0000;
      }

      .cls-10 {
        fill: #8d0d0d;
      }

      .cls-11 {
        fill: #5e1212;
      }

      .cls-12 {
        fill: #521414;
      }

      .cls-13 {
        fill: #211919;
      }

      .cls-14 {
        fill: #bb0808;
      }

      .cls-15 {
        fill: #511414;
      }

      .cls-16 {
        fill: #751010;
      }

      .cls-17 {
        fill: #fd0000;
      }

      .cls-18 {
        fill: #a30a0a;
      }

      .cls-19 {
        fill: #741010;
      }

      .cls-20 {
        fill: #9c0b0b;
      }

      .cls-21 {
        fill: #9b0b0b;
      }

      .cls-22 {
        fill: #691111;
      }

      .cls-23 {
        fill: #810e0e;
      }

      .cls-24 {
        fill: #a10b0b;
      }

      .cls-25 {
        fill: #a80a0a;
      }

      .cls-26 {
        fill: #970c0c;
      }

      .cls-27 {
        fill: #331717;
      }

      .cls-28 {
        fill: #761010;
      }

      .cls-29 {
        fill: #e50303;
      }

      .cls-30 {
        fill: #4b1414;
      }

      .cls-31 {
        fill: #1c1a1a;
      }

      .cls-32 {
        fill: #f60101;
      }

      .cls-33 {
        fill: #5b1313;
      }

      .cls-34 {
        fill: #421515;
      }

      .cls-35 {
        fill: #d70505;
      }

      .cls-36 {
        fill: #2a1818;
      }

      .cls-37 {
        fill: #a50a0a;
      }

      .cls-38 {
        fill: #c70606;
      }

      .cls-39 {
        fill: #c30707;
      }

      .cls-40 {
        fill: #c50707;
      }

      .cls-41 {
        fill: #d30505;
      }

      .cls-42 {
        fill: #401616;
      }

      .cls-43 {
        fill: #6b1111;
      }

      .cls-44 {
        fill: #391616;
      }

      .cls-45 {
        fill: #281818;
      }

      .cls-46 {
        fill: #b80808;
      }

      .cls-47 {
        fill: #b50808;
      }

      .cls-48 {
        fill: #461515;
      }

      .cls-49 {
        fill: #7c0f0f;
      }

      .cls-50 {
        fill: #501414;
      }

      .cls-51 {
        fill: #8f0d0d;
      }

      .cls-52 {
        fill: #611212;
      }

      .cls-53 {
        fill: #aa0a0a;
      }

      .cls-54 {
        fill: #4c1414;
      }

      .cls-55 {
        fill: #ee0202;
      }

      .cls-56 {
        fill: #d40505;
      }

      .cls-57 {
        fill: #850e0e;
      }

      .cls-58 {
        fill: #601212;
      }

      .cls-59 {
        fill: #2d1818;
      }

      .cls-60 {
        fill: #c00707;
      }

      .cls-61 {
        fill: #940c0c;
      }

      .cls-62 {
        fill: #da0404;
      }

      .cls-63 {
        fill: #591313;
      }

      .cls-64 {
        fill: #7d0f0f;
      }

      .cls-65 {
        fill: #4e1414;
      }

      .cls-66 {
        fill: #ac0909;
      }

      .cls-67 {
        fill: #8e0d0d;
      }

      .cls-68 {
        fill: #ae0909;
      }

      .cls-69 {
        fill: #381717;
      }

      .cls-70 {
        fill: #9a0c0c;
      }

      .cls-71 {
        fill: #b20909;
      }

      .cls-72 {
        fill: #731010;
      }

      .cls-73 {
        fill: #ed0202;
      }

      .cls-74 {
        fill: #481515;
      }

      .cls-75 {
        fill: #a40a0a;
      }

      .cls-76 {
        fill: #8b0d0d;
      }

      .cls-77 {
        fill: #7b0f0f;
      }

      .cls-78 {
        fill: #ce0606;
      }

      .cls-79 {
        fill: #9d0b0b;
      }

      .cls-80 {
        fill: #950c0c;
      }

      .cls-81 {
        fill: #dd0404;
      }

      .cls-82 {
        fill: #6d1111;
      }

      .cls-83 {
        fill: #1d1a1a;
      }

      .cls-84 {
        fill: #f10202;
      }

      .cls-85 {
        fill: #f70101;
      }

      .cls-86 {
        fill: #711010;
      }

      .cls-87 {
        fill: #2b1818;
      }

      .cls-88 {
        fill: #341717;
      }

      .cls-89 {
        fill: #351717;
      }

      .cls-90 {
        fill: #c20707;
      }

      .cls-91 {
        fill: #3c1616;
      }

      .cls-92 {
        fill: #701010;
      }

      .cls-93 {
        fill: #561313;
      }

      .cls-94 {
        fill: #371717;
      }

      .cls-95 {
        fill: #830e0e;
      }

      .cls-96 {
        fill: #581313;
      }

      .cls-97 {
        fill: #311717;
      }

      .cls-98 {
        fill: #e20303;
      }

      .cls-99 {
        fill: #4f1414;
      }

      .cls-100 {
        fill: #ab0a0a;
      }

      .cls-101 {
        fill: #321717;
      }

      .cls-102 {
        fill: #9f0b0b;
      }

      .cls-103 {
        fill: #7e0f0f;
      }

      .cls-104 {
        fill: #4d1414;
      }

      .cls-105 {
        fill: #d80404;
      }

      .cls-106 {
        fill: #3b1616;
      }

      .cls-107 {
        fill: #890d0d;
      }

      .cls-108 {
        fill: #de0404;
      }

      .cls-109 {
        fill: #dc0404;
      }

      .cls-110 {
        fill: #fff;
      }

      .cls-111 {
        fill: #2e1818;
      }

      .cls-112 {
        fill: #bf0707;
      }

      .cls-113 {
        fill: #f40101;
      }

      .cls-114 {
        fill: #fe0000;
      }

      .cls-115 {
        fill: #241919;
      }

      .cls-116 {
        fill: #b70808;
      }

      .cls-117 {
        fill: #411616;
      }

      .cls-118 {
        fill: #840e0e;
      }

      .cls-119 {
        fill: #6f1010;
      }

      .cls-120 {
        fill: #721010;
      }

      .cls-121 {
        fill: #b30909;
      }

      .cls-122 {
        fill: #990c0c;
      }

      .cls-123 {
        fill: #621212;
      }

      .cls-124 {
        fill: #cb0606;
      }

      .cls-125 {
        fill: #551313;
      }

      .cls-126 {
        fill: #bc0808;
      }

      .cls-127 {
        fill: #ca0606;
      }

      .cls-128 {
        fill: #231919;
      }

      .cls-129 {
        fill: #870e0e;
      }

      .cls-130 {
        fill: #ef0202;
      }

      .cls-131 {
        fill: #301717;
      }

      .cls-132 {
        fill: #431515;
      }

      .cls-133 {
        fill: #860e0e;
      }

      .cls-134 {
        fill: #651111;
      }

      .cls-135 {
        fill: #531414;
      }

      .cls-136 {
        fill: #3a1616;
      }

      .cls-137 {
        fill: #6e1010;
      }

      .cls-138 {
        fill: #e40303;
      }

      .cls-139 {
        opacity: .5;
      }

      .cls-140 {
        fill: #b40909;
      }

      .cls-141 {
        fill: #ec0202;
      }

      .cls-142 {
        fill: #f50101;
      }

      .cls-143 {
        fill: #9e0b0b;
      }

      .cls-144 {
        fill: #261919;
      }

      .cls-145 {
        fill: #cf0505;
      }

      .cls-146 {
        fill: #271919;
      }

      .cls-147 {
        fill: #770f0f;
      }

      .cls-148 {
        fill: #e80303;
      }

      .cls-149 {
        fill: red;
      }

      .cls-150 {
        fill: #5f1212;
      }

      .cls-151 {
        fill: #451515;
      }

      .cls-152 {
        fill: #b10909;
      }

      .cls-153 {
        fill: #b60808;
      }

      .cls-154 {
        fill: #e00404;
      }

      .cls-155 {
        fill: #f30101;
      }

      .cls-156 {
        fill: #780f0f;
      }

      .cls-157 {
        fill: #d20505;
      }

      .cls-158 {
        fill: #eb0202;
      }

      .cls-159 {
        fill: #e90303;
      }

      .cls-160 {
        fill: #4a1515;
      }

      .cls-161 {
        fill: #e10303;
      }

      .cls-162 {
        fill: #a00b0b;
      }

      .cls-163 {
        fill: #ba0808;
      }

      .cls-164 {
        fill: #d90404;
      }

      .cls-165 {
        fill: #641212;
      }

      .cls-166 {
        fill: #3f1616;
      }

      .cls-167 {
        fill: #fc0000;
      }

      .cls-168 {
        fill: #e60303;
      }

      .cls-169 {
        fill: #db0404;
      }

      .cls-170 {
        fill: #c90606;
      }

      .cls-171 {
        fill: #671111;
      }

      .cls-172 {
        fill: #fa0101;
      }

      .cls-173 {
        fill: #a90a0a;
      }

      .cls-174 {
        fill: #800e0e;
      }

      .cls-175 {
        fill: #f80101;
      }

      .cls-176 {
        fill: #3e1616;
      }

      .cls-177 {
        fill: #d10505;
      }

      .cls-178 {
        fill: #631212;
      }

      .cls-179 {
        fill: #6c1111;
      }

      .cls-180 {
        fill: #8a0d0d;
      }

      .cls-181 {
        fill: #880d0d;
      }

      .cls-182 {
        fill: #b00909;
      }

      .cls-183 {
        fill: #611;
      }

      .cls-184 {
        fill: #291818;
      }

      .cls-185 {
        fill: #491515;
      }

      .cls-186 {
        fill: #d50505;
      }

      .cls-187 {
        fill: #f20101;
      }

      .cls-188 {
        fill: #a20b0b;
      }

      .cls-189 {
        fill: #681111;
      }

      .cls-190 {
        fill: #a70a0a;
      }

      .cls-191 {
        fill: #471515;
      }

      .cls-192 {
        fill: #5d1212;
      }

      .cls-193 {
        fill: #c10707;
      }

      .cls-194 {
        fill: #1f1919;
      }

      .cls-195 {
        fill: #e30303;
      }

      .cls-196 {
        fill: #1e1a1a;
      }

      .cls-197 {
        fill: #790f0f;
      }

      .cls-198 {
        fill: #c80606;
      }

      .cls-199 {
        fill: #be0707;
      }

      .cls-200 {
        fill: #a60a0a;
      }

      .cls-201 {
        fill: #910d0d;
      }

      .cls-202 {
        fill: #c40707;
      }

      .cls-203 {
        fill: #221919;
      }

      .cls-204 {
        fill: #201919;
      }

      .cls-205 {
        fill: #920c0c;
      }

      .cls-206 {
        fill: #6a1111;
      }

      .cls-207 {
        fill: #ea0202;
      }

      .cls-208 {
        fill: #441515;
      }

      .cls-209 {
        fill: #571313;
      }

      .cls-210 {
        fill: #cd0606;
      }

      .cls-211 {
        fill: #bd0808;
      }

      .cls-212 {
        fill: #820e0e;
      }

      .cls-213 {
        fill: #361717;
      }

      .cls-214 {
        fill: #df0404;
      }

      .cls-215 {
        fill: #1a1a1a;
      }

      .cls-216 {
        fill: #930c0c;
      }

      .cls-217 {
        fill: #e70303;
      }

      .cls-218 {
        fill: #d00505;
      }

      .cls-219 {
        fill: #f00202;
      }

      .cls-220 {
        fill: #2c1818;
      }

      .cls-221 {
        clip-path: url(#clippath);
      }

      .cls-222 {
        fill: #5a1313;
      }

      .cls-223 {
        fill: #900d0d;
      }

      .cls-224 {
        fill: #1b1a1a;
      }

      .cls-225 {
        fill: #b90808;
      }

      .cls-226 {
        fill: #c60707;
      }

      .cls-227 {
        fill: #7f0e0e;
      }

      .cls-228 {
        fill: #541313;
      }

      .cls-229 {
        fill: #960c0c;
      }

      .cls-230 {
        fill: #f90101;
      }

      .cls-231 {
        fill: #af0909;
      }

      .cls-232 {
        fill: #d60505;
      }

      .cls-233 {
        fill: #5c1212;
      }
    </style>
    <clipPath id="clippath">
      <path class="cls-3" d="M144.47,161.26l24.23,24.23c-4.04,6.76-9.71,12.43-16.47,16.47l-24.23-24.23-24.23,24.23c-6.76-4.04-12.43-9.71-16.47-16.47l24.23-24.23-24.23-24.23c4.04-6.76,9.71-12.43,16.47-16.47l24.23,24.23,24.23-24.23c6.76,4.04,12.44,9.71,16.47,16.47l-24.23,24.23Z"/>
    </clipPath>
  </defs>
  <path class="cls-110" d="M128,249.5c-48.65,0-88.23-39.58-88.23-88.23s39.58-88.23,88.23-88.23,88.23,39.58,88.23,88.23-39.58,88.23-88.23,88.23ZM128,76.03c-47,0-85.23,38.24-85.23,85.23s38.24,85.23,85.23,85.23,85.23-38.24,85.23-85.23-38.24-85.23-85.23-85.23Z"/>
  <path class="cls-149" d="M132.25,241.15l-.52-9.99c.93-.05,1.85-.11,2.77-.2l.92,9.96c-1.05.1-2.1.17-3.16.23ZM120.66,240.93c-1.05-.1-2.1-.21-3.15-.35l1.3-9.92c.91.12,1.83.22,2.76.31l-.91,9.96ZM146.86,239.03l-2.35-9.72c.9-.22,1.79-.45,2.68-.7l2.73,9.62c-1.01.29-2.03.56-3.06.81ZM106.15,238.24c-1.02-.29-2.03-.6-3.03-.92l3.11-9.51c.88.29,1.76.56,2.65.81l-2.73,9.62ZM160.83,234.24l-4.11-9.12c.84-.38,1.67-.77,2.5-1.19l4.47,8.95c-.94.47-1.89.92-2.86,1.36ZM92.37,232.91c-.95-.47-1.89-.96-2.81-1.47l4.81-8.77c.81.44,1.63.87,2.46,1.29l-4.46,8.95ZM173.66,226.97l-5.71-8.21c.76-.53,1.5-1.07,2.24-1.63l6.03,7.98c-.84.64-1.69,1.26-2.56,1.86ZM79.82,225.13c-.84-.64-1.67-1.29-2.49-1.96l6.34-7.73c.71.59,1.44,1.16,2.18,1.71l-6.03,7.98ZM184.94,217.46l-7.11-7.03c.65-.66,1.28-1.33,1.91-2.01l7.39,6.74c-.71.78-1.44,1.55-2.18,2.3ZM68.91,215.2c-.71-.78-1.41-1.57-2.09-2.38l7.65-6.44c.6.71,1.2,1.4,1.83,2.08l-7.38,6.74ZM194.3,206.05l-8.28-5.61c.52-.76,1.02-1.54,1.51-2.32l8.5,5.27c-.56.9-1.13,1.79-1.73,2.66ZM60,203.43c-.56-.89-1.09-1.8-1.62-2.72l8.7-4.94c.46.8.93,1.6,1.41,2.38l-8.49,5.28ZM201.41,193.11l-9.17-3.98c.37-.85.72-1.7,1.05-2.57l9.32,3.62c-.38.99-.79,1.97-1.21,2.94ZM53.41,190.24c-.38-.98-.75-1.98-1.09-2.98l9.46-3.25c.3.87.62,1.74.95,2.6l-9.32,3.62ZM206.01,179.06l-9.75-2.22c.2-.9.39-1.8.56-2.71l9.83,1.83c-.19,1.04-.41,2.08-.64,3.1ZM49.36,176.04c-.19-1.04-.37-2.08-.52-3.13l9.9-1.44c.13.92.29,1.83.45,2.73l-9.83,1.84ZM207.94,164.43l-9.99-.39c.04-.92.05-1.85.05-2.77v-.16h10v.16c0,1.06-.02,2.11-.06,3.16ZM49.54,161.33h-1.54c0-1.1.02-2.12.06-3.14l9.99.38c-.03.9-.05,1.8-.05,2.7l-8.46.07ZM197.25,150.99c-.14-.92-.29-1.83-.46-2.74l9.83-1.85c.19,1.03.37,2.07.52,3.12l-9.89,1.47ZM59.17,148.47l-9.83-1.81c.19-1.04.4-2.08.64-3.1l9.75,2.2c-.2.9-.39,1.8-.56,2.71ZM194.2,138.45c-.3-.88-.62-1.74-.96-2.6l9.31-3.64c.38.98.75,1.97,1.09,2.97l-9.45,3.27ZM62.68,136.05l-9.33-3.61c.38-.99.78-1.97,1.2-2.94l9.18,3.97c-.37.85-.72,1.7-1.05,2.57ZM188.88,126.69c-.46-.8-.93-1.6-1.42-2.38l8.49-5.29c.56.89,1.1,1.8,1.62,2.72l-8.69,4.95ZM68.43,124.48l-8.5-5.26c.56-.9,1.13-1.79,1.72-2.66l8.29,5.6c-.52.77-1.02,1.54-1.51,2.33ZM181.49,116.11c-.6-.71-1.21-1.4-1.83-2.08l7.38-6.75c.71.78,1.41,1.57,2.09,2.37l-7.63,6.46ZM76.22,114.16l-7.39-6.73c.71-.78,1.44-1.55,2.18-2.3l7.12,7.02c-.65.66-1.28,1.33-1.91,2.01ZM172.28,107.05c-.72-.59-1.45-1.16-2.19-1.72l6.02-7.98c.84.64,1.67,1.29,2.49,1.95l-6.32,7.75ZM85.75,105.44l-6.04-7.97c.84-.64,1.69-1.26,2.56-1.86l5.72,8.2c-.76.53-1.5,1.07-2.24,1.63ZM161.56,99.82c-.81-.44-1.63-.87-2.46-1.29l4.45-8.96c.95.47,1.88.96,2.81,1.47l-4.8,8.77ZM96.72,98.63l-4.48-8.94c.94-.47,1.89-.92,2.85-1.36l4.12,9.11c-.84.38-1.67.78-2.5,1.19ZM149.7,94.69c-.88-.29-1.76-.55-2.65-.8l2.71-9.62c1.02.29,2.03.59,3.03.92l-3.1,9.51ZM108.74,93.95l-2.75-9.62c1.01-.29,2.03-.56,3.06-.81l2.36,9.72c-.9.22-1.79.45-2.68.71ZM137.11,91.85c-.91-.12-1.83-.22-2.76-.3l.9-9.96c1.06.09,2.1.21,3.15.35l-1.29,9.92ZM121.43,91.57l-.93-9.96c1.05-.1,2.1-.17,3.16-.23l.53,9.99c-.93.05-1.85.12-2.76.2Z"/>
  <g>
    <circle class="cls-215" cx="128" cy="161.27" r="55"/>
    <g class="cls-139">
      <g class="cls-221">
        <rect class="cls-149" x="87.3" y="120.57" width="81.4" height="81.4"/>
        <circle class="cls-149" cx="128" cy="161.27" r="33.12"/>
        <circle class="cls-114" cx="128" cy="161.27" r="32.98"/>
        <circle class="cls-17" cx="128" cy="161.27" r="32.83"/>
        <circle class="cls-167" cx="128" cy="161.27" r="32.69"/>
        <circle class="cls-9" cx="128" cy="161.27" r="32.54"/>
        <circle class="cls-172" cx="128" cy="161.27" r="32.4"/>
        <circle class="cls-230" cx="128" cy="161.27" r="32.25"/>
        <circle class="cls-175" cx="128" cy="161.27" r="32.11"/>
        <circle class="cls-85" cx="128" cy="161.27" r="31.97"/>
        <circle class="cls-32" cx="128" cy="161.27" r="31.82"/>
        <circle class="cls-142" cx="128" cy="161.27" r="31.68"/>
        <circle class="cls-113" cx="128" cy="161.27" r="31.53"/>
        <circle class="cls-155" cx="128" cy="161.27" r="31.39"/>
        <circle class="cls-187" cx="128" cy="161.27" r="31.24"/>
        <circle class="cls-84" cx="128" cy="161.27" r="31.1"/>
        <circle class="cls-219" cx="128" cy="161.27" r="30.95"/>
        <circle class="cls-130" cx="128" cy="161.27" r="30.81"/>
        <circle class="cls-55" cx="128" cy="161.27" r="30.66"/>
        <circle class="cls-73" cx="128" cy="161.27" r="30.52"/>
        <circle class="cls-141" cx="128" cy="161.27" r="30.37"/>
        <circle class="cls-158" cx="128" cy="161.27" r="30.23"/>
        <circle class="cls-207" cx="128" cy="161.27" r="30.08"/>
        <circle class="cls-159" cx="128" cy="161.27" r="29.94"/>
        <circle class="cls-148" cx="128" cy="161.27" r="29.8"/>
        <circle class="cls-217" cx="128" cy="161.27" r="29.65"/>
        <circle class="cls-168" cx="128" cy="161.27" r="29.51"/>
        <circle class="cls-29" cx="128" cy="161.27" r="29.36"/>
        <circle class="cls-138" cx="128" cy="161.27" r="29.22"/>
        <circle class="cls-195" cx="128" cy="161.27" r="29.07"/>
        <circle class="cls-98" cx="128" cy="161.27" r="28.93"/>
        <circle class="cls-161" cx="128" cy="161.27" r="28.78"/>
        <circle class="cls-154" cx="128" cy="161.27" r="28.64"/>
        <circle class="cls-214" cx="128" cy="161.27" r="28.49"/>
        <circle class="cls-108" cx="128" cy="161.27" r="28.35"/>
        <circle class="cls-81" cx="128" cy="161.27" r="28.2"/>
        <circle class="cls-109" cx="128" cy="161.27" r="28.06"/>
        <circle class="cls-169" cx="128" cy="161.27" r="27.92"/>
        <circle class="cls-62" cx="128" cy="161.27" r="27.77"/>
        <circle class="cls-164" cx="128" cy="161.27" r="27.63"/>
        <circle class="cls-105" cx="128" cy="161.27" r="27.48"/>
        <circle class="cls-35" cx="128" cy="161.27" r="27.34"/>
        <circle class="cls-232" cx="128" cy="161.27" r="27.19"/>
        <circle class="cls-186" cx="128" cy="161.27" r="27.05"/>
        <circle class="cls-56" cx="128" cy="161.27" r="26.9"/>
        <circle class="cls-41" cx="128" cy="161.27" r="26.76"/>
        <circle class="cls-157" cx="128" cy="161.27" r="26.61"/>
        <circle class="cls-177" cx="128" cy="161.27" r="26.47"/>
        <circle class="cls-218" cx="128" cy="161.27" r="26.32"/>
        <circle class="cls-145" cx="128" cy="161.27" r="26.18"/>
        <circle class="cls-78" cx="128" cy="161.27" r="26.03"/>
        <circle class="cls-210" cx="128" cy="161.27" r="25.89"/>
        <circle class="cls-7" cx="128" cy="161.27" r="25.75"/>
        <circle class="cls-124" cx="128" cy="161.27" r="25.6"/>
        <circle class="cls-127" cx="128" cy="161.27" r="25.46"/>
        <circle class="cls-170" cx="128" cy="161.27" r="25.31"/>
        <circle class="cls-198" cx="128" cy="161.27" r="25.17"/>
        <circle class="cls-38" cx="128" cy="161.27" r="25.02"/>
        <circle class="cls-226" cx="128" cy="161.27" r="24.88"/>
        <circle class="cls-40" cx="128" cy="161.27" r="24.73"/>
        <circle class="cls-202" cx="128" cy="161.27" r="24.59"/>
        <circle class="cls-39" cx="128" cy="161.27" r="24.44"/>
        <circle class="cls-90" cx="128" cy="161.27" r="24.3"/>
        <circle class="cls-193" cx="128" cy="161.27" r="24.15"/>
        <circle class="cls-60" cx="128" cy="161.27" r="24.01"/>
        <circle class="cls-112" cx="128" cy="161.27" r="23.87"/>
        <circle class="cls-199" cx="128" cy="161.27" r="23.72"/>
        <circle class="cls-211" cx="128" cy="161.27" r="23.58"/>
        <circle class="cls-126" cx="128" cy="161.27" r="23.43"/>
        <circle class="cls-14" cx="128" cy="161.27" r="23.29"/>
        <circle class="cls-163" cx="128" cy="161.27" r="23.14"/>
        <circle class="cls-225" cx="128" cy="161.27" r="23"/>
        <circle class="cls-46" cx="128" cy="161.27" r="22.85"/>
        <circle class="cls-116" cx="128" cy="161.27" r="22.71"/>
        <circle class="cls-153" cx="128" cy="161.27" r="22.56"/>
        <circle class="cls-47" cx="128" cy="161.27" r="22.42"/>
        <circle class="cls-140" cx="128" cy="161.27" r="22.27"/>
        <circle class="cls-121" cx="128" cy="161.27" r="22.13"/>
        <circle class="cls-71" cx="128" cy="161.27" r="21.99"/>
        <circle class="cls-152" cx="128" cy="161.27" r="21.84"/>
        <circle class="cls-182" cx="128" cy="161.27" r="21.7"/>
        <circle class="cls-231" cx="128" cy="161.27" r="21.55"/>
        <circle class="cls-68" cx="128" cy="161.27" r="21.41"/>
        <circle class="cls-2" cx="128" cy="161.27" r="21.26"/>
        <circle class="cls-66" cx="128" cy="161.27" r="21.12"/>
        <circle class="cls-100" cx="128" cy="161.27" r="20.97"/>
        <circle class="cls-53" cx="128" cy="161.27" r="20.83"/>
        <circle class="cls-173" cx="128" cy="161.27" r="20.68"/>
        <circle class="cls-25" cx="128" cy="161.27" r="20.54"/>
        <circle class="cls-190" cx="128" cy="161.27" r="20.39"/>
        <circle class="cls-200" cx="128" cy="161.27" r="20.25"/>
        <circle class="cls-37" cx="128" cy="161.27" r="20.1"/>
        <circle class="cls-75" cx="128" cy="161.27" r="19.96"/>
        <circle class="cls-18" cx="128" cy="161.27" r="19.82"/>
        <circle class="cls-188" cx="128" cy="161.27" r="19.67"/>
        <circle class="cls-24" cx="128" cy="161.27" r="19.53"/>
        <circle class="cls-162" cx="128" cy="161.27" r="19.38"/>
        <circle class="cls-102" cx="128" cy="161.27" r="19.24"/>
        <circle class="cls-143" cx="128" cy="161.27" r="19.09"/>
        <circle class="cls-79" cx="128" cy="161.27" r="18.95"/>
        <circle class="cls-20" cx="128" cy="161.27" r="18.8"/>
        <circle class="cls-21" cx="128" cy="161.27" r="18.66"/>
        <circle class="cls-70" cx="128" cy="161.27" r="18.51"/>
        <circle class="cls-122" cx="128" cy="161.27" r="18.37"/>
        <circle class="cls-5" cx="128" cy="161.27" r="18.22"/>
        <circle class="cls-26" cx="128" cy="161.27" r="18.08"/>
        <circle class="cls-229" cx="128" cy="161.27" r="17.94"/>
        <circle class="cls-80" cx="128" cy="161.27" r="17.79"/>
        <circle class="cls-61" cx="128" cy="161.27" r="17.65"/>
        <circle class="cls-216" cx="128" cy="161.27" r="17.5"/>
        <circle class="cls-205" cx="128" cy="161.27" r="17.36"/>
        <circle class="cls-201" cx="128" cy="161.27" r="17.21"/>
        <circle class="cls-223" cx="128" cy="161.27" r="17.07"/>
        <circle class="cls-51" cx="128" cy="161.27" r="16.92"/>
        <circle class="cls-67" cx="128" cy="161.27" r="16.78"/>
        <circle class="cls-10" cx="128" cy="161.27" r="16.63"/>
        <circle class="cls-76" cx="128" cy="161.27" r="16.49"/>
        <circle class="cls-180" cx="128" cy="161.27" r="16.34"/>
        <circle class="cls-107" cx="128" cy="161.27" r="16.2"/>
        <circle class="cls-181" cx="128" cy="161.27" r="16.05"/>
        <circle class="cls-129" cx="128" cy="161.27" r="15.91"/>
        <circle class="cls-133" cx="128" cy="161.27" r="15.77"/>
        <circle class="cls-57" cx="128" cy="161.27" r="15.62"/>
        <circle class="cls-118" cx="128" cy="161.27" r="15.48"/>
        <circle class="cls-95" cx="128" cy="161.27" r="15.33"/>
        <circle class="cls-212" cx="128" cy="161.27" r="15.19"/>
        <circle class="cls-23" cx="128" cy="161.27" r="15.04"/>
        <circle class="cls-174" cx="128" cy="161.27" r="14.9"/>
        <circle class="cls-227" cx="128" cy="161.27" r="14.75"/>
        <circle class="cls-103" cx="128" cy="161.27" r="14.61"/>
        <circle class="cls-64" cx="128" cy="161.27" r="14.46"/>
        <circle class="cls-49" cx="128" cy="161.27" r="14.32"/>
        <circle class="cls-77" cx="128" cy="161.27" r="14.17"/>
        <circle class="cls-1" cx="128" cy="161.27" r="14.03"/>
        <circle class="cls-197" cx="128" cy="161.27" r="13.89"/>
        <circle class="cls-156" cx="128" cy="161.27" r="13.74"/>
        <circle class="cls-147" cx="128" cy="161.27" r="13.6"/>
        <circle class="cls-28" cx="128" cy="161.27" r="13.45"/>
        <circle class="cls-16" cx="128" cy="161.27" r="13.31"/>
        <circle class="cls-19" cx="128" cy="161.27" r="13.16"/>
        <circle class="cls-72" cx="128" cy="161.27" r="13.02"/>
        <circle class="cls-120" cx="128" cy="161.27" r="12.87"/>
        <circle class="cls-86" cx="128" cy="161.27" r="12.73"/>
        <circle class="cls-92" cx="128" cy="161.27" r="12.58"/>
        <circle class="cls-119" cx="128" cy="161.27" r="12.44"/>
        <circle class="cls-137" cx="128" cy="161.27" r="12.29"/>
        <circle class="cls-82" cx="128" cy="161.27" r="12.15"/>
        <circle class="cls-179" cx="128" cy="161.27" r="12"/>
        <circle class="cls-43" cx="128" cy="161.27" r="11.86"/>
        <circle class="cls-206" cx="128" cy="161.27" r="11.72"/>
        <circle class="cls-22" cx="128" cy="161.27" r="11.57"/>
        <circle class="cls-189" cx="128" cy="161.27" r="11.43"/>
        <circle class="cls-171" cx="128" cy="161.27" r="11.28"/>
        <circle class="cls-183" cx="128" cy="161.27" r="11.14"/>
        <circle class="cls-134" cx="128" cy="161.27" r="10.99"/>
        <circle class="cls-165" cx="128" cy="161.27" r="10.85"/>
        <circle class="cls-178" cx="128" cy="161.27" r="10.7"/>
        <circle class="cls-123" cx="128" cy="161.27" r="10.56"/>
        <circle class="cls-52" cx="128" cy="161.27" r="10.41"/>
        <circle class="cls-58" cx="128" cy="161.27" r="10.27"/>
        <circle class="cls-150" cx="128" cy="161.27" r="10.12"/>
        <circle class="cls-11" cx="128" cy="161.27" r="9.98"/>
        <circle class="cls-192" cx="128" cy="161.27" r="9.84"/>
        <circle class="cls-233" cx="128" cy="161.27" r="9.69"/>
        <circle class="cls-33" cx="128" cy="161.27" r="9.55"/>
        <circle class="cls-222" cx="128" cy="161.27" r="9.4"/>
        <circle class="cls-63" cx="128" cy="161.27" r="9.26"/>
        <circle class="cls-96" cx="128" cy="161.27" r="9.11"/>
        <circle class="cls-209" cx="128" cy="161.27" r="8.97"/>
        <circle class="cls-93" cx="128" cy="161.27" r="8.82"/>
        <circle class="cls-125" cx="128" cy="161.27" r="8.68"/>
        <circle class="cls-228" cx="128" cy="161.27" r="8.53"/>
        <circle class="cls-135" cx="128" cy="161.27" r="8.39"/>
        <circle class="cls-12" cx="128" cy="161.27" r="8.24"/>
        <circle class="cls-15" cx="128" cy="161.27" r="8.1"/>
        <circle class="cls-50" cx="128" cy="161.27" r="7.96"/>
        <circle class="cls-99" cx="128" cy="161.27" r="7.81"/>
        <circle class="cls-65" cx="128" cy="161.27" r="7.67"/>
        <circle class="cls-104" cx="128" cy="161.27" r="7.52"/>
        <circle class="cls-54" cx="128" cy="161.27" r="7.38"/>
        <circle class="cls-30" cx="128" cy="161.27" r="7.23"/>
        <circle class="cls-160" cx="128" cy="161.27" r="7.09"/>
        <circle class="cls-185" cx="128" cy="161.27" r="6.94"/>
        <circle class="cls-74" cx="128" cy="161.27" r="6.8"/>
        <circle class="cls-191" cx="128" cy="161.27" r="6.65"/>
        <circle class="cls-48" cx="128" cy="161.27" r="6.51"/>
        <circle class="cls-151" cx="128" cy="161.27" r="6.36"/>
        <circle class="cls-208" cx="128" cy="161.27" r="6.22"/>
        <circle class="cls-132" cx="128" cy="161.27" r="6.07"/>
        <circle class="cls-34" cx="128" cy="161.27" r="5.93"/>
        <circle class="cls-117" cx="128" cy="161.27" r="5.79"/>
        <circle class="cls-42" cx="128" cy="161.27" r="5.64"/>
        <circle class="cls-166" cx="128" cy="161.27" r="5.5"/>
        <circle class="cls-176" cx="128" cy="161.27" r="5.35"/>
        <circle class="cls-6" cx="128" cy="161.27" r="5.21"/>
        <circle class="cls-91" cx="128" cy="161.27" r="5.06"/>
        <circle class="cls-106" cx="128" cy="161.27" r="4.92"/>
        <circle class="cls-136" cx="128" cy="161.27" r="4.77"/>
        <circle class="cls-44" cx="128" cy="161.27" r="4.63"/>
        <circle class="cls-69" cx="128" cy="161.27" r="4.48"/>
        <circle class="cls-94" cx="128" cy="161.27" r="4.34"/>
        <circle class="cls-213" cx="128" cy="161.27" r="4.19"/>
        <circle class="cls-89" cx="128" cy="161.27" r="4.05"/>
        <circle class="cls-88" cx="128" cy="161.27" r="3.91"/>
        <circle class="cls-27" cx="128" cy="161.27" r="3.76"/>
        <circle class="cls-101" cx="128" cy="161.27" r="3.62"/>
        <circle class="cls-97" cx="128" cy="161.27" r="3.47"/>
        <circle class="cls-131" cx="128" cy="161.27" r="3.33"/>
        <circle class="cls-4" cx="128" cy="161.27" r="3.18"/>
        <circle class="cls-111" cx="128" cy="161.27" r="3.04"/>
        <circle class="cls-59" cx="128" cy="161.27" r="2.89"/>
        <circle class="cls-220" cx="128" cy="161.27" r="2.75"/>
        <circle class="cls-87" cx="128" cy="161.27" r="2.6"/>
        <circle class="cls-36" cx="128" cy="161.27" r="2.46"/>
        <circle class="cls-184" cx="128" cy="161.27" r="2.31"/>
        <circle class="cls-45" cx="128" cy="161.27" r="2.17"/>
        <circle class="cls-146" cx="128" cy="161.27" r="2.02"/>
        <circle class="cls-144" cx="128" cy="161.27" r="1.88"/>
        <circle class="cls-8" cx="128" cy="161.27" r="1.74"/>
        <circle class="cls-115" cx="128" cy="161.27" r="1.59"/>
        <circle class="cls-128" cx="128" cy="161.27" r="1.45"/>
        <circle class="cls-203" cx="128" cy="161.27" r="1.3"/>
        <circle class="cls-13" cx="128" cy="161.27" r="1.16"/>
        <circle class="cls-204" cx="128" cy="161.27" r="1.01"/>
        <circle class="cls-194" cx="128" cy="161.27" r=".87"/>
        <circle class="cls-196" cx="128" cy="161.27" r=".72"/>
        <circle class="cls-83" cx="128" cy="161.27" r=".58"/>
        <circle class="cls-31" cx="128" cy="161.27" r=".43"/>
        <circle class="cls-224" cx="128" cy="161.27" r=".29"/>
        <circle class="cls-215" cx="128" cy="161.27" r=".14"/>
      </g>
    </g>
    <path class="cls-110" d="M157.67,161.27c0,1.24-.08,2.46-.22,3.65-16.19,3.47-29.64,11.37-40.59,23.85-1.47-.59-2.89-1.31-4.23-2.12,5.73-6.86,12.48-12.5,20.01-17.27-9.21,2.83-17.9,6.58-25.22,13.25-1.1-1.06-2.12-2.21-3.05-3.43,8.77-7.78,19.17-12.14,30.08-15.58h-36.02c-.06-.77-.09-1.55-.09-2.34s.03-1.59.09-2.37h36.17c-10.94-3.41-21.41-7.74-30.23-15.57.95-1.24,1.98-2.41,3.11-3.48,7.44,6.78,16.31,10.54,25.63,13.48-7.7-4.72-14.61-10.36-20.51-17.42,1.35-.82,2.77-1.54,4.25-2.14,10.95,12.48,24.4,20.38,40.59,23.85.15,1.2.22,2.42.22,3.65Z"/>
    <path class="cls-149" d="M111.86,193.88l-8.08,8.08c-6.76-4.04-12.43-9.71-16.47-16.47l8.08-8.08c3.54,7.13,9.34,12.94,16.47,16.47Z"/>
    <path class="cls-149" d="M103.77,120.57l8.08,8.08c-7.13,3.53-12.94,9.34-16.47,16.47l-8.08-8.08c4.04-6.76,9.71-12.43,16.48-16.47Z"/>
    <path class="cls-149" d="M144.14,128.65l8.08-8.08c6.76,4.04,12.44,9.71,16.47,16.48l-8.08,8.08c-3.53-7.13-9.34-12.94-16.47-16.47Z"/>
    <path class="cls-149" d="M160.62,177.41l8.08,8.08c-4.04,6.76-9.71,12.43-16.47,16.47l-8.08-8.08c7.13-3.54,12.94-9.34,16.47-16.47Z"/>
  </g>
  <path class="cls-110" d="M150.77,78.35h-3v-13.63c0-10.9-8.87-19.77-19.77-19.77s-19.77,8.87-19.77,19.77v10.89h-3v-10.89c0-12.55,10.21-22.77,22.77-22.77s22.77,10.21,22.77,22.77v13.63Z"/>
  <path class="cls-110" d="M72.79,96.11h-3v-31.4c0-32.1,26.11-58.21,58.21-58.21s58.21,26.11,58.21,58.21v30.73h-3v-30.73c0-30.44-24.77-55.21-55.21-55.21s-55.21,24.77-55.21,55.21v31.4Z"/>
</svg>