<?xml version="1.0" encoding="UTF-8"?>
<svg id="Layer_1" data-name="Layer 1" xmlns="http://www.w3.org/2000/svg" xmlns:xlink="http://www.w3.org/1999/xlink" viewBox="0 0 256 256">
  <defs>
    <style>
      .cls-1 {
        fill: #7a0f0f;
      }

      .cls-2 {
        fill: #ad0909;
      }

      .cls-3 {
        fill: none;
      }

      .cls-4 {
        fill: #2f1818;
      }

      .cls-5 {
        fill: #980c0c;
      }

      .cls-6 {
        fill: #3d1616;
      }

      .cls-7 {
        fill: #cc0606;
      }

      .cls-8 {
        fill: #251919;
      }

      .cls-9 {
        fill: #fb0000;
      }

      .cls-10 {
        fill: #8d0d0d;
      }

      .cls-11 {
        fill: #5e1212;
      }

      .cls-12 {
        fill: #521414;
      }

      .cls-13 {
        fill: #211919;
      }

      .cls-14 {
        fill: #bb0808;
      }

      .cls-15 {
        fill: #511414;
      }

      .cls-16 {
        fill: #751010;
      }

      .cls-17 {
        fill: #fd0000;
      }

      .cls-18 {
        fill: #a30a0a;
      }

      .cls-19 {
        fill: #741010;
      }

      .cls-20 {
        fill: #9c0b0b;
      }

      .cls-21 {
        fill: #9b0b0b;
      }

      .cls-22 {
        fill: #691111;
      }

      .cls-23 {
        fill: #810e0e;
      }

      .cls-24 {
        fill: #a10b0b;
      }

      .cls-25 {
        fill: #a80a0a;
      }

      .cls-26 {
        fill: #970c0c;
      }

      .cls-27 {
        fill: #331717;
      }

      .cls-28 {
        fill: #761010;
      }

      .cls-29 {
        fill: #e50303;
      }

      .cls-30 {
        fill: #4b1414;
      }

      .cls-31 {
        fill: #1c1a1a;
      }

      .cls-32 {
        fill: #f60101;
      }

      .cls-33 {
        fill: #5b1313;
      }

      .cls-34 {
        fill: #421515;
      }

      .cls-35 {
        fill: #d70505;
      }

      .cls-36 {
        fill: #2a1818;
      }

      .cls-37 {
        fill: #a50a0a;
      }

      .cls-38 {
        fill: #c70606;
      }

      .cls-39 {
        fill: #c30707;
      }

      .cls-40 {
        fill: #c50707;
      }

      .cls-41 {
        fill: #d30505;
      }

      .cls-42 {
        fill: #401616;
      }

      .cls-43 {
        fill: #6b1111;
      }

      .cls-44 {
        fill: #391616;
      }

      .cls-45 {
        fill: #281818;
      }

      .cls-46 {
        fill: #b80808;
      }

      .cls-47 {
        fill: #b50808;
      }

      .cls-48 {
        fill: #461515;
      }

      .cls-49 {
        fill: #7c0f0f;
      }

      .cls-50 {
        fill: #501414;
      }

      .cls-51 {
        fill: #8f0d0d;
      }

      .cls-52 {
        fill: #611212;
      }

      .cls-53 {
        fill: #aa0a0a;
      }

      .cls-54 {
        fill: #4c1414;
      }

      .cls-55 {
        fill: #ee0202;
      }

      .cls-56 {
        fill: #d40505;
      }

      .cls-57 {
        fill: #850e0e;
      }

      .cls-58 {
        fill: #601212;
      }

      .cls-59 {
        fill: #2d1818;
      }

      .cls-60 {
        fill: #c00707;
      }

      .cls-61 {
        fill: #940c0c;
      }

      .cls-62 {
        fill: #da0404;
      }

      .cls-63 {
        fill: #591313;
      }

      .cls-64 {
        fill: #7d0f0f;
      }

      .cls-65 {
        fill: #4e1414;
      }

      .cls-66 {
        fill: #ac0909;
      }

      .cls-67 {
        fill: #8e0d0d;
      }

      .cls-68 {
        fill: #ae0909;
      }

      .cls-69 {
        fill: #381717;
      }

      .cls-70 {
        fill: #9a0c0c;
      }

      .cls-71 {
        fill: #b20909;
      }

      .cls-72 {
        fill: #731010;
      }

      .cls-73 {
        fill: #ed0202;
      }

      .cls-74 {
        fill: #481515;
      }

      .cls-75 {
        fill: #a40a0a;
      }

      .cls-76 {
        fill: #8b0d0d;
      }

      .cls-77 {
        fill: #7b0f0f;
      }

      .cls-78 {
        fill: #ce0606;
      }

      .cls-79 {
        fill: #9d0b0b;
      }

      .cls-80 {
        fill: #950c0c;
      }

      .cls-81 {
        fill: #dd0404;
      }

      .cls-82 {
        fill: #6d1111;
      }

      .cls-83 {
        fill: #1d1a1a;
      }

      .cls-84 {
        fill: #f10202;
      }

      .cls-85 {
        fill: #f70101;
      }

      .cls-86 {
        fill: #711010;
      }

      .cls-87 {
        fill: #2b1818;
      }

      .cls-88 {
        fill: #341717;
      }

      .cls-89 {
        fill: #351717;
      }

      .cls-90 {
        fill: #c20707;
      }

      .cls-91 {
        fill: #3c1616;
      }

      .cls-92 {
        fill: #701010;
      }

      .cls-93 {
        fill: #561313;
      }

      .cls-94 {
        fill: #371717;
      }

      .cls-95 {
        fill: #830e0e;
      }

      .cls-96 {
        fill: #581313;
      }

      .cls-97 {
        fill: #311717;
      }

      .cls-98 {
        fill: #e20303;
      }

      .cls-99 {
        fill: #4f1414;
      }

      .cls-100 {
        fill: #ab0a0a;
      }

      .cls-101 {
        fill: #321717;
      }

      .cls-102 {
        fill: #9f0b0b;
      }

      .cls-103 {
        fill: #7e0f0f;
      }

      .cls-104 {
        fill: #4d1414;
      }

      .cls-105 {
        fill: #d80404;
      }

      .cls-106 {
        fill: #3b1616;
      }

      .cls-107 {
        fill: #890d0d;
      }

      .cls-108 {
        fill: #de0404;
      }

      .cls-109 {
        fill: #dc0404;
      }

      .cls-110 {
        fill: #fff;
      }

      .cls-111 {
        fill: #2e1818;
      }

      .cls-112 {
        fill: #bf0707;
      }

      .cls-113 {
        fill: #f40101;
      }

      .cls-114 {
        fill: #fe0000;
      }

      .cls-115 {
        fill: #241919;
      }

      .cls-116 {
        fill: #b70808;
      }

      .cls-117 {
        fill: #411616;
      }

      .cls-118 {
        fill: #840e0e;
      }

      .cls-119 {
        fill: #6f1010;
      }

      .cls-120 {
        fill: #721010;
      }

      .cls-121 {
        fill: #b30909;
      }

      .cls-122 {
        fill: #990c0c;
      }

      .cls-123 {
        fill: #621212;
      }

      .cls-124 {
        fill: #cb0606;
      }

      .cls-125 {
        fill: #551313;
      }

      .cls-126 {
        fill: #bc0808;
      }

      .cls-127 {
        fill: #ca0606;
      }

      .cls-128 {
        fill: #231919;
      }

      .cls-129 {
        fill: #05d690;
      }

      .cls-130 {
        fill: #870e0e;
      }

      .cls-131 {
        fill: #ef0202;
      }

      .cls-132 {
        fill: #301717;
      }

      .cls-133 {
        fill: #431515;
      }

      .cls-134 {
        fill: #860e0e;
      }

      .cls-135 {
        fill: #651111;
      }

      .cls-136 {
        fill: #531414;
      }

      .cls-137 {
        fill: #3a1616;
      }

      .cls-138 {
        fill: #6e1010;
      }

      .cls-139 {
        fill: #e40303;
      }

      .cls-140 {
        opacity: .5;
      }

      .cls-141 {
        fill: #b40909;
      }

      .cls-142 {
        fill: #ec0202;
      }

      .cls-143 {
        fill: #f50101;
      }

      .cls-144 {
        fill: #9e0b0b;
      }

      .cls-145 {
        fill: #261919;
      }

      .cls-146 {
        fill: #cf0505;
      }

      .cls-147 {
        fill: #271919;
      }

      .cls-148 {
        fill: #770f0f;
      }

      .cls-149 {
        fill: #e80303;
      }

      .cls-150 {
        fill: red;
      }

      .cls-151 {
        fill: #5f1212;
      }

      .cls-152 {
        fill: #451515;
      }

      .cls-153 {
        fill: #b10909;
      }

      .cls-154 {
        fill: #b60808;
      }

      .cls-155 {
        fill: #e00404;
      }

      .cls-156 {
        fill: #f30101;
      }

      .cls-157 {
        fill: #780f0f;
      }

      .cls-158 {
        fill: #d20505;
      }

      .cls-159 {
        fill: #eb0202;
      }

      .cls-160 {
        fill: #e90303;
      }

      .cls-161 {
        fill: #4a1515;
      }

      .cls-162 {
        fill: #e10303;
      }

      .cls-163 {
        fill: #a00b0b;
      }

      .cls-164 {
        fill: #ba0808;
      }

      .cls-165 {
        fill: #d90404;
      }

      .cls-166 {
        fill: #641212;
      }

      .cls-167 {
        fill: #3f1616;
      }

      .cls-168 {
        fill: #fc0000;
      }

      .cls-169 {
        fill: #e60303;
      }

      .cls-170 {
        fill: #db0404;
      }

      .cls-171 {
        fill: #c90606;
      }

      .cls-172 {
        fill: #671111;
      }

      .cls-173 {
        fill: #fa0101;
      }

      .cls-174 {
        fill: #a90a0a;
      }

      .cls-175 {
        fill: #800e0e;
      }

      .cls-176 {
        fill: #f80101;
      }

      .cls-177 {
        fill: #3e1616;
      }

      .cls-178 {
        fill: #d10505;
      }

      .cls-179 {
        fill: #631212;
      }

      .cls-180 {
        fill: #6c1111;
      }

      .cls-181 {
        fill: #8a0d0d;
      }

      .cls-182 {
        fill: #880d0d;
      }

      .cls-183 {
        fill: #b00909;
      }

      .cls-184 {
        fill: #611;
      }

      .cls-185 {
        fill: #291818;
      }

      .cls-186 {
        fill: #491515;
      }

      .cls-187 {
        fill: #d50505;
      }

      .cls-188 {
        fill: #f20101;
      }

      .cls-189 {
        fill: #a20b0b;
      }

      .cls-190 {
        fill: #681111;
      }

      .cls-191 {
        fill: #a70a0a;
      }

      .cls-192 {
        fill: #471515;
      }

      .cls-193 {
        fill: #5d1212;
      }

      .cls-194 {
        fill: #c10707;
      }

      .cls-195 {
        fill: #1f1919;
      }

      .cls-196 {
        fill: #e30303;
      }

      .cls-197 {
        fill: #1e1a1a;
      }

      .cls-198 {
        fill: #790f0f;
      }

      .cls-199 {
        fill: #c80606;
      }

      .cls-200 {
        fill: #be0707;
      }

      .cls-201 {
        fill: #a60a0a;
      }

      .cls-202 {
        fill: #910d0d;
      }

      .cls-203 {
        fill: #c40707;
      }

      .cls-204 {
        fill: #221919;
      }

      .cls-205 {
        fill: #201919;
      }

      .cls-206 {
        fill: #920c0c;
      }

      .cls-207 {
        fill: #6a1111;
      }

      .cls-208 {
        fill: #ea0202;
      }

      .cls-209 {
        fill: #441515;
      }

      .cls-210 {
        fill: #571313;
      }

      .cls-211 {
        fill: #cd0606;
      }

      .cls-212 {
        fill: #bd0808;
      }

      .cls-213 {
        fill: #820e0e;
      }

      .cls-214 {
        fill: #361717;
      }

      .cls-215 {
        fill: #df0404;
      }

      .cls-216 {
        fill: #1a1a1a;
      }

      .cls-217 {
        fill: #930c0c;
      }

      .cls-218 {
        fill: #e70303;
      }

      .cls-219 {
        fill: #d00505;
      }

      .cls-220 {
        fill: #f00202;
      }

      .cls-221 {
        fill: #2c1818;
      }

      .cls-222 {
        clip-path: url(#clippath);
      }

      .cls-223 {
        fill: #5a1313;
      }

      .cls-224 {
        fill: #900d0d;
      }

      .cls-225 {
        fill: #1b1a1a;
      }

      .cls-226 {
        fill: #b90808;
      }

      .cls-227 {
        fill: #c60707;
      }

      .cls-228 {
        fill: #7f0e0e;
      }

      .cls-229 {
        fill: #541313;
      }

      .cls-230 {
        fill: #960c0c;
      }

      .cls-231 {
        fill: #f90101;
      }

      .cls-232 {
        fill: #af0909;
      }

      .cls-233 {
        fill: #d60505;
      }

      .cls-234 {
        fill: #5c1212;
      }
    </style>
    <clipPath id="clippath">
      <path class="cls-3" d="M195.73,92.68l23.89,23.89c-3.98,6.67-9.58,12.26-16.24,16.24l-23.89-23.89-23.89,23.89c-6.66-3.98-12.26-9.58-16.24-16.24l23.89-23.89-23.89-23.89c3.98-6.67,9.58-12.26,16.24-16.24l23.89,23.89,23.89-23.89c6.67,3.98,12.26,9.58,16.24,16.24l-23.89,23.89Z"/>
    </clipPath>
  </defs>
  <g>
    <path class="cls-110" d="M60.68,148.66h0c-15.04,0-27.23,12.19-27.23,27.23h0v27.23h54.46v-27.23h0c0-15.04-12.19-27.23-27.23-27.23Z"/>
    <rect class="cls-216" x="64.08" y="184.53" width="13.61" height="13.61" rx="6.81" ry="6.81" transform="translate(262.23 120.45) rotate(90)"/>
    <rect class="cls-216" x="43.66" y="184.53" width="13.61" height="13.61" rx="6.81" ry="6.81" transform="translate(241.81 140.87) rotate(90)"/>
    <rect class="cls-129" x="68.76" y="189.21" width="4.25" height="4.25" rx="2.13" ry="2.13"/>
    <rect class="cls-150" x="48.34" y="189.21" width="4.25" height="4.25" rx="2.13" ry="2.13" transform="translate(241.81 140.87) rotate(90)"/>
  </g>
  <g>
    <circle class="cls-216" cx="179.49" cy="92.68" r="54.24"/>
    <g class="cls-140">
      <g class="cls-222">
        <rect class="cls-150" x="139.35" y="52.55" width="80.27" height="80.27"/>
        <circle class="cls-150" cx="179.49" cy="92.68" r="32.66"/>
        <circle class="cls-114" cx="179.49" cy="92.68" r="32.52"/>
        <circle class="cls-17" cx="179.49" cy="92.68" r="32.38"/>
        <circle class="cls-168" cx="179.49" cy="92.68" r="32.23"/>
        <circle class="cls-9" cx="179.49" cy="92.68" r="32.09"/>
        <circle class="cls-173" cx="179.49" cy="92.68" r="31.95"/>
        <circle class="cls-231" cx="179.49" cy="92.68" r="31.81"/>
        <circle class="cls-176" cx="179.49" cy="92.68" r="31.66"/>
        <circle class="cls-85" cx="179.49" cy="92.68" r="31.52"/>
        <circle class="cls-32" cx="179.49" cy="92.68" r="31.38"/>
        <circle class="cls-143" cx="179.49" cy="92.68" r="31.24"/>
        <circle class="cls-113" cx="179.49" cy="92.68" r="31.09"/>
        <circle class="cls-156" cx="179.49" cy="92.68" r="30.95"/>
        <circle class="cls-188" cx="179.49" cy="92.68" r="30.81"/>
        <circle class="cls-84" cx="179.49" cy="92.68" r="30.66"/>
        <circle class="cls-220" cx="179.49" cy="92.68" r="30.52"/>
        <circle class="cls-131" cx="179.49" cy="92.68" r="30.38"/>
        <circle class="cls-55" cx="179.49" cy="92.68" r="30.24"/>
        <circle class="cls-73" cx="179.49" cy="92.68" r="30.09"/>
        <circle class="cls-142" cx="179.49" cy="92.68" r="29.95"/>
        <circle class="cls-159" cx="179.49" cy="92.68" r="29.81"/>
        <circle class="cls-208" cx="179.49" cy="92.68" r="29.67"/>
        <circle class="cls-160" cx="179.49" cy="92.68" r="29.52"/>
        <circle class="cls-149" cx="179.49" cy="92.68" r="29.38"/>
        <circle class="cls-218" cx="179.49" cy="92.68" r="29.24"/>
        <circle class="cls-169" cx="179.49" cy="92.68" r="29.1"/>
        <circle class="cls-29" cx="179.49" cy="92.68" r="28.95"/>
        <circle class="cls-139" cx="179.49" cy="92.68" r="28.81"/>
        <circle class="cls-196" cx="179.49" cy="92.68" r="28.67"/>
        <circle class="cls-98" cx="179.49" cy="92.68" r="28.53"/>
        <circle class="cls-162" cx="179.49" cy="92.68" r="28.38"/>
        <circle class="cls-155" cx="179.49" cy="92.68" r="28.24"/>
        <circle class="cls-215" cx="179.49" cy="92.68" r="28.1"/>
        <circle class="cls-108" cx="179.49" cy="92.68" r="27.96"/>
        <circle class="cls-81" cx="179.49" cy="92.68" r="27.81"/>
        <circle class="cls-109" cx="179.49" cy="92.68" r="27.67"/>
        <circle class="cls-170" cx="179.49" cy="92.68" r="27.53"/>
        <circle class="cls-62" cx="179.49" cy="92.68" r="27.38"/>
        <circle class="cls-165" cx="179.49" cy="92.68" r="27.24"/>
        <circle class="cls-105" cx="179.49" cy="92.68" r="27.1"/>
        <circle class="cls-35" cx="179.49" cy="92.68" r="26.96"/>
        <circle class="cls-233" cx="179.49" cy="92.68" r="26.81"/>
        <circle class="cls-187" cx="179.49" cy="92.68" r="26.67"/>
        <circle class="cls-56" cx="179.49" cy="92.68" r="26.53"/>
        <circle class="cls-41" cx="179.49" cy="92.68" r="26.39"/>
        <circle class="cls-158" cx="179.49" cy="92.68" r="26.24"/>
        <circle class="cls-178" cx="179.49" cy="92.68" r="26.1"/>
        <circle class="cls-219" cx="179.49" cy="92.68" r="25.96"/>
        <circle class="cls-146" cx="179.49" cy="92.68" r="25.82"/>
        <circle class="cls-78" cx="179.49" cy="92.68" r="25.67"/>
        <circle class="cls-211" cx="179.49" cy="92.68" r="25.53"/>
        <circle class="cls-7" cx="179.49" cy="92.68" r="25.39"/>
        <circle class="cls-124" cx="179.49" cy="92.68" r="25.25"/>
        <circle class="cls-127" cx="179.49" cy="92.68" r="25.1"/>
        <circle class="cls-171" cx="179.49" cy="92.68" r="24.96"/>
        <circle class="cls-199" cx="179.49" cy="92.68" r="24.82"/>
        <circle class="cls-38" cx="179.49" cy="92.68" r="24.67"/>
        <circle class="cls-227" cx="179.49" cy="92.68" r="24.53"/>
        <circle class="cls-40" cx="179.49" cy="92.68" r="24.39"/>
        <circle class="cls-203" cx="179.49" cy="92.68" r="24.25"/>
        <circle class="cls-39" cx="179.49" cy="92.68" r="24.1"/>
        <circle class="cls-90" cx="179.49" cy="92.68" r="23.96"/>
        <circle class="cls-194" cx="179.49" cy="92.68" r="23.82"/>
        <circle class="cls-60" cx="179.49" cy="92.68" r="23.68"/>
        <circle class="cls-112" cx="179.49" cy="92.68" r="23.53"/>
        <circle class="cls-200" cx="179.49" cy="92.68" r="23.39"/>
        <circle class="cls-212" cx="179.49" cy="92.68" r="23.25"/>
        <circle class="cls-126" cx="179.49" cy="92.68" r="23.11"/>
        <circle class="cls-14" cx="179.49" cy="92.68" r="22.96"/>
        <circle class="cls-164" cx="179.49" cy="92.68" r="22.82"/>
        <circle class="cls-226" cx="179.49" cy="92.68" r="22.68"/>
        <circle class="cls-46" cx="179.49" cy="92.68" r="22.54"/>
        <circle class="cls-116" cx="179.49" cy="92.68" r="22.39"/>
        <circle class="cls-154" cx="179.49" cy="92.68" r="22.25"/>
        <circle class="cls-47" cx="179.49" cy="92.68" r="22.11"/>
        <circle class="cls-141" cx="179.49" cy="92.68" r="21.96"/>
        <circle class="cls-121" cx="179.49" cy="92.68" r="21.82"/>
        <circle class="cls-71" cx="179.49" cy="92.68" r="21.68"/>
        <circle class="cls-153" cx="179.49" cy="92.68" r="21.54"/>
        <circle class="cls-183" cx="179.49" cy="92.68" r="21.39"/>
        <circle class="cls-232" cx="179.49" cy="92.68" r="21.25"/>
        <circle class="cls-68" cx="179.49" cy="92.68" r="21.11"/>
        <circle class="cls-2" cx="179.49" cy="92.68" r="20.97"/>
        <circle class="cls-66" cx="179.49" cy="92.68" r="20.82"/>
        <circle class="cls-100" cx="179.49" cy="92.68" r="20.68"/>
        <circle class="cls-53" cx="179.49" cy="92.68" r="20.54"/>
        <circle class="cls-174" cx="179.49" cy="92.68" r="20.4"/>
        <circle class="cls-25" cx="179.49" cy="92.68" r="20.25"/>
        <circle class="cls-191" cx="179.49" cy="92.68" r="20.11"/>
        <circle class="cls-201" cx="179.49" cy="92.68" r="19.97"/>
        <circle class="cls-37" cx="179.49" cy="92.68" r="19.83"/>
        <circle class="cls-75" cx="179.49" cy="92.68" r="19.68"/>
        <circle class="cls-18" cx="179.49" cy="92.68" r="19.54"/>
        <circle class="cls-189" cx="179.49" cy="92.68" r="19.4"/>
        <circle class="cls-24" cx="179.49" cy="92.68" r="19.25"/>
        <circle class="cls-163" cx="179.49" cy="92.68" r="19.11"/>
        <circle class="cls-102" cx="179.49" cy="92.68" r="18.97"/>
        <circle class="cls-144" cx="179.49" cy="92.68" r="18.83"/>
        <circle class="cls-79" cx="179.49" cy="92.68" r="18.68"/>
        <circle class="cls-20" cx="179.49" cy="92.68" r="18.54"/>
        <circle class="cls-21" cx="179.49" cy="92.68" r="18.4"/>
        <circle class="cls-70" cx="179.49" cy="92.68" r="18.26"/>
        <circle class="cls-122" cx="179.49" cy="92.68" r="18.11"/>
        <circle class="cls-5" cx="179.49" cy="92.68" r="17.97"/>
        <circle class="cls-26" cx="179.49" cy="92.68" r="17.83"/>
        <circle class="cls-230" cx="179.49" cy="92.68" r="17.69"/>
        <circle class="cls-80" cx="179.49" cy="92.68" r="17.54"/>
        <circle class="cls-61" cx="179.49" cy="92.68" r="17.4"/>
        <circle class="cls-217" cx="179.49" cy="92.68" r="17.26"/>
        <circle class="cls-206" cx="179.49" cy="92.68" r="17.12"/>
        <circle class="cls-202" cx="179.49" cy="92.68" r="16.97"/>
        <circle class="cls-224" cx="179.49" cy="92.68" r="16.83"/>
        <circle class="cls-51" cx="179.49" cy="92.68" r="16.69"/>
        <circle class="cls-67" cx="179.49" cy="92.68" r="16.54"/>
        <circle class="cls-10" cx="179.49" cy="92.68" r="16.4"/>
        <circle class="cls-76" cx="179.49" cy="92.68" r="16.26"/>
        <circle class="cls-181" cx="179.49" cy="92.68" r="16.12"/>
        <circle class="cls-107" cx="179.49" cy="92.68" r="15.97"/>
        <circle class="cls-182" cx="179.49" cy="92.68" r="15.83"/>
        <circle class="cls-130" cx="179.49" cy="92.68" r="15.69"/>
        <circle class="cls-134" cx="179.49" cy="92.68" r="15.55"/>
        <circle class="cls-57" cx="179.49" cy="92.68" r="15.4"/>
        <circle class="cls-118" cx="179.49" cy="92.68" r="15.26"/>
        <circle class="cls-95" cx="179.49" cy="92.68" r="15.12"/>
        <circle class="cls-213" cx="179.49" cy="92.68" r="14.98"/>
        <circle class="cls-23" cx="179.49" cy="92.68" r="14.83"/>
        <circle class="cls-175" cx="179.49" cy="92.68" r="14.69"/>
        <circle class="cls-228" cx="179.49" cy="92.68" r="14.55"/>
        <circle class="cls-103" cx="179.49" cy="92.68" r="14.41"/>
        <circle class="cls-64" cx="179.49" cy="92.68" r="14.26"/>
        <circle class="cls-49" cx="179.49" cy="92.68" r="14.12"/>
        <circle class="cls-77" cx="179.49" cy="92.68" r="13.98"/>
        <circle class="cls-1" cx="179.49" cy="92.68" r="13.83"/>
        <circle class="cls-198" cx="179.49" cy="92.68" r="13.69"/>
        <circle class="cls-157" cx="179.49" cy="92.68" r="13.55"/>
        <circle class="cls-148" cx="179.49" cy="92.68" r="13.41"/>
        <circle class="cls-28" cx="179.49" cy="92.68" r="13.26"/>
        <circle class="cls-16" cx="179.49" cy="92.68" r="13.12"/>
        <circle class="cls-19" cx="179.49" cy="92.68" r="12.98"/>
        <circle class="cls-72" cx="179.49" cy="92.68" r="12.84"/>
        <circle class="cls-120" cx="179.49" cy="92.68" r="12.69"/>
        <circle class="cls-86" cx="179.49" cy="92.68" r="12.55"/>
        <circle class="cls-92" cx="179.49" cy="92.68" r="12.41"/>
        <circle class="cls-119" cx="179.49" cy="92.68" r="12.27"/>
        <circle class="cls-138" cx="179.49" cy="92.68" r="12.12"/>
        <circle class="cls-82" cx="179.49" cy="92.68" r="11.98"/>
        <circle class="cls-180" cx="179.49" cy="92.68" r="11.84"/>
        <circle class="cls-43" cx="179.49" cy="92.68" r="11.7"/>
        <circle class="cls-207" cx="179.49" cy="92.68" r="11.55"/>
        <circle class="cls-22" cx="179.49" cy="92.68" r="11.41"/>
        <circle class="cls-190" cx="179.49" cy="92.68" r="11.27"/>
        <circle class="cls-172" cx="179.49" cy="92.68" r="11.12"/>
        <circle class="cls-184" cx="179.49" cy="92.68" r="10.98"/>
        <circle class="cls-135" cx="179.49" cy="92.68" r="10.84"/>
        <circle class="cls-166" cx="179.49" cy="92.68" r="10.7"/>
        <circle class="cls-179" cx="179.49" cy="92.68" r="10.55"/>
        <circle class="cls-123" cx="179.49" cy="92.68" r="10.41"/>
        <circle class="cls-52" cx="179.49" cy="92.68" r="10.27"/>
        <circle class="cls-58" cx="179.49" cy="92.68" r="10.13"/>
        <circle class="cls-151" cx="179.49" cy="92.68" r="9.98"/>
        <circle class="cls-11" cx="179.49" cy="92.68" r="9.84"/>
        <circle class="cls-193" cx="179.49" cy="92.68" r="9.7"/>
        <circle class="cls-234" cx="179.49" cy="92.68" r="9.56"/>
        <circle class="cls-33" cx="179.49" cy="92.68" r="9.41"/>
        <circle class="cls-223" cx="179.49" cy="92.68" r="9.27"/>
        <circle class="cls-63" cx="179.49" cy="92.68" r="9.13"/>
        <circle class="cls-96" cx="179.49" cy="92.68" r="8.99"/>
        <circle class="cls-210" cx="179.49" cy="92.68" r="8.84"/>
        <circle class="cls-93" cx="179.49" cy="92.68" r="8.7"/>
        <circle class="cls-125" cx="179.49" cy="92.68" r="8.56"/>
        <circle class="cls-229" cx="179.49" cy="92.68" r="8.42"/>
        <circle class="cls-136" cx="179.49" cy="92.68" r="8.27"/>
        <circle class="cls-12" cx="179.49" cy="92.68" r="8.13"/>
        <circle class="cls-15" cx="179.49" cy="92.68" r="7.99"/>
        <circle class="cls-50" cx="179.49" cy="92.68" r="7.84"/>
        <circle class="cls-99" cx="179.49" cy="92.68" r="7.7"/>
        <circle class="cls-65" cx="179.49" cy="92.68" r="7.56"/>
        <circle class="cls-104" cx="179.49" cy="92.68" r="7.42"/>
        <circle class="cls-54" cx="179.49" cy="92.68" r="7.27"/>
        <circle class="cls-30" cx="179.49" cy="92.68" r="7.13"/>
        <circle class="cls-161" cx="179.49" cy="92.68" r="6.99"/>
        <circle class="cls-186" cx="179.49" cy="92.68" r="6.85"/>
        <circle class="cls-74" cx="179.49" cy="92.68" r="6.7"/>
        <circle class="cls-192" cx="179.49" cy="92.68" r="6.56"/>
        <circle class="cls-48" cx="179.49" cy="92.68" r="6.42"/>
        <circle class="cls-152" cx="179.49" cy="92.68" r="6.28"/>
        <circle class="cls-209" cx="179.49" cy="92.68" r="6.13"/>
        <circle class="cls-133" cx="179.49" cy="92.68" r="5.99"/>
        <circle class="cls-34" cx="179.49" cy="92.68" r="5.85"/>
        <circle class="cls-117" cx="179.49" cy="92.68" r="5.71"/>
        <circle class="cls-42" cx="179.49" cy="92.68" r="5.56"/>
        <circle class="cls-167" cx="179.49" cy="92.68" r="5.42"/>
        <circle class="cls-177" cx="179.49" cy="92.68" r="5.28"/>
        <circle class="cls-6" cx="179.49" cy="92.68" r="5.13"/>
        <circle class="cls-91" cx="179.49" cy="92.68" r="4.99"/>
        <circle class="cls-106" cx="179.49" cy="92.68" r="4.85"/>
        <circle class="cls-137" cx="179.49" cy="92.68" r="4.71"/>
        <circle class="cls-44" cx="179.49" cy="92.68" r="4.56"/>
        <circle class="cls-69" cx="179.49" cy="92.68" r="4.42"/>
        <circle class="cls-94" cx="179.49" cy="92.68" r="4.28"/>
        <circle class="cls-214" cx="179.49" cy="92.68" r="4.14"/>
        <circle class="cls-89" cx="179.49" cy="92.68" r="3.99"/>
        <circle class="cls-88" cx="179.49" cy="92.68" r="3.85"/>
        <circle class="cls-27" cx="179.49" cy="92.68" r="3.71"/>
        <circle class="cls-101" cx="179.49" cy="92.68" r="3.57"/>
        <circle class="cls-97" cx="179.49" cy="92.68" r="3.42"/>
        <circle class="cls-132" cx="179.49" cy="92.68" r="3.28"/>
        <circle class="cls-4" cx="179.49" cy="92.68" r="3.14"/>
        <circle class="cls-111" cx="179.49" cy="92.68" r="3"/>
        <circle class="cls-59" cx="179.49" cy="92.68" r="2.85"/>
        <circle class="cls-221" cx="179.49" cy="92.68" r="2.71"/>
        <circle class="cls-87" cx="179.49" cy="92.68" r="2.57"/>
        <circle class="cls-36" cx="179.49" cy="92.68" r="2.42"/>
        <circle class="cls-185" cx="179.49" cy="92.68" r="2.28"/>
        <circle class="cls-45" cx="179.49" cy="92.68" r="2.14"/>
        <circle class="cls-147" cx="179.49" cy="92.68" r="2"/>
        <circle class="cls-145" cx="179.49" cy="92.68" r="1.85"/>
        <circle class="cls-8" cx="179.49" cy="92.68" r="1.71"/>
        <circle class="cls-115" cx="179.49" cy="92.68" r="1.57"/>
        <circle class="cls-128" cx="179.49" cy="92.68" r="1.43"/>
        <circle class="cls-204" cx="179.49" cy="92.68" r="1.28"/>
        <circle class="cls-13" cx="179.49" cy="92.68" r="1.14"/>
        <circle class="cls-205" cx="179.49" cy="92.68" r="1"/>
        <circle class="cls-195" cx="179.49" cy="92.68" r=".86"/>
        <circle class="cls-197" cx="179.49" cy="92.68" r=".71"/>
        <circle class="cls-83" cx="179.49" cy="92.68" r=".57"/>
        <circle class="cls-31" cx="179.49" cy="92.68" r=".43"/>
        <circle class="cls-225" cx="179.49" cy="92.68" r=".29"/>
        <circle class="cls-216" cx="179.49" cy="92.68" r=".14"/>
      </g>
    </g>
    <path class="cls-110" d="M208.75,92.68c0,1.22-.07,2.42-.22,3.6-15.97,3.42-29.23,11.21-40.03,23.52-1.45-.59-2.85-1.29-4.17-2.1,5.65-6.77,12.31-12.33,19.73-17.03-9.08,2.79-17.65,6.49-24.87,13.07-1.09-1.05-2.09-2.18-3.01-3.38,8.64-7.68,18.9-11.97,29.66-15.37h-35.52c-.06-.76-.09-1.53-.09-2.31s.03-1.57.09-2.34h35.67c-10.78-3.36-21.11-7.63-29.81-15.35.93-1.22,1.96-2.38,3.06-3.43,7.33,6.69,16.09,10.39,25.28,13.29-7.6-4.65-14.4-10.22-20.23-17.18,1.33-.81,2.73-1.52,4.2-2.11,10.8,12.31,24.07,20.1,40.03,23.52.15,1.18.22,2.38.22,3.6Z"/>
    <path class="cls-150" d="M163.57,124.84l-7.97,7.97c-6.66-3.98-12.26-9.58-16.24-16.24l7.97-7.97c3.49,7.03,9.21,12.76,16.24,16.24Z"/>
    <path class="cls-150" d="M155.6,52.55l7.97,7.97c-7.03,3.49-12.76,9.21-16.24,16.24l-7.97-7.97c3.98-6.67,9.58-12.26,16.25-16.24Z"/>
    <path class="cls-150" d="M195.41,60.52l7.97-7.97c6.66,3.98,12.26,9.58,16.24,16.25l-7.97,7.97c-3.49-7.03-9.21-12.76-16.24-16.24Z"/>
    <path class="cls-150" d="M211.65,108.6l7.97,7.97c-3.98,6.66-9.57,12.26-16.24,16.24l-7.97-7.97c7.03-3.49,12.76-9.21,16.24-16.24Z"/>
  </g>
  <path class="cls-110" d="M176.66,167.8c-1.92,0-3.75-.67-5.23-1.92-1.65-1.4-2.66-3.36-2.84-5.52l-.77-9.3c-4.61-.89-9.1-2.33-13.39-4.28l-6.07,7.16c-2.89,3.41-8.02,3.84-11.43.95l-12.39-10.49c-3.41-2.89-3.84-8.02-.95-11.43l6.01-7.09c-2.69-3.96-4.9-8.21-6.57-12.68l-9.22.76c-4.44.37-8.38-2.96-8.75-7.41l-1.34-16.18c-.18-2.16.49-4.26,1.89-5.91s3.36-2.66,5.52-2.84l9.15-.76c.9-4.71,2.37-9.29,4.37-13.67l-7-5.93c-1.65-1.4-2.66-3.36-2.84-5.52-.18-2.16.49-4.26,1.89-5.91l10.49-12.39c2.89-3.41,8.02-3.84,11.43-.95l7,5.93c3.95-2.67,8.2-4.86,12.65-6.52l-.77-9.3c-.18-2.16.49-4.26,1.89-5.91,1.4-1.65,3.36-2.66,5.52-2.84l16.18-1.34c2.16-.18,4.26.49,5.91,1.89,1.65,1.4,2.66,3.36,2.84,5.52l.77,9.3c4.72.91,9.32,2.4,13.71,4.42l6.01-7.09c1.4-1.65,3.36-2.66,5.52-2.84,2.16-.18,4.26.49,5.91,1.89l12.39,10.49c3.41,2.89,3.84,8.02.95,11.43l-6.07,7.16c2.65,3.94,4.82,8.18,6.46,12.62l9.38-.78c4.44-.37,8.38,2.96,8.75,7.41l1.34,16.18c.37,4.46-2.96,8.38-7.41,8.75l-9.45.78c-.9,4.62-2.36,9.13-4.33,13.43l7.25,6.14c3.41,2.89,3.84,8.02.95,11.43l-10.49,12.39c-1.4,1.65-3.36,2.66-5.52,2.84-2.16.18-4.26-.49-5.91-1.89l-7.25-6.14c-3.95,2.67-8.2,4.86-12.65,6.52l.77,9.3c.37,4.46-2.96,8.38-7.41,8.75l-16.18,1.34c-.23.02-.46.03-.68.03ZM153.64,143.13l1.03.49c4.7,2.25,9.67,3.84,14.79,4.72l1.13.2.96,11.57c.11,1.37.75,2.61,1.8,3.5,1.05.89,2.38,1.32,3.75,1.2l16.18-1.34c2.83-.23,4.94-2.73,4.71-5.56l-.96-11.57,1.08-.38c4.95-1.73,9.64-4.15,13.95-7.18l.94-.66,8.99,7.62c1.05.89,2.39,1.32,3.75,1.2,1.37-.11,2.62-.75,3.5-1.8l10.49-12.39c1.83-2.17,1.57-5.42-.6-7.26l-8.99-7.62.5-1.03c2.27-4.71,3.87-9.69,4.77-14.82l.2-1.13,11.72-.97c2.83-.23,4.94-2.73,4.71-5.56l-1.34-16.18c-.23-2.83-2.72-4.94-5.56-4.71l-11.66.96-.38-1.08c-1.71-4.94-4.11-9.62-7.13-13.92l-.66-.93,7.53-8.89c1.83-2.17,1.57-5.42-.6-7.26l-12.39-10.49c-1.05-.89-2.38-1.32-3.75-1.2-1.37.11-2.62.75-3.5,1.8l-7.48,8.83-1.03-.5c-4.79-2.33-9.87-3.96-15.09-4.87l-1.13-.2-.96-11.57c-.11-1.37-.75-2.62-1.8-3.5-1.05-.89-2.38-1.32-3.75-1.2l-16.18,1.34c-1.37.11-2.61.75-3.5,1.8-.89,1.05-1.32,2.38-1.2,3.75l.96,11.57-1.08.38c-4.95,1.73-9.64,4.15-13.95,7.18l-.94.66-8.74-7.4c-2.17-1.84-5.42-1.57-7.26.6l-10.49,12.39c-.89,1.05-1.32,2.38-1.2,3.75.11,1.37.75,2.61,1.8,3.5l8.74,7.4-.5,1.03c-2.31,4.79-3.93,9.85-4.82,15.05l-.19,1.13-11.42.95c-1.37.11-2.61.75-3.5,1.8-.89,1.05-1.32,2.38-1.2,3.75l1.34,16.18c.23,2.83,2.72,4.94,5.56,4.71l11.48-.95.38,1.08c1.75,4.96,4.18,9.66,7.24,13.97l.66.94-7.48,8.83c-1.83,2.17-1.57,5.42.6,7.26l12.39,10.49c1.05.89,2.38,1.32,3.75,1.2,1.37-.11,2.61-.75,3.5-1.8l7.53-8.89Z"/>
  <path class="cls-150" d="M61.09,239.5c-.25,0-.5-.01-.75-.04l-12.65-1.41c-1.77-.2-3.36-1.07-4.48-2.47-1.11-1.39-1.62-3.14-1.42-4.91l.79-7.03c-3.28-1.35-6.4-3.06-9.3-5.12l-5.56,4.44c-2.88,2.3-7.09,1.83-9.39-1.05l-7.95-9.95c-1.11-1.39-1.62-3.14-1.42-4.91s1.07-3.36,2.47-4.48l5.5-4.4c-1.4-3.33-2.42-6.81-3.03-10.36l-6.97-.78c-3.66-.41-6.3-3.72-5.9-7.38l1.41-12.65c.2-1.77,1.07-3.36,2.47-4.48,1.39-1.11,3.14-1.62,4.91-1.42l6.91.77c1.37-3.35,3.13-6.54,5.24-9.5l-4.34-5.43c-2.3-2.88-1.83-7.09,1.05-9.39l9.95-7.95c2.88-2.3,7.09-1.83,9.39,1.05l4.34,5.43c3.32-1.39,6.79-2.39,10.33-2.99l.79-7.03c.41-3.66,3.71-6.3,7.38-5.9l12.65,1.41c1.77.2,3.36,1.07,4.48,2.47,1.11,1.39,1.62,3.14,1.42,4.91l-.79,7.03c3.36,1.38,6.56,3.15,9.53,5.28l5.5-4.4c2.88-2.3,7.09-1.83,9.39,1.05l7.95,9.95c2.3,2.88,1.83,7.09-1.05,9.39l-5.56,4.44c1.38,3.32,2.37,6.77,2.96,10.3l7.1.79c3.66.41,6.3,3.72,5.9,7.38l-1.41,12.65c-.2,1.77-1.07,3.36-2.47,4.48-1.39,1.11-3.13,1.62-4.91,1.42l-7.15-.8c-1.36,3.29-3.09,6.42-5.16,9.33l4.5,5.63c2.3,2.88,1.83,7.09-1.05,9.39l-9.95,7.95c-2.88,2.3-7.09,1.83-9.39-1.05l-4.5-5.63c-3.32,1.39-6.79,2.39-10.33,2.99l-.79,7.03c-.38,3.41-3.28,5.94-6.63,5.94ZM33.2,214.79l.92.68c3.25,2.42,6.82,4.38,10.59,5.82l1.07.41-1.04,9.29c-.11.99.17,1.96.79,2.73.62.78,1.51,1.26,2.49,1.37l12.65,1.41c2.04.23,3.88-1.25,4.11-3.28l1.04-9.29,1.13-.16c4.04-.58,7.99-1.72,11.73-3.4l1.05-.47,5.92,7.41c1.28,1.6,3.63,1.86,5.23.58l9.95-7.95c1.6-1.28,1.86-3.62.58-5.23l-5.92-7.41.69-.92c2.44-3.26,4.41-6.82,5.87-10.61l.41-1.07,9.41,1.05c2.03.23,3.88-1.24,4.11-3.28l1.41-12.65c.23-2.04-1.25-3.88-3.28-4.11l-9.36-1.05-.16-1.14c-.57-4.03-1.7-7.97-3.36-11.7l-.46-1.04,7.33-5.86c1.6-1.28,1.86-3.62.58-5.23l-7.95-9.95c-1.28-1.6-3.62-1.86-5.23-.58l-7.29,5.82-.92-.69c-3.31-2.5-6.94-4.51-10.8-5.98l-1.07-.41,1.04-9.29c.11-.99-.17-1.96-.79-2.73-.62-.78-1.5-1.26-2.49-1.37l-12.65-1.41c-2.04-.23-3.88,1.24-4.11,3.28l-1.04,9.29-1.13.16c-4.04.58-7.99,1.72-11.73,3.4l-1.05.47-5.76-7.21c-1.28-1.6-3.62-1.86-5.23-.58l-9.95,7.95c-1.6,1.28-1.86,3.62-.58,5.23l5.76,7.21-.69.92c-2.48,3.31-4.48,6.94-5.94,10.78l-.41,1.07-9.18-1.03c-.99-.11-1.96.17-2.73.79-.78.62-1.26,1.5-1.37,2.49l-1.41,12.65c-.23,2.04,1.25,3.88,3.28,4.11l9.22,1.03.17,1.13c.59,4.05,1.75,8.01,3.44,11.76l.47,1.05-7.29,5.82c-.78.62-1.26,1.5-1.37,2.49s.17,1.96.79,2.73l7.95,9.95c1.28,1.6,3.62,1.86,5.23.58l7.33-5.86Z"/>
  <path class="cls-129" d="M45.15,124.12c-1.09-1.21-1-3.09.21-4.18h0c1.21-1.09,3.09-1.01,4.18.21h0c1.09,1.21,1.01,3.08-.21,4.18h0c-.56.51-1.27.76-1.98.76h0c-.81,0-1.61-.33-2.2-.97ZM57.58,112.85c-1.09-1.21-1.01-3.08.21-4.18h0c1.21-1.1,3.08-1.01,4.18.21h0c1.09,1.21,1.01,3.09-.21,4.18h0c-.57.51-1.28.77-1.98.77h0c-.81,0-1.62-.34-2.2-.98ZM70.01,101.59c-1.09-1.21-1.01-3.09.21-4.18h0c1.2-1.1,3.08-1.01,4.17.21h0c1.11,1.2,1.01,3.08-.2,4.17h0c-.57.51-1.28.77-1.99.77h0c-.81,0-1.61-.33-2.19-.97ZM82.44,90.33c-1.11-1.21-1.01-3.09.2-4.18h0c1.21-1.09,3.09-1.01,4.18.21h0c1.09,1.21,1.01,3.08-.21,4.18h0c-.56.51-1.27.77-1.98.77h0c-.81,0-1.61-.34-2.19-.98ZM94.86,79.06c-1.09-1.2-1.01-3.08.21-4.17h0c1.21-1.11,3.08-1.01,4.18.21h0c1.09,1.2,1.01,3.08-.21,4.17h0c-.57.51-1.28.77-1.98.77h0c-.81,0-1.62-.33-2.2-.98ZM107.29,67.8c-1.09-1.21-1.01-3.09.21-4.18h0c1.2-1.09,3.08-1.01,4.17.21h0c1.11,1.21,1.01,3.08-.2,4.18h0c-.57.51-1.28.76-1.99.76h0c-.8,0-1.61-.33-2.19-.97Z"/>
  <path class="cls-129" d="M116.62,204.68c-.82-1.41-.34-3.22,1.09-4.04h0c1.41-.82,3.23-.34,4.05,1.09h0c.81,1.41.33,3.22-1.09,4.03h0c-.47.28-.98.4-1.48.4h0c-1.03,0-2.02-.53-2.57-1.49ZM131.15,196.29c-.82-1.41-.34-3.22,1.08-4.04h0c1.41-.82,3.23-.34,4.05,1.08h0c.81,1.42.33,3.23-1.09,4.04h0c-.46.28-.98.4-1.48.4h0c-1.03,0-2.01-.53-2.56-1.49ZM145.67,187.91c-.81-1.41-.33-3.22,1.09-4.04h0c1.42-.82,3.23-.34,4.05,1.08h0c.82,1.42.34,3.24-1.09,4.04h0c-.46.28-.98.4-1.48.4h0c-1.02,0-2.01-.53-2.57-1.49ZM160.2,179.52c-.82-1.41-.34-3.22,1.08-4.04h0c1.42-.82,3.23-.34,4.05,1.08h0c.82,1.42.34,3.24-1.09,4.04h0c-.46.28-.97.4-1.47.4h0c-1.03,0-2.02-.53-2.57-1.49Z"/>
</svg>