<?xml version="1.0" encoding="UTF-8"?>
<svg id="Layer_1" data-name="Layer 1" xmlns="http://www.w3.org/2000/svg" viewBox="0 0 256 256">
  <defs>
    <style>
      .cls-1 {
        fill: #fff;
      }

      .cls-2 {
        fill: #05d690;
      }

      .cls-3 {
        fill: red;
      }

      .cls-4 {
        fill: aqua;
      }

      .cls-5 {
        fill: #1a1a1a;
      }
    </style>
  </defs>
  <g>
    <path class="cls-1" d="M63.84,138.34h0c-32.22,0-58.33,26.12-58.33,58.33h0v58.33h116.66v-58.33h0c0-32.22-26.12-58.33-58.33-58.33Z"/>
    <rect class="cls-5" x="71.14" y="215.19" width="29.17" height="29.17" rx="14.58" ry="14.58" transform="translate(315.5 144.06) rotate(90)"/>
    <rect class="cls-5" x="27.39" y="215.19" width="29.17" height="29.17" rx="14.58" ry="14.58" transform="translate(271.75 187.81) rotate(90)"/>
    <rect class="cls-2" x="81.16" y="225.22" width="9.11" height="9.11" rx="4.56" ry="4.56"/>
    <rect class="cls-3" x="37.41" y="225.22" width="9.11" height="9.11" rx="4.56" ry="4.56" transform="translate(271.75 187.81) rotate(90)"/>
  </g>
  <g>
    <path class="cls-1" d="M207.44,168.92h0c-23.77,0-43.04,19.27-43.04,43.04h0v43.04h86.08v-43.04h0c0-23.77-19.27-43.04-43.04-43.04Z"/>
    <rect class="cls-5" x="212.82" y="225.63" width="21.52" height="21.52" rx="10.76" ry="10.76" transform="translate(459.97 12.8) rotate(90)"/>
    <rect class="cls-5" x="180.54" y="225.63" width="21.52" height="21.52" rx="10.76" ry="10.76" transform="translate(427.69 45.08) rotate(90)"/>
    <rect class="cls-2" x="220.22" y="233.02" width="6.73" height="6.73" rx="3.36" ry="3.36"/>
    <rect class="cls-3" x="187.94" y="233.02" width="6.73" height="6.73" rx="3.36" ry="3.36" transform="translate(427.69 45.08) rotate(90)"/>
  </g>
  <path class="cls-1" d="M196.09,151.45l-24.03-32.6h-22.06l-36.13,25.9-.49-25.9h-18.72c-10.1,0-18.32-8.22-18.32-18.32V19.32c0-10.1,8.22-18.32,18.32-18.32h110.42c10.1,0,18.32,8.22,18.32,18.32v81.21c0,10.1-8.22,18.32-18.32,18.32h-8.92l-.07,32.6ZM149.06,115.89h24.5l19.6,26.58.05-26.58h11.87c8.47,0,15.36-6.89,15.36-15.36V19.32c0-8.47-6.89-15.36-15.36-15.36h-110.42c-8.47,0-15.36,6.89-15.36,15.36v81.21c0,8.47,6.89,15.36,15.36,15.36h21.62l.44,23.17,32.33-23.17Z"/>
  <path class="cls-4" d="M118.89,73.32v-1.58c0-7.3,4.36-10.91,8.2-13.99,3.08-2.48,5.79-4.74,5.79-8.42,0-4.29-2.41-6.77-6.69-6.77-4.59,0-7.45,3.31-7.45,8.57h-12.11c0-11.51,8.12-19.4,19.86-19.4s18.88,6.24,18.88,16.77c0,8.2-5.34,12.03-9.63,14.97-3.46,2.33-6.39,4.59-6.39,8.27v1.58h-10.45ZM117.54,82.65c0-3.76,3.08-6.84,6.92-6.84s6.92,3.16,6.92,6.84-3.16,6.77-6.92,6.77-6.92-3.08-6.92-6.77Z"/>
  <path class="cls-3" d="M168.21,73.32v-1.58c0-7.3,4.36-10.91,8.2-13.99,3.08-2.48,5.79-4.74,5.79-8.42,0-4.29-2.41-6.77-6.69-6.77-4.59,0-7.45,3.31-7.45,8.57h-12.11c0-11.51,8.12-19.4,19.86-19.4s18.88,6.24,18.88,16.77c0,8.2-5.34,12.03-9.63,14.97-3.46,2.33-6.39,4.59-6.39,8.27v1.58h-10.45ZM166.86,82.65c0-3.76,3.08-6.84,6.92-6.84s6.92,3.16,6.92,6.84-3.16,6.77-6.92,6.77-6.92-3.08-6.92-6.77Z"/>
</svg>