<?xml version="1.0" encoding="UTF-8"?>
<svg id="Layer_1" data-name="Layer 1" xmlns="http://www.w3.org/2000/svg" viewBox="0 0 256 256">
  <defs>
    <style>
      .cls-1 {
        fill: #fff;
      }

      .cls-2 {
        fill: #05d690;
      }

      .cls-3 {
        fill: red;
      }

      .cls-4 {
        fill: #1a1a1a;
      }
    </style>
  </defs>
  <path class="cls-2" d="M167.16,255c-37.5,0-68-30.5-68-68h2.99c0,35.84,29.16,65.01,65.01,65.01s65.01-29.16,65.01-65.01-29.16-65.01-65.01-65.01v-2.99c37.5,0,68,30.5,68,68s-30.5,68-68,68Z"/>
  <polygon class="cls-2" points="158.45 218.42 140.82 204.49 145.77 198.23 157.13 207.21 190.06 165.52 196.33 170.47 158.45 218.42"/>
  <g>
    <circle class="cls-1" cx="39.87" cy="161.12" r="19.01"/>
    <g>
      <circle class="cls-4" cx="39.87" cy="161.12" r="17.51"/>
      <path class="cls-2" d="M44.63,161.12l6.99,6.99c-1.17,1.95-2.8,3.59-4.75,4.76l-6.99-6.99-6.99,6.99c-1.95-1.17-3.59-2.8-4.75-4.75l6.99-6.99-6.99-6.99c1.17-1.95,2.8-3.59,4.76-4.75l6.99,6.99,6.99-6.99c1.95,1.17,3.59,2.8,4.76,4.76l-6.99,6.99Z"/>
    </g>
  </g>
  <g>
    <circle class="cls-1" cx="84.74" cy="161.12" r="19.01"/>
    <g>
      <circle class="cls-4" cx="84.74" cy="161.12" r="17.51"/>
      <path class="cls-2" d="M89.49,161.12l6.99,6.99c-1.17,1.95-2.8,3.59-4.75,4.76l-6.99-6.99-6.99,6.99c-1.95-1.17-3.59-2.8-4.75-4.75l6.99-6.99-6.99-6.99c1.17-1.95,2.8-3.59,4.76-4.75l6.99,6.99,6.99-6.99c1.95,1.17,3.59,2.8,4.76,4.76l-6.99,6.99Z"/>
    </g>
  </g>
  <g>
    <circle class="cls-1" cx="129.6" cy="161.12" r="19.01"/>
    <g>
      <circle class="cls-4" cx="129.6" cy="161.12" r="17.51"/>
      <path class="cls-2" d="M134.35,161.12l6.99,6.99c-1.17,1.95-2.8,3.59-4.75,4.76l-6.99-6.99-6.99,6.99c-1.95-1.17-3.59-2.8-4.75-4.75l6.99-6.99-6.99-6.99c1.17-1.95,2.8-3.59,4.76-4.75l6.99,6.99,6.99-6.99c1.95,1.17,3.59,2.8,4.76,4.76l-6.99,6.99Z"/>
    </g>
  </g>
  <g>
    <path class="cls-1" d="M84.71,1h0c-35.27,0-63.87,28.6-63.87,63.87h0v63.87h127.74v-63.87h0c0-35.27-28.6-63.87-63.87-63.87Z"/>
    <rect class="cls-4" x="92.69" y="85.15" width="31.93" height="31.93" rx="15.97" ry="15.97" transform="translate(209.78 -7.54) rotate(90)"/>
    <rect class="cls-4" x="44.79" y="85.15" width="31.93" height="31.93" rx="15.97" ry="15.97" transform="translate(161.88 40.36) rotate(90)"/>
    <rect class="cls-2" x="103.67" y="96.13" width="9.98" height="9.98" rx="4.99" ry="4.99"/>
    <rect class="cls-3" x="55.77" y="96.13" width="9.98" height="9.98" rx="4.99" ry="4.99" transform="translate(161.88 40.36) rotate(90)"/>
  </g>
</svg>