<?xml version="1.0" encoding="UTF-8"?>
<svg id="Layer_1" data-name="Layer 1" xmlns="http://www.w3.org/2000/svg" viewBox="0 0 256 256">
  <defs>
    <style>
      .cls-1 {
        fill: #fff;
      }

      .cls-2 {
        fill: #05d690;
      }

      .cls-3 {
        fill: red;
      }

      .cls-4 {
        fill: aqua;
      }

      .cls-5 {
        fill: #1a1a1a;
      }
    </style>
  </defs>
  <g>
    <path class="cls-1" d="M130.98,78.61h0c-29.23,0-52.93,23.7-52.93,52.93h0v52.93h105.86v-52.93h0c0-29.23-23.7-52.93-52.93-52.93Z"/>
    <rect class="cls-5" x="137.6" y="148.35" width="26.47" height="26.47" rx="13.23" ry="13.23" transform="translate(312.42 10.76) rotate(90)"/>
    <rect class="cls-5" x="97.9" y="148.35" width="26.47" height="26.47" rx="13.23" ry="13.23" transform="translate(272.72 50.46) rotate(90)"/>
    <rect class="cls-2" x="146.69" y="157.45" width="8.27" height="8.27" rx="4.14" ry="4.14"/>
    <rect class="cls-3" x="107" y="157.45" width="8.27" height="8.27" rx="4.14" ry="4.14" transform="translate(272.72 50.46) rotate(90)"/>
  </g>
  <rect class="cls-3" x="108.11" y="1" width="16.52" height="16.52" rx="8.26" ry="8.26" transform="translate(109.9 -107.3) rotate(82.27)"/>
  <rect class="cls-2" x="5.78" y="108.74" width="16.52" height="16.52" rx="8.26" ry="8.26" transform="translate(-15.61 2.95) rotate(-7.73)"/>
  <rect class="cls-4" x="233.7" y="77.8" width="16.52" height="16.52" rx="8.26" ry="8.26" transform="translate(294.69 -165.28) rotate(82.27)"/>
  <rect class="cls-3" x="66.83" y="238.48" width="16.52" height="16.52" rx="8.26" ry="8.26" transform="translate(309.49 139.14) rotate(82.27)"/>
  <rect class="cls-2" x="207.9" y="219.33" width="16.52" height="16.52" rx="8.26" ry="8.26" transform="translate(-28.65 31.15) rotate(-7.73)"/>
  <rect class="cls-1" x="42.92" y="124.42" width="2.89" height="115.81" transform="translate(-75.47 37.92) rotate(-26.01)"/>
  <rect class="cls-1" x="88.74" y="237.54" width="112.91" height="2.89" transform="translate(-30.81 21.69) rotate(-7.73)"/>
  <rect class="cls-1" x="172.97" y="156.92" width="117.74" height="2.89" transform="translate(40.09 363.45) rotate(-81.26)"/>
  <rect class="cls-1" x="179.57" y="-6.99" width="2.89" height="114.64" transform="translate(56.19 190.75) rotate(-63.9)"/>
  <rect class="cls-1" x="9.48" y="66.19" width="109.97" height="2.89" transform="translate(-28.95 65.56) rotate(-45.11)"/>
  <rect class="cls-3" x="69.87" y="216.15" width="31.51" height="2.89" transform="translate(-146.91 242.19) rotate(-74.56)"/>
  <rect class="cls-3" x="98.27" y="48.27" width="30.15" height="2.89" transform="translate(44.46 152.54) rotate(-79.87)"/>
  <rect class="cls-3" x="202.66" y="196.26" width="2.89" height="20.41" transform="translate(-72.94 119.68) rotate(-27.94)"/>
  <rect class="cls-3" x="129.66" y="31.78" width="2.89" height="33.88" transform="translate(-7.07 70.43) rotate(-29.31)"/>
  <rect class="cls-2" x="194.43" y="93.15" width="33.56" height="2.89" transform="translate(-11.99 33.43) rotate(-8.8)"/>
  <rect class="cls-2" x="27.11" y="114.62" width="36.18" height="2.89" transform="translate(-13.79 6.37) rotate(-6.99)"/>
  <rect class="cls-4" x="81.44" y="219.38" width="46.08" height="2.89" transform="translate(-124.19 134.86) rotate(-44.08)"/>
  <rect class="cls-4" x="195.66" y="113.88" width="38.95" height="2.89" transform="translate(-19.57 182.36) rotate(-44.13)"/>
  <rect class="cls-2" x="184.08" y="196" width="2.89" height="34.65" transform="translate(-90.23 275.66) rotate(-61.72)"/>
  <rect class="cls-2" x="44.57" y="119.29" width="2.89" height="40.66" transform="translate(-97.02 105.68) rotate(-58.41)"/>
</svg>