<?xml version="1.0" encoding="UTF-8"?>
<svg id="Layer_1" data-name="Layer 1" xmlns="http://www.w3.org/2000/svg" viewBox="0 0 256 256">
  <defs>
    <style>
      .cls-1 {
        fill: #fff;
      }

      .cls-2 {
        fill: #05d690;
      }

      .cls-3 {
        fill: red;
      }

      .cls-4 {
        fill: #1a1a1a;
      }
    </style>
  </defs>
  <path class="cls-3" d="M110.33,190.59H32.8c-7.01,0-12.72-5.71-12.72-12.72V13.22c0-7.02,5.71-12.72,12.72-12.72h126.88c7.01,0,12.72,5.71,12.72,12.72v76.12h-2.96V13.22c0-5.38-4.38-9.76-9.76-9.76H32.8c-5.38,0-9.76,4.38-9.76,9.76v164.65c0,5.38,4.38,9.76,9.76,9.76h77.53v2.96Z"/>
  <rect class="cls-2" x="48.67" y="35.18" width="95.88" height="2.96"/>
  <rect class="cls-2" x="48.67" y="91.83" width="76.15" height="2.96"/>
  <rect class="cls-2" x="48.67" y="63.5" width="95.88" height="2.96"/>
  <rect class="cls-2" x="48.67" y="120.15" width="56.58" height="2.96"/>
  <rect class="cls-2" x="48.67" y="148.48" width="46.89" height="2.96"/>
  <path class="cls-1" d="M218.02,255.5l-42.07-30.42-42.07,30.42v-85.56h84.15v85.56ZM136.83,172.9v76.81l39.11-28.28,39.11,28.28v-76.81h-78.23Z"/>
  <g>
    <circle class="cls-1" cx="176.4" cy="157.65" r="59.52"/>
    <g>
      <path class="cls-4" d="M176.4,125.51h0c-16.44,0-29.76,13.33-29.76,29.76h0v29.76h59.52v-29.76h0c0-16.44-13.33-29.76-29.76-29.76Z"/>
      <rect class="cls-1" x="180.12" y="164.72" width="14.88" height="14.88" rx="7.44" ry="7.44" transform="translate(359.72 -15.39) rotate(90)"/>
      <rect class="cls-1" x="157.8" y="164.72" width="14.88" height="14.88" rx="7.44" ry="7.44" transform="translate(337.4 6.93) rotate(90)"/>
      <rect class="cls-2" x="185.23" y="169.84" width="4.65" height="4.65" rx="2.33" ry="2.33"/>
      <rect class="cls-3" x="162.91" y="169.84" width="4.65" height="4.65" rx="2.33" ry="2.33" transform="translate(337.4 6.93) rotate(90)"/>
    </g>
  </g>
</svg>