<?xml version="1.0" encoding="UTF-8"?>
<svg id="Layer_1" data-name="Layer 1" xmlns="http://www.w3.org/2000/svg" viewBox="0 0 256 256">
  <defs>
    <style>
      .cls-1 {
        fill: #fff;
      }

      .cls-2 {
        fill: #05d690;
      }

      .cls-3 {
        fill: red;
      }

      .cls-4 {
        fill: aqua;
      }

      .cls-5 {
        fill: #1a1a1a;
      }
    </style>
  </defs>
  <g>
    <path class="cls-1" d="M38.92,173.17h0c-20.89,0-37.83,16.94-37.83,37.83h0v37.83h75.66v-37.83h0c0-20.89-16.94-37.83-37.83-37.83Z"/>
    <rect class="cls-5" x="43.64" y="223.01" width="18.92" height="18.92" rx="9.46" ry="9.46" transform="translate(285.57 179.37) rotate(90)"/>
    <rect class="cls-5" x="15.27" y="223.01" width="18.92" height="18.92" rx="9.46" ry="9.46" transform="translate(257.2 207.74) rotate(90)"/>
    <rect class="cls-2" x="50.15" y="229.52" width="5.91" height="5.91" rx="2.96" ry="2.96"/>
    <rect class="cls-3" x="21.77" y="229.52" width="5.91" height="5.91" rx="2.96" ry="2.96" transform="translate(257.2 207.74) rotate(90)"/>
  </g>
  <circle class="cls-3" cx="229.92" cy="27" r="25"/>
  <circle class="cls-4" cx="229.92" cy="229" r="25"/>
  <g>
    <rect class="cls-1" x="44.85" y="111.2" width="178.47" height="3" transform="translate(-40.47 127.16) rotate(-44.78)"/>
    <polygon class="cls-1" points="199.02 65.55 196.02 65.44 196.62 50.66 181.83 51.14 181.74 48.14 199.75 47.55 199.02 65.55"/>
  </g>
  <g>
    <rect class="cls-1" x="170.16" y="123.43" width="120.19" height="3" transform="translate(104.02 354.46) rotate(-89.67)"/>
    <polygon class="cls-1" points="217.7 175.01 219.91 172.98 229.91 183.87 240.05 173.09 242.23 175.15 229.89 188.27 217.7 175.01"/>
  </g>
  <g>
    <rect class="cls-1" x="140.37" y="184.47" width="3" height="90.19" transform="translate(-88.76 369.7) rotate(-89.57)"/>
    <polygon class="cls-1" points="106.81 217.03 108.84 219.24 97.93 229.23 108.69 239.38 106.62 241.56 93.52 229.2 106.81 217.03"/>
  </g>
</svg>