<?xml version="1.0" encoding="UTF-8"?>
<svg id="Layer_1" data-name="Layer 1" xmlns="http://www.w3.org/2000/svg" viewBox="0 0 256 256">
  <defs>
    <style>
      .cls-1 {
        fill: #fff;
      }

      .cls-2 {
        fill: #05d690;
      }

      .cls-3 {
        fill: red;
      }

      .cls-4 {
        fill: #1a1a1a;
      }
    </style>
  </defs>
  <circle class="cls-2" cx="90.16" cy="128" r="59.66" transform="translate(-19.34 16.1) rotate(-9.22)"/>
  <g>
    <rect class="cls-3" x="177.89" y="126.75" width="25.68" height="2.98"/>
    <polygon class="cls-3" points="193.68 140.44 191.65 138.26 202.42 128.24 191.65 118.23 193.68 116.04 206.8 128.24 193.68 140.44"/>
  </g>
  <g>
    <path class="cls-1" d="M231.66,105.1h0c-12.89,0-23.34,10.45-23.34,23.34h0c0,12.89,10.45,23.34,23.34,23.34h0c12.89,0,23.34-10.45,23.34-23.34h0c0-12.89-10.45-23.34-23.34-23.34Z"/>
    <g>
      <rect class="cls-4" x="225.84" y="122.61" width="11.66" height="11.66" rx="5.83" ry="5.83" transform="translate(360.1 -103.23) rotate(90)"/>
      <rect class="cls-3" x="229.84" y="126.62" width="3.64" height="3.64" rx="1.82" ry="1.82" transform="translate(360.1 -103.23) rotate(90)"/>
    </g>
  </g>
  <g>
    <g>
      <path class="cls-1" d="M152.49,191.84l-2.09-2.13c23.73-23.19,32.08-58.43,21.28-89.78-11.25-32.66-40.77-55.4-75.21-57.93l.22-2.98c35.64,2.63,66.18,26.15,77.82,59.94,11.17,32.44,2.53,68.9-22.02,92.89Z"/>
      <polygon class="cls-1" points="149.42 175.08 152.41 175.13 152.13 189.84 166.82 189.03 166.98 192.02 149.09 192.99 149.42 175.08"/>
    </g>
    <g>
      <path class="cls-1" d="M83.63,216.98c-35.64-2.63-66.18-26.15-77.82-59.94-11.17-32.44-2.53-68.9,22.02-92.89l2.09,2.13C6.19,89.48-2.16,124.72,8.64,156.07c11.25,32.66,40.77,55.4,75.21,57.93l-.22,2.98Z"/>
      <polygon class="cls-1" points="30.91 80.92 27.92 80.87 28.19 66.16 13.5 66.97 13.34 63.98 31.23 63.01 30.91 80.92"/>
    </g>
    <g>
      <path class="cls-1" d="M90.36,217.16c-23.7,0-47.01-9.41-64.03-26.83l2.13-2.08c23.18,23.73,58.43,32.08,89.78,21.28,32.66-11.25,55.4-40.77,57.93-75.22l2.98.22c-2.62,35.64-26.15,66.18-59.94,77.82-9.41,3.24-19.17,4.81-28.85,4.81Z"/>
      <polygon class="cls-1" points="43.09 187.26 43.03 190.24 28.33 189.97 29.13 204.66 26.15 204.82 25.17 186.93 43.09 187.26"/>
    </g>
    <g>
      <path class="cls-1" d="M4.15,121.69l-2.98-.22C3.8,85.83,27.33,55.29,61.12,43.65c32.44-11.17,68.9-2.53,92.89,22.02l-2.13,2.08c-23.18-23.73-58.42-32.08-89.78-21.28C29.43,57.72,6.69,87.24,4.15,121.69Z"/>
      <polygon class="cls-1" points="137.24 68.74 137.29 65.76 152 66.03 151.2 51.34 154.18 51.18 155.15 69.07 137.24 68.74"/>
    </g>
    <g>
      <path class="cls-1" d="M4.15,121.69l-2.98-.22C3.8,85.83,27.33,55.29,61.12,43.65c32.44-11.17,68.9-2.53,92.89,22.02l-2.13,2.08c-23.18-23.73-58.42-32.08-89.78-21.28C29.43,57.72,6.69,87.24,4.15,121.69Z"/>
      <polygon class="cls-1" points="137.24 68.74 137.29 65.76 152 66.03 151.2 51.34 154.18 51.18 155.15 69.07 137.24 68.74"/>
    </g>
    <g>
      <path class="cls-1" d="M152.49,191.84l-2.09-2.13c23.73-23.19,32.08-58.43,21.28-89.78-11.25-32.66-40.77-55.4-75.21-57.93l.22-2.98c35.64,2.63,66.18,26.15,77.82,59.94,11.17,32.44,2.53,68.9-22.02,92.89Z"/>
      <polygon class="cls-1" points="149.42 175.08 152.41 175.13 152.13 189.84 166.82 189.03 166.98 192.02 149.09 192.99 149.42 175.08"/>
    </g>
    <g>
      <path class="cls-1" d="M83.63,216.98c-35.64-2.63-66.18-26.15-77.82-59.94-11.17-32.44-2.53-68.9,22.02-92.89l2.09,2.13C6.19,89.48-2.16,124.72,8.64,156.07c11.25,32.66,40.77,55.4,75.21,57.93l-.22,2.98Z"/>
      <polygon class="cls-1" points="30.91 80.92 27.92 80.87 28.19 66.16 13.5 66.97 13.34 63.98 31.23 63.01 30.91 80.92"/>
    </g>
    <g>
      <path class="cls-1" d="M90.36,217.16c-23.7,0-47.01-9.41-64.03-26.83l2.13-2.08c23.18,23.73,58.43,32.08,89.78,21.28,32.66-11.25,55.4-40.77,57.93-75.22l2.98.22c-2.62,35.64-26.15,66.18-59.94,77.82-9.41,3.24-19.17,4.81-28.85,4.81Z"/>
      <polygon class="cls-1" points="43.09 187.26 43.03 190.24 28.33 189.97 29.13 204.66 26.15 204.82 25.17 186.93 43.09 187.26"/>
    </g>
    <g>
      <path class="cls-1" d="M4.15,121.69l-2.98-.22C3.8,85.83,27.33,55.29,61.12,43.65c32.44-11.17,68.9-2.53,92.89,22.02l-2.13,2.08c-23.18-23.73-58.42-32.08-89.78-21.28C29.43,57.72,6.69,87.24,4.15,121.69Z"/>
      <polygon class="cls-1" points="137.24 68.74 137.29 65.76 152 66.03 151.2 51.34 154.18 51.18 155.15 69.07 137.24 68.74"/>
    </g>
    <g>
      <path class="cls-1" d="M4.15,121.69l-2.98-.22C3.8,85.83,27.33,55.29,61.12,43.65c32.44-11.17,68.9-2.53,92.89,22.02l-2.13,2.08c-23.18-23.73-58.42-32.08-89.78-21.28C29.43,57.72,6.69,87.24,4.15,121.69Z"/>
      <polygon class="cls-1" points="137.24 68.74 137.29 65.76 152 66.03 151.2 51.34 154.18 51.18 155.15 69.07 137.24 68.74"/>
    </g>
  </g>
</svg>