<?xml version="1.0" encoding="UTF-8"?>
<svg id="Layer_1" data-name="Layer 1" xmlns="http://www.w3.org/2000/svg" viewBox="0 0 256 256">
  <defs>
    <style>
      .cls-1 {
        fill: #fff;
      }

      .cls-2 {
        fill: #05d690;
      }

      .cls-3 {
        fill: red;
      }

      .cls-4 {
        fill: #1a1a1a;
      }
    </style>
  </defs>
  <g>
    <path class="cls-1" d="M32.14,11.91h0C14.94,11.91,1,25.85,1,43.05h0v31.14h62.29v-31.14h0c0-17.2-13.94-31.14-31.14-31.14Z"/>
    <rect class="cls-4" x="36.04" y="52.95" width="15.57" height="15.57" rx="7.79" ry="7.79" transform="translate(104.55 16.91) rotate(90)"/>
    <rect class="cls-4" x="12.68" y="52.95" width="15.57" height="15.57" rx="7.79" ry="7.79" transform="translate(81.2 40.27) rotate(90)"/>
    <rect class="cls-2" x="41.39" y="58.3" width="4.87" height="4.87" rx="2.43" ry="2.43"/>
    <rect class="cls-3" x="18.03" y="58.3" width="4.87" height="4.87" rx="2.43" ry="2.43" transform="translate(81.2 40.27) rotate(90)"/>
  </g>
  <g>
    <path class="cls-1" d="M57.62,157.25H1v-31.14c0-17.2,13.94-31.14,31.14-31.14,6.9,0,13.28,2.25,18.45,6.06-4.34,18.77-2,38.78,7.03,56.22Z"/>
    <rect class="cls-4" x="36.04" y="135.99" width="15.57" height="15.57" rx="7.79" ry="7.79" transform="translate(187.6 99.96) rotate(90)"/>
    <rect class="cls-4" x="12.68" y="135.99" width="15.57" height="15.57" rx="7.79" ry="7.79" transform="translate(164.24 123.32) rotate(90)"/>
    <rect class="cls-2" x="41.39" y="141.35" width="4.87" height="4.87" rx="2.43" ry="2.43"/>
    <rect class="cls-3" x="18.03" y="141.35" width="4.87" height="4.87" rx="2.43" ry="2.43" transform="translate(164.24 123.32) rotate(90)"/>
  </g>
  <g>
    <path class="cls-1" d="M32.14,178.01h0c-17.2,0-31.14,13.94-31.14,31.14h0v31.14h62.29v-31.14h0c0-17.2-13.94-31.14-31.14-31.14Z"/>
    <rect class="cls-4" x="36.04" y="219.04" width="15.57" height="15.57" rx="7.79" ry="7.79" transform="translate(270.65 183.01) rotate(90)"/>
    <rect class="cls-4" x="12.68" y="219.04" width="15.57" height="15.57" rx="7.79" ry="7.79" transform="translate(247.29 206.36) rotate(90)"/>
    <rect class="cls-2" x="41.39" y="224.4" width="4.87" height="4.87" rx="2.43" ry="2.43"/>
    <rect class="cls-3" x="18.03" y="224.4" width="4.87" height="4.87" rx="2.43" ry="2.43" transform="translate(247.29 206.36) rotate(90)"/>
  </g>
  <g>
    <path class="cls-3" d="M130.49,195.28c-20.22,0-39.23-7.87-53.53-22.17-14.3-14.3-22.17-33.31-22.17-53.53s7.88-39.23,22.17-53.53c14.3-14.3,33.31-22.17,53.53-22.17s39.23,7.88,53.53,22.17h0s0,0,0,0c14.3,14.3,22.17,33.31,22.17,53.53s-7.88,39.23-22.17,53.53c-14.3,14.3-33.31,22.17-53.53,22.17ZM130.49,46.85c-19.42,0-37.69,7.56-51.42,21.3-13.74,13.74-21.3,32-21.3,51.42s7.56,37.69,21.3,51.42c13.74,13.74,32,21.3,51.42,21.3s37.69-7.56,51.42-21.3c13.74-13.74,21.3-32,21.3-51.42s-7.56-37.69-21.3-51.42h0c-13.74-13.74-32-21.3-51.42-21.3Z"/>
    <path class="cls-3" d="M241.92,244.09c-3.35,0-6.7-1.28-9.25-3.83l-59.69-59.69,2.11-2.11,59.69,59.69c3.94,3.94,10.35,3.94,14.29,0,3.94-3.94,3.94-10.35,0-14.29l-59.69-59.69,2.11-2.11,59.69,59.69c5.1,5.1,5.1,13.41,0,18.51-2.55,2.55-5.9,3.83-9.25,3.83Z"/>
  </g>
  <g>
    <path class="cls-1" d="M157.44,126.1v55.35c-23.81,10.36-52.39,6.33-72.5-12.1-.74-.67-1.46-1.36-2.17-2.07-6.24-6.24-11.01-13.39-14.29-21.04-10.59-24.63-5.83-54.28,14.29-74.39,3.18-3.18,6.6-5.98,10.2-8.38.61-.02,1.21-.03,1.82-.03,17.31,0,32.97,7.01,44.3,18.35,11.34,11.33,18.35,26.99,18.35,44.3Z"/>
    <rect class="cls-4" x="102.62" y="146" width="31.33" height="31.33" rx="15.66" ry="15.66" transform="translate(279.95 43.38) rotate(90)"/>
    <path class="cls-4" d="M86.96,161.67c0,2.79-.74,5.43-2.02,7.69-.74-.67-1.46-1.36-2.17-2.07-6.24-6.24-11.01-13.39-14.29-21.04.91-.17,1.85-.26,2.81-.26,4.32,0,8.24,1.75,11.07,4.59,2.83,2.83,4.58,6.75,4.58,11.07Z"/>
    <rect class="cls-2" x="113.39" y="156.77" width="9.79" height="9.79" rx="4.89" ry="4.89"/>
  </g>
</svg>