<?xml version="1.0" encoding="UTF-8"?>
<svg id="Layer_1" data-name="Layer 1" xmlns="http://www.w3.org/2000/svg" viewBox="0 0 256 256">
  <defs>
    <style>
      .cls-1 {
        fill: #fff;
      }

      .cls-2 {
        fill: #05d690;
      }

      .cls-3 {
        fill: red;
      }

      .cls-4 {
        fill: aqua;
      }

      .cls-5 {
        fill: #1a1a1a;
      }
    </style>
  </defs>
  <g>
    <path class="cls-1" d="M128,254.5C58.25,254.5,1.5,197.75,1.5,128S58.25,1.5,128,1.5s126.5,56.75,126.5,126.5-56.75,126.5-126.5,126.5ZM128,4.5C59.9,4.5,4.5,59.9,4.5,128s55.4,123.5,123.5,123.5,123.5-55.4,123.5-123.5S196.1,4.5,128,4.5Z"/>
    <rect class="cls-3" x="30.99" y="207.62" width="20" height="20" rx="10" ry="10" transform="translate(258.62 176.63) rotate(90)"/>
    <rect class="cls-2" x="205.01" y="207.62" width="20" height="20" rx="10" ry="10"/>
    <rect class="cls-4" x="30.99" y="28.38" width="20" height="20" rx="10" ry="10" transform="translate(79.37 -2.62) rotate(90)"/>
    <rect class="cls-1" x="205.01" y="28.38" width="20" height="20" rx="10" ry="10" transform="translate(253.38 -176.63) rotate(90)"/>
  </g>
  <g>
    <path class="cls-1" d="M128,198c-2.76,0-5-2.24-5-5V63c0-2.76,2.24-5,5-5s5,2.24,5,5v130c0,2.76-2.24,5-5,5Z"/>
    <path class="cls-1" d="M78,198c-2.76,0-5-2.24-5-5V63c0-2.76,2.24-5,5-5s5,2.24,5,5v130c0,2.76-2.24,5-5,5Z"/>
    <path class="cls-1" d="M178,198c-2.76,0-5-2.24-5-5V63c0-2.76,2.24-5,5-5s5,2.24,5,5v130c0,2.76-2.24,5-5,5Z"/>
  </g>
  <g>
    <path class="cls-1" d="M128,90.14h0c-9.51,0-17.22,7.71-17.22,17.22h0v17.22h34.43v-17.22h0c0-9.51-7.71-17.22-17.22-17.22Z"/>
    <rect class="cls-5" x="130.15" y="112.83" width="8.61" height="8.61" rx="4.3" ry="4.3" transform="translate(251.59 -17.32) rotate(90)"/>
    <rect class="cls-5" x="117.24" y="112.83" width="8.61" height="8.61" rx="4.3" ry="4.3" transform="translate(238.68 -4.41) rotate(90)"/>
    <rect class="cls-2" x="133.11" y="115.79" width="2.69" height="2.69" rx="1.35" ry="1.35"/>
    <rect class="cls-3" x="120.2" y="115.79" width="2.69" height="2.69" rx="1.35" ry="1.35" transform="translate(238.68 -4.41) rotate(90)"/>
  </g>
  <g>
    <path class="cls-1" d="M78,130.14h0c-9.51,0-17.22,7.71-17.22,17.22h0v17.22h34.43v-17.22h0c0-9.51-7.71-17.22-17.22-17.22Z"/>
    <rect class="cls-5" x="80.15" y="152.83" width="8.61" height="8.61" rx="4.3" ry="4.3" transform="translate(241.59 72.68) rotate(90)"/>
    <rect class="cls-5" x="67.24" y="152.83" width="8.61" height="8.61" rx="4.3" ry="4.3" transform="translate(228.68 85.59) rotate(90)"/>
    <rect class="cls-2" x="83.11" y="155.79" width="2.69" height="2.69" rx="1.35" ry="1.35"/>
    <rect class="cls-3" x="70.2" y="155.79" width="2.69" height="2.69" rx="1.35" ry="1.35" transform="translate(228.68 85.59) rotate(90)"/>
  </g>
  <g>
    <path class="cls-1" d="M178,110.14h0c-9.51,0-17.22,7.71-17.22,17.22h0v17.22h34.43v-17.22h0c0-9.51-7.71-17.22-17.22-17.22Z"/>
    <rect class="cls-5" x="180.15" y="132.83" width="8.61" height="8.61" rx="4.3" ry="4.3" transform="translate(321.59 -47.32) rotate(90)"/>
    <rect class="cls-5" x="167.24" y="132.83" width="8.61" height="8.61" rx="4.3" ry="4.3" transform="translate(308.68 -34.41) rotate(90)"/>
    <rect class="cls-2" x="183.11" y="135.79" width="2.69" height="2.69" rx="1.35" ry="1.35"/>
    <rect class="cls-3" x="170.2" y="135.79" width="2.69" height="2.69" rx="1.35" ry="1.35" transform="translate(308.68 -34.41) rotate(90)"/>
  </g>
</svg>