<?xml version="1.0" encoding="UTF-8"?>
<svg id="Layer_1" data-name="Layer 1" xmlns="http://www.w3.org/2000/svg" viewBox="0 0 256 256">
  <defs>
    <style>
      .cls-1 {
        fill: #fff;
      }

      .cls-2 {
        fill: #05d690;
      }

      .cls-3 {
        fill: red;
      }

      .cls-4 {
        stroke: red;
      }

      .cls-4, .cls-5 {
        fill: none;
        stroke-miterlimit: 10;
        stroke-width: 3px;
      }

      .cls-5 {
        stroke: #05d690;
      }
    </style>
  </defs>
  <path class="cls-1" d="M99.09,58.7c8.95-3.7,18.76-5.75,29.05-5.75,38.91,0,70.97,29.22,75.23,66.82-41.83-8.44-76.38-28.66-104.28-61.07ZM203.36,136.86c-41.83,8.44-76.38,28.66-104.28,61.07,8.95,3.7,18.76,5.75,29.05,5.75,38.91,0,70.97-29.22,75.23-66.82ZM67.98,82.55c-8.64,11.23-14.18,24.95-15.34,39.89,30.7,0,61.2,0,91.69,0-27.7-8.65-54.21-19.67-76.36-39.89ZM52.64,134.12c1.14,14.96,6.68,28.69,15.31,39.93,22.02-20.12,48.35-31.21,75.99-39.93-30.4,0-60.79,0-91.3,0ZM139.46,148.38c-23.41,7.19-45.48,16.79-63.91,34.15,3.98,3.83,8.38,7.22,13.13,10.11,14.46-17.67,31.61-32.1,50.78-44.27ZM88.62,64.02c-4.65,2.84-8.98,6.16-12.89,9.91,18.7,17.64,41.23,27.24,64.93,34.71-19.61-12.01-37.13-26.46-52.03-44.61Z"/>
  <g>
    <g>
      <line class="cls-4" x1="1" y1="128" x2="31.46" y2="128"/>
      <polygon class="cls-3" points="21.52 140.27 19.47 138.07 30.31 128 19.47 117.93 21.52 115.73 34.71 128 21.52 140.27"/>
    </g>
    <g>
      <line class="cls-4" x1="255" y1="128" x2="224.54" y2="128"/>
      <polygon class="cls-3" points="234.48 115.73 236.53 117.93 225.69 128 236.53 138.07 234.48 140.27 221.29 128 234.48 115.73"/>
    </g>
  </g>
  <g>
    <g>
      <line class="cls-4" x1="128" y1="255" x2="128" y2="224.54"/>
      <polygon class="cls-3" points="140.27 234.48 138.07 236.53 128 225.69 117.93 236.53 115.73 234.48 128 221.29 140.27 234.48"/>
    </g>
    <g>
      <line class="cls-4" x1="128" y1="1" x2="128" y2="31.46"/>
      <polygon class="cls-3" points="115.73 21.52 117.93 19.47 128 30.31 138.07 19.47 140.27 21.52 128 34.71 115.73 21.52"/>
    </g>
  </g>
  <g>
    <g>
      <line class="cls-4" x1="38.2" y1="217.8" x2="59.73" y2="196.27"/>
      <polygon class="cls-3" points="61.38 211.97 58.38 211.86 58.92 197.08 44.14 197.62 44.03 194.62 62.04 193.97 61.38 211.97"/>
    </g>
    <g>
      <line class="cls-4" x1="217.8" y1="38.2" x2="196.27" y2="59.73"/>
      <polygon class="cls-3" points="194.62 44.03 197.62 44.14 197.08 58.92 211.86 58.38 211.97 61.38 193.96 62.03 194.62 44.03"/>
    </g>
  </g>
  <g>
    <g>
      <line class="cls-4" x1="217.8" y1="217.8" x2="196.27" y2="196.27"/>
      <polygon class="cls-3" points="211.97 194.62 211.86 197.62 197.08 197.08 197.62 211.86 194.62 211.97 193.97 193.96 211.97 194.62"/>
    </g>
    <g>
      <line class="cls-4" x1="38.2" y1="38.2" x2="59.73" y2="59.73"/>
      <polygon class="cls-3" points="44.03 61.38 44.14 58.38 58.92 58.92 58.38 44.14 61.38 44.03 62.03 62.04 44.03 61.38"/>
    </g>
  </g>
  <g>
    <g>
      <line class="cls-5" x1="9.77" y1="174.36" x2="38.12" y2="163.25"/>
      <polygon class="cls-2" points="33.35 178.3 30.64 177 37.05 163.67 23.29 158.25 24.39 155.45 41.15 162.06 33.35 178.3"/>
    </g>
    <g>
      <line class="cls-5" x1="246.23" y1="81.64" x2="217.88" y2="92.75"/>
      <polygon class="cls-2" points="222.65 77.7 225.36 79 218.95 92.33 232.71 97.75 231.61 100.55 214.85 93.94 222.65 77.7"/>
    </g>
  </g>
  <g>
    <g>
      <line class="cls-5" x1="174.36" y1="246.23" x2="163.25" y2="217.88"/>
      <polygon class="cls-2" points="178.3 222.65 177 225.36 163.67 218.95 158.25 232.71 155.45 231.61 162.06 214.85 178.3 222.65"/>
    </g>
    <g>
      <line class="cls-5" x1="81.64" y1="9.77" x2="92.75" y2="38.12"/>
      <polygon class="cls-2" points="77.7 33.35 79 30.64 92.33 37.05 97.75 23.29 100.55 24.39 93.94 41.15 77.7 33.35"/>
    </g>
  </g>
  <g>
    <g>
      <line class="cls-5" x1="77.18" y1="244.39" x2="89.37" y2="216.48"/>
      <polygon class="cls-2" points="96.64 230.5 93.8 231.49 88.91 217.53 75.34 223.43 74.15 220.68 90.67 213.5 96.64 230.5"/>
    </g>
    <g>
      <line class="cls-5" x1="178.82" y1="11.61" x2="166.63" y2="39.52"/>
      <polygon class="cls-2" points="159.36 25.5 162.2 24.51 167.09 38.47 180.66 32.57 181.85 35.32 165.33 42.5 159.36 25.5"/>
    </g>
  </g>
  <g>
    <g>
      <line class="cls-5" x1="244.39" y1="178.82" x2="216.48" y2="166.63"/>
      <polygon class="cls-2" points="230.5 159.36 231.49 162.2 217.53 167.09 223.43 180.66 220.68 181.85 213.5 165.33 230.5 159.36"/>
    </g>
    <g>
      <line class="cls-5" x1="11.61" y1="77.18" x2="39.52" y2="89.37"/>
      <polygon class="cls-2" points="25.5 96.64 24.51 93.8 38.47 88.91 32.57 75.34 35.32 74.15 42.5 90.67 25.5 96.64"/>
    </g>
  </g>
</svg>