<?xml version="1.0" encoding="UTF-8"?>
<svg id="Layer_1" data-name="Layer 1" xmlns="http://www.w3.org/2000/svg" viewBox="0 0 256 256">
  <defs>
    <style>
      .cls-1 {
        fill: #fff;
      }

      .cls-2 {
        fill: #05d690;
      }

      .cls-3 {
        fill: red;
      }

      .cls-4 {
        fill: #1a1a1a;
      }
    </style>
  </defs>
  <path class="cls-1" d="M211.85,244.23H28.52c-13.69,0-24.83-11.14-24.83-24.83V61.39h208.17c13.69,0,24.83,11.14,24.83,24.83v133.17c0,13.69-11.14,24.83-24.83,24.83ZM6.69,64.39v155.01c0,12.04,9.79,21.83,21.83,21.83h183.33c12.04,0,21.83-9.79,21.83-21.83V86.22c0-12.04-9.79-21.83-21.83-21.83H6.69Z"/>
  <path class="cls-1" d="M5.73,64.62l-1.09-2.79L128.25,13.54c7.91-3.09,16.82-2.07,23.83,2.71,7.01,4.79,11.2,12.72,11.2,21.21v25.09h-3v-25.09c0-7.61-3.61-14.44-9.89-18.73-6.29-4.29-13.96-5.17-21.05-2.4L5.73,64.62Z"/>
  <g>
    <rect class="cls-1" x="7.02" y="151.53" width="76.86" height="3"/>
    <polygon class="cls-1" points="51.69 135.63 7.02 135.63 7.02 132.63 50.44 132.63 67.25 115.83 69.37 117.95 51.69 135.63"/>
    <polygon class="cls-1" points="67.25 190.24 50.44 173.44 7.02 173.44 7.02 170.44 51.69 170.44 69.37 188.12 67.25 190.24"/>
  </g>
  <g>
    <rect class="cls-2" x="60.31" y="104.48" width="20.59" height="20.59" rx="10.29" ry="10.29" transform="translate(141.2 229.54) rotate(180)"/>
    <rect class="cls-2" x="60.31" y="181" width="20.59" height="20.59" rx="10.29" ry="10.29" transform="translate(141.2 382.59) rotate(180)"/>
  </g>
  <g>
    <circle class="cls-4" cx="148.51" cy="153.65" r="60"/>
    <path class="cls-2" d="M164.8,153.65l23.97,23.97c-3.99,6.69-9.61,12.3-16.3,16.3l-23.97-23.97-23.97,23.97c-6.69-3.99-12.3-9.61-16.3-16.3l23.97-23.97-23.97-23.97c4-6.69,9.61-12.3,16.3-16.3l23.97,23.97,23.97-23.97c6.69,3.99,12.3,9.61,16.3,16.3l-23.97,23.97Z"/>
  </g>
  <g>
    <path class="cls-1" d="M252.31,154.15h0c0-11.05-8.95-20-20-20h-20v40h20c11.05,0,20-8.95,20-20Z"/>
    <rect class="cls-4" x="215.96" y="156.65" width="10" height="10" rx="5" ry="5" transform="translate(441.92 323.29) rotate(-180)"/>
    <rect class="cls-4" x="215.96" y="141.65" width="10" height="10" rx="5" ry="5" transform="translate(441.92 293.29) rotate(180)"/>
    <rect class="cls-2" x="219.4" y="160.08" width="3.12" height="3.13" rx="1.56" ry="1.56"/>
    <rect class="cls-3" x="219.4" y="145.08" width="3.13" height="3.12" rx="1.56" ry="1.56" transform="translate(441.92 293.29) rotate(-180)"/>
  </g>
  <path class="cls-1" d="M148.51,220.15c-36.67,0-66.5-29.83-66.5-66.5s29.83-66.5,66.5-66.5,66.5,29.83,66.5,66.5-29.83,66.5-66.5,66.5ZM148.51,90.15c-35.01,0-63.5,28.49-63.5,63.5s28.49,63.5,63.5,63.5,63.5-28.49,63.5-63.5-28.49-63.5-63.5-63.5Z"/>
</svg>