<?xml version="1.0" encoding="UTF-8"?>
<svg id="Layer_1" data-name="Layer 1" xmlns="http://www.w3.org/2000/svg" viewBox="0 0 256 256">
  <defs>
    <style>
      .cls-1 {
        fill: #fff;
      }

      .cls-2 {
        fill: #05d690;
      }

      .cls-3 {
        fill: red;
      }

      .cls-4 {
        fill: #1a1a1a;
      }
    </style>
  </defs>
  <g>
    <path class="cls-2" d="M254.5,177.08h-109.79V45.72h83.35c14.58,0,26.45,11.86,26.45,26.45v104.92ZM147.66,174.13h103.89v-101.97c0-12.95-10.54-23.49-23.49-23.49h-80.39v125.46Z"/>
    <rect class="cls-2" x="170.99" y="143.56" width="56.72" height="2.95"/>
    <rect class="cls-2" x="170.99" y="122.16" width="56.72" height="2.95"/>
    <rect class="cls-2" x="170.99" y="100.76" width="56.72" height="2.95"/>
    <rect class="cls-2" x="170.99" y="79.36" width="56.72" height="2.95"/>
  </g>
  <path class="cls-3" d="M153.16,212.85H19.93c-10.16,0-18.43-8.27-18.43-18.43v-115.21h128.83v2.95H4.45v112.26c0,8.54,6.94,15.48,15.48,15.48h133.23c8.54,0,15.48-6.94,15.48-15.48v-4.42h2.95v4.42c0,10.16-8.27,18.43-18.43,18.43Z"/>
  <path class="cls-3" d="M3.51,82.3l-1.07-2.75,89.83-35.09c5.87-2.29,12.47-1.54,17.68,2.01,5.2,3.55,8.31,9.43,8.31,15.73v18.23h-2.95v-18.23c0-5.4-2.56-10.25-7.02-13.29-4.46-3.05-9.9-3.67-14.94-1.7L3.51,82.3Z"/>
  <g>
    <path class="cls-1" d="M74.35,101.14h0c-23.53,0-42.61,19.08-42.61,42.61h0v42.61h85.22v-42.61h0c0-23.53-19.08-42.61-42.61-42.61Z"/>
    <rect class="cls-4" x="79.67" y="157.28" width="21.3" height="21.3" rx="10.65" ry="10.65" transform="translate(258.25 77.6) rotate(90)"/>
    <rect class="cls-4" x="47.72" y="157.28" width="21.3" height="21.3" rx="10.65" ry="10.65" transform="translate(226.3 109.56) rotate(90)"/>
    <rect class="cls-2" x="87" y="164.6" width="6.66" height="6.66" rx="3.33" ry="3.33"/>
    <rect class="cls-3" x="55.04" y="164.6" width="6.66" height="6.66" rx="3.33" ry="3.33" transform="translate(226.3 109.56) rotate(90)"/>
  </g>
</svg>