<?xml version="1.0" encoding="UTF-8"?>
<svg id="Layer_1" data-name="Layer 1" xmlns="http://www.w3.org/2000/svg" viewBox="0 0 256 256">
  <defs>
    <style>
      .cls-1 {
        fill: #fff;
      }

      .cls-2 {
        fill: #05d690;
      }

      .cls-3 {
        fill: red;
      }

      .cls-4 {
        fill: #1a1a1a;
      }
    </style>
  </defs>
  <g>
    <path class="cls-1" d="M54.98,1.6h0C27.36,1.6,4.98,23.98,4.98,51.6h0v50h100v-50h0C104.98,23.98,82.59,1.6,54.98,1.6Z"/>
    <rect class="cls-4" x="61.23" y="67.48" width="25" height="25" rx="12.5" ry="12.5" transform="translate(153.7 6.25) rotate(90)"/>
    <rect class="cls-4" x="23.73" y="67.48" width="25" height="25" rx="12.5" ry="12.5" transform="translate(116.2 43.75) rotate(90)"/>
    <rect class="cls-2" x="69.82" y="76.07" width="7.81" height="7.81" rx="3.91" ry="3.91"/>
    <rect class="cls-3" x="32.32" y="76.07" width="7.81" height="7.81" rx="3.91" ry="3.91" transform="translate(116.2 43.75) rotate(90)"/>
  </g>
  <g>
    <path class="cls-1" d="M228.86,13.71c0,6.14-14.89,11.11-33.25,11.11s-33.25-4.97-33.25-11.11,14.89-11.11,33.25-11.11,33.25,4.97,33.25,11.11Z"/>
    <path class="cls-1" d="M251.02,74.08c0-7.56-13.57-14.07-33.01-16.94l-.5.1c-6.56,1.29-14.01,2.03-21.9,2.03s-15.73-.77-22.41-2.13c-19.45,2.88-33.01,9.38-33.01,16.94,0,10.23,24.81,18.52,55.42,18.52s55.42-8.29,55.42-18.52Z"/>
    <path class="cls-1" d="M239.94,40.75c0-6.54-12.7-12.1-30.31-14.06l-.45.07c-4.19.66-8.77,1.02-13.57,1.02s-9.71-.39-14.03-1.09c-17.61,1.96-30.31,7.51-30.31,14.06,0,8.18,19.85,14.81,44.34,14.81s44.34-6.63,44.34-14.81Z"/>
  </g>
  <path class="cls-1" d="M125.29,252.9c-39.7,0-72-32.3-72-72v-71.5h3v71.5c0,38.05,30.95,69,69,69s69-30.95,69-69v-22.5h3v22.5c0,39.7-32.3,72-72,72Z"/>
  <g>
    <path class="cls-2" d="M122.74,251.42c-.01-1.66,1.33-3.01,2.98-3.02h0c1.66-.01,3.01,1.33,3.02,2.98h0c0,1.66-1.32,3.01-2.98,3.02h-.02c-1.65,0-2.99-1.33-3-2.98ZM108.59,252.5c-1.61-.38-2.62-1.99-2.24-3.6h0c.37-1.62,1.99-2.62,3.6-2.25h0c1.61.38,2.62,1.99,2.24,3.6h0c-.32,1.39-1.55,2.33-2.92,2.33h0c-.22,0-.45-.03-.68-.08ZM139.26,250.09c-.39-1.61.59-3.24,2.2-3.64h0c1.61-.39,3.23.59,3.63,2.2h0c.39,1.61-.59,3.24-2.2,3.63h0c-.24.06-.48.09-.72.09h0c-1.35,0-2.57-.92-2.91-2.28ZM92.36,246.62c-1.49-.74-2.08-2.54-1.34-4.02h0c.74-1.48,2.55-2.08,4.03-1.34h0c1.48.74,2.08,2.55,1.33,4.03h0c-.52,1.05-1.58,1.65-2.68,1.65h0c-.45,0-.91-.1-1.34-.32ZM155.01,244.92c-.76-1.47-.18-3.28,1.29-4.04h0c1.47-.76,3.28-.19,4.04,1.28h0c.76,1.47.19,3.28-1.28,4.05h0c-.44.22-.91.33-1.38.33h0c-1.08,0-2.13-.59-2.67-1.62ZM77.93,237.11c-1.27-1.06-1.43-2.96-.36-4.22h0c1.07-1.27,2.96-1.43,4.23-.36h0c1.26,1.07,1.43,2.96.36,4.22h0c-.6.71-1.44,1.07-2.3,1.07h0c-.68,0-1.37-.23-1.93-.71ZM169.1,236.21c-1.08-1.25-.94-3.14.31-4.23h0c1.26-1.08,3.15-.94,4.23.31h0c1.09,1.25.95,3.15-.3,4.23h0c-.57.49-1.27.73-1.97.73h0c-.84,0-1.67-.35-2.27-1.04ZM66.12,224.52c-.98-1.33-.7-3.21.63-4.19h0c1.34-.99,3.21-.71,4.2.63h0c.98,1.33.7,3.21-.63,4.19h0c-.54.4-1.16.59-1.78.59h0c-.92,0-1.83-.42-2.42-1.22ZM180.8,224.46c-1.34-.96-1.65-2.84-.68-4.18h0c.97-1.35,2.84-1.65,4.19-.68h0c1.34.96,1.65,2.84.68,4.18h0c-.59.82-1.51,1.25-2.44,1.25h0c-.61,0-1.22-.18-1.75-.57ZM57.57,209.53c-.65-1.53.07-3.29,1.59-3.94h0c1.53-.64,3.29.07,3.93,1.6h0c.65,1.52-.06,3.28-1.59,3.93h0c-.38.16-.78.24-1.17.24h0c-1.17,0-2.28-.69-2.76-1.83ZM189.46,210.32c-1.54-.63-2.27-2.38-1.65-3.91h0c.63-1.54,2.38-2.27,3.91-1.65h0c1.54.63,2.27,2.38,1.65,3.91h0c-.48,1.17-1.6,1.87-2.78,1.87h0c-.38,0-.76-.07-1.13-.22ZM52.78,192.94c-.27-1.64.84-3.18,2.47-3.45h0c1.63-.27,3.18.84,3.45,2.47h0c.27,1.64-.84,3.18-2.47,3.45h0c-.17.03-.33.04-.5.04h0c-1.44,0-2.71-1.04-2.95-2.51ZM194.54,194.53c-1.63-.24-2.76-1.78-2.51-3.41h0c.25-1.64,1.78-2.77,3.41-2.52h0c1.64.25,2.77,1.78,2.52,3.42h0c-.23,1.48-1.51,2.55-2.96,2.55h0c-.15,0-.3-.01-.46-.04ZM51.8,175.9c0-1.66,1.34-3,3-3h0c1.65,0,3,1.34,3,3h0c0,1.66-1.35,3-3,3h0c-1.66,0-3-1.34-3-3ZM192.8,175.01c0-1.66,1.34-3,3-3h0c1.65,0,3,1.34,3,3h0c0,1.65-1.35,3-3,3h0c-1.66,0-3-1.35-3-3ZM51.8,159.3c0-1.66,1.34-3,3-3h0c1.65,0,3,1.34,3,3h0c0,1.65-1.35,3-3,3h0c-1.66,0-3-1.35-3-3ZM51.8,142.69c0-1.66,1.34-3,3-3h0c1.65,0,3,1.34,3,3h0c0,1.66-1.35,3-3,3h0c-1.66,0-3-1.34-3-3ZM51.8,126.09c0-1.66,1.34-3,3-3h0c1.65,0,3,1.34,3,3h0c0,1.65-1.35,3-3,3h0c-1.66,0-3-1.35-3-3Z"/>
    <path class="cls-2" d="M54.8,112.4c-.79,0-1.57-.32-2.12-.88-.56-.55-.88-1.33-.88-2.12s.32-1.56.88-2.12c1.11-1.11,3.11-1.12,4.24,0,.56.56.88,1.33.88,2.12s-.32,1.57-.88,2.12c-.56.56-1.33.88-2.12.88Z"/>
  </g>
  <path class="cls-1" d="M195.79,159.9c-20.68,0-37.5-16.82-37.5-37.5v-5c0-7.44,6.06-13.5,13.5-13.5h48c7.44,0,13.5,6.06,13.5,13.5v5c0,20.68-16.82,37.5-37.5,37.5ZM171.79,106.9c-5.79,0-10.5,4.71-10.5,10.5v5c0,19.02,15.48,34.5,34.5,34.5s34.5-15.48,34.5-34.5v-5c0-5.79-4.71-10.5-10.5-10.5h-48Z"/>
  <polygon class="cls-2" points="178.79 145.41 207.8 126.4 198.79 126.4 211.29 113.9 202.29 113.9 184.79 130.4 193.8 130.4 178.79 145.41"/>
  <path class="cls-1" d="M188.06,106.17h-14.04v-10.21l1.43.18c3.57.45,7.41.78,11.41.98l1.21.06v8.99ZM176.56,103.63h8.96v-4.03c-3.1-.18-6.11-.44-8.96-.76v4.8Z"/>
  <path class="cls-1" d="M218.06,106.17h-14.04v-9.03l1.2-.07c4.01-.23,7.85-.58,11.41-1.04l1.44-.19v10.33ZM206.56,103.63h8.96v-4.9c-2.84.34-5.84.61-8.96.81v4.09Z"/>
</svg>