<?xml version="1.0" encoding="UTF-8"?>
<svg id="Layer_2" data-name="Layer 2" xmlns="http://www.w3.org/2000/svg" viewBox="0 0 400 400">
  <defs>
    <style>
      .cls-1 {
        fill: #ed1e79;
      }

      .cls-2 {
        fill: aqua;
      }
    </style>
  </defs>
  <g id="Layer_6" data-name="Layer 6">
    <g>
      <path class="cls-1" d="M200,0L0,200v200h202l98-98v98h100V0h-200ZM185.36,233.36c-9.04,9.04-21.56,14.64-35.36,14.64-26.92,0-48.92-21.28-49.92-48h38.13c-.11.66-.2,1.33-.2,2.02,0,6.63,5.37,12,12,12s12-5.37,12-12c0-.69-.09-1.36-.2-2.02h38.12c-.48,13-5.96,24.76-14.56,33.36ZM285.36,233.36c-9.04,9.04-21.56,14.64-35.36,14.64-26.92,0-48.92-21.28-49.92-48-.08-.64-.08-1.32-.08-2,0-13.8,5.6-26.28,14.64-35.36,9.04-9.04,21.56-14.64,35.36-14.64s26.32,5.6,35.36,14.64c9.04,9.08,14.64,21.56,14.64,35.36,0,.68,0,1.36-.08,2-.48,13-5.96,24.76-14.56,33.36Z"/>
      <rect class="cls-2" x="238.01" y="186.02" width="24" height="24" rx="12" ry="12" transform="translate(500.01 396.04) rotate(-180)"/>
    </g>
  </g>
</svg>