<?xml version="1.0" encoding="UTF-8"?>
<svg id="Layer_2" data-name="Layer 2" xmlns="http://www.w3.org/2000/svg" viewBox="0 0 400 399.98">
  <defs>
    <style>
      .cls-1 {
        fill: #00a99d;
      }

      .cls-2 {
        fill: #05d690;
      }

      .cls-3 {
        fill: red;
      }
    </style>
  </defs>
  <g id="Layer_6" data-name="Layer 6">
    <g>
      <path class="cls-1" d="M200,399.98h-46c13.8,0,26.32-5.6,35.36-14.64,4.48-4.48,8.12-9.8,10.64-15.72v30.36Z"/>
      <path class="cls-1" d="M254,399.98h-54v-30.36c2.56-6.04,4-12.68,4-19.64,0,27.64,22.4,50,50,50Z"/>
      <rect class="cls-3" x="142" y="338" width="24" height="24" rx="12" ry="12"/>
      <rect class="cls-2" x="242" y="338" width="24" height="24" rx="12" ry="12"/>
      <path class="cls-1" d="M400,200C400,89.54,310.46,0,200,0h0C89.55,0,.02,89.53,0,199.98h0v200h154c-27.6,0-50-22.36-50-50,0-13.8,5.6-26.28,14.64-35.36,9.04-9.04,21.56-14.64,35.36-14.64s26.32,5.6,35.36,14.64c4.48,4.48,8.12,9.84,10.64,15.76,2.56,6,4,12.64,4,19.6,0-13.8,5.6-26.28,14.64-35.36,9.04-9.04,21.56-14.64,35.36-14.64s26.32,5.6,35.36,14.64c9.04,9.08,14.64,21.56,14.64,35.36s-5.6,26.32-14.64,35.36c-9.04,9.04-21.56,14.64-35.36,14.64h146v-199.98h0Z"/>
    </g>
  </g>
</svg>