<?xml version="1.0" encoding="UTF-8"?>
<svg id="Layer_2" data-name="Layer 2" xmlns="http://www.w3.org/2000/svg" viewBox="0 0 400 400.02">
  <defs>
    <style>
      .cls-1 {
        fill: #ff0;
      }

      .cls-2 {
        fill: #fbb03b;
      }
    </style>
  </defs>
  <g id="Layer_6" data-name="Layer 6">
    <g>
      <rect class="cls-1" x="238.01" y="190.02" width="24" height="24" rx="12" ry="12" transform="translate(500.01 404.04) rotate(-180)"/>
      <path class="cls-2" d="M200,0H0v200h100.08c.48-13,5.96-24.72,14.56-33.36,9.04-9.04,21.56-14.64,35.36-14.64,26.92,0,48.92,21.32,49.92,48h.08v.02h-.08s0-.01,0-.02h-99.84s0,.01,0,.02H0l200,200v-.02l199.99-199.99V0h-200ZM285.36,237.36c-9.04,9.04-21.56,14.64-35.36,14.64s-26.32-5.6-35.36-14.64c-9.02-9.02-14.61-21.5-14.63-35.26v-.23c0-.64,0-1.27.07-1.87.48-13,5.96-24.72,14.56-33.36,9.04-9.04,21.56-14.64,35.36-14.64,26.92,0,48.92,21.32,49.92,48,.08.64.08,1.32.08,2,0,13.8-5.6,26.32-14.64,35.36Z"/>
    </g>
  </g>
</svg>