<?xml version="1.0" encoding="UTF-8"?>
<svg id="Layer_2" data-name="Layer 2" xmlns="http://www.w3.org/2000/svg" viewBox="0 0 400 399.98">
  <defs>
    <style>
      .cls-1 {
        fill: #05d690;
      }

      .cls-2 {
        fill: #c7b299;
      }

      .cls-3 {
        fill: aqua;
      }
    </style>
  </defs>
  <g id="Layer_6" data-name="Layer 6">
    <g>
      <rect class="cls-1" x="238" y="340" width="24" height="24"/>
      <path class="cls-2" d="M400,200C400,89.54,310.46,0,200,0h0C89.55,0,.02,89.53,0,199.98h0v200h200v-90c0,13.8-5.6,26.32-14.64,35.36-9.04,9.04-21.56,14.64-35.36,14.64-27.6,0-50-22.36-50-50,0-13.8,5.6-26.28,14.64-35.36,9.04-9.04,21.56-14.64,35.36-14.64s26.32,5.6,35.36,14.64c9.04,9.08,14.64,21.56,14.64,35.36v-8h100v98h100v-199.98h0Z"/>
      <rect class="cls-3" x="138" y="298" width="24" height="24" rx="12" ry="12"/>
    </g>
  </g>
</svg>