<?xml version="1.0" encoding="UTF-8"?>
<svg id="Layer_1" data-name="Layer 1" xmlns="http://www.w3.org/2000/svg" viewBox="0 0 920 330">
  <defs>
    <style>
      .cls-1 {
        fill: #fff;
      }

      .cls-2 {
        fill: #05d690;
      }

      .cls-3 {
        fill: red;
      }

      .cls-4 {
        fill: #1a1a1a;
      }
    </style>
  </defs>
  <g>
    <path class="cls-4" d="M380.39,250.02V82.38h27.49v72.55c7.21-12.39,22.08-19.83,38.98-19.83,31.77,0,51.15,24.79,51.15,59.94s-20.96,57.91-52.95,57.91c-16.67,0-30.87-7.44-37.4-20.28l-1.8,17.35h-25.46ZM439.42,227.71c19.38,0,30.87-13.97,30.87-33.8s-11.49-34.02-30.87-34.02-31.32,13.97-31.32,34.02,12.39,33.8,31.32,33.8Z"/>
    <path class="cls-4" d="M506.57,194.36c0-34.93,22.76-59.04,55.43-59.04s54.53,22.31,54.53,57.01v8.34l-83.82.23c2.03,19.6,12.39,29.52,30.64,29.52,15.1,0,25.01-5.86,28.17-16.45h25.46c-4.73,24.34-25.01,38.98-54.08,38.98-33.12,0-56.33-24.11-56.33-58.58ZM533.38,183.32h55.88c0-15.32-10.59-25.46-27.04-25.46s-26.14,8.79-28.84,25.46Z"/>
    <path class="cls-4" d="M625.31,194.36c0-34.93,22.76-59.04,55.43-59.04s54.53,22.31,54.53,57.01v8.34l-83.82.23c2.03,19.6,12.39,29.52,30.64,29.52,15.1,0,25.01-5.86,28.17-16.45h25.46c-4.73,24.34-25.01,38.98-54.08,38.98-33.12,0-56.33-24.11-56.33-58.58ZM652.13,183.32h55.88c0-15.32-10.59-25.46-27.04-25.46s-26.14,8.79-28.84,25.46Z"/>
    <path class="cls-4" d="M759.83,250.02v-88.33h-21.41v-22.98h21.41v-34.7h27.49v34.7h21.63v22.98h-21.63v88.33h-27.49Z"/>
    <path class="cls-4" d="M839.15,216.22c.23,9.69,7.44,15.77,20.05,15.77s19.83-5.18,19.83-13.29c0-5.63-2.93-9.69-12.84-11.94l-20.05-4.73c-20.05-4.51-29.74-13.97-29.74-31.77,0-21.86,18.48-34.93,44.16-34.93s41.91,14.42,42.14,36.05h-26.14c-.23-9.46-6.53-15.55-17.12-15.55s-17.12,4.96-17.12,13.29c0,6.31,4.96,10.37,14.42,12.62l20.05,4.73c18.7,4.28,28.17,12.84,28.17,29.97,0,22.53-19.15,36.5-46.64,36.5s-45.29-14.87-45.29-36.73h26.14Z"/>
  </g>
  <g>
    <circle class="cls-4" cx="153.83" cy="171.81" r="145"/>
    <g>
      <path class="cls-1" d="M153.83,93.51h0c-40.04,0-72.5,32.46-72.5,72.5h0v72.5h145v-72.5h0c0-40.04-32.46-72.5-72.5-72.5Z"/>
      <rect class="cls-4" x="162.9" y="189.04" width="36.25" height="36.25" rx="18.12" ry="18.12" transform="translate(388.19 26.14) rotate(90)"/>
      <rect class="cls-4" x="108.52" y="189.04" width="36.25" height="36.25" rx="18.12" ry="18.12" transform="translate(333.81 80.52) rotate(90)"/>
      <rect class="cls-2" x="175.36" y="201.5" width="11.33" height="11.33" rx="5.66" ry="5.66" transform="translate(388.19 26.14) rotate(90)"/>
      <rect class="cls-3" x="120.98" y="201.5" width="11.33" height="11.33" rx="5.66" ry="5.66" transform="translate(333.81 80.52) rotate(90)"/>
    </g>
  </g>
</svg>