<?xml version="1.0" encoding="UTF-8"?>
<svg id="Layer_2" data-name="Layer 2" xmlns="http://www.w3.org/2000/svg" viewBox="0 0 400 400">
  <defs>
    <style>
      .cls-1 {
        fill: #66fac2;
      }

      .cls-2 {
        fill: #fff;
      }

      .cls-3 {
        fill: red;
      }

      .cls-4 {
        fill: #1a1a1a;
      }
    </style>
  </defs>
  <g id="Layer_6" data-name="Layer 6">
    <g>
      <path class="cls-1" d="M200,0C89.56,0,0,89.56,0,200s89.56,200,200,200,200-89.56,200-200S310.44,0,200,0ZM314.92,306.57c-7.37,7.33-15.46,14.03-24.06,19.84-8.67,5.87-17.97,10.89-27.59,14.98-9.81,4.16-20.1,7.33-30.54,9.46-10.7,2.19-21.71,3.3-32.73,3.3s-22.03-1.11-32.73-3.3c-10.44-2.13-20.7-5.3-30.54-9.46-9.62-4.1-18.92-9.11-27.59-14.98-8.6-5.81-16.7-12.51-24.03-19.84-7.36-7.33-14.03-15.43-19.84-24.03l27.62-18.67c4.63,6.86,9.94,13.27,15.78,19.11,5.84,5.87,12.29,11.17,19.14,15.81,6.89,4.67,14.25,8.67,21.9,11.9,7.81,3.3,15.94,5.81,24.22,7.52,17.05,3.46,35.11,3.46,52.13,0,8.29-1.71,16.41-4.25,24.22-7.52,7.65-3.24,15.02-7.24,21.91-11.9,6.86-4.63,13.3-9.94,19.14-15.78,5.84-5.87,11.17-12.29,15.78-19.14l27.62,18.67c-5.81,8.6-12.48,16.7-19.81,24.03Z"/>
      <g>
        <rect class="cls-4" x="75" y="150" width="100" height="100" rx="50" ry="50"/>
        <rect class="cls-3" x="110" y="185" width="30" height="30" rx="15" ry="15"/>
        <rect class="cls-4" x="225" y="150" width="100" height="100" rx="50" ry="50"/>
        <rect class="cls-2" x="260" y="185" width="30" height="30" rx="15" ry="15"/>
      </g>
    </g>
  </g>
</svg>